{
	"asset":{
		"generator":"Khronos glTF Blender I/O v5.1.20",
		"version":"2.0"
	},
	"scene":0,
	"scenes":[
		{
			"name":"Scene",
			"nodes":[
				0,
				1,
				2,
				3,
				4,
				5,
				6,
				7,
				8,
				9,
				10
			]
		}
	],
	"nodes":[
		{
			"mesh":0,
			"name":"Cube",
			"scale":[
				0.927945613861084,
				0.8999999761581421,
				1.75
			],
			"translation":[
				0,
				1.5002100467681885,
				0
			]
		},
		{
			"mesh":1,
			"name":"Cube.001",
			"scale":[
				0.20000000298023224,
				0.5,
				1.399999976158142
			],
			"translation":[
				-1.137529969215393,
				0.8334828615188599,
				0.2920357584953308
			]
		},
		{
			"mesh":2,
			"name":"Cube.002",
			"scale":[
				0.20000000298023224,
				0.5,
				1.399999976158142
			],
			"translation":[
				1.137529969215393,
				0.8334828615188599,
				0.2920357584953308
			]
		},
		{
			"mesh":3,
			"name":"Cylinder",
			"scale":[
				0.6000000238418579,
				0.30000001192092896,
				0.6000000238418579
			],
			"translation":[
				0,
				2.544619083404541,
				0.7613298892974854
			]
		},
		{
			"mesh":4,
			"name":"Cube.003",
			"rotation":[
				0,
				0.13293296098709106,
				0.9911250472068787,
				2.818138398197334e-07
			],
			"scale":[
				0.7403798699378967,
				0.3402615189552307,
				0.6616196036338806
			],
			"translation":[
				0,
				1.8051825761795044,
				1.157204270362854
			]
		},
		{
			"mesh":5,
			"name":"Cube.004",
			"rotation":[
				0,
				0.13293296098709106,
				0.9911250472068787,
				2.818138398197334e-07
			],
			"scale":[
				0.6419676542282104,
				0.29082605242729187,
				0.5730699896812439
			],
			"translation":[
				0,
				1.8374322652816772,
				1.263832449913025
			]
		},
		{
			"mesh":6,
			"name":"Cylinder.001",
			"rotation":[
				0.7071068286895752,
				0,
				0,
				0.7071068286895752
			],
			"scale":[
				0.11999999731779099,
				1.2000000476837158,
				0.11999999731779099
			],
			"translation":[
				0,
				2.6113829612731934,
				2.312920093536377
			]
		},
		{
			"mesh":7,
			"name":"Cylinder.002",
			"scale":[
				0.5655229091644287,
				0.28276145458221436,
				0.5655229091644287
			],
			"translation":[
				0,
				2.640746831893921,
				0.7613298892974854
			]
		},
		{
			"mesh":8,
			"name":"Cube.005",
			"scale":[
				0.18986377120018005,
				0.4050427973270416,
				1.329046368598938
			],
			"translation":[
				1.196079969406128,
				0.8334828615188599,
				0.2920357584953308
			]
		},
		{
			"mesh":9,
			"name":"Cube.006",
			"scale":[
				0.18986377120018005,
				0.4050427973270416,
				1.329046368598938
			],
			"translation":[
				-1.1960830688476562,
				0.8334828615188599,
				0.2920357584953308
			]
		},
		{
			"mesh":10,
			"name":"Cylinder.003",
			"rotation":[
				0.7071068286895752,
				0,
				0,
				0.7071068286895752
			],
			"scale":[
				0.10536617785692215,
				1.0536619424819946,
				0.10536617785692215
			],
			"translation":[
				0,
				2.6113829612731934,
				2.495051622390747
			]
		}
	],
	"materials":[
		{
			"doubleSided":true,
			"name":"Material",
			"pbrMetallicRoughness":{
				"roughnessFactor":0.5
			}
		},
		{
			"doubleSided":true,
			"name":"Material.007",
			"pbrMetallicRoughness":{
				"baseColorFactor":[
					0.5498417615890503,
					0.8137778043746948,
					1,
					1
				],
				"metallicFactor":0,
				"roughnessFactor":0
			}
		},
		{
			"doubleSided":true,
			"name":"Material.006",
			"pbrMetallicRoughness":{
				"baseColorFactor":[
					0.17529508471488953,
					0.17529508471488953,
					0.17529508471488953,
					1
				],
				"metallicFactor":0,
				"roughnessFactor":0.5
			}
		},
		{
			"doubleSided":true,
			"name":"Material.004",
			"pbrMetallicRoughness":{
				"baseColorFactor":[
					0.052860673516988754,
					0.052860673516988754,
					0.052860673516988754,
					1
				],
				"metallicFactor":0
			}
		},
		{
			"doubleSided":true,
			"name":"Material.008",
			"pbrMetallicRoughness":{
				"baseColorFactor":[
					0,
					0,
					0,
					1
				],
				"roughnessFactor":0.5
			}
		}
	],
	"meshes":[
		{
			"name":"Cube",
			"primitives":[
				{
					"attributes":{
						"POSITION":0,
						"NORMAL":1,
						"TEXCOORD_0":2
					},
					"indices":3,
					"material":0
				}
			]
		},
		{
			"name":"Cube.001",
			"primitives":[
				{
					"attributes":{
						"POSITION":4,
						"NORMAL":5,
						"TEXCOORD_0":6
					},
					"indices":7,
					"material":0
				}
			]
		},
		{
			"name":"Cube.002",
			"primitives":[
				{
					"attributes":{
						"POSITION":8,
						"NORMAL":9,
						"TEXCOORD_0":10
					},
					"indices":7,
					"material":0
				}
			]
		},
		{
			"name":"Cylinder.001",
			"primitives":[
				{
					"attributes":{
						"POSITION":11,
						"NORMAL":12,
						"TEXCOORD_0":13
					},
					"indices":14,
					"material":0
				}
			]
		},
		{
			"name":"Cube.003",
			"primitives":[
				{
					"attributes":{
						"POSITION":15,
						"NORMAL":16,
						"TEXCOORD_0":17
					},
					"indices":3,
					"material":0
				}
			]
		},
		{
			"name":"Cube.004",
			"primitives":[
				{
					"attributes":{
						"POSITION":18,
						"NORMAL":19,
						"TEXCOORD_0":20
					},
					"indices":3,
					"material":1
				}
			]
		},
		{
			"name":"Cylinder.002",
			"primitives":[
				{
					"attributes":{
						"POSITION":21,
						"NORMAL":22,
						"TEXCOORD_0":23
					},
					"indices":14,
					"material":0
				}
			]
		},
		{
			"name":"Cylinder.003",
			"primitives":[
				{
					"attributes":{
						"POSITION":24,
						"NORMAL":25,
						"TEXCOORD_0":26
					},
					"indices":14,
					"material":2
				}
			]
		},
		{
			"name":"Cube.006",
			"primitives":[
				{
					"attributes":{
						"POSITION":27,
						"NORMAL":28,
						"TEXCOORD_0":29
					},
					"indices":7,
					"material":3
				}
			]
		},
		{
			"name":"Cube.007",
			"primitives":[
				{
					"attributes":{
						"POSITION":30,
						"NORMAL":31,
						"TEXCOORD_0":32
					},
					"indices":7,
					"material":3
				}
			]
		},
		{
			"name":"Cylinder.004",
			"primitives":[
				{
					"attributes":{
						"POSITION":33,
						"NORMAL":34,
						"TEXCOORD_0":35
					},
					"indices":14,
					"material":4
				}
			]
		}
	],
	"accessors":[
		{
			"bufferView":0,
			"componentType":5126,
			"count":40,
			"max":[
				1.1644030809402466,
				1,
				1.0635343790054321
			],
			"min":[
				-1.1644030809402466,
				-1,
				-0.6958416700363159
			],
			"type":"VEC3"
		},
		{
			"bufferView":1,
			"componentType":5126,
			"count":40,
			"type":"VEC3"
		},
		{
			"bufferView":2,
			"componentType":5126,
			"count":40,
			"type":"VEC2"
		},
		{
			"bufferView":3,
			"componentType":5123,
			"count":60,
			"type":"SCALAR"
		},
		{
			"bufferView":4,
			"componentType":5126,
			"count":40,
			"max":[
				1.1736047267913818,
				1,
				1.1736048460006714
			],
			"min":[
				-1.1736047267913818,
				-1,
				-1.1736048460006714
			],
			"type":"VEC3"
		},
		{
			"bufferView":5,
			"componentType":5126,
			"count":40,
			"type":"VEC3"
		},
		{
			"bufferView":6,
			"componentType":5126,
			"count":40,
			"type":"VEC2"
		},
		{
			"bufferView":7,
			"componentType":5123,
			"count":60,
			"type":"SCALAR"
		},
		{
			"bufferView":8,
			"componentType":5126,
			"count":40,
			"max":[
				1.1736047267913818,
				1,
				1.1736048460006714
			],
			"min":[
				-1.1736047267913818,
				-1,
				-1.1736048460006714
			],
			"type":"VEC3"
		},
		{
			"bufferView":9,
			"componentType":5126,
			"count":40,
			"type":"VEC3"
		},
		{
			"bufferView":10,
			"componentType":5126,
			"count":40,
			"type":"VEC2"
		},
		{
			"bufferView":11,
			"componentType":5126,
			"count":96,
			"max":[
				1,
				1,
				1
			],
			"min":[
				-1,
				-1,
				-1
			],
			"type":"VEC3"
		},
		{
			"bufferView":12,
			"componentType":5126,
			"count":96,
			"type":"VEC3"
		},
		{
			"bufferView":13,
			"componentType":5126,
			"count":96,
			"type":"VEC2"
		},
		{
			"bufferView":14,
			"componentType":5123,
			"count":180,
			"type":"SCALAR"
		},
		{
			"bufferView":15,
			"componentType":5126,
			"count":40,
			"max":[
				1.1644030809402466,
				1,
				1.0635343790054321
			],
			"min":[
				-1.1644030809402466,
				-1,
				-0.6958416700363159
			],
			"type":"VEC3"
		},
		{
			"bufferView":16,
			"componentType":5126,
			"count":40,
			"type":"VEC3"
		},
		{
			"bufferView":17,
			"componentType":5126,
			"count":40,
			"type":"VEC2"
		},
		{
			"bufferView":18,
			"componentType":5126,
			"count":40,
			"max":[
				1.1644030809402466,
				1,
				1.0635343790054321
			],
			"min":[
				-1.1644030809402466,
				-1,
				-0.6958416700363159
			],
			"type":"VEC3"
		},
		{
			"bufferView":19,
			"componentType":5126,
			"count":40,
			"type":"VEC3"
		},
		{
			"bufferView":20,
			"componentType":5126,
			"count":40,
			"type":"VEC2"
		},
		{
			"bufferView":21,
			"componentType":5126,
			"count":96,
			"max":[
				1,
				1,
				1
			],
			"min":[
				-1,
				-1,
				-1
			],
			"type":"VEC3"
		},
		{
			"bufferView":22,
			"componentType":5126,
			"count":96,
			"type":"VEC3"
		},
		{
			"bufferView":23,
			"componentType":5126,
			"count":96,
			"type":"VEC2"
		},
		{
			"bufferView":24,
			"componentType":5126,
			"count":96,
			"max":[
				1,
				1,
				1
			],
			"min":[
				-1,
				-1,
				-1
			],
			"type":"VEC3"
		},
		{
			"bufferView":25,
			"componentType":5126,
			"count":96,
			"type":"VEC3"
		},
		{
			"bufferView":26,
			"componentType":5126,
			"count":96,
			"type":"VEC2"
		},
		{
			"bufferView":27,
			"componentType":5126,
			"count":40,
			"max":[
				1.1736047267913818,
				1,
				1.1736048460006714
			],
			"min":[
				-1.1736047267913818,
				-1,
				-1.1736048460006714
			],
			"type":"VEC3"
		},
		{
			"bufferView":28,
			"componentType":5126,
			"count":40,
			"type":"VEC3"
		},
		{
			"bufferView":29,
			"componentType":5126,
			"count":40,
			"type":"VEC2"
		},
		{
			"bufferView":30,
			"componentType":5126,
			"count":40,
			"max":[
				1.1736047267913818,
				1,
				1.1736048460006714
			],
			"min":[
				-1.1736047267913818,
				-1,
				-1.1736048460006714
			],
			"type":"VEC3"
		},
		{
			"bufferView":31,
			"componentType":5126,
			"count":40,
			"type":"VEC3"
		},
		{
			"bufferView":32,
			"componentType":5126,
			"count":40,
			"type":"VEC2"
		},
		{
			"bufferView":33,
			"componentType":5126,
			"count":96,
			"max":[
				1,
				1,
				1
			],
			"min":[
				-1,
				-1,
				-1
			],
			"type":"VEC3"
		},
		{
			"bufferView":34,
			"componentType":5126,
			"count":96,
			"type":"VEC3"
		},
		{
			"bufferView":35,
			"componentType":5126,
			"count":96,
			"type":"VEC2"
		}
	],
	"bufferViews":[
		{
			"buffer":0,
			"byteLength":480,
			"byteOffset":0,
			"target":34962
		},
		{
			"buffer":0,
			"byteLength":480,
			"byteOffset":480,
			"target":34962
		},
		{
			"buffer":0,
			"byteLength":320,
			"byteOffset":960,
			"target":34962
		},
		{
			"buffer":0,
			"byteLength":120,
			"byteOffset":1280,
			"target":34963
		},
		{
			"buffer":0,
			"byteLength":480,
			"byteOffset":1400,
			"target":34962
		},
		{
			"buffer":0,
			"byteLength":480,
			"byteOffset":1880,
			"target":34962
		},
		{
			"buffer":0,
			"byteLength":320,
			"byteOffset":2360,
			"target":34962
		},
		{
			"buffer":0,
			"byteLength":120,
			"byteOffset":2680,
			"target":34963
		},
		{
			"buffer":0,
			"byteLength":480,
			"byteOffset":2800,
			"target":34962
		},
		{
			"buffer":0,
			"byteLength":480,
			"byteOffset":3280,
			"target":34962
		},
		{
			"buffer":0,
			"byteLength":320,
			"byteOffset":3760,
			"target":34962
		},
		{
			"buffer":0,
			"byteLength":1152,
			"byteOffset":4080,
			"target":34962
		},
		{
			"buffer":0,
			"byteLength":1152,
			"byteOffset":5232,
			"target":34962
		},
		{
			"buffer":0,
			"byteLength":768,
			"byteOffset":6384,
			"target":34962
		},
		{
			"buffer":0,
			"byteLength":360,
			"byteOffset":7152,
			"target":34963
		},
		{
			"buffer":0,
			"byteLength":480,
			"byteOffset":7512,
			"target":34962
		},
		{
			"buffer":0,
			"byteLength":480,
			"byteOffset":7992,
			"target":34962
		},
		{
			"buffer":0,
			"byteLength":320,
			"byteOffset":8472,
			"target":34962
		},
		{
			"buffer":0,
			"byteLength":480,
			"byteOffset":8792,
			"target":34962
		},
		{
			"buffer":0,
			"byteLength":480,
			"byteOffset":9272,
			"target":34962
		},
		{
			"buffer":0,
			"byteLength":320,
			"byteOffset":9752,
			"target":34962
		},
		{
			"buffer":0,
			"byteLength":1152,
			"byteOffset":10072,
			"target":34962
		},
		{
			"buffer":0,
			"byteLength":1152,
			"byteOffset":11224,
			"target":34962
		},
		{
			"buffer":0,
			"byteLength":768,
			"byteOffset":12376,
			"target":34962
		},
		{
			"buffer":0,
			"byteLength":1152,
			"byteOffset":13144,
			"target":34962
		},
		{
			"buffer":0,
			"byteLength":1152,
			"byteOffset":14296,
			"target":34962
		},
		{
			"buffer":0,
			"byteLength":768,
			"byteOffset":15448,
			"target":34962
		},
		{
			"buffer":0,
			"byteLength":480,
			"byteOffset":16216,
			"target":34962
		},
		{
			"buffer":0,
			"byteLength":480,
			"byteOffset":16696,
			"target":34962
		},
		{
			"buffer":0,
			"byteLength":320,
			"byteOffset":17176,
			"target":34962
		},
		{
			"buffer":0,
			"byteLength":480,
			"byteOffset":17496,
			"target":34962
		},
		{
			"buffer":0,
			"byteLength":480,
			"byteOffset":17976,
			"target":34962
		},
		{
			"buffer":0,
			"byteLength":320,
			"byteOffset":18456,
			"target":34962
		},
		{
			"buffer":0,
			"byteLength":1152,
			"byteOffset":18776,
			"target":34962
		},
		{
			"buffer":0,
			"byteLength":1152,
			"byteOffset":19928,
			"target":34962
		},
		{
			"buffer":0,
			"byteLength":768,
			"byteOffset":21080,
			"target":34962
		}
	],
	"buffers":[
		{
			"byteLength":21848,
			"uri":"tankette.bin"
		}
	]
}
