{
	"asset":{
		"generator":"Khronos glTF Blender I/O v5.1.20",
		"version":"2.0"
	},
	"scene":0,
	"scenes":[
		{
			"name":"Scene",
			"nodes":[
				0,
				1,
				2,
				3,
				4,
				5,
				6,
				7,
				8,
				9,
				10,
				11,
				12,
				13,
				14
			]
		}
	],
	"nodes":[
		{
			"mesh":0,
			"name":"Cube",
			"scale":[
				1,
				1.5,
				1
			],
			"translation":[
				2.258666515350342,
				1.637429118156433,
				-1.1849828958511353
			]
		},
		{
			"mesh":1,
			"name":"Cube.003",
			"rotation":[
				0.2599782645702362,
				-0.009151379577815533,
				0.023110534995794296,
				0.9652945399284363
			],
			"scale":[
				0.15000000596046448,
				0.15000000596046448,
				0.15000000596046448
			],
			"translation":[
				1.0755620002746582,
				1.600482702255249,
				-1.2058331966400146
			]
		},
		{
			"mesh":2,
			"name":"Cube.004",
			"rotation":[
				0.260338693857193,
				-0.006666164379566908,
				-0.02394593134522438,
				0.9651973843574524
			],
			"scale":[
				0.15000000596046448,
				0.15000000596046448,
				0.15000002086162567
			],
			"translation":[
				3.4374213218688965,
				1.600482702255249,
				-1.2058331966400146
			]
		},
		{
			"mesh":3,
			"name":"Cube.001",
			"scale":[
				1.0378819704055786,
				0.41515278816223145,
				1.0378819704055786
			],
			"translation":[
				2.258666515350342,
				3.4438772201538086,
				-1.1849828958511353
			]
		},
		{
			"mesh":4,
			"name":"Cube.002",
			"scale":[
				0.10000000149011612,
				0.10000000149011612,
				1
			],
			"translation":[
				1.0229496955871582,
				1.9199424982070923,
				-1.8498796224594116
			]
		},
		{
			"mesh":5,
			"name":"Cube.005",
			"rotation":[
				0.26030609011650085,
				-0.183901846408844,
				0.024297432973980904,
				0.9475391507148743
			],
			"scale":[
				0.15000000596046448,
				0.15000000596046448,
				0.15000002086162567
			],
			"translation":[
				-1.4222431182861328,
				1.600482702255249,
				-0.6985745429992676
			]
		},
		{
			"mesh":6,
			"name":"Cube.006",
			"rotation":[
				0.2513054609298706,
				-0.186362624168396,
				0.07048649340867996,
				0.9471780061721802
			],
			"scale":[
				0.15000000596046448,
				0.15000000596046448,
				0.15000000596046448
			],
			"translation":[
				-3.6246209144592285,
				1.600482702255249,
				-1.5517516136169434
			]
		},
		{
			"mesh":7,
			"name":"Cube.007",
			"rotation":[
				0,
				-0.18374395370483398,
				0,
				0.9829741716384888
			],
			"scale":[
				0.10000000149011612,
				0.10000000149011612,
				1
			],
			"translation":[
				-3.441030979156494,
				1.9199424982070923,
				-2.1713149547576904
			]
		},
		{
			"mesh":8,
			"name":"Cube.008",
			"rotation":[
				0,
				-0.18374396860599518,
				0,
				0.9829742312431335
			],
			"scale":[
				1.0378819704055786,
				0.41515278816223145,
				1.0378819704055786
			],
			"translation":[
				-2.5289359092712402,
				3.4438772201538086,
				-1.1049351692199707
			]
		},
		{
			"mesh":9,
			"name":"Cube.009",
			"rotation":[
				0,
				-0.18374396860599518,
				0,
				0.9829742312431335
			],
			"scale":[
				1,
				1.5,
				1
			],
			"translation":[
				-2.5289359092712402,
				1.637429118156433,
				-1.1049351692199707
			]
		},
		{
			"mesh":10,
			"name":"Cube.010",
			"rotation":[
				0.212099090218544,
				0.4844743013381958,
				-0.1528516262769699,
				0.8348263502120972
			],
			"scale":[
				0.15000000596046448,
				0.15000000596046448,
				0.15000000596046448
			],
			"translation":[
				0.6061573028564453,
				1.600482702255249,
				1.4355453252792358
			]
		},
		{
			"mesh":11,
			"name":"Cube.011",
			"rotation":[
				0.2356882244348526,
				0.4823828339576721,
				-0.11213316768407822,
				0.8361722826957703
			],
			"scale":[
				0.15000000596046448,
				0.15000000596046448,
				0.15000000596046448
			],
			"translation":[
				-0.5371952056884766,
				1.600482702255249,
				3.5022153854370117
			]
		},
		{
			"mesh":12,
			"name":"Cube.012",
			"rotation":[
				0,
				0.5078926682472229,
				0,
				0.8614203929901123
			],
			"scale":[
				0.10000000149011612,
				0.10000000149011612,
				1
			],
			"translation":[
				-1.1262168884277344,
				1.9199424982070923,
				3.2364754676818848
			]
		},
		{
			"mesh":13,
			"name":"Cube.013",
			"rotation":[
				0,
				0.5078926086425781,
				0,
				0.8614203929901123
			],
			"scale":[
				1.0378819704055786,
				0.41515278816223145,
				1.0378819704055786
			],
			"translation":[
				0.05377817153930664,
				3.4438772201538086,
				2.4770708084106445
			]
		},
		{
			"mesh":14,
			"name":"Cube.014",
			"rotation":[
				0,
				0.5078926682472229,
				0,
				0.8614203929901123
			],
			"scale":[
				1,
				1.5,
				1
			],
			"translation":[
				0.05377817153930664,
				1.637429118156433,
				2.4770708084106445
			]
		}
	],
	"materials":[
		{
			"doubleSided":true,
			"name":"Material.010",
			"pbrMetallicRoughness":{
				"baseColorFactor":[
					0.8000156879425049,
					0.4717629551887512,
					0.40960150957107544,
					1
				],
				"metallicFactor":0,
				"roughnessFactor":0.5
			}
		},
		{
			"doubleSided":true,
			"name":"Material.011",
			"pbrMetallicRoughness":{
				"metallicFactor":0,
				"roughnessFactor":0.5
			}
		},
		{
			"doubleSided":true,
			"name":"Material.012",
			"pbrMetallicRoughness":{
				"baseColorFactor":[
					0.2672051787376404,
					0.32299354672431946,
					0.42490100860595703,
					1
				],
				"metallicFactor":0,
				"roughnessFactor":0.5
			}
		},
		{
			"doubleSided":true,
			"name":"Material.017",
			"pbrMetallicRoughness":{
				"baseColorFactor":[
					0.2706025242805481,
					0.12745532393455505,
					0.028747737407684326,
					1
				],
				"metallicFactor":0,
				"roughnessFactor":0.5
			}
		},
		{
			"doubleSided":true,
			"name":"Material.018",
			"pbrMetallicRoughness":{
				"baseColorFactor":[
					0.800000011920929,
					0.800000011920929,
					0.800000011920929,
					1
				],
				"metallicFactor":0,
				"roughnessFactor":0.5
			}
		},
		{
			"doubleSided":true,
			"name":"Material.019",
			"pbrMetallicRoughness":{
				"baseColorFactor":[
					0.23822113871574402,
					0.23822113871574402,
					0.23822113871574402,
					1
				],
				"metallicFactor":0,
				"roughnessFactor":0.5
			}
		},
		{
			"doubleSided":true,
			"name":"Material.020",
			"pbrMetallicRoughness":{
				"baseColorFactor":[
					0.0014689750969409943,
					0.0014689750969409943,
					0.0014689750969409943,
					1
				],
				"metallicFactor":0,
				"roughnessFactor":0.5
			}
		},
		{
			"doubleSided":true,
			"name":"Material.021",
			"pbrMetallicRoughness":{
				"baseColorFactor":[
					0.07199026644229889,
					0.07199026644229889,
					0.07199026644229889,
					1
				],
				"metallicFactor":0,
				"roughnessFactor":0.5
			}
		},
		{
			"doubleSided":true,
			"name":"Material.022",
			"pbrMetallicRoughness":{
				"baseColorFactor":[
					0.8000156879425049,
					0.4717629551887512,
					0.40960150957107544,
					1
				],
				"metallicFactor":0,
				"roughnessFactor":0.5
			}
		},
		{
			"doubleSided":true,
			"name":"Material.023",
			"pbrMetallicRoughness":{
				"baseColorFactor":[
					0.23822113871574402,
					0.23822113871574402,
					0.23822113871574402,
					1
				],
				"metallicFactor":0,
				"roughnessFactor":0.5
			}
		},
		{
			"doubleSided":true,
			"name":"Material.024",
			"pbrMetallicRoughness":{
				"baseColorFactor":[
					0.0014689750969409943,
					0.0014689750969409943,
					0.0014689750969409943,
					1
				],
				"metallicFactor":0,
				"roughnessFactor":0.5
			}
		},
		{
			"doubleSided":true,
			"name":"Material.025",
			"pbrMetallicRoughness":{
				"baseColorFactor":[
					0.07199026644229889,
					0.07199026644229889,
					0.07199026644229889,
					1
				],
				"metallicFactor":0,
				"roughnessFactor":0.5
			}
		},
		{
			"doubleSided":true,
			"name":"Material.026",
			"pbrMetallicRoughness":{
				"baseColorFactor":[
					0.2706025242805481,
					0.12745532393455505,
					0.028747737407684326,
					1
				],
				"metallicFactor":0,
				"roughnessFactor":0.5
			}
		},
		{
			"doubleSided":true,
			"name":"Material.027",
			"pbrMetallicRoughness":{
				"baseColorFactor":[
					0.800000011920929,
					0.800000011920929,
					0.800000011920929,
					1
				],
				"metallicFactor":0,
				"roughnessFactor":0.5
			}
		},
		{
			"doubleSided":true,
			"name":"Material.028",
			"pbrMetallicRoughness":{
				"metallicFactor":0,
				"roughnessFactor":0.5
			}
		},
		{
			"doubleSided":true,
			"name":"Material.029",
			"pbrMetallicRoughness":{
				"baseColorFactor":[
					0.2672051787376404,
					0.32299354672431946,
					0.42490100860595703,
					1
				],
				"metallicFactor":0,
				"roughnessFactor":0.5
			}
		},
		{
			"doubleSided":true,
			"name":"Material.030",
			"pbrMetallicRoughness":{
				"baseColorFactor":[
					0.8000156879425049,
					0.4717629551887512,
					0.40960150957107544,
					1
				],
				"metallicFactor":0,
				"roughnessFactor":0.5
			}
		},
		{
			"doubleSided":true,
			"name":"Material.031",
			"pbrMetallicRoughness":{
				"baseColorFactor":[
					0.23822113871574402,
					0.23822113871574402,
					0.23822113871574402,
					1
				],
				"metallicFactor":0,
				"roughnessFactor":0.5
			}
		},
		{
			"doubleSided":true,
			"name":"Material.032",
			"pbrMetallicRoughness":{
				"baseColorFactor":[
					0.0014689750969409943,
					0.0014689750969409943,
					0.0014689750969409943,
					1
				],
				"metallicFactor":0,
				"roughnessFactor":0.5
			}
		},
		{
			"doubleSided":true,
			"name":"Material.033",
			"pbrMetallicRoughness":{
				"baseColorFactor":[
					0.07199026644229889,
					0.07199026644229889,
					0.07199026644229889,
					1
				],
				"metallicFactor":0,
				"roughnessFactor":0.5
			}
		},
		{
			"doubleSided":true,
			"name":"Material.034",
			"pbrMetallicRoughness":{
				"baseColorFactor":[
					0.2706025242805481,
					0.12745532393455505,
					0.028747737407684326,
					1
				],
				"metallicFactor":0,
				"roughnessFactor":0.5
			}
		},
		{
			"doubleSided":true,
			"name":"Material.035",
			"pbrMetallicRoughness":{
				"baseColorFactor":[
					0.800000011920929,
					0.800000011920929,
					0.800000011920929,
					1
				],
				"metallicFactor":0,
				"roughnessFactor":0.5
			}
		},
		{
			"doubleSided":true,
			"name":"Material.036",
			"pbrMetallicRoughness":{
				"metallicFactor":0,
				"roughnessFactor":0.5
			}
		},
		{
			"doubleSided":true,
			"name":"Material.037",
			"pbrMetallicRoughness":{
				"baseColorFactor":[
					0.2672051787376404,
					0.32299354672431946,
					0.42490100860595703,
					1
				],
				"metallicFactor":0,
				"roughnessFactor":0.5
			}
		}
	],
	"meshes":[
		{
			"name":"Cube.010",
			"primitives":[
				{
					"attributes":{
						"POSITION":0,
						"NORMAL":1,
						"TEXCOORD_0":2
					},
					"indices":3,
					"material":0
				},
				{
					"attributes":{
						"POSITION":4,
						"NORMAL":5,
						"TEXCOORD_0":6
					},
					"indices":7,
					"material":1
				},
				{
					"attributes":{
						"POSITION":8,
						"NORMAL":9,
						"TEXCOORD_0":10
					},
					"indices":11,
					"material":2
				}
			]
		},
		{
			"name":"Cube.015",
			"primitives":[
				{
					"attributes":{
						"POSITION":12,
						"NORMAL":13,
						"TEXCOORD_0":14
					},
					"indices":15,
					"material":0
				}
			]
		},
		{
			"name":"Cube.016",
			"primitives":[
				{
					"attributes":{
						"POSITION":16,
						"NORMAL":17,
						"TEXCOORD_0":18
					},
					"indices":15,
					"material":0
				}
			]
		},
		{
			"name":"Cube.018",
			"primitives":[
				{
					"attributes":{
						"POSITION":19,
						"NORMAL":20,
						"TEXCOORD_0":21
					},
					"indices":22,
					"material":3
				},
				{
					"attributes":{
						"POSITION":23,
						"NORMAL":24,
						"TEXCOORD_0":25
					},
					"indices":26,
					"material":4
				}
			]
		},
		{
			"name":"Cube.019",
			"primitives":[
				{
					"attributes":{
						"POSITION":27,
						"NORMAL":28,
						"TEXCOORD_0":29
					},
					"indices":30,
					"material":5
				},
				{
					"attributes":{
						"POSITION":31,
						"NORMAL":32,
						"TEXCOORD_0":33
					},
					"indices":34,
					"material":6
				},
				{
					"attributes":{
						"POSITION":35,
						"NORMAL":36,
						"TEXCOORD_0":37
					},
					"indices":38,
					"material":7
				}
			]
		},
		{
			"name":"Cube.020",
			"primitives":[
				{
					"attributes":{
						"POSITION":39,
						"NORMAL":40,
						"TEXCOORD_0":41
					},
					"indices":15,
					"material":8
				}
			]
		},
		{
			"name":"Cube.021",
			"primitives":[
				{
					"attributes":{
						"POSITION":42,
						"NORMAL":43,
						"TEXCOORD_0":44
					},
					"indices":15,
					"material":8
				}
			]
		},
		{
			"name":"Cube.022",
			"primitives":[
				{
					"attributes":{
						"POSITION":45,
						"NORMAL":46,
						"TEXCOORD_0":47
					},
					"indices":30,
					"material":9
				},
				{
					"attributes":{
						"POSITION":48,
						"NORMAL":49,
						"TEXCOORD_0":50
					},
					"indices":34,
					"material":10
				},
				{
					"attributes":{
						"POSITION":51,
						"NORMAL":52,
						"TEXCOORD_0":53
					},
					"indices":38,
					"material":11
				}
			]
		},
		{
			"name":"Cube.023",
			"primitives":[
				{
					"attributes":{
						"POSITION":54,
						"NORMAL":55,
						"TEXCOORD_0":56
					},
					"indices":22,
					"material":12
				},
				{
					"attributes":{
						"POSITION":57,
						"NORMAL":58,
						"TEXCOORD_0":59
					},
					"indices":26,
					"material":13
				}
			]
		},
		{
			"name":"Cube.024",
			"primitives":[
				{
					"attributes":{
						"POSITION":60,
						"NORMAL":61,
						"TEXCOORD_0":62
					},
					"indices":3,
					"material":8
				},
				{
					"attributes":{
						"POSITION":63,
						"NORMAL":64,
						"TEXCOORD_0":65
					},
					"indices":7,
					"material":14
				},
				{
					"attributes":{
						"POSITION":66,
						"NORMAL":67,
						"TEXCOORD_0":68
					},
					"indices":11,
					"material":15
				}
			]
		},
		{
			"name":"Cube.025",
			"primitives":[
				{
					"attributes":{
						"POSITION":69,
						"NORMAL":70,
						"TEXCOORD_0":71
					},
					"indices":15,
					"material":16
				}
			]
		},
		{
			"name":"Cube.026",
			"primitives":[
				{
					"attributes":{
						"POSITION":72,
						"NORMAL":73,
						"TEXCOORD_0":74
					},
					"indices":15,
					"material":16
				}
			]
		},
		{
			"name":"Cube.027",
			"primitives":[
				{
					"attributes":{
						"POSITION":75,
						"NORMAL":76,
						"TEXCOORD_0":77
					},
					"indices":30,
					"material":17
				},
				{
					"attributes":{
						"POSITION":78,
						"NORMAL":79,
						"TEXCOORD_0":80
					},
					"indices":34,
					"material":18
				},
				{
					"attributes":{
						"POSITION":81,
						"NORMAL":82,
						"TEXCOORD_0":83
					},
					"indices":38,
					"material":19
				}
			]
		},
		{
			"name":"Cube.028",
			"primitives":[
				{
					"attributes":{
						"POSITION":84,
						"NORMAL":85,
						"TEXCOORD_0":86
					},
					"indices":22,
					"material":20
				},
				{
					"attributes":{
						"POSITION":87,
						"NORMAL":88,
						"TEXCOORD_0":89
					},
					"indices":26,
					"material":21
				}
			]
		},
		{
			"name":"Cube.029",
			"primitives":[
				{
					"attributes":{
						"POSITION":90,
						"NORMAL":91,
						"TEXCOORD_0":92
					},
					"indices":3,
					"material":16
				},
				{
					"attributes":{
						"POSITION":93,
						"NORMAL":94,
						"TEXCOORD_0":95
					},
					"indices":7,
					"material":22
				},
				{
					"attributes":{
						"POSITION":96,
						"NORMAL":97,
						"TEXCOORD_0":98
					},
					"indices":11,
					"material":23
				}
			]
		}
	],
	"accessors":[
		{
			"bufferView":0,
			"componentType":5126,
			"count":40,
			"max":[
				1.0861108303070068,
				1,
				1.0861108303070068
			],
			"min":[
				-1.0861108303070068,
				-1,
				-1.0861108303070068
			],
			"type":"VEC3"
		},
		{
			"bufferView":1,
			"componentType":5126,
			"count":40,
			"type":"VEC3"
		},
		{
			"bufferView":2,
			"componentType":5126,
			"count":40,
			"type":"VEC2"
		},
		{
			"bufferView":3,
			"componentType":5123,
			"count":60,
			"type":"SCALAR"
		},
		{
			"bufferView":4,
			"componentType":5126,
			"count":32,
			"max":[
				1.0861108303070068,
				-0.3459188640117645,
				1.0861108303070068
			],
			"min":[
				-1.0861108303070068,
				-1,
				-1.0861108303070068
			],
			"type":"VEC3"
		},
		{
			"bufferView":5,
			"componentType":5126,
			"count":32,
			"type":"VEC3"
		},
		{
			"bufferView":6,
			"componentType":5126,
			"count":32,
			"type":"VEC2"
		},
		{
			"bufferView":7,
			"componentType":5123,
			"count":48,
			"type":"SCALAR"
		},
		{
			"bufferView":8,
			"componentType":5126,
			"count":16,
			"max":[
				1.0861108303070068,
				0.36203694343566895,
				1.0861108303070068
			],
			"min":[
				-1.0861108303070068,
				-0.36203694343566895,
				-1.0861108303070068
			],
			"type":"VEC3"
		},
		{
			"bufferView":9,
			"componentType":5126,
			"count":16,
			"type":"VEC3"
		},
		{
			"bufferView":10,
			"componentType":5126,
			"count":16,
			"type":"VEC2"
		},
		{
			"bufferView":11,
			"componentType":5123,
			"count":24,
			"type":"SCALAR"
		},
		{
			"bufferView":12,
			"componentType":5126,
			"count":24,
			"max":[
				1,
				1,
				1
			],
			"min":[
				-1,
				-1,
				-1
			],
			"type":"VEC3"
		},
		{
			"bufferView":13,
			"componentType":5126,
			"count":24,
			"type":"VEC3"
		},
		{
			"bufferView":14,
			"componentType":5126,
			"count":24,
			"type":"VEC2"
		},
		{
			"bufferView":15,
			"componentType":5123,
			"count":36,
			"type":"SCALAR"
		},
		{
			"bufferView":16,
			"componentType":5126,
			"count":24,
			"max":[
				1,
				1,
				1
			],
			"min":[
				-1,
				-1,
				-1
			],
			"type":"VEC3"
		},
		{
			"bufferView":17,
			"componentType":5126,
			"count":24,
			"type":"VEC3"
		},
		{
			"bufferView":18,
			"componentType":5126,
			"count":24,
			"type":"VEC2"
		},
		{
			"bufferView":19,
			"componentType":5126,
			"count":60,
			"max":[
				1,
				1,
				1
			],
			"min":[
				-1,
				-2.7310566902160645,
				-1
			],
			"type":"VEC3"
		},
		{
			"bufferView":20,
			"componentType":5126,
			"count":60,
			"type":"VEC3"
		},
		{
			"bufferView":21,
			"componentType":5126,
			"count":60,
			"type":"VEC2"
		},
		{
			"bufferView":22,
			"componentType":5123,
			"count":126,
			"type":"SCALAR"
		},
		{
			"bufferView":23,
			"componentType":5126,
			"count":20,
			"max":[
				0.8871673941612244,
				0.47326454520225525,
				-1
			],
			"min":[
				-0.8871673941612244,
				-0.7727683186531067,
				-1.0837851762771606
			],
			"type":"VEC3"
		},
		{
			"bufferView":24,
			"componentType":5126,
			"count":20,
			"type":"VEC3"
		},
		{
			"bufferView":25,
			"componentType":5126,
			"count":20,
			"type":"VEC2"
		},
		{
			"bufferView":26,
			"componentType":5123,
			"count":30,
			"type":"SCALAR"
		},
		{
			"bufferView":27,
			"componentType":5126,
			"count":174,
			"max":[
				1,
				1,
				1.6735162734985352
			],
			"min":[
				-1,
				-3.8234121799468994,
				-1
			],
			"type":"VEC3"
		},
		{
			"bufferView":28,
			"componentType":5126,
			"count":174,
			"type":"VEC3"
		},
		{
			"bufferView":29,
			"componentType":5126,
			"count":174,
			"type":"VEC2"
		},
		{
			"bufferView":30,
			"componentType":5123,
			"count":342,
			"type":"SCALAR"
		},
		{
			"bufferView":31,
			"componentType":5126,
			"count":20,
			"max":[
				0.6962251663208008,
				0.6962251663208008,
				-0.4079177975654602
			],
			"min":[
				-0.6962251663208008,
				-0.6962251663208008,
				-1
			],
			"type":"VEC3"
		},
		{
			"bufferView":32,
			"componentType":5126,
			"count":20,
			"type":"VEC3"
		},
		{
			"bufferView":33,
			"componentType":5126,
			"count":20,
			"type":"VEC2"
		},
		{
			"bufferView":34,
			"componentType":5123,
			"count":30,
			"type":"SCALAR"
		},
		{
			"bufferView":35,
			"componentType":5126,
			"count":96,
			"max":[
				1.61577570438385,
				1.6430957317352295,
				1.7533024549484253
			],
			"min":[
				-1.61577570438385,
				-8.267419815063477,
				-1
			],
			"type":"VEC3"
		},
		{
			"bufferView":36,
			"componentType":5126,
			"count":96,
			"type":"VEC3"
		},
		{
			"bufferView":37,
			"componentType":5126,
			"count":96,
			"type":"VEC2"
		},
		{
			"bufferView":38,
			"componentType":5123,
			"count":144,
			"type":"SCALAR"
		},
		{
			"bufferView":39,
			"componentType":5126,
			"count":24,
			"max":[
				1,
				1,
				1
			],
			"min":[
				-1,
				-1,
				-1
			],
			"type":"VEC3"
		},
		{
			"bufferView":40,
			"componentType":5126,
			"count":24,
			"type":"VEC3"
		},
		{
			"bufferView":41,
			"componentType":5126,
			"count":24,
			"type":"VEC2"
		},
		{
			"bufferView":42,
			"componentType":5126,
			"count":24,
			"max":[
				1,
				1,
				1
			],
			"min":[
				-1,
				-1,
				-1
			],
			"type":"VEC3"
		},
		{
			"bufferView":43,
			"componentType":5126,
			"count":24,
			"type":"VEC3"
		},
		{
			"bufferView":44,
			"componentType":5126,
			"count":24,
			"type":"VEC2"
		},
		{
			"bufferView":45,
			"componentType":5126,
			"count":174,
			"max":[
				1,
				1,
				1.6735162734985352
			],
			"min":[
				-1,
				-3.8234121799468994,
				-1
			],
			"type":"VEC3"
		},
		{
			"bufferView":46,
			"componentType":5126,
			"count":174,
			"type":"VEC3"
		},
		{
			"bufferView":47,
			"componentType":5126,
			"count":174,
			"type":"VEC2"
		},
		{
			"bufferView":48,
			"componentType":5126,
			"count":20,
			"max":[
				0.6962251663208008,
				0.6962251663208008,
				-0.4079177975654602
			],
			"min":[
				-0.6962251663208008,
				-0.6962251663208008,
				-1
			],
			"type":"VEC3"
		},
		{
			"bufferView":49,
			"componentType":5126,
			"count":20,
			"type":"VEC3"
		},
		{
			"bufferView":50,
			"componentType":5126,
			"count":20,
			"type":"VEC2"
		},
		{
			"bufferView":51,
			"componentType":5126,
			"count":96,
			"max":[
				1.61577570438385,
				1.6430957317352295,
				1.7533024549484253
			],
			"min":[
				-1.61577570438385,
				-8.267419815063477,
				-1
			],
			"type":"VEC3"
		},
		{
			"bufferView":52,
			"componentType":5126,
			"count":96,
			"type":"VEC3"
		},
		{
			"bufferView":53,
			"componentType":5126,
			"count":96,
			"type":"VEC2"
		},
		{
			"bufferView":54,
			"componentType":5126,
			"count":60,
			"max":[
				1,
				1,
				1
			],
			"min":[
				-1,
				-2.7310566902160645,
				-1
			],
			"type":"VEC3"
		},
		{
			"bufferView":55,
			"componentType":5126,
			"count":60,
			"type":"VEC3"
		},
		{
			"bufferView":56,
			"componentType":5126,
			"count":60,
			"type":"VEC2"
		},
		{
			"bufferView":57,
			"componentType":5126,
			"count":20,
			"max":[
				0.8871673941612244,
				0.47326454520225525,
				-1
			],
			"min":[
				-0.8871673941612244,
				-0.7727683186531067,
				-1.0837851762771606
			],
			"type":"VEC3"
		},
		{
			"bufferView":58,
			"componentType":5126,
			"count":20,
			"type":"VEC3"
		},
		{
			"bufferView":59,
			"componentType":5126,
			"count":20,
			"type":"VEC2"
		},
		{
			"bufferView":60,
			"componentType":5126,
			"count":40,
			"max":[
				1.0861108303070068,
				1,
				1.0861108303070068
			],
			"min":[
				-1.0861108303070068,
				-1,
				-1.0861108303070068
			],
			"type":"VEC3"
		},
		{
			"bufferView":61,
			"componentType":5126,
			"count":40,
			"type":"VEC3"
		},
		{
			"bufferView":62,
			"componentType":5126,
			"count":40,
			"type":"VEC2"
		},
		{
			"bufferView":63,
			"componentType":5126,
			"count":32,
			"max":[
				1.0861108303070068,
				-0.3459188640117645,
				1.0861108303070068
			],
			"min":[
				-1.0861108303070068,
				-1,
				-1.0861108303070068
			],
			"type":"VEC3"
		},
		{
			"bufferView":64,
			"componentType":5126,
			"count":32,
			"type":"VEC3"
		},
		{
			"bufferView":65,
			"componentType":5126,
			"count":32,
			"type":"VEC2"
		},
		{
			"bufferView":66,
			"componentType":5126,
			"count":16,
			"max":[
				1.0861108303070068,
				0.36203694343566895,
				1.0861108303070068
			],
			"min":[
				-1.0861108303070068,
				-0.36203694343566895,
				-1.0861108303070068
			],
			"type":"VEC3"
		},
		{
			"bufferView":67,
			"componentType":5126,
			"count":16,
			"type":"VEC3"
		},
		{
			"bufferView":68,
			"componentType":5126,
			"count":16,
			"type":"VEC2"
		},
		{
			"bufferView":69,
			"componentType":5126,
			"count":24,
			"max":[
				1,
				1,
				1
			],
			"min":[
				-1,
				-1,
				-1
			],
			"type":"VEC3"
		},
		{
			"bufferView":70,
			"componentType":5126,
			"count":24,
			"type":"VEC3"
		},
		{
			"bufferView":71,
			"componentType":5126,
			"count":24,
			"type":"VEC2"
		},
		{
			"bufferView":72,
			"componentType":5126,
			"count":24,
			"max":[
				1,
				1,
				1
			],
			"min":[
				-1,
				-1,
				-1
			],
			"type":"VEC3"
		},
		{
			"bufferView":73,
			"componentType":5126,
			"count":24,
			"type":"VEC3"
		},
		{
			"bufferView":74,
			"componentType":5126,
			"count":24,
			"type":"VEC2"
		},
		{
			"bufferView":75,
			"componentType":5126,
			"count":174,
			"max":[
				1,
				1,
				1.6735162734985352
			],
			"min":[
				-1,
				-3.8234121799468994,
				-1
			],
			"type":"VEC3"
		},
		{
			"bufferView":76,
			"componentType":5126,
			"count":174,
			"type":"VEC3"
		},
		{
			"bufferView":77,
			"componentType":5126,
			"count":174,
			"type":"VEC2"
		},
		{
			"bufferView":78,
			"componentType":5126,
			"count":20,
			"max":[
				0.6962251663208008,
				0.6962251663208008,
				-0.4079177975654602
			],
			"min":[
				-0.6962251663208008,
				-0.6962251663208008,
				-1
			],
			"type":"VEC3"
		},
		{
			"bufferView":79,
			"componentType":5126,
			"count":20,
			"type":"VEC3"
		},
		{
			"bufferView":80,
			"componentType":5126,
			"count":20,
			"type":"VEC2"
		},
		{
			"bufferView":81,
			"componentType":5126,
			"count":96,
			"max":[
				1.61577570438385,
				1.6430957317352295,
				1.7533024549484253
			],
			"min":[
				-1.61577570438385,
				-8.267419815063477,
				-1
			],
			"type":"VEC3"
		},
		{
			"bufferView":82,
			"componentType":5126,
			"count":96,
			"type":"VEC3"
		},
		{
			"bufferView":83,
			"componentType":5126,
			"count":96,
			"type":"VEC2"
		},
		{
			"bufferView":84,
			"componentType":5126,
			"count":60,
			"max":[
				1,
				1,
				1
			],
			"min":[
				-1,
				-2.7310566902160645,
				-1
			],
			"type":"VEC3"
		},
		{
			"bufferView":85,
			"componentType":5126,
			"count":60,
			"type":"VEC3"
		},
		{
			"bufferView":86,
			"componentType":5126,
			"count":60,
			"type":"VEC2"
		},
		{
			"bufferView":87,
			"componentType":5126,
			"count":20,
			"max":[
				0.8871673941612244,
				0.47326454520225525,
				-1
			],
			"min":[
				-0.8871673941612244,
				-0.7727683186531067,
				-1.0837851762771606
			],
			"type":"VEC3"
		},
		{
			"bufferView":88,
			"componentType":5126,
			"count":20,
			"type":"VEC3"
		},
		{
			"bufferView":89,
			"componentType":5126,
			"count":20,
			"type":"VEC2"
		},
		{
			"bufferView":90,
			"componentType":5126,
			"count":40,
			"max":[
				1.0861108303070068,
				1,
				1.0861108303070068
			],
			"min":[
				-1.0861108303070068,
				-1,
				-1.0861108303070068
			],
			"type":"VEC3"
		},
		{
			"bufferView":91,
			"componentType":5126,
			"count":40,
			"type":"VEC3"
		},
		{
			"bufferView":92,
			"componentType":5126,
			"count":40,
			"type":"VEC2"
		},
		{
			"bufferView":93,
			"componentType":5126,
			"count":32,
			"max":[
				1.0861108303070068,
				-0.3459188640117645,
				1.0861108303070068
			],
			"min":[
				-1.0861108303070068,
				-1,
				-1.0861108303070068
			],
			"type":"VEC3"
		},
		{
			"bufferView":94,
			"componentType":5126,
			"count":32,
			"type":"VEC3"
		},
		{
			"bufferView":95,
			"componentType":5126,
			"count":32,
			"type":"VEC2"
		},
		{
			"bufferView":96,
			"componentType":5126,
			"count":16,
			"max":[
				1.0861108303070068,
				0.36203694343566895,
				1.0861108303070068
			],
			"min":[
				-1.0861108303070068,
				-0.36203694343566895,
				-1.0861108303070068
			],
			"type":"VEC3"
		},
		{
			"bufferView":97,
			"componentType":5126,
			"count":16,
			"type":"VEC3"
		},
		{
			"bufferView":98,
			"componentType":5126,
			"count":16,
			"type":"VEC2"
		}
	],
	"bufferViews":[
		{
			"buffer":0,
			"byteLength":480,
			"byteOffset":0,
			"target":34962
		},
		{
			"buffer":0,
			"byteLength":480,
			"byteOffset":480,
			"target":34962
		},
		{
			"buffer":0,
			"byteLength":320,
			"byteOffset":960,
			"target":34962
		},
		{
			"buffer":0,
			"byteLength":120,
			"byteOffset":1280,
			"target":34963
		},
		{
			"buffer":0,
			"byteLength":384,
			"byteOffset":1400,
			"target":34962
		},
		{
			"buffer":0,
			"byteLength":384,
			"byteOffset":1784,
			"target":34962
		},
		{
			"buffer":0,
			"byteLength":256,
			"byteOffset":2168,
			"target":34962
		},
		{
			"buffer":0,
			"byteLength":96,
			"byteOffset":2424,
			"target":34963
		},
		{
			"buffer":0,
			"byteLength":192,
			"byteOffset":2520,
			"target":34962
		},
		{
			"buffer":0,
			"byteLength":192,
			"byteOffset":2712,
			"target":34962
		},
		{
			"buffer":0,
			"byteLength":128,
			"byteOffset":2904,
			"target":34962
		},
		{
			"buffer":0,
			"byteLength":48,
			"byteOffset":3032,
			"target":34963
		},
		{
			"buffer":0,
			"byteLength":288,
			"byteOffset":3080,
			"target":34962
		},
		{
			"buffer":0,
			"byteLength":288,
			"byteOffset":3368,
			"target":34962
		},
		{
			"buffer":0,
			"byteLength":192,
			"byteOffset":3656,
			"target":34962
		},
		{
			"buffer":0,
			"byteLength":72,
			"byteOffset":3848,
			"target":34963
		},
		{
			"buffer":0,
			"byteLength":288,
			"byteOffset":3920,
			"target":34962
		},
		{
			"buffer":0,
			"byteLength":288,
			"byteOffset":4208,
			"target":34962
		},
		{
			"buffer":0,
			"byteLength":192,
			"byteOffset":4496,
			"target":34962
		},
		{
			"buffer":0,
			"byteLength":720,
			"byteOffset":4688,
			"target":34962
		},
		{
			"buffer":0,
			"byteLength":720,
			"byteOffset":5408,
			"target":34962
		},
		{
			"buffer":0,
			"byteLength":480,
			"byteOffset":6128,
			"target":34962
		},
		{
			"buffer":0,
			"byteLength":252,
			"byteOffset":6608,
			"target":34963
		},
		{
			"buffer":0,
			"byteLength":240,
			"byteOffset":6860,
			"target":34962
		},
		{
			"buffer":0,
			"byteLength":240,
			"byteOffset":7100,
			"target":34962
		},
		{
			"buffer":0,
			"byteLength":160,
			"byteOffset":7340,
			"target":34962
		},
		{
			"buffer":0,
			"byteLength":60,
			"byteOffset":7500,
			"target":34963
		},
		{
			"buffer":0,
			"byteLength":2088,
			"byteOffset":7560,
			"target":34962
		},
		{
			"buffer":0,
			"byteLength":2088,
			"byteOffset":9648,
			"target":34962
		},
		{
			"buffer":0,
			"byteLength":1392,
			"byteOffset":11736,
			"target":34962
		},
		{
			"buffer":0,
			"byteLength":684,
			"byteOffset":13128,
			"target":34963
		},
		{
			"buffer":0,
			"byteLength":240,
			"byteOffset":13812,
			"target":34962
		},
		{
			"buffer":0,
			"byteLength":240,
			"byteOffset":14052,
			"target":34962
		},
		{
			"buffer":0,
			"byteLength":160,
			"byteOffset":14292,
			"target":34962
		},
		{
			"buffer":0,
			"byteLength":60,
			"byteOffset":14452,
			"target":34963
		},
		{
			"buffer":0,
			"byteLength":1152,
			"byteOffset":14512,
			"target":34962
		},
		{
			"buffer":0,
			"byteLength":1152,
			"byteOffset":15664,
			"target":34962
		},
		{
			"buffer":0,
			"byteLength":768,
			"byteOffset":16816,
			"target":34962
		},
		{
			"buffer":0,
			"byteLength":288,
			"byteOffset":17584,
			"target":34963
		},
		{
			"buffer":0,
			"byteLength":288,
			"byteOffset":17872,
			"target":34962
		},
		{
			"buffer":0,
			"byteLength":288,
			"byteOffset":18160,
			"target":34962
		},
		{
			"buffer":0,
			"byteLength":192,
			"byteOffset":18448,
			"target":34962
		},
		{
			"buffer":0,
			"byteLength":288,
			"byteOffset":18640,
			"target":34962
		},
		{
			"buffer":0,
			"byteLength":288,
			"byteOffset":18928,
			"target":34962
		},
		{
			"buffer":0,
			"byteLength":192,
			"byteOffset":19216,
			"target":34962
		},
		{
			"buffer":0,
			"byteLength":2088,
			"byteOffset":19408,
			"target":34962
		},
		{
			"buffer":0,
			"byteLength":2088,
			"byteOffset":21496,
			"target":34962
		},
		{
			"buffer":0,
			"byteLength":1392,
			"byteOffset":23584,
			"target":34962
		},
		{
			"buffer":0,
			"byteLength":240,
			"byteOffset":24976,
			"target":34962
		},
		{
			"buffer":0,
			"byteLength":240,
			"byteOffset":25216,
			"target":34962
		},
		{
			"buffer":0,
			"byteLength":160,
			"byteOffset":25456,
			"target":34962
		},
		{
			"buffer":0,
			"byteLength":1152,
			"byteOffset":25616,
			"target":34962
		},
		{
			"buffer":0,
			"byteLength":1152,
			"byteOffset":26768,
			"target":34962
		},
		{
			"buffer":0,
			"byteLength":768,
			"byteOffset":27920,
			"target":34962
		},
		{
			"buffer":0,
			"byteLength":720,
			"byteOffset":28688,
			"target":34962
		},
		{
			"buffer":0,
			"byteLength":720,
			"byteOffset":29408,
			"target":34962
		},
		{
			"buffer":0,
			"byteLength":480,
			"byteOffset":30128,
			"target":34962
		},
		{
			"buffer":0,
			"byteLength":240,
			"byteOffset":30608,
			"target":34962
		},
		{
			"buffer":0,
			"byteLength":240,
			"byteOffset":30848,
			"target":34962
		},
		{
			"buffer":0,
			"byteLength":160,
			"byteOffset":31088,
			"target":34962
		},
		{
			"buffer":0,
			"byteLength":480,
			"byteOffset":31248,
			"target":34962
		},
		{
			"buffer":0,
			"byteLength":480,
			"byteOffset":31728,
			"target":34962
		},
		{
			"buffer":0,
			"byteLength":320,
			"byteOffset":32208,
			"target":34962
		},
		{
			"buffer":0,
			"byteLength":384,
			"byteOffset":32528,
			"target":34962
		},
		{
			"buffer":0,
			"byteLength":384,
			"byteOffset":32912,
			"target":34962
		},
		{
			"buffer":0,
			"byteLength":256,
			"byteOffset":33296,
			"target":34962
		},
		{
			"buffer":0,
			"byteLength":192,
			"byteOffset":33552,
			"target":34962
		},
		{
			"buffer":0,
			"byteLength":192,
			"byteOffset":33744,
			"target":34962
		},
		{
			"buffer":0,
			"byteLength":128,
			"byteOffset":33936,
			"target":34962
		},
		{
			"buffer":0,
			"byteLength":288,
			"byteOffset":34064,
			"target":34962
		},
		{
			"buffer":0,
			"byteLength":288,
			"byteOffset":34352,
			"target":34962
		},
		{
			"buffer":0,
			"byteLength":192,
			"byteOffset":34640,
			"target":34962
		},
		{
			"buffer":0,
			"byteLength":288,
			"byteOffset":34832,
			"target":34962
		},
		{
			"buffer":0,
			"byteLength":288,
			"byteOffset":35120,
			"target":34962
		},
		{
			"buffer":0,
			"byteLength":192,
			"byteOffset":35408,
			"target":34962
		},
		{
			"buffer":0,
			"byteLength":2088,
			"byteOffset":35600,
			"target":34962
		},
		{
			"buffer":0,
			"byteLength":2088,
			"byteOffset":37688,
			"target":34962
		},
		{
			"buffer":0,
			"byteLength":1392,
			"byteOffset":39776,
			"target":34962
		},
		{
			"buffer":0,
			"byteLength":240,
			"byteOffset":41168,
			"target":34962
		},
		{
			"buffer":0,
			"byteLength":240,
			"byteOffset":41408,
			"target":34962
		},
		{
			"buffer":0,
			"byteLength":160,
			"byteOffset":41648,
			"target":34962
		},
		{
			"buffer":0,
			"byteLength":1152,
			"byteOffset":41808,
			"target":34962
		},
		{
			"buffer":0,
			"byteLength":1152,
			"byteOffset":42960,
			"target":34962
		},
		{
			"buffer":0,
			"byteLength":768,
			"byteOffset":44112,
			"target":34962
		},
		{
			"buffer":0,
			"byteLength":720,
			"byteOffset":44880,
			"target":34962
		},
		{
			"buffer":0,
			"byteLength":720,
			"byteOffset":45600,
			"target":34962
		},
		{
			"buffer":0,
			"byteLength":480,
			"byteOffset":46320,
			"target":34962
		},
		{
			"buffer":0,
			"byteLength":240,
			"byteOffset":46800,
			"target":34962
		},
		{
			"buffer":0,
			"byteLength":240,
			"byteOffset":47040,
			"target":34962
		},
		{
			"buffer":0,
			"byteLength":160,
			"byteOffset":47280,
			"target":34962
		},
		{
			"buffer":0,
			"byteLength":480,
			"byteOffset":47440,
			"target":34962
		},
		{
			"buffer":0,
			"byteLength":480,
			"byteOffset":47920,
			"target":34962
		},
		{
			"buffer":0,
			"byteLength":320,
			"byteOffset":48400,
			"target":34962
		},
		{
			"buffer":0,
			"byteLength":384,
			"byteOffset":48720,
			"target":34962
		},
		{
			"buffer":0,
			"byteLength":384,
			"byteOffset":49104,
			"target":34962
		},
		{
			"buffer":0,
			"byteLength":256,
			"byteOffset":49488,
			"target":34962
		},
		{
			"buffer":0,
			"byteLength":192,
			"byteOffset":49744,
			"target":34962
		},
		{
			"buffer":0,
			"byteLength":192,
			"byteOffset":49936,
			"target":34962
		},
		{
			"buffer":0,
			"byteLength":128,
			"byteOffset":50128,
			"target":34962
		}
	],
	"buffers":[
		{
			"byteLength":50256,
			"uri":"presiaCommandos.bin"
		}
	]
}
