{
	"asset":{
		"generator":"Khronos glTF Blender I/O v5.1.20",
		"version":"2.0"
	},
	"scene":0,
	"scenes":[
		{
			"name":"Scene",
			"nodes":[
				0,
				1,
				2,
				3,
				4
			]
		}
	],
	"nodes":[
		{
			"mesh":0,
			"name":"Cube",
			"rotation":[
				0.2700495719909668,
				0.2082860916852951,
				-0.40936556458473206,
				0.8462328314781189
			],
			"scale":[
				1,
				1.5,
				1
			],
			"translation":[
				-0.625544011592865,
				1.9602922201156616,
				-0.36655205488204956
			]
		},
		{
			"mesh":1,
			"name":"Cube.002",
			"rotation":[
				0.16910871863365173,
				0.07634692639112473,
				-0.4043307602405548,
				0.8955947756767273
			],
			"scale":[
				0.20000000298023224,
				0.20000000298023224,
				0.20000000298023224
			],
			"translation":[
				0.1750364452600479,
				1.0162103176116943,
				-1.650669813156128
			]
		},
		{
			"mesh":2,
			"name":"Cube.003",
			"scale":[
				0.20000000298023224,
				0.20000000298023224,
				0.20000000298023224
			],
			"translation":[
				2.0009732246398926,
				1.2761915922164917,
				-1.59476900100708
			]
		},
		{
			"mesh":3,
			"name":"Cube.001",
			"scale":[
				1.940659761428833,
				0.03881319612264633,
				0.09703298658132553
			],
			"translation":[
				2.1911871433258057,
				1.608925461769104,
				-1.628868818283081
			]
		},
		{
			"mesh":4,
			"name":"Cylinder",
			"rotation":[
				0,
				0,
				-0.7071068286895752,
				0.7071068286895752
			],
			"scale":[
				0.09703298658132553,
				0.19406597316265106,
				0.09703298658132553
			],
			"translation":[
				1.157888412475586,
				1.7873269319534302,
				-1.628868818283081
			]
		}
	],
	"materials":[
		{
			"doubleSided":true,
			"name":"Material.007",
			"pbrMetallicRoughness":{
				"baseColorFactor":[
					0.47923365235328674,
					0.47923365235328674,
					0.47923365235328674,
					1
				],
				"metallicFactor":0,
				"roughnessFactor":0.5
			}
		},
		{
			"doubleSided":true,
			"name":"Material.004",
			"pbrMetallicRoughness":{
				"baseColorFactor":[
					0.643175482749939,
					0.3893832564353943,
					0.2798144221305847,
					1
				],
				"metallicFactor":0,
				"roughnessFactor":0.5
			}
		},
		{
			"doubleSided":true,
			"name":"Material.008",
			"pbrMetallicRoughness":{
				"baseColorFactor":[
					0.800000011920929,
					0.800000011920929,
					0.800000011920929,
					1
				],
				"metallicFactor":0,
				"roughnessFactor":0.5
			}
		},
		{
			"doubleSided":true,
			"name":"Material.012",
			"pbrMetallicRoughness":{
				"baseColorFactor":[
					0.15035149455070496,
					0.0805683508515358,
					0.030132770538330078,
					1
				],
				"metallicFactor":0,
				"roughnessFactor":0.5
			}
		},
		{
			"doubleSided":true,
			"name":"Material.009",
			"pbrMetallicRoughness":{
				"baseColorFactor":[
					0.27736881375312805,
					0.27736881375312805,
					0.27736881375312805,
					1
				],
				"metallicFactor":0,
				"roughnessFactor":0.5
			}
		},
		{
			"doubleSided":true,
			"name":"Material.010",
			"pbrMetallicRoughness":{
				"baseColorFactor":[
					0,
					0,
					0,
					1
				],
				"metallicFactor":0,
				"roughnessFactor":0.5
			}
		}
	],
	"meshes":[
		{
			"name":"Cube",
			"primitives":[
				{
					"attributes":{
						"POSITION":0,
						"NORMAL":1,
						"TEXCOORD_0":2
					},
					"indices":3,
					"material":0
				},
				{
					"attributes":{
						"POSITION":4,
						"NORMAL":5,
						"TEXCOORD_0":6
					},
					"indices":7,
					"material":1
				},
				{
					"attributes":{
						"POSITION":8,
						"NORMAL":9,
						"TEXCOORD_0":10
					},
					"indices":11,
					"material":2
				}
			]
		},
		{
			"name":"Cube.002",
			"primitives":[
				{
					"attributes":{
						"POSITION":12,
						"NORMAL":13,
						"TEXCOORD_0":14
					},
					"indices":15,
					"material":1
				}
			]
		},
		{
			"name":"Cube.003",
			"primitives":[
				{
					"attributes":{
						"POSITION":16,
						"NORMAL":17,
						"TEXCOORD_0":18
					},
					"indices":15,
					"material":1
				}
			]
		},
		{
			"name":"Cube.004",
			"primitives":[
				{
					"attributes":{
						"POSITION":19,
						"NORMAL":20,
						"TEXCOORD_0":21
					},
					"indices":22,
					"material":3
				},
				{
					"attributes":{
						"POSITION":23,
						"NORMAL":24,
						"TEXCOORD_0":25
					},
					"indices":26,
					"material":4
				}
			]
		},
		{
			"name":"Cylinder.001",
			"primitives":[
				{
					"attributes":{
						"POSITION":27,
						"NORMAL":28,
						"TEXCOORD_0":29
					},
					"indices":30,
					"material":4
				},
				{
					"attributes":{
						"POSITION":31,
						"NORMAL":32,
						"TEXCOORD_0":33
					},
					"indices":34,
					"material":5
				}
			]
		}
	],
	"accessors":[
		{
			"bufferView":0,
			"componentType":5126,
			"count":86,
			"max":[
				1.0493227243423462,
				1.0965774059295654,
				1.0493227243423462
			],
			"min":[
				-1.0493227243423462,
				-1,
				-1.0493227243423462
			],
			"type":"VEC3"
		},
		{
			"bufferView":1,
			"componentType":5126,
			"count":86,
			"type":"VEC3"
		},
		{
			"bufferView":2,
			"componentType":5126,
			"count":86,
			"type":"VEC2"
		},
		{
			"bufferView":3,
			"componentType":5123,
			"count":150,
			"type":"SCALAR"
		},
		{
			"bufferView":4,
			"componentType":5126,
			"count":4,
			"max":[
				0.9915938377380371,
				0.923148512840271,
				0.7241854667663574
			],
			"min":[
				0.9915938377380371,
				0.6235976219177246,
				-0.7241854667663574
			],
			"type":"VEC3"
		},
		{
			"bufferView":5,
			"componentType":5126,
			"count":4,
			"type":"VEC3"
		},
		{
			"bufferView":6,
			"componentType":5126,
			"count":4,
			"type":"VEC2"
		},
		{
			"bufferView":7,
			"componentType":5123,
			"count":6,
			"type":"SCALAR"
		},
		{
			"bufferView":8,
			"componentType":5126,
			"count":48,
			"max":[
				1.0939388275146484,
				0.3646462857723236,
				1.0939388275146484
			],
			"min":[
				-1.0939388275146484,
				-0.3646462559700012,
				-1.0939388275146484
			],
			"type":"VEC3"
		},
		{
			"bufferView":9,
			"componentType":5126,
			"count":48,
			"type":"VEC3"
		},
		{
			"bufferView":10,
			"componentType":5126,
			"count":48,
			"type":"VEC2"
		},
		{
			"bufferView":11,
			"componentType":5123,
			"count":72,
			"type":"SCALAR"
		},
		{
			"bufferView":12,
			"componentType":5126,
			"count":24,
			"max":[
				1,
				1,
				1
			],
			"min":[
				-1,
				-1,
				-1
			],
			"type":"VEC3"
		},
		{
			"bufferView":13,
			"componentType":5126,
			"count":24,
			"type":"VEC3"
		},
		{
			"bufferView":14,
			"componentType":5126,
			"count":24,
			"type":"VEC2"
		},
		{
			"bufferView":15,
			"componentType":5123,
			"count":36,
			"type":"SCALAR"
		},
		{
			"bufferView":16,
			"componentType":5126,
			"count":24,
			"max":[
				1,
				1,
				1
			],
			"min":[
				-1,
				-1,
				-1
			],
			"type":"VEC3"
		},
		{
			"bufferView":17,
			"componentType":5126,
			"count":24,
			"type":"VEC3"
		},
		{
			"bufferView":18,
			"componentType":5126,
			"count":24,
			"type":"VEC2"
		},
		{
			"bufferView":19,
			"componentType":5126,
			"count":78,
			"max":[
				1.1595869064331055,
				2.680392265319824,
				1
			],
			"min":[
				-1.3644499778747559,
				-13.98292350769043,
				-1
			],
			"type":"VEC3"
		},
		{
			"bufferView":20,
			"componentType":5126,
			"count":78,
			"type":"VEC3"
		},
		{
			"bufferView":21,
			"componentType":5126,
			"count":78,
			"type":"VEC2"
		},
		{
			"bufferView":22,
			"componentType":5123,
			"count":138,
			"type":"SCALAR"
		},
		{
			"bufferView":23,
			"componentType":5126,
			"count":102,
			"max":[
				1.1595869064331055,
				2.680392265319824,
				1
			],
			"min":[
				-1,
				-6.086427688598633,
				-1
			],
			"type":"VEC3"
		},
		{
			"bufferView":24,
			"componentType":5126,
			"count":102,
			"type":"VEC3"
		},
		{
			"bufferView":25,
			"componentType":5126,
			"count":102,
			"type":"VEC2"
		},
		{
			"bufferView":26,
			"componentType":5123,
			"count":186,
			"type":"SCALAR"
		},
		{
			"bufferView":27,
			"componentType":5126,
			"count":152,
			"max":[
				1,
				1,
				1
			],
			"min":[
				-1,
				-1,
				-1
			],
			"type":"VEC3"
		},
		{
			"bufferView":28,
			"componentType":5126,
			"count":152,
			"type":"VEC3"
		},
		{
			"bufferView":29,
			"componentType":5126,
			"count":152,
			"type":"VEC2"
		},
		{
			"bufferView":30,
			"componentType":5123,
			"count":336,
			"type":"SCALAR"
		},
		{
			"bufferView":31,
			"componentType":5126,
			"count":16,
			"max":[
				0.7447279095649719,
				0.5811442136764526,
				0.7447279095649719
			],
			"min":[
				-0.7447279095649719,
				0.1834266185760498,
				-0.7447279095649719
			],
			"type":"VEC3"
		},
		{
			"bufferView":32,
			"componentType":5126,
			"count":16,
			"type":"VEC3"
		},
		{
			"bufferView":33,
			"componentType":5126,
			"count":16,
			"type":"VEC2"
		},
		{
			"bufferView":34,
			"componentType":5123,
			"count":36,
			"type":"SCALAR"
		}
	],
	"bufferViews":[
		{
			"buffer":0,
			"byteLength":1032,
			"byteOffset":0,
			"target":34962
		},
		{
			"buffer":0,
			"byteLength":1032,
			"byteOffset":1032,
			"target":34962
		},
		{
			"buffer":0,
			"byteLength":688,
			"byteOffset":2064,
			"target":34962
		},
		{
			"buffer":0,
			"byteLength":300,
			"byteOffset":2752,
			"target":34963
		},
		{
			"buffer":0,
			"byteLength":48,
			"byteOffset":3052,
			"target":34962
		},
		{
			"buffer":0,
			"byteLength":48,
			"byteOffset":3100,
			"target":34962
		},
		{
			"buffer":0,
			"byteLength":32,
			"byteOffset":3148,
			"target":34962
		},
		{
			"buffer":0,
			"byteLength":12,
			"byteOffset":3180,
			"target":34963
		},
		{
			"buffer":0,
			"byteLength":576,
			"byteOffset":3192,
			"target":34962
		},
		{
			"buffer":0,
			"byteLength":576,
			"byteOffset":3768,
			"target":34962
		},
		{
			"buffer":0,
			"byteLength":384,
			"byteOffset":4344,
			"target":34962
		},
		{
			"buffer":0,
			"byteLength":144,
			"byteOffset":4728,
			"target":34963
		},
		{
			"buffer":0,
			"byteLength":288,
			"byteOffset":4872,
			"target":34962
		},
		{
			"buffer":0,
			"byteLength":288,
			"byteOffset":5160,
			"target":34962
		},
		{
			"buffer":0,
			"byteLength":192,
			"byteOffset":5448,
			"target":34962
		},
		{
			"buffer":0,
			"byteLength":72,
			"byteOffset":5640,
			"target":34963
		},
		{
			"buffer":0,
			"byteLength":288,
			"byteOffset":5712,
			"target":34962
		},
		{
			"buffer":0,
			"byteLength":288,
			"byteOffset":6000,
			"target":34962
		},
		{
			"buffer":0,
			"byteLength":192,
			"byteOffset":6288,
			"target":34962
		},
		{
			"buffer":0,
			"byteLength":936,
			"byteOffset":6480,
			"target":34962
		},
		{
			"buffer":0,
			"byteLength":936,
			"byteOffset":7416,
			"target":34962
		},
		{
			"buffer":0,
			"byteLength":624,
			"byteOffset":8352,
			"target":34962
		},
		{
			"buffer":0,
			"byteLength":276,
			"byteOffset":8976,
			"target":34963
		},
		{
			"buffer":0,
			"byteLength":1224,
			"byteOffset":9252,
			"target":34962
		},
		{
			"buffer":0,
			"byteLength":1224,
			"byteOffset":10476,
			"target":34962
		},
		{
			"buffer":0,
			"byteLength":816,
			"byteOffset":11700,
			"target":34962
		},
		{
			"buffer":0,
			"byteLength":372,
			"byteOffset":12516,
			"target":34963
		},
		{
			"buffer":0,
			"byteLength":1824,
			"byteOffset":12888,
			"target":34962
		},
		{
			"buffer":0,
			"byteLength":1824,
			"byteOffset":14712,
			"target":34962
		},
		{
			"buffer":0,
			"byteLength":1216,
			"byteOffset":16536,
			"target":34962
		},
		{
			"buffer":0,
			"byteLength":672,
			"byteOffset":17752,
			"target":34963
		},
		{
			"buffer":0,
			"byteLength":192,
			"byteOffset":18424,
			"target":34962
		},
		{
			"buffer":0,
			"byteLength":192,
			"byteOffset":18616,
			"target":34962
		},
		{
			"buffer":0,
			"byteLength":128,
			"byteOffset":18808,
			"target":34962
		},
		{
			"buffer":0,
			"byteLength":72,
			"byteOffset":18936,
			"target":34963
		}
	],
	"buffers":[
		{
			"byteLength":19008,
			"uri":"sniper.bin"
		}
	]
}
