{
	"asset":{
		"generator":"Khronos glTF Blender I/O v5.1.20",
		"version":"2.0"
	},
	"scene":0,
	"scenes":[
		{
			"name":"Scene",
			"nodes":[
				0,
				1,
				2,
				3,
				4,
				5,
				6,
				7,
				8,
				9,
				10,
				11,
				12,
				13,
				14,
				15,
				16,
				17,
				18,
				19,
				20
			]
		}
	],
	"nodes":[
		{
			"mesh":0,
			"name":"Cube",
			"rotation":[
				0,
				-0.16993917524814606,
				0,
				0.9854545593261719
			],
			"scale":[
				0.45754358172416687,
				0.23642748594284058,
				0.45754358172416687
			],
			"translation":[
				0.842121958732605,
				0.8016077280044556,
				0.020970679819583893
			]
		},
		{
			"mesh":1,
			"name":"Cube.001",
			"rotation":[
				0,
				-0.16993917524814606,
				0,
				0.9854545593261719
			],
			"scale":[
				0.45754358172416687,
				0.23642748594284058,
				0.45754358172416687
			],
			"translation":[
				0.842121958732605,
				0.33029061555862427,
				0.020970679819583893
			]
		},
		{
			"mesh":2,
			"name":"Cube.002",
			"rotation":[
				0,
				-0.16993919014930725,
				0,
				0.9854545593261719
			],
			"scale":[
				0.43712782859802246,
				0.23642748594284058,
				0.43674248456954956
			],
			"translation":[
				0.842121958732605,
				1.2700319290161133,
				0.020970679819583893
			]
		},
		{
			"mesh":3,
			"name":"Cube.003",
			"rotation":[
				0,
				-0.16993919014930725,
				0,
				0.9854546189308167
			],
			"scale":[
				0.45754358172416687,
				0.11302639544010162,
				0.45754358172416687
			],
			"translation":[
				0.842121958732605,
				1.6087658405303955,
				0.020970679819583893
			]
		},
		{
			"mesh":4,
			"name":"Cube.007",
			"rotation":[
				0.13280761241912842,
				-0.16838885843753815,
				0.022902345284819603,
				0.9764644503593445
			],
			"scale":[
				0.06307212263345718,
				0.06340456008911133,
				0.07223092019557953
			],
			"translation":[
				0.39015570282936096,
				0.8895490169525146,
				-0.25428158044815063
			]
		},
		{
			"mesh":5,
			"name":"Cube.008",
			"rotation":[
				0,
				-0.16993919014930725,
				0,
				0.9854546189308167
			],
			"scale":[
				0.06307213008403778,
				0.06340456008911133,
				0.07223092019557953
			],
			"translation":[
				1.3622691631317139,
				0.876316249370575,
				0.09127165377140045
			]
		},
		{
			"mesh":6,
			"name":"Cube.004",
			"rotation":[
				0,
				-0.16993919014930725,
				0,
				0.9854545593261719
			],
			"scale":[
				0.07082632184028625,
				0.07082632184028625,
				0.16526144742965698
			],
			"translation":[
				0.4896891713142395,
				1.0364471673965454,
				-0.6672637462615967
			]
		},
		{
			"mesh":7,
			"name":"Cube.005",
			"rotation":[
				0,
				0.07600973546504974,
				0,
				0.9971070885658264
			],
			"scale":[
				0.06307212263345718,
				0.06340456008911133,
				0.07223092019557953
			],
			"translation":[
				-0.6842089891433716,
				0.876316249370575,
				-0.1980961710214615
			]
		},
		{
			"mesh":8,
			"name":"Cube.006",
			"rotation":[
				0.13437803089618683,
				0.07531630247831345,
				-0.010243671014904976,
				0.9880106449127197
			],
			"scale":[
				0.06307212263345718,
				0.06340456008911133,
				0.07223092019557953
			],
			"translation":[
				-1.7039909362792969,
				0.8895490169525146,
				-0.04171091318130493
			]
		},
		{
			"mesh":9,
			"name":"Cube.009",
			"rotation":[
				0,
				0.07600974291563034,
				0,
				0.9971070885658264
			],
			"scale":[
				0.07082632184028625,
				0.07082632184028625,
				0.16526144742965698
			],
			"translation":[
				-1.8120511770248413,
				1.0364471673965454,
				-0.4525444507598877
			]
		},
		{
			"mesh":10,
			"name":"Cube.010",
			"rotation":[
				0,
				0.07600973546504974,
				0,
				0.9971070885658264
			],
			"scale":[
				0.4575435519218445,
				0.11302639544010162,
				0.4575435519218445
			],
			"translation":[
				-1.1755573749542236,
				1.6087658405303955,
				-0.013509973883628845
			]
		},
		{
			"mesh":11,
			"name":"Cube.011",
			"rotation":[
				0,
				0.07600973546504974,
				0,
				0.9971070885658264
			],
			"scale":[
				0.4371277987957001,
				0.23642748594284058,
				0.4367424547672272
			],
			"translation":[
				-1.1755573749542236,
				1.2700319290161133,
				-0.013509973883628845
			]
		},
		{
			"mesh":12,
			"name":"Cube.012",
			"rotation":[
				0,
				0.07600973546504974,
				0,
				0.9971070885658264
			],
			"scale":[
				0.45754358172416687,
				0.23642748594284058,
				0.45754358172416687
			],
			"translation":[
				-1.1755573749542236,
				0.33029061555862427,
				-0.013509973883628845
			]
		},
		{
			"mesh":13,
			"name":"Cube.013",
			"rotation":[
				0,
				0.07600973546504974,
				0,
				0.9971070885658264
			],
			"scale":[
				0.45754358172416687,
				0.23642748594284058,
				0.45754358172416687
			],
			"translation":[
				-1.1755573749542236,
				0.8016077280044556,
				-0.013509973883628845
			]
		},
		{
			"mesh":14,
			"name":"Cube.014",
			"rotation":[
				0,
				-0.00631720619276166,
				0,
				0.9999800324440002
			],
			"scale":[
				0.45754361152648926,
				0.23642748594284058,
				0.45754361152648926
			],
			"translation":[
				-0.18604081869125366,
				0.8016077280044556,
				2.0735480785369873
			]
		},
		{
			"mesh":15,
			"name":"Cube.015",
			"rotation":[
				0,
				-0.00631720619276166,
				0,
				0.9999800324440002
			],
			"scale":[
				0.45754361152648926,
				0.23642748594284058,
				0.45754361152648926
			],
			"translation":[
				-0.18604081869125366,
				0.33029061555862427,
				2.0735480785369873
			]
		},
		{
			"mesh":16,
			"name":"Cube.016",
			"rotation":[
				0,
				-0.006317206658422947,
				0,
				0.9999800324440002
			],
			"scale":[
				0.4371277987957001,
				0.23642748594284058,
				0.4367424249649048
			],
			"translation":[
				-0.18604081869125366,
				1.2700319290161133,
				2.0735480785369873
			]
		},
		{
			"mesh":17,
			"name":"Cube.017",
			"rotation":[
				0,
				-0.006317205727100372,
				0,
				0.9999800324440002
			],
			"scale":[
				0.45754358172416687,
				0.11302639544010162,
				0.45754358172416687
			],
			"translation":[
				-0.18604081869125366,
				1.6087658405303955,
				2.0735480785369873
			]
		},
		{
			"mesh":18,
			"name":"Cube.018",
			"rotation":[
				0,
				-0.006317197810858488,
				0,
				0.9999800324440002
			],
			"scale":[
				0.07082632184028625,
				0.07082632184028625,
				0.16526144742965698
			],
			"translation":[
				-0.741884708404541,
				1.0364471673965454,
				1.5360416173934937
			]
		},
		{
			"mesh":19,
			"name":"Cube.019",
			"rotation":[
				0.13476523756980896,
				-0.006259577814489603,
				0.0008513567154295743,
				0.9908575415611267
			],
			"scale":[
				0.06307212263345718,
				0.06340456008911133,
				0.07223092019557953
			],
			"translation":[
				-0.7026881575584412,
				0.8895490169525146,
				1.9590367078781128
			]
		},
		{
			"mesh":20,
			"name":"Cube.020",
			"rotation":[
				0,
				-0.006317206658422947,
				0,
				0.9999800324440002
			],
			"scale":[
				0.06307212263345718,
				0.06340456008911133,
				0.07223092019557953
			],
			"translation":[
				0.3289327621459961,
				0.876316249370575,
				1.9720714092254639
			]
		}
	],
	"materials":[
		{
			"doubleSided":true,
			"name":"Material.012",
			"pbrMetallicRoughness":{
				"baseColorFactor":[
					0.04728857800364494,
					0.27736881375312805,
					0.11581478267908096,
					1
				],
				"metallicFactor":0,
				"roughnessFactor":0.5
			}
		},
		{
			"doubleSided":true,
			"name":"Material.004",
			"pbrMetallicRoughness":{
				"baseColorFactor":[
					0.16398674249649048,
					0.366283118724823,
					0.17730848491191864,
					1
				],
				"metallicFactor":0,
				"roughnessFactor":0.30000001192092896
			}
		},
		{
			"doubleSided":true,
			"name":"Material.003",
			"pbrMetallicRoughness":{
				"baseColorFactor":[
					0.800054669380188,
					0.4354797601699829,
					0.3078033924102783,
					1
				],
				"metallicFactor":0,
				"roughnessFactor":0.30000001192092896
			}
		},
		{
			"doubleSided":true,
			"name":"Material.008",
			"pbrMetallicRoughness":{
				"baseColorFactor":[
					0.800054669380188,
					0.4354797601699829,
					0.3078033924102783,
					1
				],
				"metallicFactor":0,
				"roughnessFactor":0.30000001192092896
			}
		},
		{
			"doubleSided":true,
			"name":"Material.009",
			"pbrMetallicRoughness":{
				"baseColorFactor":[
					0.800054669380188,
					0.4354797601699829,
					0.3078033924102783,
					1
				],
				"metallicFactor":0,
				"roughnessFactor":0.30000001192092896
			}
		},
		{
			"doubleSided":true,
			"name":"Material.010",
			"pbrMetallicRoughness":{
				"baseColorFactor":[
					0.5995432734489441,
					0.5995432734489441,
					0.5995432734489441,
					1
				],
				"metallicFactor":0,
				"roughnessFactor":0.5
			}
		},
		{
			"doubleSided":true,
			"name":"Material.011",
			"pbrMetallicRoughness":{
				"baseColorFactor":[
					0,
					0,
					0,
					1
				],
				"metallicFactor":0,
				"roughnessFactor":0.5
			}
		},
		{
			"doubleSided":true,
			"name":"Material.013",
			"pbrMetallicRoughness":{
				"baseColorFactor":[
					0.800054669380188,
					0.4354797601699829,
					0.3078033924102783,
					1
				],
				"metallicFactor":0,
				"roughnessFactor":0.30000001192092896
			}
		},
		{
			"doubleSided":true,
			"name":"Material.014",
			"pbrMetallicRoughness":{
				"baseColorFactor":[
					0.800054669380188,
					0.4354797601699829,
					0.3078033924102783,
					1
				],
				"metallicFactor":0,
				"roughnessFactor":0.30000001192092896
			}
		},
		{
			"doubleSided":true,
			"name":"Material.015",
			"pbrMetallicRoughness":{
				"baseColorFactor":[
					0.5995432734489441,
					0.5995432734489441,
					0.5995432734489441,
					1
				],
				"metallicFactor":0,
				"roughnessFactor":0.5
			}
		},
		{
			"doubleSided":true,
			"name":"Material.016",
			"pbrMetallicRoughness":{
				"baseColorFactor":[
					0,
					0,
					0,
					1
				],
				"metallicFactor":0,
				"roughnessFactor":0.5
			}
		},
		{
			"doubleSided":true,
			"name":"Material.017",
			"pbrMetallicRoughness":{
				"baseColorFactor":[
					0.16398674249649048,
					0.366283118724823,
					0.17730848491191864,
					1
				],
				"metallicFactor":0,
				"roughnessFactor":0.30000001192092896
			}
		},
		{
			"doubleSided":true,
			"name":"Material.018",
			"pbrMetallicRoughness":{
				"baseColorFactor":[
					0.800054669380188,
					0.4354797601699829,
					0.3078033924102783,
					1
				],
				"metallicFactor":0,
				"roughnessFactor":0.30000001192092896
			}
		},
		{
			"doubleSided":true,
			"name":"Material.019",
			"pbrMetallicRoughness":{
				"baseColorFactor":[
					0.04728857800364494,
					0.27736881375312805,
					0.11581478267908096,
					1
				],
				"metallicFactor":0,
				"roughnessFactor":0.5
			}
		},
		{
			"doubleSided":true,
			"name":"Material.020",
			"pbrMetallicRoughness":{
				"baseColorFactor":[
					0.04728857800364494,
					0.27736881375312805,
					0.11581478267908096,
					1
				],
				"metallicFactor":0,
				"roughnessFactor":0.5
			}
		},
		{
			"doubleSided":true,
			"name":"Material.021",
			"pbrMetallicRoughness":{
				"baseColorFactor":[
					0.16398674249649048,
					0.366283118724823,
					0.17730848491191864,
					1
				],
				"metallicFactor":0,
				"roughnessFactor":0.30000001192092896
			}
		},
		{
			"doubleSided":true,
			"name":"Material.022",
			"pbrMetallicRoughness":{
				"baseColorFactor":[
					0.800054669380188,
					0.4354797601699829,
					0.3078033924102783,
					1
				],
				"metallicFactor":0,
				"roughnessFactor":0.30000001192092896
			}
		},
		{
			"doubleSided":true,
			"name":"Material.023",
			"pbrMetallicRoughness":{
				"baseColorFactor":[
					0.5995432734489441,
					0.5995432734489441,
					0.5995432734489441,
					1
				],
				"metallicFactor":0,
				"roughnessFactor":0.5
			}
		},
		{
			"doubleSided":true,
			"name":"Material.024",
			"pbrMetallicRoughness":{
				"baseColorFactor":[
					0,
					0,
					0,
					1
				],
				"metallicFactor":0,
				"roughnessFactor":0.5
			}
		},
		{
			"doubleSided":true,
			"name":"Material.025",
			"pbrMetallicRoughness":{
				"baseColorFactor":[
					0.800054669380188,
					0.4354797601699829,
					0.3078033924102783,
					1
				],
				"metallicFactor":0,
				"roughnessFactor":0.30000001192092896
			}
		},
		{
			"doubleSided":true,
			"name":"Material.026",
			"pbrMetallicRoughness":{
				"baseColorFactor":[
					0.800054669380188,
					0.4354797601699829,
					0.3078033924102783,
					1
				],
				"metallicFactor":0,
				"roughnessFactor":0.30000001192092896
			}
		}
	],
	"meshes":[
		{
			"name":"Cube.001",
			"primitives":[
				{
					"attributes":{
						"POSITION":0,
						"NORMAL":1,
						"TEXCOORD_0":2
					},
					"indices":3,
					"material":0
				}
			]
		},
		{
			"name":"Cube.002",
			"primitives":[
				{
					"attributes":{
						"POSITION":4,
						"NORMAL":5,
						"TEXCOORD_0":6
					},
					"indices":3,
					"material":1
				}
			]
		},
		{
			"name":"Cube.003",
			"primitives":[
				{
					"attributes":{
						"POSITION":7,
						"NORMAL":8,
						"TEXCOORD_0":9
					},
					"indices":3,
					"material":2
				}
			]
		},
		{
			"name":"Cube.004",
			"primitives":[
				{
					"attributes":{
						"POSITION":10,
						"NORMAL":11,
						"TEXCOORD_0":12
					},
					"indices":3,
					"material":1
				}
			]
		},
		{
			"name":"Cube.008",
			"primitives":[
				{
					"attributes":{
						"POSITION":13,
						"NORMAL":14,
						"TEXCOORD_0":15
					},
					"indices":3,
					"material":3
				}
			]
		},
		{
			"name":"Cube.009",
			"primitives":[
				{
					"attributes":{
						"POSITION":16,
						"NORMAL":17,
						"TEXCOORD_0":18
					},
					"indices":3,
					"material":4
				}
			]
		},
		{
			"name":"Cube.010",
			"primitives":[
				{
					"attributes":{
						"POSITION":19,
						"NORMAL":20,
						"TEXCOORD_0":21
					},
					"indices":22,
					"material":5
				},
				{
					"attributes":{
						"POSITION":23,
						"NORMAL":24,
						"TEXCOORD_0":25
					},
					"indices":26,
					"material":6
				}
			]
		},
		{
			"name":"Cube.011",
			"primitives":[
				{
					"attributes":{
						"POSITION":27,
						"NORMAL":28,
						"TEXCOORD_0":29
					},
					"indices":3,
					"material":7
				}
			]
		},
		{
			"name":"Cube.012",
			"primitives":[
				{
					"attributes":{
						"POSITION":30,
						"NORMAL":31,
						"TEXCOORD_0":32
					},
					"indices":3,
					"material":8
				}
			]
		},
		{
			"name":"Cube.013",
			"primitives":[
				{
					"attributes":{
						"POSITION":33,
						"NORMAL":34,
						"TEXCOORD_0":35
					},
					"indices":22,
					"material":9
				},
				{
					"attributes":{
						"POSITION":36,
						"NORMAL":37,
						"TEXCOORD_0":38
					},
					"indices":26,
					"material":10
				}
			]
		},
		{
			"name":"Cube.014",
			"primitives":[
				{
					"attributes":{
						"POSITION":39,
						"NORMAL":40,
						"TEXCOORD_0":41
					},
					"indices":3,
					"material":11
				}
			]
		},
		{
			"name":"Cube.015",
			"primitives":[
				{
					"attributes":{
						"POSITION":42,
						"NORMAL":43,
						"TEXCOORD_0":44
					},
					"indices":3,
					"material":12
				}
			]
		},
		{
			"name":"Cube.016",
			"primitives":[
				{
					"attributes":{
						"POSITION":45,
						"NORMAL":46,
						"TEXCOORD_0":47
					},
					"indices":3,
					"material":11
				}
			]
		},
		{
			"name":"Cube.017",
			"primitives":[
				{
					"attributes":{
						"POSITION":48,
						"NORMAL":49,
						"TEXCOORD_0":50
					},
					"indices":3,
					"material":13
				}
			]
		},
		{
			"name":"Cube.018",
			"primitives":[
				{
					"attributes":{
						"POSITION":51,
						"NORMAL":52,
						"TEXCOORD_0":53
					},
					"indices":3,
					"material":14
				}
			]
		},
		{
			"name":"Cube.019",
			"primitives":[
				{
					"attributes":{
						"POSITION":54,
						"NORMAL":55,
						"TEXCOORD_0":56
					},
					"indices":3,
					"material":15
				}
			]
		},
		{
			"name":"Cube.020",
			"primitives":[
				{
					"attributes":{
						"POSITION":57,
						"NORMAL":58,
						"TEXCOORD_0":59
					},
					"indices":3,
					"material":16
				}
			]
		},
		{
			"name":"Cube.021",
			"primitives":[
				{
					"attributes":{
						"POSITION":60,
						"NORMAL":61,
						"TEXCOORD_0":62
					},
					"indices":3,
					"material":15
				}
			]
		},
		{
			"name":"Cube.022",
			"primitives":[
				{
					"attributes":{
						"POSITION":63,
						"NORMAL":64,
						"TEXCOORD_0":65
					},
					"indices":22,
					"material":17
				},
				{
					"attributes":{
						"POSITION":66,
						"NORMAL":67,
						"TEXCOORD_0":68
					},
					"indices":26,
					"material":18
				}
			]
		},
		{
			"name":"Cube.023",
			"primitives":[
				{
					"attributes":{
						"POSITION":69,
						"NORMAL":70,
						"TEXCOORD_0":71
					},
					"indices":3,
					"material":19
				}
			]
		},
		{
			"name":"Cube.024",
			"primitives":[
				{
					"attributes":{
						"POSITION":72,
						"NORMAL":73,
						"TEXCOORD_0":74
					},
					"indices":3,
					"material":20
				}
			]
		}
	],
	"accessors":[
		{
			"bufferView":0,
			"componentType":5126,
			"count":24,
			"max":[
				1,
				1,
				1
			],
			"min":[
				-1,
				-1,
				-1
			],
			"type":"VEC3"
		},
		{
			"bufferView":1,
			"componentType":5126,
			"count":24,
			"type":"VEC3"
		},
		{
			"bufferView":2,
			"componentType":5126,
			"count":24,
			"type":"VEC2"
		},
		{
			"bufferView":3,
			"componentType":5123,
			"count":36,
			"type":"SCALAR"
		},
		{
			"bufferView":4,
			"componentType":5126,
			"count":24,
			"max":[
				1,
				1,
				1
			],
			"min":[
				-1,
				-1,
				-1
			],
			"type":"VEC3"
		},
		{
			"bufferView":5,
			"componentType":5126,
			"count":24,
			"type":"VEC3"
		},
		{
			"bufferView":6,
			"componentType":5126,
			"count":24,
			"type":"VEC2"
		},
		{
			"bufferView":7,
			"componentType":5126,
			"count":24,
			"max":[
				1,
				1,
				1
			],
			"min":[
				-1,
				-1,
				-1
			],
			"type":"VEC3"
		},
		{
			"bufferView":8,
			"componentType":5126,
			"count":24,
			"type":"VEC3"
		},
		{
			"bufferView":9,
			"componentType":5126,
			"count":24,
			"type":"VEC2"
		},
		{
			"bufferView":10,
			"componentType":5126,
			"count":24,
			"max":[
				1,
				1,
				1
			],
			"min":[
				-1,
				-1,
				-1
			],
			"type":"VEC3"
		},
		{
			"bufferView":11,
			"componentType":5126,
			"count":24,
			"type":"VEC3"
		},
		{
			"bufferView":12,
			"componentType":5126,
			"count":24,
			"type":"VEC2"
		},
		{
			"bufferView":13,
			"componentType":5126,
			"count":24,
			"max":[
				1,
				1,
				1
			],
			"min":[
				-1,
				-1,
				-1
			],
			"type":"VEC3"
		},
		{
			"bufferView":14,
			"componentType":5126,
			"count":24,
			"type":"VEC3"
		},
		{
			"bufferView":15,
			"componentType":5126,
			"count":24,
			"type":"VEC2"
		},
		{
			"bufferView":16,
			"componentType":5126,
			"count":24,
			"max":[
				1,
				1,
				1
			],
			"min":[
				-1,
				-1,
				-1
			],
			"type":"VEC3"
		},
		{
			"bufferView":17,
			"componentType":5126,
			"count":24,
			"type":"VEC3"
		},
		{
			"bufferView":18,
			"componentType":5126,
			"count":24,
			"type":"VEC2"
		},
		{
			"bufferView":19,
			"componentType":5126,
			"count":433,
			"max":[
				1.1464283466339111,
				1.7705612182617188,
				5.27985954284668
			],
			"min":[
				-1.1464108228683472,
				-4.2241621017456055,
				-2.158567428588867
			],
			"type":"VEC3"
		},
		{
			"bufferView":20,
			"componentType":5126,
			"count":433,
			"type":"VEC3"
		},
		{
			"bufferView":21,
			"componentType":5126,
			"count":433,
			"type":"VEC2"
		},
		{
			"bufferView":22,
			"componentType":5123,
			"count":849,
			"type":"SCALAR"
		},
		{
			"bufferView":23,
			"componentType":5126,
			"count":323,
			"max":[
				1.2034403085708618,
				1.7705612182617188,
				5.803645610809326
			],
			"min":[
				-1.2034372091293335,
				-4.2241621017456055,
				-2.1183736324310303
			],
			"type":"VEC3"
		},
		{
			"bufferView":24,
			"componentType":5126,
			"count":323,
			"type":"VEC3"
		},
		{
			"bufferView":25,
			"componentType":5126,
			"count":323,
			"type":"VEC2"
		},
		{
			"bufferView":26,
			"componentType":5123,
			"count":501,
			"type":"SCALAR"
		},
		{
			"bufferView":27,
			"componentType":5126,
			"count":24,
			"max":[
				1,
				1,
				1
			],
			"min":[
				-1,
				-1,
				-1
			],
			"type":"VEC3"
		},
		{
			"bufferView":28,
			"componentType":5126,
			"count":24,
			"type":"VEC3"
		},
		{
			"bufferView":29,
			"componentType":5126,
			"count":24,
			"type":"VEC2"
		},
		{
			"bufferView":30,
			"componentType":5126,
			"count":24,
			"max":[
				1,
				1,
				1
			],
			"min":[
				-1,
				-1,
				-1
			],
			"type":"VEC3"
		},
		{
			"bufferView":31,
			"componentType":5126,
			"count":24,
			"type":"VEC3"
		},
		{
			"bufferView":32,
			"componentType":5126,
			"count":24,
			"type":"VEC2"
		},
		{
			"bufferView":33,
			"componentType":5126,
			"count":433,
			"max":[
				1.1464283466339111,
				1.7705612182617188,
				5.27985954284668
			],
			"min":[
				-1.1464108228683472,
				-4.2241621017456055,
				-2.158567428588867
			],
			"type":"VEC3"
		},
		{
			"bufferView":34,
			"componentType":5126,
			"count":433,
			"type":"VEC3"
		},
		{
			"bufferView":35,
			"componentType":5126,
			"count":433,
			"type":"VEC2"
		},
		{
			"bufferView":36,
			"componentType":5126,
			"count":323,
			"max":[
				1.2034403085708618,
				1.7705612182617188,
				5.803645610809326
			],
			"min":[
				-1.2034372091293335,
				-4.2241621017456055,
				-2.1183736324310303
			],
			"type":"VEC3"
		},
		{
			"bufferView":37,
			"componentType":5126,
			"count":323,
			"type":"VEC3"
		},
		{
			"bufferView":38,
			"componentType":5126,
			"count":323,
			"type":"VEC2"
		},
		{
			"bufferView":39,
			"componentType":5126,
			"count":24,
			"max":[
				1,
				1,
				1
			],
			"min":[
				-1,
				-1,
				-1
			],
			"type":"VEC3"
		},
		{
			"bufferView":40,
			"componentType":5126,
			"count":24,
			"type":"VEC3"
		},
		{
			"bufferView":41,
			"componentType":5126,
			"count":24,
			"type":"VEC2"
		},
		{
			"bufferView":42,
			"componentType":5126,
			"count":24,
			"max":[
				1,
				1,
				1
			],
			"min":[
				-1,
				-1,
				-1
			],
			"type":"VEC3"
		},
		{
			"bufferView":43,
			"componentType":5126,
			"count":24,
			"type":"VEC3"
		},
		{
			"bufferView":44,
			"componentType":5126,
			"count":24,
			"type":"VEC2"
		},
		{
			"bufferView":45,
			"componentType":5126,
			"count":24,
			"max":[
				1,
				1,
				1
			],
			"min":[
				-1,
				-1,
				-1
			],
			"type":"VEC3"
		},
		{
			"bufferView":46,
			"componentType":5126,
			"count":24,
			"type":"VEC3"
		},
		{
			"bufferView":47,
			"componentType":5126,
			"count":24,
			"type":"VEC2"
		},
		{
			"bufferView":48,
			"componentType":5126,
			"count":24,
			"max":[
				1,
				1,
				1
			],
			"min":[
				-1,
				-1,
				-1
			],
			"type":"VEC3"
		},
		{
			"bufferView":49,
			"componentType":5126,
			"count":24,
			"type":"VEC3"
		},
		{
			"bufferView":50,
			"componentType":5126,
			"count":24,
			"type":"VEC2"
		},
		{
			"bufferView":51,
			"componentType":5126,
			"count":24,
			"max":[
				1,
				1,
				1
			],
			"min":[
				-1,
				-1,
				-1
			],
			"type":"VEC3"
		},
		{
			"bufferView":52,
			"componentType":5126,
			"count":24,
			"type":"VEC3"
		},
		{
			"bufferView":53,
			"componentType":5126,
			"count":24,
			"type":"VEC2"
		},
		{
			"bufferView":54,
			"componentType":5126,
			"count":24,
			"max":[
				1,
				1,
				1
			],
			"min":[
				-1,
				-1,
				-1
			],
			"type":"VEC3"
		},
		{
			"bufferView":55,
			"componentType":5126,
			"count":24,
			"type":"VEC3"
		},
		{
			"bufferView":56,
			"componentType":5126,
			"count":24,
			"type":"VEC2"
		},
		{
			"bufferView":57,
			"componentType":5126,
			"count":24,
			"max":[
				1,
				1,
				1
			],
			"min":[
				-1,
				-1,
				-1
			],
			"type":"VEC3"
		},
		{
			"bufferView":58,
			"componentType":5126,
			"count":24,
			"type":"VEC3"
		},
		{
			"bufferView":59,
			"componentType":5126,
			"count":24,
			"type":"VEC2"
		},
		{
			"bufferView":60,
			"componentType":5126,
			"count":24,
			"max":[
				1,
				1,
				1
			],
			"min":[
				-1,
				-1,
				-1
			],
			"type":"VEC3"
		},
		{
			"bufferView":61,
			"componentType":5126,
			"count":24,
			"type":"VEC3"
		},
		{
			"bufferView":62,
			"componentType":5126,
			"count":24,
			"type":"VEC2"
		},
		{
			"bufferView":63,
			"componentType":5126,
			"count":433,
			"max":[
				1.1464283466339111,
				1.7705612182617188,
				5.27985954284668
			],
			"min":[
				-1.1464108228683472,
				-4.2241621017456055,
				-2.158567428588867
			],
			"type":"VEC3"
		},
		{
			"bufferView":64,
			"componentType":5126,
			"count":433,
			"type":"VEC3"
		},
		{
			"bufferView":65,
			"componentType":5126,
			"count":433,
			"type":"VEC2"
		},
		{
			"bufferView":66,
			"componentType":5126,
			"count":323,
			"max":[
				1.2034403085708618,
				1.7705612182617188,
				5.803645610809326
			],
			"min":[
				-1.2034372091293335,
				-4.2241621017456055,
				-2.1183736324310303
			],
			"type":"VEC3"
		},
		{
			"bufferView":67,
			"componentType":5126,
			"count":323,
			"type":"VEC3"
		},
		{
			"bufferView":68,
			"componentType":5126,
			"count":323,
			"type":"VEC2"
		},
		{
			"bufferView":69,
			"componentType":5126,
			"count":24,
			"max":[
				1,
				1,
				1
			],
			"min":[
				-1,
				-1,
				-1
			],
			"type":"VEC3"
		},
		{
			"bufferView":70,
			"componentType":5126,
			"count":24,
			"type":"VEC3"
		},
		{
			"bufferView":71,
			"componentType":5126,
			"count":24,
			"type":"VEC2"
		},
		{
			"bufferView":72,
			"componentType":5126,
			"count":24,
			"max":[
				1,
				1,
				1
			],
			"min":[
				-1,
				-1,
				-1
			],
			"type":"VEC3"
		},
		{
			"bufferView":73,
			"componentType":5126,
			"count":24,
			"type":"VEC3"
		},
		{
			"bufferView":74,
			"componentType":5126,
			"count":24,
			"type":"VEC2"
		}
	],
	"bufferViews":[
		{
			"buffer":0,
			"byteLength":288,
			"byteOffset":0,
			"target":34962
		},
		{
			"buffer":0,
			"byteLength":288,
			"byteOffset":288,
			"target":34962
		},
		{
			"buffer":0,
			"byteLength":192,
			"byteOffset":576,
			"target":34962
		},
		{
			"buffer":0,
			"byteLength":72,
			"byteOffset":768,
			"target":34963
		},
		{
			"buffer":0,
			"byteLength":288,
			"byteOffset":840,
			"target":34962
		},
		{
			"buffer":0,
			"byteLength":288,
			"byteOffset":1128,
			"target":34962
		},
		{
			"buffer":0,
			"byteLength":192,
			"byteOffset":1416,
			"target":34962
		},
		{
			"buffer":0,
			"byteLength":288,
			"byteOffset":1608,
			"target":34962
		},
		{
			"buffer":0,
			"byteLength":288,
			"byteOffset":1896,
			"target":34962
		},
		{
			"buffer":0,
			"byteLength":192,
			"byteOffset":2184,
			"target":34962
		},
		{
			"buffer":0,
			"byteLength":288,
			"byteOffset":2376,
			"target":34962
		},
		{
			"buffer":0,
			"byteLength":288,
			"byteOffset":2664,
			"target":34962
		},
		{
			"buffer":0,
			"byteLength":192,
			"byteOffset":2952,
			"target":34962
		},
		{
			"buffer":0,
			"byteLength":288,
			"byteOffset":3144,
			"target":34962
		},
		{
			"buffer":0,
			"byteLength":288,
			"byteOffset":3432,
			"target":34962
		},
		{
			"buffer":0,
			"byteLength":192,
			"byteOffset":3720,
			"target":34962
		},
		{
			"buffer":0,
			"byteLength":288,
			"byteOffset":3912,
			"target":34962
		},
		{
			"buffer":0,
			"byteLength":288,
			"byteOffset":4200,
			"target":34962
		},
		{
			"buffer":0,
			"byteLength":192,
			"byteOffset":4488,
			"target":34962
		},
		{
			"buffer":0,
			"byteLength":5196,
			"byteOffset":4680,
			"target":34962
		},
		{
			"buffer":0,
			"byteLength":5196,
			"byteOffset":9876,
			"target":34962
		},
		{
			"buffer":0,
			"byteLength":3464,
			"byteOffset":15072,
			"target":34962
		},
		{
			"buffer":0,
			"byteLength":1698,
			"byteOffset":18536,
			"target":34963
		},
		{
			"buffer":0,
			"byteLength":3876,
			"byteOffset":20236,
			"target":34962
		},
		{
			"buffer":0,
			"byteLength":3876,
			"byteOffset":24112,
			"target":34962
		},
		{
			"buffer":0,
			"byteLength":2584,
			"byteOffset":27988,
			"target":34962
		},
		{
			"buffer":0,
			"byteLength":1002,
			"byteOffset":30572,
			"target":34963
		},
		{
			"buffer":0,
			"byteLength":288,
			"byteOffset":31576,
			"target":34962
		},
		{
			"buffer":0,
			"byteLength":288,
			"byteOffset":31864,
			"target":34962
		},
		{
			"buffer":0,
			"byteLength":192,
			"byteOffset":32152,
			"target":34962
		},
		{
			"buffer":0,
			"byteLength":288,
			"byteOffset":32344,
			"target":34962
		},
		{
			"buffer":0,
			"byteLength":288,
			"byteOffset":32632,
			"target":34962
		},
		{
			"buffer":0,
			"byteLength":192,
			"byteOffset":32920,
			"target":34962
		},
		{
			"buffer":0,
			"byteLength":5196,
			"byteOffset":33112,
			"target":34962
		},
		{
			"buffer":0,
			"byteLength":5196,
			"byteOffset":38308,
			"target":34962
		},
		{
			"buffer":0,
			"byteLength":3464,
			"byteOffset":43504,
			"target":34962
		},
		{
			"buffer":0,
			"byteLength":3876,
			"byteOffset":46968,
			"target":34962
		},
		{
			"buffer":0,
			"byteLength":3876,
			"byteOffset":50844,
			"target":34962
		},
		{
			"buffer":0,
			"byteLength":2584,
			"byteOffset":54720,
			"target":34962
		},
		{
			"buffer":0,
			"byteLength":288,
			"byteOffset":57304,
			"target":34962
		},
		{
			"buffer":0,
			"byteLength":288,
			"byteOffset":57592,
			"target":34962
		},
		{
			"buffer":0,
			"byteLength":192,
			"byteOffset":57880,
			"target":34962
		},
		{
			"buffer":0,
			"byteLength":288,
			"byteOffset":58072,
			"target":34962
		},
		{
			"buffer":0,
			"byteLength":288,
			"byteOffset":58360,
			"target":34962
		},
		{
			"buffer":0,
			"byteLength":192,
			"byteOffset":58648,
			"target":34962
		},
		{
			"buffer":0,
			"byteLength":288,
			"byteOffset":58840,
			"target":34962
		},
		{
			"buffer":0,
			"byteLength":288,
			"byteOffset":59128,
			"target":34962
		},
		{
			"buffer":0,
			"byteLength":192,
			"byteOffset":59416,
			"target":34962
		},
		{
			"buffer":0,
			"byteLength":288,
			"byteOffset":59608,
			"target":34962
		},
		{
			"buffer":0,
			"byteLength":288,
			"byteOffset":59896,
			"target":34962
		},
		{
			"buffer":0,
			"byteLength":192,
			"byteOffset":60184,
			"target":34962
		},
		{
			"buffer":0,
			"byteLength":288,
			"byteOffset":60376,
			"target":34962
		},
		{
			"buffer":0,
			"byteLength":288,
			"byteOffset":60664,
			"target":34962
		},
		{
			"buffer":0,
			"byteLength":192,
			"byteOffset":60952,
			"target":34962
		},
		{
			"buffer":0,
			"byteLength":288,
			"byteOffset":61144,
			"target":34962
		},
		{
			"buffer":0,
			"byteLength":288,
			"byteOffset":61432,
			"target":34962
		},
		{
			"buffer":0,
			"byteLength":192,
			"byteOffset":61720,
			"target":34962
		},
		{
			"buffer":0,
			"byteLength":288,
			"byteOffset":61912,
			"target":34962
		},
		{
			"buffer":0,
			"byteLength":288,
			"byteOffset":62200,
			"target":34962
		},
		{
			"buffer":0,
			"byteLength":192,
			"byteOffset":62488,
			"target":34962
		},
		{
			"buffer":0,
			"byteLength":288,
			"byteOffset":62680,
			"target":34962
		},
		{
			"buffer":0,
			"byteLength":288,
			"byteOffset":62968,
			"target":34962
		},
		{
			"buffer":0,
			"byteLength":192,
			"byteOffset":63256,
			"target":34962
		},
		{
			"buffer":0,
			"byteLength":5196,
			"byteOffset":63448,
			"target":34962
		},
		{
			"buffer":0,
			"byteLength":5196,
			"byteOffset":68644,
			"target":34962
		},
		{
			"buffer":0,
			"byteLength":3464,
			"byteOffset":73840,
			"target":34962
		},
		{
			"buffer":0,
			"byteLength":3876,
			"byteOffset":77304,
			"target":34962
		},
		{
			"buffer":0,
			"byteLength":3876,
			"byteOffset":81180,
			"target":34962
		},
		{
			"buffer":0,
			"byteLength":2584,
			"byteOffset":85056,
			"target":34962
		},
		{
			"buffer":0,
			"byteLength":288,
			"byteOffset":87640,
			"target":34962
		},
		{
			"buffer":0,
			"byteLength":288,
			"byteOffset":87928,
			"target":34962
		},
		{
			"buffer":0,
			"byteLength":192,
			"byteOffset":88216,
			"target":34962
		},
		{
			"buffer":0,
			"byteLength":288,
			"byteOffset":88408,
			"target":34962
		},
		{
			"buffer":0,
			"byteLength":288,
			"byteOffset":88696,
			"target":34962
		},
		{
			"buffer":0,
			"byteLength":192,
			"byteOffset":88984,
			"target":34962
		}
	],
	"buffers":[
		{
			"byteLength":89176,
			"uri":"greinRiflemen.bin"
		}
	]
}
