{
	"asset":{
		"generator":"Khronos glTF Blender I/O v5.1.20",
		"version":"2.0"
	},
	"scene":0,
	"scenes":[
		{
			"name":"Scene",
			"nodes":[
				0,
				1,
				2,
				3,
				4,
				5,
				6,
				7,
				8,
				9,
				10,
				11,
				12,
				13,
				14,
				15,
				16,
				17,
				18,
				19,
				20,
				21,
				22,
				23,
				24,
				25,
				26,
				27,
				28,
				29,
				30,
				31,
				32,
				33,
				34,
				35,
				36,
				37,
				38,
				39,
				40,
				41,
				42,
				43,
				44,
				45,
				46,
				47
			]
		}
	],
	"nodes":[
		{
			"mesh":0,
			"name":"Cube",
			"scale":[
				0.45754358172416687,
				0.23642748594284058,
				0.45754358172416687
			],
			"translation":[
				0,
				0.9336881637573242,
				1.5437486171722412
			]
		},
		{
			"mesh":1,
			"name":"Cube.001",
			"scale":[
				0.45754358172416687,
				0.23642748594284058,
				0.45754358172416687
			],
			"translation":[
				0,
				0.46237102150917053,
				1.5437486171722412
			]
		},
		{
			"mesh":2,
			"name":"Cube.002",
			"scale":[
				0.4371277987957001,
				0.23642748594284058,
				0.4367424547672272
			],
			"translation":[
				0,
				1.4021122455596924,
				1.5437486171722412
			]
		},
		{
			"mesh":3,
			"name":"Cube.003",
			"scale":[
				0.4575435519218445,
				0.11302639544010162,
				0.4575435519218445
			],
			"translation":[
				0,
				1.7408461570739746,
				1.5437486171722412
			]
		},
		{
			"mesh":4,
			"name":"Cube.007",
			"scale":[
				0.06307212263345718,
				0.06340456008911133,
				0.07223092019557953
			],
			"translation":[
				-0.5180528163909912,
				1.0083966255187988,
				1.4357737302780151
			]
		},
		{
			"mesh":5,
			"name":"Cube.008",
			"scale":[
				0.06307212263345718,
				0.06340456008911133,
				0.07223092019557953
			],
			"translation":[
				0.5136504769325256,
				1.0083966255187988,
				1.4357737302780151
			]
		},
		{
			"mesh":6,
			"name":"Cube.004",
			"rotation":[
				-0.08424237370491028,
				0.03601596876978874,
				-0.02199133113026619,
				0.995551347732544
			],
			"scale":[
				0.020000003278255463,
				0.1405419558286667,
				0.050000011920928955
			],
			"translation":[
				-0.4741457402706146,
				1.1154471635818481,
				1.2361515760421753
			]
		},
		{
			"mesh":7,
			"name":"Cube.005",
			"rotation":[
				-0.08424237370491028,
				0.036015965044498444,
				-0.02199132926762104,
				0.995551347732544
			],
			"scale":[
				0.020000003278255463,
				0.056216780096292496,
				0.037500008940696716
			],
			"translation":[
				-0.4617351293563843,
				1.2980291843414307,
				1.284143328666687
			]
		},
		{
			"mesh":8,
			"name":"Cube.006",
			"rotation":[
				-0.08424237370491028,
				0.036015965044498444,
				-0.02199132926762104,
				0.995551347732544
			],
			"scale":[
				0.020000003278255463,
				0.056216780096292496,
				0.037500008940696716
			],
			"translation":[
				-0.4737076461315155,
				1.2716524600982666,
				1.1280571222305298
			]
		},
		{
			"mesh":9,
			"name":"Cube.009",
			"rotation":[
				-0.08424237370491028,
				0.036015965044498444,
				-0.02199132926762104,
				0.995551347732544
			],
			"scale":[
				0.020000003278255463,
				0.056216780096292496,
				0.037500008940696716
			],
			"translation":[
				-0.4870142638683319,
				0.924216628074646,
				1.1877902746200562
			]
		},
		{
			"mesh":10,
			"name":"Cube.010",
			"rotation":[
				-0.08424237370491028,
				0.036015965044498444,
				-0.02199132926762104,
				0.995551347732544
			],
			"scale":[
				0.020000003278255463,
				0.056216780096292496,
				0.037500008940696716
			],
			"translation":[
				-0.4750627875328064,
				0.9500445127487183,
				1.3439708948135376
			]
		},
		{
			"mesh":11,
			"name":"Cube.011",
			"rotation":[
				0,
				0,
				0.06018583104014397,
				0.9981871843338013
			],
			"scale":[
				0.07500000298023224,
				0.10000000894069672,
				0.20000000298023224
			],
			"translation":[
				0.5928087830543518,
				0.7816684246063232,
				1.4524452686309814
			]
		},
		{
			"mesh":12,
			"name":"Cube.012",
			"rotation":[
				0,
				0,
				0.06018582358956337,
				0.9981871843338013
			],
			"scale":[
				0.009999999776482582,
				0.05000000074505806,
				0.009999999776482582
			],
			"translation":[
				0.5785494446754456,
				0.9292596578598022,
				1.5262922048568726
			]
		},
		{
			"mesh":13,
			"name":"Cube.013",
			"rotation":[
				0,
				0,
				0.06018582358956337,
				0.9981871843338013
			],
			"scale":[
				0.009999999776482582,
				0.05000000074505806,
				0.009999999776482582
			],
			"translation":[
				0.5785494446754456,
				0.9292596578598022,
				1.3717641830444336
			]
		},
		{
			"mesh":14,
			"name":"Cube.014",
			"rotation":[
				0.7058250904083252,
				0.04255780205130577,
				0.04255780205130577,
				0.7058247923851013
			],
			"scale":[
				0.009999999776482582,
				0.07864443212747574,
				0.009999999776482582
			],
			"translation":[
				0.5737514495849609,
				0.9689023494720459,
				1.451744794845581
			]
		},
		{
			"mesh":15,
			"name":"Cube.015",
			"rotation":[
				0,
				0,
				0.06018582358956337,
				0.9981871843338013
			],
			"scale":[
				0.004999999888241291,
				0.004999999888241291,
				0.1979999989271164
			],
			"translation":[
				0.6674626469612122,
				0.7907037734985352,
				1.4524452686309814
			]
		},
		{
			"mesh":16,
			"name":"Cube.016",
			"rotation":[
				0.014907341450452805,
				0.24723957479000092,
				0.05831041559576988,
				0.9670833945274353
			],
			"scale":[
				0.004999999888241291,
				0.004999999888241291,
				0.1979999989271164
			],
			"translation":[
				3.026200294494629,
				0.7907037734985352,
				-0.39900779724121094
			]
		},
		{
			"mesh":17,
			"name":"Cube.017",
			"rotation":[
				0.6943724155426025,
				0.2160564363002777,
				-0.1335931122303009,
				0.6732900738716125
			],
			"scale":[
				0.009999999776482582,
				0.07864443212747574,
				0.010000000707805157
			],
			"translation":[
				2.9436511993408203,
				0.9689023494720459,
				-0.35464638471603394
			]
		},
		{
			"mesh":18,
			"name":"Cube.018",
			"rotation":[
				0.01490734051913023,
				0.24723957479000092,
				0.05831041559576988,
				0.9670833945274353
			],
			"scale":[
				0.009999999776482582,
				0.05000000447034836,
				0.009999999776482582
			],
			"translation":[
				2.9094743728637695,
				0.9292596578598022,
				-0.42711615562438965
			]
		},
		{
			"mesh":19,
			"name":"Cube.019",
			"rotation":[
				0.01490734051913023,
				0.24723957479000092,
				0.05831041559576988,
				0.9670833945274353
			],
			"scale":[
				0.009999999776482582,
				0.05000000447034836,
				0.009999999776482582
			],
			"translation":[
				2.9836387634277344,
				0.9292596578598022,
				-0.2915486693382263
			]
		},
		{
			"mesh":20,
			"name":"Cube.020",
			"rotation":[
				0.014907341450452805,
				0.24723957479000092,
				0.05831041932106018,
				0.9670833945274353
			],
			"scale":[
				0.07500000298023224,
				0.10000000894069672,
				0.20000000298023224
			],
			"translation":[
				2.9607062339782715,
				0.7816684246063232,
				-0.3631783127784729
			]
		},
		{
			"mesh":21,
			"name":"Cube.021",
			"rotation":[
				-0.08706435561180115,
				0.2814804017543793,
				-0.0004401988408062607,
				0.9556089043617249
			],
			"scale":[
				0.020000003278255463,
				0.056216780096292496,
				0.037500008940696716
			],
			"translation":[
				1.971800446510315,
				0.9500445127487183,
				0.05417248606681824
			]
		},
		{
			"mesh":22,
			"name":"Cube.022",
			"rotation":[
				-0.08706435561180115,
				0.2814804017543793,
				-0.0004401988408062607,
				0.9556089043617249
			],
			"scale":[
				0.020000003278255463,
				0.056216780096292496,
				0.037500008940696716
			],
			"translation":[
				1.8863580226898193,
				0.924216628074646,
				-0.07710883021354675
			]
		},
		{
			"mesh":23,
			"name":"Cube.023",
			"rotation":[
				0,
				0.24768859148025513,
				0,
				0.968839704990387
			],
			"scale":[
				0.06307212263345718,
				0.06340456008911133,
				0.07223092019557953
			],
			"translation":[
				2.8832592964172363,
				1.0083966255187988,
				-0.33981287479400635
			]
		},
		{
			"mesh":24,
			"name":"Cube.024",
			"rotation":[
				0,
				0.24768859148025513,
				0,
				0.968839704990387
			],
			"scale":[
				0.06307212263345718,
				0.06340456008911133,
				0.07223092019557953
			],
			"translation":[
				1.9781452417373657,
				1.0083966255187988,
				0.15534387528896332
			]
		},
		{
			"mesh":25,
			"name":"Cube.025",
			"rotation":[
				-0.08706435561180115,
				0.2814804017543793,
				-0.0004401988408062607,
				0.9556089043617249
			],
			"scale":[
				0.020000003278255463,
				0.056216780096292496,
				0.037500008940696716
			],
			"translation":[
				1.8693634271621704,
				1.2716524600982666,
				-0.13589921593666077
			]
		},
		{
			"mesh":26,
			"name":"Cube.026",
			"rotation":[
				-0.08706435561180115,
				0.2814804017543793,
				-0.0004401988408062607,
				0.9556089043617249
			],
			"scale":[
				0.020000003278255463,
				0.056216780096292496,
				0.037500008940696716
			],
			"translation":[
				1.9547791481018066,
				1.2980291843414307,
				-0.00471082329750061
			]
		},
		{
			"mesh":27,
			"name":"Cube.027",
			"rotation":[
				-0.08706436306238174,
				0.2814804017543793,
				-0.0004402007907629013,
				0.9556089043617249
			],
			"scale":[
				0.020000003278255463,
				0.1405419558286667,
				0.050000011920928955
			],
			"translation":[
				1.9208581447601318,
				1.1154471635818481,
				-0.04085758328437805
			]
		},
		{
			"mesh":28,
			"name":"Cube.028",
			"rotation":[
				0,
				0.24768856167793274,
				0,
				0.968839704990387
			],
			"scale":[
				0.45754358172416687,
				0.11302639544010162,
				0.45754358172416687
			],
			"translation":[
				2.484454870223999,
				1.7408461570739746,
				0.0014354735612869263
			]
		},
		{
			"mesh":29,
			"name":"Cube.029",
			"rotation":[
				0,
				0.24768859148025513,
				0,
				0.968839704990387
			],
			"scale":[
				0.4371277987957001,
				0.23642748594284058,
				0.4367424547672272
			],
			"translation":[
				2.484454870223999,
				1.4021122455596924,
				0.0014354735612869263
			]
		},
		{
			"mesh":30,
			"name":"Cube.030",
			"rotation":[
				0,
				0.24768857657909393,
				0,
				0.968839704990387
			],
			"scale":[
				0.45754358172416687,
				0.23642748594284058,
				0.45754358172416687
			],
			"translation":[
				2.484454870223999,
				0.46237102150917053,
				0.0014354735612869263
			]
		},
		{
			"mesh":31,
			"name":"Cube.031",
			"rotation":[
				0,
				0.24768857657909393,
				0,
				0.968839704990387
			],
			"scale":[
				0.45754358172416687,
				0.23642748594284058,
				0.45754358172416687
			],
			"translation":[
				2.484454870223999,
				0.9336881637573242,
				0.0014354735612869263
			]
		},
		{
			"mesh":32,
			"name":"Cube.032",
			"rotation":[
				-0.04956099018454552,
				-0.821973443031311,
				0.03414735570549965,
				0.5663367509841919
			],
			"scale":[
				0.005000001285225153,
				0.004999999888241291,
				0.19800004363059998
			],
			"translation":[
				-2.1477224826812744,
				0.7907037734985352,
				-0.5644021034240723
			]
		},
		{
			"mesh":33,
			"name":"Cube.033",
			"rotation":[
				0.3654157221317291,
				-0.5570769906044006,
				0.6053689122200012,
				0.4355054795742035
			],
			"scale":[
				0.009999999776482582,
				0.07864443212747574,
				0.009999999776482582
			],
			"translation":[
				-2.1136887073516846,
				0.9689023494720459,
				-0.6517174243927002
			]
		},
		{
			"mesh":34,
			"name":"Cube.034",
			"rotation":[
				-0.04956099018454552,
				-0.821973443031311,
				0.03414735570549965,
				0.5663367509841919
			],
			"scale":[
				0.010000002570450306,
				0.05000000447034836,
				0.010000002570450306
			],
			"translation":[
				-2.0406627655029297,
				0.9292596578598022,
				-0.6187455654144287
			]
		},
		{
			"mesh":35,
			"name":"Cube.035",
			"rotation":[
				-0.04956099018454552,
				-0.821973443031311,
				0.03414735570549965,
				0.5663367509841919
			],
			"scale":[
				0.010000002570450306,
				0.05000000447034836,
				0.010000002570450306
			],
			"translation":[
				-2.185055732727051,
				0.9292596578598022,
				-0.6737873554229736
			]
		},
		{
			"mesh":36,
			"name":"Cube.036",
			"rotation":[
				-0.049560997635126114,
				-0.821973443031311,
				0.03414735570549965,
				0.5663367509841919
			],
			"scale":[
				0.07500002533197403,
				0.10000000894069672,
				0.20000006258487701
			],
			"translation":[
				-2.121131181716919,
				0.7816684246063232,
				-0.6341595649719238
			]
		},
		{
			"mesh":37,
			"name":"Cube.037",
			"rotation":[
				-0.02968708425760269,
				-0.7993687987327576,
				-0.08184786885976791,
				0.5944992303848267
			],
			"scale":[
				0.020000003278255463,
				0.056216780096292496,
				0.037500008940696716
			],
			"translation":[
				-1.639402985572815,
				0.9500445127487183,
				-1.5933541059494019
			]
		},
		{
			"mesh":38,
			"name":"Cube.038",
			"rotation":[
				-0.02968708425760269,
				-0.7993687987327576,
				-0.08184786885976791,
				0.5944992303848267
			],
			"scale":[
				0.020000003278255463,
				0.056216780096292496,
				0.037500008940696716
			],
			"translation":[
				-1.4892088174819946,
				0.924216628074646,
				-1.5488911867141724
			]
		},
		{
			"mesh":39,
			"name":"Cube.039",
			"rotation":[
				0,
				-0.8234661817550659,
				0,
				0.5673653483390808
			],
			"scale":[
				0.06307212263345718,
				0.06340456008911133,
				0.07223092019557953
			],
			"translation":[
				-2.077357530593872,
				1.0083966255187988,
				-0.7021877765655518
			]
		},
		{
			"mesh":40,
			"name":"Cube.040",
			"rotation":[
				0,
				-0.8234661817550659,
				0,
				0.5673653483390808
			],
			"scale":[
				0.06307212263345718,
				0.06340456008911133,
				0.07223092019557953
			],
			"translation":[
				-1.7098718881607056,
				1.0083966255187988,
				-1.6662240028381348
			]
		},
		{
			"mesh":41,
			"name":"Cube.041",
			"rotation":[
				-0.02968708425760269,
				-0.7993687987327576,
				-0.08184786885976791,
				0.5944992303848267
			],
			"scale":[
				0.020000003278255463,
				0.056216780096292496,
				0.037500008940696716
			],
			"translation":[
				-1.4381332397460938,
				1.2716524600982666,
				-1.5151808261871338
			]
		},
		{
			"mesh":42,
			"name":"Cube.042",
			"rotation":[
				-0.02968708425760269,
				-0.7993687987327576,
				-0.08184786885976791,
				0.5944992303848267
			],
			"scale":[
				0.020000003278255463,
				0.056216780096292496,
				0.037500008940696716
			],
			"translation":[
				-1.5882465839385986,
				1.2980290651321411,
				-1.559590458869934
			]
		},
		{
			"mesh":43,
			"name":"Cube.043",
			"rotation":[
				-0.02968708984553814,
				-0.799368679523468,
				-0.08184786885976791,
				0.5944992303848267
			],
			"scale":[
				0.020000003278255463,
				0.1405419558286667,
				0.050000011920928955
			],
			"translation":[
				-1.5389819145202637,
				1.1154471635818481,
				-1.5540926456451416
			]
		},
		{
			"mesh":44,
			"name":"Cube.044",
			"rotation":[
				0,
				-0.8234661817550659,
				0,
				0.5673654079437256
			],
			"scale":[
				0.4575435221195221,
				0.11302639544010162,
				0.4575435221195221
			],
			"translation":[
				-1.995291829109192,
				1.740846037864685,
				-1.2206089496612549
			]
		},
		{
			"mesh":45,
			"name":"Cube.045",
			"rotation":[
				0,
				-0.8234661817550659,
				0,
				0.5673653483390808
			],
			"scale":[
				0.4371277987957001,
				0.23642748594284058,
				0.4367424547672272
			],
			"translation":[
				-1.995291829109192,
				1.4021122455596924,
				-1.2206089496612549
			]
		},
		{
			"mesh":46,
			"name":"Cube.046",
			"rotation":[
				0,
				-0.8234663009643555,
				0,
				0.5673653483390808
			],
			"scale":[
				0.45754358172416687,
				0.23642748594284058,
				0.45754358172416687
			],
			"translation":[
				-1.995291829109192,
				0.4623710811138153,
				-1.2206089496612549
			]
		},
		{
			"mesh":47,
			"name":"Cube.047",
			"rotation":[
				0,
				-0.8234663009643555,
				0,
				0.5673653483390808
			],
			"scale":[
				0.45754358172416687,
				0.23642748594284058,
				0.45754358172416687
			],
			"translation":[
				-1.995291829109192,
				0.9336881637573242,
				-1.2206089496612549
			]
		}
	],
	"materials":[
		{
			"doubleSided":true,
			"name":"Material.001",
			"pbrMetallicRoughness":{
				"baseColorFactor":[
					0.08628849685192108,
					0.23203234374523163,
					0.08001536875963211,
					1
				],
				"metallicFactor":0,
				"roughnessFactor":0.5
			}
		},
		{
			"doubleSided":true,
			"name":"Material.029",
			"pbrMetallicRoughness":{
				"baseColorFactor":[
					0.800054669380188,
					0.4354797601699829,
					0.3078033924102783,
					1
				],
				"metallicFactor":0,
				"roughnessFactor":0.30000001192092896
			}
		},
		{
			"doubleSided":true,
			"name":"Material.033",
			"pbrMetallicRoughness":{
				"baseColorFactor":[
					0.800054669380188,
					0.4354797601699829,
					0.3078033924102783,
					1
				],
				"metallicFactor":0,
				"roughnessFactor":0.30000001192092896
			}
		},
		{
			"doubleSided":true,
			"name":"Material.034",
			"pbrMetallicRoughness":{
				"baseColorFactor":[
					0.800054669380188,
					0.4354797601699829,
					0.3078033924102783,
					1
				],
				"metallicFactor":0,
				"roughnessFactor":0.30000001192092896
			}
		},
		{
			"doubleSided":true,
			"name":"Material.041",
			"pbrMetallicRoughness":{
				"metallicFactor":0,
				"roughnessFactor":0.5
			}
		},
		{
			"doubleSided":true,
			"name":"Material.046",
			"pbrMetallicRoughness":{
				"baseColorFactor":[
					0.8000074625015259,
					0.07191617041826248,
					0.08908946067094803,
					1
				],
				"metallicFactor":0,
				"roughnessFactor":0.5
			}
		},
		{
			"doubleSided":true,
			"name":"Material.047",
			"pbrMetallicRoughness":{
				"baseColorFactor":[
					0.8000074625015259,
					0.07191617041826248,
					0.08908946067094803,
					1
				],
				"metallicFactor":0,
				"roughnessFactor":0.5
			}
		},
		{
			"doubleSided":true,
			"name":"Material.048",
			"pbrMetallicRoughness":{
				"baseColorFactor":[
					0.8000074625015259,
					0.07191617041826248,
					0.08908946067094803,
					1
				],
				"metallicFactor":0,
				"roughnessFactor":0.5
			}
		},
		{
			"doubleSided":true,
			"name":"Material.049",
			"pbrMetallicRoughness":{
				"baseColorFactor":[
					0.8000074625015259,
					0.07191617041826248,
					0.08908946067094803,
					1
				],
				"metallicFactor":0,
				"roughnessFactor":0.5
			}
		},
		{
			"doubleSided":true,
			"name":"Material.040",
			"pbrMetallicRoughness":{
				"baseColorFactor":[
					0.06847819685935974,
					0.06662597507238388,
					0.06662597507238388,
					1
				],
				"metallicFactor":0,
				"roughnessFactor":0.30000001192092896
			}
		},
		{
			"doubleSided":true,
			"name":"Material.002",
			"pbrMetallicRoughness":{
				"baseColorFactor":[
					0.06847819685935974,
					0.06662597507238388,
					0.06662597507238388,
					1
				],
				"metallicFactor":0,
				"roughnessFactor":0.30000001192092896
			}
		},
		{
			"doubleSided":true,
			"name":"Material.003",
			"pbrMetallicRoughness":{
				"baseColorFactor":[
					0.8000074625015259,
					0.07191617041826248,
					0.08908946067094803,
					1
				],
				"metallicFactor":0,
				"roughnessFactor":0.5
			}
		},
		{
			"doubleSided":true,
			"name":"Material.004",
			"pbrMetallicRoughness":{
				"baseColorFactor":[
					0.8000074625015259,
					0.07191617041826248,
					0.08908946067094803,
					1
				],
				"metallicFactor":0,
				"roughnessFactor":0.5
			}
		},
		{
			"doubleSided":true,
			"name":"Material.005",
			"pbrMetallicRoughness":{
				"baseColorFactor":[
					0.8000074625015259,
					0.07191617041826248,
					0.08908946067094803,
					1
				],
				"metallicFactor":0,
				"roughnessFactor":0.5
			}
		},
		{
			"doubleSided":true,
			"name":"Material.006",
			"pbrMetallicRoughness":{
				"baseColorFactor":[
					0.8000074625015259,
					0.07191617041826248,
					0.08908946067094803,
					1
				],
				"metallicFactor":0,
				"roughnessFactor":0.5
			}
		},
		{
			"doubleSided":true,
			"name":"Material.007",
			"pbrMetallicRoughness":{
				"metallicFactor":0,
				"roughnessFactor":0.5
			}
		},
		{
			"doubleSided":true,
			"name":"Material.008",
			"pbrMetallicRoughness":{
				"baseColorFactor":[
					0.800054669380188,
					0.4354797601699829,
					0.3078033924102783,
					1
				],
				"metallicFactor":0,
				"roughnessFactor":0.30000001192092896
			}
		},
		{
			"doubleSided":true,
			"name":"Material.009",
			"pbrMetallicRoughness":{
				"baseColorFactor":[
					0.800054669380188,
					0.4354797601699829,
					0.3078033924102783,
					1
				],
				"metallicFactor":0,
				"roughnessFactor":0.30000001192092896
			}
		},
		{
			"doubleSided":true,
			"name":"Material.010",
			"pbrMetallicRoughness":{
				"baseColorFactor":[
					0.08628849685192108,
					0.23203234374523163,
					0.08001536875963211,
					1
				],
				"metallicFactor":0,
				"roughnessFactor":0.5
			}
		},
		{
			"doubleSided":true,
			"name":"Material.011",
			"pbrMetallicRoughness":{
				"baseColorFactor":[
					0.800054669380188,
					0.4354797601699829,
					0.3078033924102783,
					1
				],
				"metallicFactor":0,
				"roughnessFactor":0.30000001192092896
			}
		},
		{
			"doubleSided":true,
			"name":"Material.012",
			"pbrMetallicRoughness":{
				"baseColorFactor":[
					0.06847819685935974,
					0.06662597507238388,
					0.06662597507238388,
					1
				],
				"metallicFactor":0,
				"roughnessFactor":0.30000001192092896
			}
		},
		{
			"doubleSided":true,
			"name":"Material.013",
			"pbrMetallicRoughness":{
				"baseColorFactor":[
					0.8000074625015259,
					0.07191617041826248,
					0.08908946067094803,
					1
				],
				"metallicFactor":0,
				"roughnessFactor":0.5
			}
		},
		{
			"doubleSided":true,
			"name":"Material.014",
			"pbrMetallicRoughness":{
				"baseColorFactor":[
					0.8000074625015259,
					0.07191617041826248,
					0.08908946067094803,
					1
				],
				"metallicFactor":0,
				"roughnessFactor":0.5
			}
		},
		{
			"doubleSided":true,
			"name":"Material.015",
			"pbrMetallicRoughness":{
				"baseColorFactor":[
					0.8000074625015259,
					0.07191617041826248,
					0.08908946067094803,
					1
				],
				"metallicFactor":0,
				"roughnessFactor":0.5
			}
		},
		{
			"doubleSided":true,
			"name":"Material.016",
			"pbrMetallicRoughness":{
				"baseColorFactor":[
					0.8000074625015259,
					0.07191617041826248,
					0.08908946067094803,
					1
				],
				"metallicFactor":0,
				"roughnessFactor":0.5
			}
		},
		{
			"doubleSided":true,
			"name":"Material.017",
			"pbrMetallicRoughness":{
				"metallicFactor":0,
				"roughnessFactor":0.5
			}
		},
		{
			"doubleSided":true,
			"name":"Material.018",
			"pbrMetallicRoughness":{
				"baseColorFactor":[
					0.800054669380188,
					0.4354797601699829,
					0.3078033924102783,
					1
				],
				"metallicFactor":0,
				"roughnessFactor":0.30000001192092896
			}
		},
		{
			"doubleSided":true,
			"name":"Material.019",
			"pbrMetallicRoughness":{
				"baseColorFactor":[
					0.800054669380188,
					0.4354797601699829,
					0.3078033924102783,
					1
				],
				"metallicFactor":0,
				"roughnessFactor":0.30000001192092896
			}
		},
		{
			"doubleSided":true,
			"name":"Material.020",
			"pbrMetallicRoughness":{
				"baseColorFactor":[
					0.08628849685192108,
					0.23203234374523163,
					0.08001536875963211,
					1
				],
				"metallicFactor":0,
				"roughnessFactor":0.5
			}
		},
		{
			"doubleSided":true,
			"name":"Material.021",
			"pbrMetallicRoughness":{
				"baseColorFactor":[
					0.800054669380188,
					0.4354797601699829,
					0.3078033924102783,
					1
				],
				"metallicFactor":0,
				"roughnessFactor":0.30000001192092896
			}
		}
	],
	"meshes":[
		{
			"name":"Cube.028",
			"primitives":[
				{
					"attributes":{
						"POSITION":0,
						"NORMAL":1,
						"TEXCOORD_0":2
					},
					"indices":3,
					"material":0
				}
			]
		},
		{
			"name":"Cube.029",
			"primitives":[
				{
					"attributes":{
						"POSITION":4,
						"NORMAL":5,
						"TEXCOORD_0":6
					},
					"indices":3,
					"material":0
				}
			]
		},
		{
			"name":"Cube.030",
			"primitives":[
				{
					"attributes":{
						"POSITION":7,
						"NORMAL":8,
						"TEXCOORD_0":9
					},
					"indices":3,
					"material":1
				}
			]
		},
		{
			"name":"Cube.031",
			"primitives":[
				{
					"attributes":{
						"POSITION":10,
						"NORMAL":11,
						"TEXCOORD_0":12
					},
					"indices":3,
					"material":0
				}
			]
		},
		{
			"name":"Cube.035",
			"primitives":[
				{
					"attributes":{
						"POSITION":13,
						"NORMAL":14,
						"TEXCOORD_0":15
					},
					"indices":3,
					"material":2
				}
			]
		},
		{
			"name":"Cube.036",
			"primitives":[
				{
					"attributes":{
						"POSITION":16,
						"NORMAL":17,
						"TEXCOORD_0":18
					},
					"indices":3,
					"material":3
				}
			]
		},
		{
			"name":"Cube.042",
			"primitives":[
				{
					"attributes":{
						"POSITION":19,
						"NORMAL":20,
						"TEXCOORD_0":21
					},
					"indices":22,
					"material":4
				}
			]
		},
		{
			"name":"Cube.043",
			"primitives":[
				{
					"attributes":{
						"POSITION":23,
						"NORMAL":24,
						"TEXCOORD_0":25
					},
					"indices":22,
					"material":4
				}
			]
		},
		{
			"name":"Cube.044",
			"primitives":[
				{
					"attributes":{
						"POSITION":26,
						"NORMAL":27,
						"TEXCOORD_0":28
					},
					"indices":22,
					"material":4
				}
			]
		},
		{
			"name":"Cube.045",
			"primitives":[
				{
					"attributes":{
						"POSITION":29,
						"NORMAL":30,
						"TEXCOORD_0":31
					},
					"indices":22,
					"material":4
				}
			]
		},
		{
			"name":"Cube.046",
			"primitives":[
				{
					"attributes":{
						"POSITION":32,
						"NORMAL":33,
						"TEXCOORD_0":34
					},
					"indices":22,
					"material":4
				}
			]
		},
		{
			"name":"Cube.047",
			"primitives":[
				{
					"attributes":{
						"POSITION":35,
						"NORMAL":36,
						"TEXCOORD_0":37
					},
					"indices":22,
					"material":5
				}
			]
		},
		{
			"name":"Cube.048",
			"primitives":[
				{
					"attributes":{
						"POSITION":38,
						"NORMAL":39,
						"TEXCOORD_0":40
					},
					"indices":22,
					"material":6
				}
			]
		},
		{
			"name":"Cube.049",
			"primitives":[
				{
					"attributes":{
						"POSITION":41,
						"NORMAL":42,
						"TEXCOORD_0":43
					},
					"indices":22,
					"material":7
				}
			]
		},
		{
			"name":"Cube.050",
			"primitives":[
				{
					"attributes":{
						"POSITION":44,
						"NORMAL":45,
						"TEXCOORD_0":46
					},
					"indices":22,
					"material":8
				}
			]
		},
		{
			"name":"Cube.052",
			"primitives":[
				{
					"attributes":{
						"POSITION":47,
						"NORMAL":48,
						"TEXCOORD_0":49
					},
					"indices":22,
					"material":9
				}
			]
		},
		{
			"name":"Cube.001",
			"primitives":[
				{
					"attributes":{
						"POSITION":50,
						"NORMAL":51,
						"TEXCOORD_0":52
					},
					"indices":22,
					"material":10
				}
			]
		},
		{
			"name":"Cube.002",
			"primitives":[
				{
					"attributes":{
						"POSITION":53,
						"NORMAL":54,
						"TEXCOORD_0":55
					},
					"indices":22,
					"material":11
				}
			]
		},
		{
			"name":"Cube.003",
			"primitives":[
				{
					"attributes":{
						"POSITION":56,
						"NORMAL":57,
						"TEXCOORD_0":58
					},
					"indices":22,
					"material":12
				}
			]
		},
		{
			"name":"Cube.004",
			"primitives":[
				{
					"attributes":{
						"POSITION":59,
						"NORMAL":60,
						"TEXCOORD_0":61
					},
					"indices":22,
					"material":13
				}
			]
		},
		{
			"name":"Cube.005",
			"primitives":[
				{
					"attributes":{
						"POSITION":62,
						"NORMAL":63,
						"TEXCOORD_0":64
					},
					"indices":22,
					"material":14
				}
			]
		},
		{
			"name":"Cube.006",
			"primitives":[
				{
					"attributes":{
						"POSITION":65,
						"NORMAL":66,
						"TEXCOORD_0":67
					},
					"indices":22,
					"material":15
				}
			]
		},
		{
			"name":"Cube.007",
			"primitives":[
				{
					"attributes":{
						"POSITION":68,
						"NORMAL":69,
						"TEXCOORD_0":70
					},
					"indices":22,
					"material":15
				}
			]
		},
		{
			"name":"Cube.008",
			"primitives":[
				{
					"attributes":{
						"POSITION":71,
						"NORMAL":72,
						"TEXCOORD_0":73
					},
					"indices":3,
					"material":16
				}
			]
		},
		{
			"name":"Cube.009",
			"primitives":[
				{
					"attributes":{
						"POSITION":74,
						"NORMAL":75,
						"TEXCOORD_0":76
					},
					"indices":3,
					"material":17
				}
			]
		},
		{
			"name":"Cube.010",
			"primitives":[
				{
					"attributes":{
						"POSITION":77,
						"NORMAL":78,
						"TEXCOORD_0":79
					},
					"indices":22,
					"material":15
				}
			]
		},
		{
			"name":"Cube.011",
			"primitives":[
				{
					"attributes":{
						"POSITION":80,
						"NORMAL":81,
						"TEXCOORD_0":82
					},
					"indices":22,
					"material":15
				}
			]
		},
		{
			"name":"Cube.012",
			"primitives":[
				{
					"attributes":{
						"POSITION":83,
						"NORMAL":84,
						"TEXCOORD_0":85
					},
					"indices":22,
					"material":15
				}
			]
		},
		{
			"name":"Cube.013",
			"primitives":[
				{
					"attributes":{
						"POSITION":86,
						"NORMAL":87,
						"TEXCOORD_0":88
					},
					"indices":3,
					"material":18
				}
			]
		},
		{
			"name":"Cube.014",
			"primitives":[
				{
					"attributes":{
						"POSITION":89,
						"NORMAL":90,
						"TEXCOORD_0":91
					},
					"indices":3,
					"material":19
				}
			]
		},
		{
			"name":"Cube.015",
			"primitives":[
				{
					"attributes":{
						"POSITION":92,
						"NORMAL":93,
						"TEXCOORD_0":94
					},
					"indices":3,
					"material":18
				}
			]
		},
		{
			"name":"Cube.016",
			"primitives":[
				{
					"attributes":{
						"POSITION":95,
						"NORMAL":96,
						"TEXCOORD_0":97
					},
					"indices":3,
					"material":18
				}
			]
		},
		{
			"name":"Cube.017",
			"primitives":[
				{
					"attributes":{
						"POSITION":98,
						"NORMAL":99,
						"TEXCOORD_0":100
					},
					"indices":22,
					"material":20
				}
			]
		},
		{
			"name":"Cube.018",
			"primitives":[
				{
					"attributes":{
						"POSITION":101,
						"NORMAL":102,
						"TEXCOORD_0":103
					},
					"indices":22,
					"material":21
				}
			]
		},
		{
			"name":"Cube.019",
			"primitives":[
				{
					"attributes":{
						"POSITION":104,
						"NORMAL":105,
						"TEXCOORD_0":106
					},
					"indices":22,
					"material":22
				}
			]
		},
		{
			"name":"Cube.020",
			"primitives":[
				{
					"attributes":{
						"POSITION":107,
						"NORMAL":108,
						"TEXCOORD_0":109
					},
					"indices":22,
					"material":23
				}
			]
		},
		{
			"name":"Cube.021",
			"primitives":[
				{
					"attributes":{
						"POSITION":110,
						"NORMAL":111,
						"TEXCOORD_0":112
					},
					"indices":22,
					"material":24
				}
			]
		},
		{
			"name":"Cube.022",
			"primitives":[
				{
					"attributes":{
						"POSITION":113,
						"NORMAL":114,
						"TEXCOORD_0":115
					},
					"indices":22,
					"material":25
				}
			]
		},
		{
			"name":"Cube.023",
			"primitives":[
				{
					"attributes":{
						"POSITION":116,
						"NORMAL":117,
						"TEXCOORD_0":118
					},
					"indices":22,
					"material":25
				}
			]
		},
		{
			"name":"Cube.024",
			"primitives":[
				{
					"attributes":{
						"POSITION":119,
						"NORMAL":120,
						"TEXCOORD_0":121
					},
					"indices":3,
					"material":26
				}
			]
		},
		{
			"name":"Cube.025",
			"primitives":[
				{
					"attributes":{
						"POSITION":122,
						"NORMAL":123,
						"TEXCOORD_0":124
					},
					"indices":3,
					"material":27
				}
			]
		},
		{
			"name":"Cube.026",
			"primitives":[
				{
					"attributes":{
						"POSITION":125,
						"NORMAL":126,
						"TEXCOORD_0":127
					},
					"indices":22,
					"material":25
				}
			]
		},
		{
			"name":"Cube.027",
			"primitives":[
				{
					"attributes":{
						"POSITION":128,
						"NORMAL":129,
						"TEXCOORD_0":130
					},
					"indices":22,
					"material":25
				}
			]
		},
		{
			"name":"Cube.032",
			"primitives":[
				{
					"attributes":{
						"POSITION":131,
						"NORMAL":132,
						"TEXCOORD_0":133
					},
					"indices":22,
					"material":25
				}
			]
		},
		{
			"name":"Cube.033",
			"primitives":[
				{
					"attributes":{
						"POSITION":134,
						"NORMAL":135,
						"TEXCOORD_0":136
					},
					"indices":3,
					"material":28
				}
			]
		},
		{
			"name":"Cube.034",
			"primitives":[
				{
					"attributes":{
						"POSITION":137,
						"NORMAL":138,
						"TEXCOORD_0":139
					},
					"indices":3,
					"material":29
				}
			]
		},
		{
			"name":"Cube.037",
			"primitives":[
				{
					"attributes":{
						"POSITION":140,
						"NORMAL":141,
						"TEXCOORD_0":142
					},
					"indices":3,
					"material":28
				}
			]
		},
		{
			"name":"Cube.038",
			"primitives":[
				{
					"attributes":{
						"POSITION":143,
						"NORMAL":144,
						"TEXCOORD_0":145
					},
					"indices":3,
					"material":28
				}
			]
		}
	],
	"accessors":[
		{
			"bufferView":0,
			"componentType":5126,
			"count":24,
			"max":[
				1,
				1,
				1
			],
			"min":[
				-1,
				-1,
				-1
			],
			"type":"VEC3"
		},
		{
			"bufferView":1,
			"componentType":5126,
			"count":24,
			"type":"VEC3"
		},
		{
			"bufferView":2,
			"componentType":5126,
			"count":24,
			"type":"VEC2"
		},
		{
			"bufferView":3,
			"componentType":5123,
			"count":36,
			"type":"SCALAR"
		},
		{
			"bufferView":4,
			"componentType":5126,
			"count":24,
			"max":[
				1,
				1,
				1
			],
			"min":[
				-1,
				-1,
				-1
			],
			"type":"VEC3"
		},
		{
			"bufferView":5,
			"componentType":5126,
			"count":24,
			"type":"VEC3"
		},
		{
			"bufferView":6,
			"componentType":5126,
			"count":24,
			"type":"VEC2"
		},
		{
			"bufferView":7,
			"componentType":5126,
			"count":24,
			"max":[
				1,
				1,
				1
			],
			"min":[
				-1,
				-1,
				-1
			],
			"type":"VEC3"
		},
		{
			"bufferView":8,
			"componentType":5126,
			"count":24,
			"type":"VEC3"
		},
		{
			"bufferView":9,
			"componentType":5126,
			"count":24,
			"type":"VEC2"
		},
		{
			"bufferView":10,
			"componentType":5126,
			"count":24,
			"max":[
				1,
				1,
				1
			],
			"min":[
				-1,
				-1,
				-1
			],
			"type":"VEC3"
		},
		{
			"bufferView":11,
			"componentType":5126,
			"count":24,
			"type":"VEC3"
		},
		{
			"bufferView":12,
			"componentType":5126,
			"count":24,
			"type":"VEC2"
		},
		{
			"bufferView":13,
			"componentType":5126,
			"count":24,
			"max":[
				1,
				1,
				1
			],
			"min":[
				-1,
				-1,
				-1
			],
			"type":"VEC3"
		},
		{
			"bufferView":14,
			"componentType":5126,
			"count":24,
			"type":"VEC3"
		},
		{
			"bufferView":15,
			"componentType":5126,
			"count":24,
			"type":"VEC2"
		},
		{
			"bufferView":16,
			"componentType":5126,
			"count":24,
			"max":[
				1,
				1,
				1
			],
			"min":[
				-1,
				-1,
				-1
			],
			"type":"VEC3"
		},
		{
			"bufferView":17,
			"componentType":5126,
			"count":24,
			"type":"VEC3"
		},
		{
			"bufferView":18,
			"componentType":5126,
			"count":24,
			"type":"VEC2"
		},
		{
			"bufferView":19,
			"componentType":5126,
			"count":24,
			"max":[
				1,
				1,
				1
			],
			"min":[
				-1,
				-1,
				-1
			],
			"type":"VEC3"
		},
		{
			"bufferView":20,
			"componentType":5126,
			"count":24,
			"type":"VEC3"
		},
		{
			"bufferView":21,
			"componentType":5126,
			"count":24,
			"type":"VEC2"
		},
		{
			"bufferView":22,
			"componentType":5123,
			"count":36,
			"type":"SCALAR"
		},
		{
			"bufferView":23,
			"componentType":5126,
			"count":24,
			"max":[
				1,
				1,
				1
			],
			"min":[
				-1,
				-1,
				-1
			],
			"type":"VEC3"
		},
		{
			"bufferView":24,
			"componentType":5126,
			"count":24,
			"type":"VEC3"
		},
		{
			"bufferView":25,
			"componentType":5126,
			"count":24,
			"type":"VEC2"
		},
		{
			"bufferView":26,
			"componentType":5126,
			"count":24,
			"max":[
				1,
				1,
				1
			],
			"min":[
				-1,
				-1,
				-1
			],
			"type":"VEC3"
		},
		{
			"bufferView":27,
			"componentType":5126,
			"count":24,
			"type":"VEC3"
		},
		{
			"bufferView":28,
			"componentType":5126,
			"count":24,
			"type":"VEC2"
		},
		{
			"bufferView":29,
			"componentType":5126,
			"count":24,
			"max":[
				1,
				1,
				1
			],
			"min":[
				-1,
				-1,
				-1
			],
			"type":"VEC3"
		},
		{
			"bufferView":30,
			"componentType":5126,
			"count":24,
			"type":"VEC3"
		},
		{
			"bufferView":31,
			"componentType":5126,
			"count":24,
			"type":"VEC2"
		},
		{
			"bufferView":32,
			"componentType":5126,
			"count":24,
			"max":[
				1,
				1,
				1
			],
			"min":[
				-1,
				-1,
				-1
			],
			"type":"VEC3"
		},
		{
			"bufferView":33,
			"componentType":5126,
			"count":24,
			"type":"VEC3"
		},
		{
			"bufferView":34,
			"componentType":5126,
			"count":24,
			"type":"VEC2"
		},
		{
			"bufferView":35,
			"componentType":5126,
			"count":24,
			"max":[
				1,
				1,
				1
			],
			"min":[
				-1,
				-1,
				-1
			],
			"type":"VEC3"
		},
		{
			"bufferView":36,
			"componentType":5126,
			"count":24,
			"type":"VEC3"
		},
		{
			"bufferView":37,
			"componentType":5126,
			"count":24,
			"type":"VEC2"
		},
		{
			"bufferView":38,
			"componentType":5126,
			"count":24,
			"max":[
				1,
				1,
				1
			],
			"min":[
				-1,
				-1,
				-1
			],
			"type":"VEC3"
		},
		{
			"bufferView":39,
			"componentType":5126,
			"count":24,
			"type":"VEC3"
		},
		{
			"bufferView":40,
			"componentType":5126,
			"count":24,
			"type":"VEC2"
		},
		{
			"bufferView":41,
			"componentType":5126,
			"count":24,
			"max":[
				1,
				1,
				1
			],
			"min":[
				-1,
				-1,
				-1
			],
			"type":"VEC3"
		},
		{
			"bufferView":42,
			"componentType":5126,
			"count":24,
			"type":"VEC3"
		},
		{
			"bufferView":43,
			"componentType":5126,
			"count":24,
			"type":"VEC2"
		},
		{
			"bufferView":44,
			"componentType":5126,
			"count":24,
			"max":[
				1,
				1,
				1
			],
			"min":[
				-1,
				-1,
				-1
			],
			"type":"VEC3"
		},
		{
			"bufferView":45,
			"componentType":5126,
			"count":24,
			"type":"VEC3"
		},
		{
			"bufferView":46,
			"componentType":5126,
			"count":24,
			"type":"VEC2"
		},
		{
			"bufferView":47,
			"componentType":5126,
			"count":24,
			"max":[
				1,
				1,
				1
			],
			"min":[
				-1,
				-1,
				-1
			],
			"type":"VEC3"
		},
		{
			"bufferView":48,
			"componentType":5126,
			"count":24,
			"type":"VEC3"
		},
		{
			"bufferView":49,
			"componentType":5126,
			"count":24,
			"type":"VEC2"
		},
		{
			"bufferView":50,
			"componentType":5126,
			"count":24,
			"max":[
				1,
				1,
				1
			],
			"min":[
				-1,
				-1,
				-1
			],
			"type":"VEC3"
		},
		{
			"bufferView":51,
			"componentType":5126,
			"count":24,
			"type":"VEC3"
		},
		{
			"bufferView":52,
			"componentType":5126,
			"count":24,
			"type":"VEC2"
		},
		{
			"bufferView":53,
			"componentType":5126,
			"count":24,
			"max":[
				1,
				1,
				1
			],
			"min":[
				-1,
				-1,
				-1
			],
			"type":"VEC3"
		},
		{
			"bufferView":54,
			"componentType":5126,
			"count":24,
			"type":"VEC3"
		},
		{
			"bufferView":55,
			"componentType":5126,
			"count":24,
			"type":"VEC2"
		},
		{
			"bufferView":56,
			"componentType":5126,
			"count":24,
			"max":[
				1,
				1,
				1
			],
			"min":[
				-1,
				-1,
				-1
			],
			"type":"VEC3"
		},
		{
			"bufferView":57,
			"componentType":5126,
			"count":24,
			"type":"VEC3"
		},
		{
			"bufferView":58,
			"componentType":5126,
			"count":24,
			"type":"VEC2"
		},
		{
			"bufferView":59,
			"componentType":5126,
			"count":24,
			"max":[
				1,
				1,
				1
			],
			"min":[
				-1,
				-1,
				-1
			],
			"type":"VEC3"
		},
		{
			"bufferView":60,
			"componentType":5126,
			"count":24,
			"type":"VEC3"
		},
		{
			"bufferView":61,
			"componentType":5126,
			"count":24,
			"type":"VEC2"
		},
		{
			"bufferView":62,
			"componentType":5126,
			"count":24,
			"max":[
				1,
				1,
				1
			],
			"min":[
				-1,
				-1,
				-1
			],
			"type":"VEC3"
		},
		{
			"bufferView":63,
			"componentType":5126,
			"count":24,
			"type":"VEC3"
		},
		{
			"bufferView":64,
			"componentType":5126,
			"count":24,
			"type":"VEC2"
		},
		{
			"bufferView":65,
			"componentType":5126,
			"count":24,
			"max":[
				1,
				1,
				1
			],
			"min":[
				-1,
				-1,
				-1
			],
			"type":"VEC3"
		},
		{
			"bufferView":66,
			"componentType":5126,
			"count":24,
			"type":"VEC3"
		},
		{
			"bufferView":67,
			"componentType":5126,
			"count":24,
			"type":"VEC2"
		},
		{
			"bufferView":68,
			"componentType":5126,
			"count":24,
			"max":[
				1,
				1,
				1
			],
			"min":[
				-1,
				-1,
				-1
			],
			"type":"VEC3"
		},
		{
			"bufferView":69,
			"componentType":5126,
			"count":24,
			"type":"VEC3"
		},
		{
			"bufferView":70,
			"componentType":5126,
			"count":24,
			"type":"VEC2"
		},
		{
			"bufferView":71,
			"componentType":5126,
			"count":24,
			"max":[
				1,
				1,
				1
			],
			"min":[
				-1,
				-1,
				-1
			],
			"type":"VEC3"
		},
		{
			"bufferView":72,
			"componentType":5126,
			"count":24,
			"type":"VEC3"
		},
		{
			"bufferView":73,
			"componentType":5126,
			"count":24,
			"type":"VEC2"
		},
		{
			"bufferView":74,
			"componentType":5126,
			"count":24,
			"max":[
				1,
				1,
				1
			],
			"min":[
				-1,
				-1,
				-1
			],
			"type":"VEC3"
		},
		{
			"bufferView":75,
			"componentType":5126,
			"count":24,
			"type":"VEC3"
		},
		{
			"bufferView":76,
			"componentType":5126,
			"count":24,
			"type":"VEC2"
		},
		{
			"bufferView":77,
			"componentType":5126,
			"count":24,
			"max":[
				1,
				1,
				1
			],
			"min":[
				-1,
				-1,
				-1
			],
			"type":"VEC3"
		},
		{
			"bufferView":78,
			"componentType":5126,
			"count":24,
			"type":"VEC3"
		},
		{
			"bufferView":79,
			"componentType":5126,
			"count":24,
			"type":"VEC2"
		},
		{
			"bufferView":80,
			"componentType":5126,
			"count":24,
			"max":[
				1,
				1,
				1
			],
			"min":[
				-1,
				-1,
				-1
			],
			"type":"VEC3"
		},
		{
			"bufferView":81,
			"componentType":5126,
			"count":24,
			"type":"VEC3"
		},
		{
			"bufferView":82,
			"componentType":5126,
			"count":24,
			"type":"VEC2"
		},
		{
			"bufferView":83,
			"componentType":5126,
			"count":24,
			"max":[
				1,
				1,
				1
			],
			"min":[
				-1,
				-1,
				-1
			],
			"type":"VEC3"
		},
		{
			"bufferView":84,
			"componentType":5126,
			"count":24,
			"type":"VEC3"
		},
		{
			"bufferView":85,
			"componentType":5126,
			"count":24,
			"type":"VEC2"
		},
		{
			"bufferView":86,
			"componentType":5126,
			"count":24,
			"max":[
				1,
				1,
				1
			],
			"min":[
				-1,
				-1,
				-1
			],
			"type":"VEC3"
		},
		{
			"bufferView":87,
			"componentType":5126,
			"count":24,
			"type":"VEC3"
		},
		{
			"bufferView":88,
			"componentType":5126,
			"count":24,
			"type":"VEC2"
		},
		{
			"bufferView":89,
			"componentType":5126,
			"count":24,
			"max":[
				1,
				1,
				1
			],
			"min":[
				-1,
				-1,
				-1
			],
			"type":"VEC3"
		},
		{
			"bufferView":90,
			"componentType":5126,
			"count":24,
			"type":"VEC3"
		},
		{
			"bufferView":91,
			"componentType":5126,
			"count":24,
			"type":"VEC2"
		},
		{
			"bufferView":92,
			"componentType":5126,
			"count":24,
			"max":[
				1,
				1,
				1
			],
			"min":[
				-1,
				-1,
				-1
			],
			"type":"VEC3"
		},
		{
			"bufferView":93,
			"componentType":5126,
			"count":24,
			"type":"VEC3"
		},
		{
			"bufferView":94,
			"componentType":5126,
			"count":24,
			"type":"VEC2"
		},
		{
			"bufferView":95,
			"componentType":5126,
			"count":24,
			"max":[
				1,
				1,
				1
			],
			"min":[
				-1,
				-1,
				-1
			],
			"type":"VEC3"
		},
		{
			"bufferView":96,
			"componentType":5126,
			"count":24,
			"type":"VEC3"
		},
		{
			"bufferView":97,
			"componentType":5126,
			"count":24,
			"type":"VEC2"
		},
		{
			"bufferView":98,
			"componentType":5126,
			"count":24,
			"max":[
				1,
				1,
				1
			],
			"min":[
				-1,
				-1,
				-1
			],
			"type":"VEC3"
		},
		{
			"bufferView":99,
			"componentType":5126,
			"count":24,
			"type":"VEC3"
		},
		{
			"bufferView":100,
			"componentType":5126,
			"count":24,
			"type":"VEC2"
		},
		{
			"bufferView":101,
			"componentType":5126,
			"count":24,
			"max":[
				1,
				1,
				1
			],
			"min":[
				-1,
				-1,
				-1
			],
			"type":"VEC3"
		},
		{
			"bufferView":102,
			"componentType":5126,
			"count":24,
			"type":"VEC3"
		},
		{
			"bufferView":103,
			"componentType":5126,
			"count":24,
			"type":"VEC2"
		},
		{
			"bufferView":104,
			"componentType":5126,
			"count":24,
			"max":[
				1,
				1,
				1
			],
			"min":[
				-1,
				-1,
				-1
			],
			"type":"VEC3"
		},
		{
			"bufferView":105,
			"componentType":5126,
			"count":24,
			"type":"VEC3"
		},
		{
			"bufferView":106,
			"componentType":5126,
			"count":24,
			"type":"VEC2"
		},
		{
			"bufferView":107,
			"componentType":5126,
			"count":24,
			"max":[
				1,
				1,
				1
			],
			"min":[
				-1,
				-1,
				-1
			],
			"type":"VEC3"
		},
		{
			"bufferView":108,
			"componentType":5126,
			"count":24,
			"type":"VEC3"
		},
		{
			"bufferView":109,
			"componentType":5126,
			"count":24,
			"type":"VEC2"
		},
		{
			"bufferView":110,
			"componentType":5126,
			"count":24,
			"max":[
				1,
				1,
				1
			],
			"min":[
				-1,
				-1,
				-1
			],
			"type":"VEC3"
		},
		{
			"bufferView":111,
			"componentType":5126,
			"count":24,
			"type":"VEC3"
		},
		{
			"bufferView":112,
			"componentType":5126,
			"count":24,
			"type":"VEC2"
		},
		{
			"bufferView":113,
			"componentType":5126,
			"count":24,
			"max":[
				1,
				1,
				1
			],
			"min":[
				-1,
				-1,
				-1
			],
			"type":"VEC3"
		},
		{
			"bufferView":114,
			"componentType":5126,
			"count":24,
			"type":"VEC3"
		},
		{
			"bufferView":115,
			"componentType":5126,
			"count":24,
			"type":"VEC2"
		},
		{
			"bufferView":116,
			"componentType":5126,
			"count":24,
			"max":[
				1,
				1,
				1
			],
			"min":[
				-1,
				-1,
				-1
			],
			"type":"VEC3"
		},
		{
			"bufferView":117,
			"componentType":5126,
			"count":24,
			"type":"VEC3"
		},
		{
			"bufferView":118,
			"componentType":5126,
			"count":24,
			"type":"VEC2"
		},
		{
			"bufferView":119,
			"componentType":5126,
			"count":24,
			"max":[
				1,
				1,
				1
			],
			"min":[
				-1,
				-1,
				-1
			],
			"type":"VEC3"
		},
		{
			"bufferView":120,
			"componentType":5126,
			"count":24,
			"type":"VEC3"
		},
		{
			"bufferView":121,
			"componentType":5126,
			"count":24,
			"type":"VEC2"
		},
		{
			"bufferView":122,
			"componentType":5126,
			"count":24,
			"max":[
				1,
				1,
				1
			],
			"min":[
				-1,
				-1,
				-1
			],
			"type":"VEC3"
		},
		{
			"bufferView":123,
			"componentType":5126,
			"count":24,
			"type":"VEC3"
		},
		{
			"bufferView":124,
			"componentType":5126,
			"count":24,
			"type":"VEC2"
		},
		{
			"bufferView":125,
			"componentType":5126,
			"count":24,
			"max":[
				1,
				1,
				1
			],
			"min":[
				-1,
				-1,
				-1
			],
			"type":"VEC3"
		},
		{
			"bufferView":126,
			"componentType":5126,
			"count":24,
			"type":"VEC3"
		},
		{
			"bufferView":127,
			"componentType":5126,
			"count":24,
			"type":"VEC2"
		},
		{
			"bufferView":128,
			"componentType":5126,
			"count":24,
			"max":[
				1,
				1,
				1
			],
			"min":[
				-1,
				-1,
				-1
			],
			"type":"VEC3"
		},
		{
			"bufferView":129,
			"componentType":5126,
			"count":24,
			"type":"VEC3"
		},
		{
			"bufferView":130,
			"componentType":5126,
			"count":24,
			"type":"VEC2"
		},
		{
			"bufferView":131,
			"componentType":5126,
			"count":24,
			"max":[
				1,
				1,
				1
			],
			"min":[
				-1,
				-1,
				-1
			],
			"type":"VEC3"
		},
		{
			"bufferView":132,
			"componentType":5126,
			"count":24,
			"type":"VEC3"
		},
		{
			"bufferView":133,
			"componentType":5126,
			"count":24,
			"type":"VEC2"
		},
		{
			"bufferView":134,
			"componentType":5126,
			"count":24,
			"max":[
				1,
				1,
				1
			],
			"min":[
				-1,
				-1,
				-1
			],
			"type":"VEC3"
		},
		{
			"bufferView":135,
			"componentType":5126,
			"count":24,
			"type":"VEC3"
		},
		{
			"bufferView":136,
			"componentType":5126,
			"count":24,
			"type":"VEC2"
		},
		{
			"bufferView":137,
			"componentType":5126,
			"count":24,
			"max":[
				1,
				1,
				1
			],
			"min":[
				-1,
				-1,
				-1
			],
			"type":"VEC3"
		},
		{
			"bufferView":138,
			"componentType":5126,
			"count":24,
			"type":"VEC3"
		},
		{
			"bufferView":139,
			"componentType":5126,
			"count":24,
			"type":"VEC2"
		},
		{
			"bufferView":140,
			"componentType":5126,
			"count":24,
			"max":[
				1,
				1,
				1
			],
			"min":[
				-1,
				-1,
				-1
			],
			"type":"VEC3"
		},
		{
			"bufferView":141,
			"componentType":5126,
			"count":24,
			"type":"VEC3"
		},
		{
			"bufferView":142,
			"componentType":5126,
			"count":24,
			"type":"VEC2"
		},
		{
			"bufferView":143,
			"componentType":5126,
			"count":24,
			"max":[
				1,
				1,
				1
			],
			"min":[
				-1,
				-1,
				-1
			],
			"type":"VEC3"
		},
		{
			"bufferView":144,
			"componentType":5126,
			"count":24,
			"type":"VEC3"
		},
		{
			"bufferView":145,
			"componentType":5126,
			"count":24,
			"type":"VEC2"
		}
	],
	"bufferViews":[
		{
			"buffer":0,
			"byteLength":288,
			"byteOffset":0,
			"target":34962
		},
		{
			"buffer":0,
			"byteLength":288,
			"byteOffset":288,
			"target":34962
		},
		{
			"buffer":0,
			"byteLength":192,
			"byteOffset":576,
			"target":34962
		},
		{
			"buffer":0,
			"byteLength":72,
			"byteOffset":768,
			"target":34963
		},
		{
			"buffer":0,
			"byteLength":288,
			"byteOffset":840,
			"target":34962
		},
		{
			"buffer":0,
			"byteLength":288,
			"byteOffset":1128,
			"target":34962
		},
		{
			"buffer":0,
			"byteLength":192,
			"byteOffset":1416,
			"target":34962
		},
		{
			"buffer":0,
			"byteLength":288,
			"byteOffset":1608,
			"target":34962
		},
		{
			"buffer":0,
			"byteLength":288,
			"byteOffset":1896,
			"target":34962
		},
		{
			"buffer":0,
			"byteLength":192,
			"byteOffset":2184,
			"target":34962
		},
		{
			"buffer":0,
			"byteLength":288,
			"byteOffset":2376,
			"target":34962
		},
		{
			"buffer":0,
			"byteLength":288,
			"byteOffset":2664,
			"target":34962
		},
		{
			"buffer":0,
			"byteLength":192,
			"byteOffset":2952,
			"target":34962
		},
		{
			"buffer":0,
			"byteLength":288,
			"byteOffset":3144,
			"target":34962
		},
		{
			"buffer":0,
			"byteLength":288,
			"byteOffset":3432,
			"target":34962
		},
		{
			"buffer":0,
			"byteLength":192,
			"byteOffset":3720,
			"target":34962
		},
		{
			"buffer":0,
			"byteLength":288,
			"byteOffset":3912,
			"target":34962
		},
		{
			"buffer":0,
			"byteLength":288,
			"byteOffset":4200,
			"target":34962
		},
		{
			"buffer":0,
			"byteLength":192,
			"byteOffset":4488,
			"target":34962
		},
		{
			"buffer":0,
			"byteLength":288,
			"byteOffset":4680,
			"target":34962
		},
		{
			"buffer":0,
			"byteLength":288,
			"byteOffset":4968,
			"target":34962
		},
		{
			"buffer":0,
			"byteLength":192,
			"byteOffset":5256,
			"target":34962
		},
		{
			"buffer":0,
			"byteLength":72,
			"byteOffset":5448,
			"target":34963
		},
		{
			"buffer":0,
			"byteLength":288,
			"byteOffset":5520,
			"target":34962
		},
		{
			"buffer":0,
			"byteLength":288,
			"byteOffset":5808,
			"target":34962
		},
		{
			"buffer":0,
			"byteLength":192,
			"byteOffset":6096,
			"target":34962
		},
		{
			"buffer":0,
			"byteLength":288,
			"byteOffset":6288,
			"target":34962
		},
		{
			"buffer":0,
			"byteLength":288,
			"byteOffset":6576,
			"target":34962
		},
		{
			"buffer":0,
			"byteLength":192,
			"byteOffset":6864,
			"target":34962
		},
		{
			"buffer":0,
			"byteLength":288,
			"byteOffset":7056,
			"target":34962
		},
		{
			"buffer":0,
			"byteLength":288,
			"byteOffset":7344,
			"target":34962
		},
		{
			"buffer":0,
			"byteLength":192,
			"byteOffset":7632,
			"target":34962
		},
		{
			"buffer":0,
			"byteLength":288,
			"byteOffset":7824,
			"target":34962
		},
		{
			"buffer":0,
			"byteLength":288,
			"byteOffset":8112,
			"target":34962
		},
		{
			"buffer":0,
			"byteLength":192,
			"byteOffset":8400,
			"target":34962
		},
		{
			"buffer":0,
			"byteLength":288,
			"byteOffset":8592,
			"target":34962
		},
		{
			"buffer":0,
			"byteLength":288,
			"byteOffset":8880,
			"target":34962
		},
		{
			"buffer":0,
			"byteLength":192,
			"byteOffset":9168,
			"target":34962
		},
		{
			"buffer":0,
			"byteLength":288,
			"byteOffset":9360,
			"target":34962
		},
		{
			"buffer":0,
			"byteLength":288,
			"byteOffset":9648,
			"target":34962
		},
		{
			"buffer":0,
			"byteLength":192,
			"byteOffset":9936,
			"target":34962
		},
		{
			"buffer":0,
			"byteLength":288,
			"byteOffset":10128,
			"target":34962
		},
		{
			"buffer":0,
			"byteLength":288,
			"byteOffset":10416,
			"target":34962
		},
		{
			"buffer":0,
			"byteLength":192,
			"byteOffset":10704,
			"target":34962
		},
		{
			"buffer":0,
			"byteLength":288,
			"byteOffset":10896,
			"target":34962
		},
		{
			"buffer":0,
			"byteLength":288,
			"byteOffset":11184,
			"target":34962
		},
		{
			"buffer":0,
			"byteLength":192,
			"byteOffset":11472,
			"target":34962
		},
		{
			"buffer":0,
			"byteLength":288,
			"byteOffset":11664,
			"target":34962
		},
		{
			"buffer":0,
			"byteLength":288,
			"byteOffset":11952,
			"target":34962
		},
		{
			"buffer":0,
			"byteLength":192,
			"byteOffset":12240,
			"target":34962
		},
		{
			"buffer":0,
			"byteLength":288,
			"byteOffset":12432,
			"target":34962
		},
		{
			"buffer":0,
			"byteLength":288,
			"byteOffset":12720,
			"target":34962
		},
		{
			"buffer":0,
			"byteLength":192,
			"byteOffset":13008,
			"target":34962
		},
		{
			"buffer":0,
			"byteLength":288,
			"byteOffset":13200,
			"target":34962
		},
		{
			"buffer":0,
			"byteLength":288,
			"byteOffset":13488,
			"target":34962
		},
		{
			"buffer":0,
			"byteLength":192,
			"byteOffset":13776,
			"target":34962
		},
		{
			"buffer":0,
			"byteLength":288,
			"byteOffset":13968,
			"target":34962
		},
		{
			"buffer":0,
			"byteLength":288,
			"byteOffset":14256,
			"target":34962
		},
		{
			"buffer":0,
			"byteLength":192,
			"byteOffset":14544,
			"target":34962
		},
		{
			"buffer":0,
			"byteLength":288,
			"byteOffset":14736,
			"target":34962
		},
		{
			"buffer":0,
			"byteLength":288,
			"byteOffset":15024,
			"target":34962
		},
		{
			"buffer":0,
			"byteLength":192,
			"byteOffset":15312,
			"target":34962
		},
		{
			"buffer":0,
			"byteLength":288,
			"byteOffset":15504,
			"target":34962
		},
		{
			"buffer":0,
			"byteLength":288,
			"byteOffset":15792,
			"target":34962
		},
		{
			"buffer":0,
			"byteLength":192,
			"byteOffset":16080,
			"target":34962
		},
		{
			"buffer":0,
			"byteLength":288,
			"byteOffset":16272,
			"target":34962
		},
		{
			"buffer":0,
			"byteLength":288,
			"byteOffset":16560,
			"target":34962
		},
		{
			"buffer":0,
			"byteLength":192,
			"byteOffset":16848,
			"target":34962
		},
		{
			"buffer":0,
			"byteLength":288,
			"byteOffset":17040,
			"target":34962
		},
		{
			"buffer":0,
			"byteLength":288,
			"byteOffset":17328,
			"target":34962
		},
		{
			"buffer":0,
			"byteLength":192,
			"byteOffset":17616,
			"target":34962
		},
		{
			"buffer":0,
			"byteLength":288,
			"byteOffset":17808,
			"target":34962
		},
		{
			"buffer":0,
			"byteLength":288,
			"byteOffset":18096,
			"target":34962
		},
		{
			"buffer":0,
			"byteLength":192,
			"byteOffset":18384,
			"target":34962
		},
		{
			"buffer":0,
			"byteLength":288,
			"byteOffset":18576,
			"target":34962
		},
		{
			"buffer":0,
			"byteLength":288,
			"byteOffset":18864,
			"target":34962
		},
		{
			"buffer":0,
			"byteLength":192,
			"byteOffset":19152,
			"target":34962
		},
		{
			"buffer":0,
			"byteLength":288,
			"byteOffset":19344,
			"target":34962
		},
		{
			"buffer":0,
			"byteLength":288,
			"byteOffset":19632,
			"target":34962
		},
		{
			"buffer":0,
			"byteLength":192,
			"byteOffset":19920,
			"target":34962
		},
		{
			"buffer":0,
			"byteLength":288,
			"byteOffset":20112,
			"target":34962
		},
		{
			"buffer":0,
			"byteLength":288,
			"byteOffset":20400,
			"target":34962
		},
		{
			"buffer":0,
			"byteLength":192,
			"byteOffset":20688,
			"target":34962
		},
		{
			"buffer":0,
			"byteLength":288,
			"byteOffset":20880,
			"target":34962
		},
		{
			"buffer":0,
			"byteLength":288,
			"byteOffset":21168,
			"target":34962
		},
		{
			"buffer":0,
			"byteLength":192,
			"byteOffset":21456,
			"target":34962
		},
		{
			"buffer":0,
			"byteLength":288,
			"byteOffset":21648,
			"target":34962
		},
		{
			"buffer":0,
			"byteLength":288,
			"byteOffset":21936,
			"target":34962
		},
		{
			"buffer":0,
			"byteLength":192,
			"byteOffset":22224,
			"target":34962
		},
		{
			"buffer":0,
			"byteLength":288,
			"byteOffset":22416,
			"target":34962
		},
		{
			"buffer":0,
			"byteLength":288,
			"byteOffset":22704,
			"target":34962
		},
		{
			"buffer":0,
			"byteLength":192,
			"byteOffset":22992,
			"target":34962
		},
		{
			"buffer":0,
			"byteLength":288,
			"byteOffset":23184,
			"target":34962
		},
		{
			"buffer":0,
			"byteLength":288,
			"byteOffset":23472,
			"target":34962
		},
		{
			"buffer":0,
			"byteLength":192,
			"byteOffset":23760,
			"target":34962
		},
		{
			"buffer":0,
			"byteLength":288,
			"byteOffset":23952,
			"target":34962
		},
		{
			"buffer":0,
			"byteLength":288,
			"byteOffset":24240,
			"target":34962
		},
		{
			"buffer":0,
			"byteLength":192,
			"byteOffset":24528,
			"target":34962
		},
		{
			"buffer":0,
			"byteLength":288,
			"byteOffset":24720,
			"target":34962
		},
		{
			"buffer":0,
			"byteLength":288,
			"byteOffset":25008,
			"target":34962
		},
		{
			"buffer":0,
			"byteLength":192,
			"byteOffset":25296,
			"target":34962
		},
		{
			"buffer":0,
			"byteLength":288,
			"byteOffset":25488,
			"target":34962
		},
		{
			"buffer":0,
			"byteLength":288,
			"byteOffset":25776,
			"target":34962
		},
		{
			"buffer":0,
			"byteLength":192,
			"byteOffset":26064,
			"target":34962
		},
		{
			"buffer":0,
			"byteLength":288,
			"byteOffset":26256,
			"target":34962
		},
		{
			"buffer":0,
			"byteLength":288,
			"byteOffset":26544,
			"target":34962
		},
		{
			"buffer":0,
			"byteLength":192,
			"byteOffset":26832,
			"target":34962
		},
		{
			"buffer":0,
			"byteLength":288,
			"byteOffset":27024,
			"target":34962
		},
		{
			"buffer":0,
			"byteLength":288,
			"byteOffset":27312,
			"target":34962
		},
		{
			"buffer":0,
			"byteLength":192,
			"byteOffset":27600,
			"target":34962
		},
		{
			"buffer":0,
			"byteLength":288,
			"byteOffset":27792,
			"target":34962
		},
		{
			"buffer":0,
			"byteLength":288,
			"byteOffset":28080,
			"target":34962
		},
		{
			"buffer":0,
			"byteLength":192,
			"byteOffset":28368,
			"target":34962
		},
		{
			"buffer":0,
			"byteLength":288,
			"byteOffset":28560,
			"target":34962
		},
		{
			"buffer":0,
			"byteLength":288,
			"byteOffset":28848,
			"target":34962
		},
		{
			"buffer":0,
			"byteLength":192,
			"byteOffset":29136,
			"target":34962
		},
		{
			"buffer":0,
			"byteLength":288,
			"byteOffset":29328,
			"target":34962
		},
		{
			"buffer":0,
			"byteLength":288,
			"byteOffset":29616,
			"target":34962
		},
		{
			"buffer":0,
			"byteLength":192,
			"byteOffset":29904,
			"target":34962
		},
		{
			"buffer":0,
			"byteLength":288,
			"byteOffset":30096,
			"target":34962
		},
		{
			"buffer":0,
			"byteLength":288,
			"byteOffset":30384,
			"target":34962
		},
		{
			"buffer":0,
			"byteLength":192,
			"byteOffset":30672,
			"target":34962
		},
		{
			"buffer":0,
			"byteLength":288,
			"byteOffset":30864,
			"target":34962
		},
		{
			"buffer":0,
			"byteLength":288,
			"byteOffset":31152,
			"target":34962
		},
		{
			"buffer":0,
			"byteLength":192,
			"byteOffset":31440,
			"target":34962
		},
		{
			"buffer":0,
			"byteLength":288,
			"byteOffset":31632,
			"target":34962
		},
		{
			"buffer":0,
			"byteLength":288,
			"byteOffset":31920,
			"target":34962
		},
		{
			"buffer":0,
			"byteLength":192,
			"byteOffset":32208,
			"target":34962
		},
		{
			"buffer":0,
			"byteLength":288,
			"byteOffset":32400,
			"target":34962
		},
		{
			"buffer":0,
			"byteLength":288,
			"byteOffset":32688,
			"target":34962
		},
		{
			"buffer":0,
			"byteLength":192,
			"byteOffset":32976,
			"target":34962
		},
		{
			"buffer":0,
			"byteLength":288,
			"byteOffset":33168,
			"target":34962
		},
		{
			"buffer":0,
			"byteLength":288,
			"byteOffset":33456,
			"target":34962
		},
		{
			"buffer":0,
			"byteLength":192,
			"byteOffset":33744,
			"target":34962
		},
		{
			"buffer":0,
			"byteLength":288,
			"byteOffset":33936,
			"target":34962
		},
		{
			"buffer":0,
			"byteLength":288,
			"byteOffset":34224,
			"target":34962
		},
		{
			"buffer":0,
			"byteLength":192,
			"byteOffset":34512,
			"target":34962
		},
		{
			"buffer":0,
			"byteLength":288,
			"byteOffset":34704,
			"target":34962
		},
		{
			"buffer":0,
			"byteLength":288,
			"byteOffset":34992,
			"target":34962
		},
		{
			"buffer":0,
			"byteLength":192,
			"byteOffset":35280,
			"target":34962
		},
		{
			"buffer":0,
			"byteLength":288,
			"byteOffset":35472,
			"target":34962
		},
		{
			"buffer":0,
			"byteLength":288,
			"byteOffset":35760,
			"target":34962
		},
		{
			"buffer":0,
			"byteLength":192,
			"byteOffset":36048,
			"target":34962
		},
		{
			"buffer":0,
			"byteLength":288,
			"byteOffset":36240,
			"target":34962
		},
		{
			"buffer":0,
			"byteLength":288,
			"byteOffset":36528,
			"target":34962
		},
		{
			"buffer":0,
			"byteLength":192,
			"byteOffset":36816,
			"target":34962
		}
	],
	"buffers":[
		{
			"byteLength":37008,
			"uri":"greinEngineer.bin"
		}
	]
}
