{
	"asset":{
		"generator":"Khronos glTF Blender I/O v5.1.20",
		"version":"2.0"
	},
	"scene":0,
	"scenes":[
		{
			"name":"Scene",
			"nodes":[
				0,
				1,
				2,
				3,
				4,
				5,
				6,
				7,
				8,
				9,
				10,
				11,
				12,
				13,
				14,
				15,
				16,
				17,
				18,
				19,
				20,
				21,
				22,
				23,
				24,
				25,
				26,
				27,
				28,
				29,
				30,
				31,
				32,
				33,
				34,
				35,
				36,
				37,
				38,
				39,
				40,
				41,
				42,
				43,
				44
			]
		}
	],
	"nodes":[
		{
			"mesh":0,
			"name":"Cube.001",
			"rotation":[
				0,
				-0.5751637816429138,
				0,
				0.818038284778595
			],
			"scale":[
				0.4575435519218445,
				0.23642748594284058,
				0.4575435519218445
			],
			"translation":[
				0.9827359318733215,
				0.7005259394645691,
				0.09738793969154358
			]
		},
		{
			"mesh":1,
			"name":"Cube.002",
			"rotation":[
				0,
				-0.5751637816429138,
				0,
				0.818038284778595
			],
			"scale":[
				0.4575435519218445,
				0.23642748594284058,
				0.4575435519218445
			],
			"translation":[
				0.9827359318733215,
				0.2292088270187378,
				0.09738793969154358
			]
		},
		{
			"mesh":2,
			"name":"Cube.003",
			"rotation":[
				0,
				-0.5751637816429138,
				0,
				0.818038284778595
			],
			"scale":[
				0.4371277987957001,
				0.23642748594284058,
				0.4367424547672272
			],
			"translation":[
				0.9827359318733215,
				1.168950080871582,
				0.09738793969154358
			]
		},
		{
			"mesh":3,
			"name":"Cube.004",
			"rotation":[
				0,
				-0.5751637816429138,
				0,
				0.818038284778595
			],
			"scale":[
				0.4575435221195221,
				0.11302639544010162,
				0.4575435221195221
			],
			"translation":[
				0.9827359318733215,
				1.5076839923858643,
				0.09738793969154358
			]
		},
		{
			"mesh":4,
			"name":"Cube.005",
			"rotation":[
				0.5751637816429138,
				0,
				-0.818038284778595,
				0
			],
			"scale":[
				-0.050156522542238235,
				-0.04488799348473549,
				-0.35170167684555054
			],
			"translation":[
				1.124389886856079,
				0.8935853242874146,
				-0.49307286739349365
			]
		},
		{
			"mesh":5,
			"name":"Cube.006",
			"rotation":[
				0,
				0.818038284778595,
				0,
				0.5751637816429138
			],
			"scale":[
				-0.050156522542238235,
				-0.07710625231266022,
				-0.1502196341753006
			],
			"translation":[
				0.6991157531738281,
				0.7890127301216125,
				-0.34089434146881104
			]
		},
		{
			"mesh":6,
			"name":"Cube.007",
			"rotation":[
				0,
				0.818038284778595,
				0,
				0.5751637816429138
			],
			"scale":[
				-0.050156522542238235,
				-0.07710625231266022,
				-0.030876243487000465
			],
			"translation":[
				1.0098187923431396,
				0.7890127301216125,
				-0.45261824131011963
			]
		},
		{
			"mesh":7,
			"name":"Cube.008",
			"rotation":[
				0,
				-0.5751637816429138,
				0,
				0.818038284778595
			],
			"scale":[
				0.06307212263345718,
				0.06340456008911133,
				0.07223091274499893
			],
			"translation":[
				0.9090464115142822,
				0.7752344608306885,
				-0.4266417622566223
			]
		},
		{
			"mesh":8,
			"name":"Cube.009",
			"rotation":[
				0,
				-0.5751637816429138,
				0,
				0.818038284778595
			],
			"scale":[
				0.06307212263345718,
				0.06340456008911133,
				0.07223091274499893
			],
			"translation":[
				1.258147120475769,
				0.7752344608306885,
				0.5442033410072327
			]
		},
		{
			"mesh":9,
			"name":"Cylinder",
			"rotation":[
				-0.5234653353691101,
				-0.44198790192604065,
				-0.3680492043495178,
				0.6286258697509766
			],
			"scale":[
				0.5016218423843384,
				0.006990024354308844,
				0.2473759949207306
			],
			"translation":[
				1.419776201248169,
				0.985552191734314,
				-0.056496113538742065
			]
		},
		{
			"mesh":10,
			"name":"Cube.010",
			"rotation":[
				0,
				-0.5751637816429138,
				0,
				0.818038284778595
			],
			"scale":[
				0.0068631465546786785,
				0.0035464090760797262,
				0.4518945813179016
			],
			"translation":[
				0.8300007581710815,
				1.103451132774353,
				-0.3116421699523926
			]
		},
		{
			"mesh":11,
			"name":"Cube.011",
			"rotation":[
				0,
				-0.5751637816429138,
				0,
				0.818038284778595
			],
			"scale":[
				0.0068631465546786785,
				0.0035464090760797262,
				0.4518945813179016
			],
			"translation":[
				1.1279428005218506,
				1.103451132774353,
				0.516931414604187
			]
		},
		{
			"mesh":12,
			"name":"Cube.012",
			"rotation":[
				0,
				0.1717381775379181,
				0,
				0.9851426482200623
			],
			"scale":[
				0.006863147020339966,
				0.0035464090760797262,
				0.451894611120224
			],
			"translation":[
				0.571629524230957,
				1.103451132774353,
				0.2545231580734253
			]
		},
		{
			"mesh":13,
			"name":"Cube.013",
			"rotation":[
				0,
				0.818038284778595,
				0,
				0.575163722038269
			],
			"scale":[
				-0.050156522542238235,
				-0.030842499807476997,
				-0.030876241624355316
			],
			"translation":[
				0.9564398527145386,
				0.9593811631202698,
				-0.4334239959716797
			]
		},
		{
			"mesh":14,
			"name":"Cube.014",
			"rotation":[
				0,
				1,
				0,
				0
			],
			"scale":[
				-0.050156526267528534,
				-0.015421249903738499,
				-0.030876239761710167
			],
			"translation":[
				-0.5083983540534973,
				0.9495728611946106,
				-0.6569932103157043
			]
		},
		{
			"mesh":15,
			"name":"Cylinder.001",
			"rotation":[
				-0.6345956921577454,
				-0.09876897186040878,
				-0.08224620670080185,
				0.7620818614959717
			],
			"scale":[
				0.5016217827796936,
				0.006990024819970131,
				0.2473759949207306
			],
			"translation":[
				-1.1832860708236694,
				0.985552191734314,
				-0.4075300693511963
			]
		},
		{
			"mesh":16,
			"name":"Cube.015",
			"rotation":[
				0,
				0.9917058348655701,
				0,
				0.12852910161018372
			],
			"scale":[
				-0.050156548619270325,
				-0.015421249903738499,
				-0.03087625280022621
			],
			"translation":[
				-1.628491759300232,
				0.9495728611946106,
				-0.7251825332641602
			]
		},
		{
			"mesh":17,
			"name":"Cube.016",
			"rotation":[
				0,
				0.9917058348655701,
				0,
				0.12852910161018372
			],
			"scale":[
				-0.050156548619270325,
				-0.030842499807476997,
				-0.03087625280022621
			],
			"translation":[
				-1.756496787071228,
				0.9593811631202698,
				-0.2396468222141266
			]
		},
		{
			"mesh":18,
			"name":"Cube.017",
			"rotation":[
				0,
				0.6103579998016357,
				0,
				0.7921257019042969
			],
			"scale":[
				0.0068631465546786785,
				0.0035464090760797262,
				0.4518945813179016
			],
			"translation":[
				-1.4080803394317627,
				1.103451132774353,
				0.4674290418624878
			]
		},
		{
			"mesh":19,
			"name":"Cube.018",
			"rotation":[
				0,
				-0.1285291612148285,
				0,
				0.9917058348655701
			],
			"scale":[
				0.0068631465546786785,
				0.0035464090760797262,
				0.451894611120224
			],
			"translation":[
				-0.8764694929122925,
				1.103451132774353,
				0.15802231431007385
			]
		},
		{
			"mesh":20,
			"name":"Cube.019",
			"rotation":[
				0,
				-0.1285291612148285,
				0,
				0.9917058348655701
			],
			"scale":[
				0.0068631465546786785,
				0.0035464090760797262,
				0.451894611120224
			],
			"translation":[
				-1.727891206741333,
				1.103451132774353,
				-0.0664435625076294
			]
		},
		{
			"mesh":21,
			"name":"Cube.020",
			"rotation":[
				0,
				-0.1285291612148285,
				0,
				0.9917058348655701
			],
			"scale":[
				0.06307212263345718,
				0.06340456008911133,
				0.07223092019557953
			],
			"translation":[
				-0.7801700830459595,
				0.7752344608306885,
				0.06624351441860199
			]
		},
		{
			"mesh":22,
			"name":"Cube.021",
			"rotation":[
				0,
				-0.1285291612148285,
				0,
				0.9917058348655701
			],
			"scale":[
				0.06307212263345718,
				0.06340456008911133,
				0.07223092019557953
			],
			"translation":[
				-1.7777864933013916,
				0.7752344608306885,
				-0.19676464796066284
			]
		},
		{
			"mesh":23,
			"name":"Cube.022",
			"rotation":[
				0,
				0.9917058348655701,
				0,
				0.12852910161018372
			],
			"scale":[
				-0.050156548619270325,
				-0.07710625231266022,
				-0.03087625466287136
			],
			"translation":[
				-1.7420361042022705,
				0.7890127301216125,
				-0.2944977581501007
			]
		},
		{
			"mesh":24,
			"name":"Cube.023",
			"rotation":[
				0,
				0.9917058348655701,
				0,
				0.1285291165113449
			],
			"scale":[
				-0.050156548619270325,
				-0.07710625231266022,
				-0.15021969377994537
			],
			"translation":[
				-1.8262075185775757,
				0.7890127301216125,
				0.02477295696735382
			]
		},
		{
			"mesh":25,
			"name":"Cube.024",
			"rotation":[
				0.1285291463136673,
				0,
				-0.9917058348655701,
				0
			],
			"scale":[
				-0.050156548619270325,
				-0.04488800838589668,
				-0.3517017066478729
			],
			"translation":[
				-1.710385799407959,
				0.8935853242874146,
				-0.41180655360221863
			]
		},
		{
			"mesh":26,
			"name":"Cube.025",
			"rotation":[
				0,
				-0.1285291612148285,
				0,
				0.9917057752609253
			],
			"scale":[
				0.4575435221195221,
				0.11302639544010162,
				0.4575435221195221
			],
			"translation":[
				-1.304375410079956,
				1.5076839923858643,
				0.039708010852336884
			]
		},
		{
			"mesh":27,
			"name":"Cube.026",
			"rotation":[
				0,
				-0.1285291612148285,
				0,
				0.9917058348655701
			],
			"scale":[
				0.4371277987957001,
				0.23642748594284058,
				0.4367424547672272
			],
			"translation":[
				-1.304375410079956,
				1.168950080871582,
				0.039708010852336884
			]
		},
		{
			"mesh":28,
			"name":"Cube.027",
			"rotation":[
				0,
				-0.1285291463136673,
				0,
				0.9917058348655701
			],
			"scale":[
				0.45754358172416687,
				0.23642748594284058,
				0.45754358172416687
			],
			"translation":[
				-1.304375410079956,
				0.2292088270187378,
				0.039708010852336884
			]
		},
		{
			"mesh":29,
			"name":"Cube.028",
			"rotation":[
				0,
				-0.1285291463136673,
				0,
				0.9917058348655701
			],
			"scale":[
				0.45754358172416687,
				0.23642748594284058,
				0.45754358172416687
			],
			"translation":[
				-1.304375410079956,
				0.7005259394645691,
				0.039708010852336884
			]
		},
		{
			"mesh":30,
			"name":"Cylinder.002",
			"rotation":[
				-0.026995331048965454,
				-0.7677714824676514,
				-0.6393334865570068,
				0.032418493181467056
			],
			"scale":[
				0.5016217231750488,
				0.006990024354308844,
				0.24737593531608582
			],
			"translation":[
				-0.12665709853172302,
				0.985552191734314,
				2.2915313243865967
			]
		},
		{
			"mesh":31,
			"name":"Cube.029",
			"rotation":[
				0,
				0.6091619729995728,
				0,
				0.7930458188056946
			],
			"scale":[
				-0.050156522542238235,
				-0.015421249903738499,
				-0.030876239761710167
			],
			"translation":[
				0.9507020711898804,
				0.9495728611946106,
				0.5833888053894043
			]
		},
		{
			"mesh":32,
			"name":"Cube.030",
			"rotation":[
				0,
				0.042186588048934937,
				0,
				0.9991097450256348
			],
			"scale":[
				-0.050156526267528534,
				-0.030842499807476997,
				-0.030876239761710167
			],
			"translation":[
				0.35699373483657837,
				0.9593811631202698,
				1.9410501718521118
			]
		},
		{
			"mesh":33,
			"name":"Cube.031",
			"rotation":[
				0,
				-0.6766469478607178,
				0,
				0.7363076210021973
			],
			"scale":[
				0.006863148417323828,
				0.0035464090760797262,
				0.4518946707248688
			],
			"translation":[
				-0.20847097039222717,
				1.103451132774353,
				1.391869068145752
			]
		},
		{
			"mesh":34,
			"name":"Cube.032",
			"rotation":[
				0,
				-0.9991097450256348,
				0,
				0.042186588048934937
			],
			"scale":[
				0.006863147020339966,
				0.0035464090760797262,
				0.451894611120224
			],
			"translation":[
				-0.6054480075836182,
				1.103451132774353,
				1.8617113828659058
			]
		},
		{
			"mesh":35,
			"name":"Cube.033",
			"rotation":[
				0,
				-0.9991097450256348,
				0,
				0.042186588048934937
			],
			"scale":[
				0.006863147020339966,
				0.0035464090760797262,
				0.451894611120224
			],
			"translation":[
				0.2719312310218811,
				1.103451132774353,
				1.7874858379364014
			]
		},
		{
			"mesh":36,
			"name":"Cube.034",
			"rotation":[
				0,
				-0.9991097450256348,
				0,
				0.042186588048934937
			],
			"scale":[
				0.06307212263345718,
				0.06340456008911133,
				0.07223092019557953
			],
			"translation":[
				-0.6653701066970825,
				0.7752344608306885,
				1.9804811477661133
			]
		},
		{
			"mesh":37,
			"name":"Cube.035",
			"rotation":[
				0,
				-0.9991097450256348,
				0,
				0.042186588048934937
			],
			"scale":[
				0.06307212263345718,
				0.06340456008911133,
				0.07223092019557953
			],
			"translation":[
				0.3626609742641449,
				0.7752344608306885,
				1.8935105800628662
			]
		},
		{
			"mesh":38,
			"name":"Cube.036",
			"rotation":[
				0,
				0.042186588048934937,
				0,
				0.9991097450256348
			],
			"scale":[
				-0.050156526267528534,
				-0.07710625231266022,
				-0.030876241624355316
			],
			"translation":[
				0.36177557706832886,
				0.7890127301216125,
				1.9975733757019043
			]
		},
		{
			"mesh":39,
			"name":"Cube.037",
			"rotation":[
				0,
				0.042186588048934937,
				0,
				0.9991097450256348
			],
			"scale":[
				-0.050156526267528534,
				-0.07710625231266022,
				-0.1502196341753006
			],
			"translation":[
				0.33394208550453186,
				0.7890127301216125,
				1.6685689687728882
			]
		},
		{
			"mesh":40,
			"name":"Cube.038",
			"rotation":[
				0.9991097450256348,
				0,
				-0.042186588048934937,
				0
			],
			"scale":[
				-0.050156526267528534,
				-0.04488799348473549,
				-0.3517017066478729
			],
			"translation":[
				0.371320903301239,
				0.8935853242874146,
				2.118701457977295
			]
		},
		{
			"mesh":41,
			"name":"Cube.039",
			"rotation":[
				0,
				-0.9991097450256348,
				0,
				0.042186591774225235
			],
			"scale":[
				0.4575435519218445,
				0.11302639544010162,
				0.4575435519218445
			],
			"translation":[
				-0.1626499593257904,
				1.5076839923858643,
				1.829590916633606
			]
		},
		{
			"mesh":42,
			"name":"Cube.040",
			"rotation":[
				0,
				-0.9991097450256348,
				0,
				0.042186588048934937
			],
			"scale":[
				0.4371277987957001,
				0.23642748594284058,
				0.4367424547672272
			],
			"translation":[
				-0.1626499593257904,
				1.168950080871582,
				1.829590916633606
			]
		},
		{
			"mesh":43,
			"name":"Cube.041",
			"rotation":[
				0,
				-0.9991097450256348,
				0,
				0.04218658432364464
			],
			"scale":[
				0.45754358172416687,
				0.23642748594284058,
				0.45754358172416687
			],
			"translation":[
				-0.1626499593257904,
				0.2292088270187378,
				1.829590916633606
			]
		},
		{
			"mesh":44,
			"name":"Cube.042",
			"rotation":[
				0,
				-0.9991097450256348,
				0,
				0.04218658432364464
			],
			"scale":[
				0.45754358172416687,
				0.23642748594284058,
				0.45754358172416687
			],
			"translation":[
				-0.1626499593257904,
				0.7005259394645691,
				1.829590916633606
			]
		}
	],
	"materials":[
		{
			"doubleSided":true,
			"name":"Material.015",
			"pbrMetallicRoughness":{
				"baseColorFactor":[
					0.04666510224342346,
					0.035601332783699036,
					0.024157632142305374,
					1
				],
				"metallicFactor":0,
				"roughnessFactor":0.30000001192092896
			}
		},
		{
			"doubleSided":true,
			"name":"Material.001",
			"pbrMetallicRoughness":{
				"baseColorFactor":[
					0.7991030812263489,
					0.5775805711746216,
					0.35640019178390503,
					1
				],
				"metallicFactor":0,
				"roughnessFactor":0.30000001192092896
			}
		},
		{
			"doubleSided":true,
			"name":"Material.002",
			"pbrMetallicRoughness":{
				"baseColorFactor":[
					0.800054669380188,
					0.4354797601699829,
					0.3078033924102783,
					1
				],
				"metallicFactor":0,
				"roughnessFactor":0.30000001192092896
			}
		},
		{
			"doubleSided":true,
			"name":"Material.004",
			"pbrMetallicRoughness":{
				"baseColorFactor":[
					0.06847819685935974,
					0.06662597507238388,
					0.06662597507238388,
					1
				],
				"metallicFactor":0,
				"roughnessFactor":0.30000001192092896
			}
		},
		{
			"doubleSided":true,
			"name":"Material.005",
			"pbrMetallicRoughness":{
				"baseColorFactor":[
					0.06847819685935974,
					0.06662597507238388,
					0.06662597507238388,
					1
				],
				"metallicFactor":0,
				"roughnessFactor":0.30000001192092896
			}
		},
		{
			"doubleSided":true,
			"name":"Material.006",
			"pbrMetallicRoughness":{
				"baseColorFactor":[
					0.06847819685935974,
					0.06662597507238388,
					0.06662597507238388,
					1
				],
				"metallicFactor":0,
				"roughnessFactor":0.30000001192092896
			}
		},
		{
			"doubleSided":true,
			"name":"Material.007",
			"pbrMetallicRoughness":{
				"baseColorFactor":[
					0.800054669380188,
					0.4354797601699829,
					0.3078033924102783,
					1
				],
				"metallicFactor":0,
				"roughnessFactor":0.30000001192092896
			}
		},
		{
			"doubleSided":true,
			"name":"Material.008",
			"pbrMetallicRoughness":{
				"baseColorFactor":[
					0.800054669380188,
					0.4354797601699829,
					0.3078033924102783,
					1
				],
				"metallicFactor":0,
				"roughnessFactor":0.30000001192092896
			}
		},
		{
			"doubleSided":true,
			"name":"Material.009",
			"pbrMetallicRoughness":{
				"baseColorFactor":[
					0.7991030812263489,
					0.5775805711746216,
					0.35640019178390503,
					1
				],
				"metallicFactor":0,
				"roughnessFactor":0.5
			}
		},
		{
			"doubleSided":true,
			"name":"Material.010",
			"pbrMetallicRoughness":{
				"baseColorFactor":[
					0.8000473976135254,
					0.5759237408638,
					0.3580402731895447,
					1
				],
				"metallicFactor":0,
				"roughnessFactor":0.30000001192092896
			}
		},
		{
			"doubleSided":true,
			"name":"Material.011",
			"pbrMetallicRoughness":{
				"baseColorFactor":[
					0.8000473976135254,
					0.5759237408638,
					0.3580402731895447,
					1
				],
				"metallicFactor":0,
				"roughnessFactor":0.30000001192092896
			}
		},
		{
			"doubleSided":true,
			"name":"Material.012",
			"pbrMetallicRoughness":{
				"baseColorFactor":[
					0.8000473976135254,
					0.5759237408638,
					0.3580402731895447,
					1
				],
				"metallicFactor":0,
				"roughnessFactor":0.30000001192092896
			}
		},
		{
			"doubleSided":true,
			"name":"Material.013",
			"pbrMetallicRoughness":{
				"baseColorFactor":[
					0.06847819685935974,
					0.06662597507238388,
					0.06662597507238388,
					1
				],
				"metallicFactor":0,
				"roughnessFactor":0.30000001192092896
			}
		},
		{
			"doubleSided":true,
			"name":"Material.014",
			"pbrMetallicRoughness":{
				"baseColorFactor":[
					0.06847819685935974,
					0.06662597507238388,
					0.06662597507238388,
					1
				],
				"metallicFactor":0,
				"roughnessFactor":0.30000001192092896
			}
		},
		{
			"doubleSided":true,
			"name":"Material.003",
			"pbrMetallicRoughness":{
				"baseColorFactor":[
					0.7991030812263489,
					0.5775805711746216,
					0.35640019178390503,
					1
				],
				"metallicFactor":0,
				"roughnessFactor":0.5
			}
		},
		{
			"doubleSided":true,
			"name":"Material.016",
			"pbrMetallicRoughness":{
				"baseColorFactor":[
					0.06847819685935974,
					0.06662597507238388,
					0.06662597507238388,
					1
				],
				"metallicFactor":0,
				"roughnessFactor":0.30000001192092896
			}
		},
		{
			"doubleSided":true,
			"name":"Material.017",
			"pbrMetallicRoughness":{
				"baseColorFactor":[
					0.06847819685935974,
					0.06662597507238388,
					0.06662597507238388,
					1
				],
				"metallicFactor":0,
				"roughnessFactor":0.30000001192092896
			}
		},
		{
			"doubleSided":true,
			"name":"Material.018",
			"pbrMetallicRoughness":{
				"baseColorFactor":[
					0.8000473976135254,
					0.5759237408638,
					0.3580402731895447,
					1
				],
				"metallicFactor":0,
				"roughnessFactor":0.30000001192092896
			}
		},
		{
			"doubleSided":true,
			"name":"Material.019",
			"pbrMetallicRoughness":{
				"baseColorFactor":[
					0.8000473976135254,
					0.5759237408638,
					0.3580402731895447,
					1
				],
				"metallicFactor":0,
				"roughnessFactor":0.30000001192092896
			}
		},
		{
			"doubleSided":true,
			"name":"Material.020",
			"pbrMetallicRoughness":{
				"baseColorFactor":[
					0.8000473976135254,
					0.5759237408638,
					0.3580402731895447,
					1
				],
				"metallicFactor":0,
				"roughnessFactor":0.30000001192092896
			}
		},
		{
			"doubleSided":true,
			"name":"Material.021",
			"pbrMetallicRoughness":{
				"baseColorFactor":[
					0.800054669380188,
					0.4354797601699829,
					0.3078033924102783,
					1
				],
				"metallicFactor":0,
				"roughnessFactor":0.30000001192092896
			}
		},
		{
			"doubleSided":true,
			"name":"Material.022",
			"pbrMetallicRoughness":{
				"baseColorFactor":[
					0.800054669380188,
					0.4354797601699829,
					0.3078033924102783,
					1
				],
				"metallicFactor":0,
				"roughnessFactor":0.30000001192092896
			}
		},
		{
			"doubleSided":true,
			"name":"Material.023",
			"pbrMetallicRoughness":{
				"baseColorFactor":[
					0.06847819685935974,
					0.06662597507238388,
					0.06662597507238388,
					1
				],
				"metallicFactor":0,
				"roughnessFactor":0.30000001192092896
			}
		},
		{
			"doubleSided":true,
			"name":"Material.024",
			"pbrMetallicRoughness":{
				"baseColorFactor":[
					0.06847819685935974,
					0.06662597507238388,
					0.06662597507238388,
					1
				],
				"metallicFactor":0,
				"roughnessFactor":0.30000001192092896
			}
		},
		{
			"doubleSided":true,
			"name":"Material.025",
			"pbrMetallicRoughness":{
				"baseColorFactor":[
					0.06847819685935974,
					0.06662597507238388,
					0.06662597507238388,
					1
				],
				"metallicFactor":0,
				"roughnessFactor":0.30000001192092896
			}
		},
		{
			"doubleSided":true,
			"name":"Material.026",
			"pbrMetallicRoughness":{
				"baseColorFactor":[
					0.04666510224342346,
					0.035601332783699036,
					0.024157632142305374,
					1
				],
				"metallicFactor":0,
				"roughnessFactor":0.30000001192092896
			}
		},
		{
			"doubleSided":true,
			"name":"Material.027",
			"pbrMetallicRoughness":{
				"baseColorFactor":[
					0.800054669380188,
					0.4354797601699829,
					0.3078033924102783,
					1
				],
				"metallicFactor":0,
				"roughnessFactor":0.30000001192092896
			}
		},
		{
			"doubleSided":true,
			"name":"Material.028",
			"pbrMetallicRoughness":{
				"baseColorFactor":[
					0.7991030812263489,
					0.5775805711746216,
					0.35640019178390503,
					1
				],
				"metallicFactor":0,
				"roughnessFactor":0.30000001192092896
			}
		},
		{
			"doubleSided":true,
			"name":"Material.029",
			"pbrMetallicRoughness":{
				"baseColorFactor":[
					0.7991030812263489,
					0.5775805711746216,
					0.35640019178390503,
					1
				],
				"metallicFactor":0,
				"roughnessFactor":0.5
			}
		},
		{
			"doubleSided":true,
			"name":"Material.030",
			"pbrMetallicRoughness":{
				"baseColorFactor":[
					0.06847819685935974,
					0.06662597507238388,
					0.06662597507238388,
					1
				],
				"metallicFactor":0,
				"roughnessFactor":0.30000001192092896
			}
		},
		{
			"doubleSided":true,
			"name":"Material.031",
			"pbrMetallicRoughness":{
				"baseColorFactor":[
					0.06847819685935974,
					0.06662597507238388,
					0.06662597507238388,
					1
				],
				"metallicFactor":0,
				"roughnessFactor":0.30000001192092896
			}
		},
		{
			"doubleSided":true,
			"name":"Material.032",
			"pbrMetallicRoughness":{
				"baseColorFactor":[
					0.8000473976135254,
					0.5759237408638,
					0.3580402731895447,
					1
				],
				"metallicFactor":0,
				"roughnessFactor":0.30000001192092896
			}
		},
		{
			"doubleSided":true,
			"name":"Material.033",
			"pbrMetallicRoughness":{
				"baseColorFactor":[
					0.8000473976135254,
					0.5759237408638,
					0.3580402731895447,
					1
				],
				"metallicFactor":0,
				"roughnessFactor":0.30000001192092896
			}
		},
		{
			"doubleSided":true,
			"name":"Material.034",
			"pbrMetallicRoughness":{
				"baseColorFactor":[
					0.8000473976135254,
					0.5759237408638,
					0.3580402731895447,
					1
				],
				"metallicFactor":0,
				"roughnessFactor":0.30000001192092896
			}
		},
		{
			"doubleSided":true,
			"name":"Material.035",
			"pbrMetallicRoughness":{
				"baseColorFactor":[
					0.800054669380188,
					0.4354797601699829,
					0.3078033924102783,
					1
				],
				"metallicFactor":0,
				"roughnessFactor":0.30000001192092896
			}
		},
		{
			"doubleSided":true,
			"name":"Material.036",
			"pbrMetallicRoughness":{
				"baseColorFactor":[
					0.800054669380188,
					0.4354797601699829,
					0.3078033924102783,
					1
				],
				"metallicFactor":0,
				"roughnessFactor":0.30000001192092896
			}
		},
		{
			"doubleSided":true,
			"name":"Material.037",
			"pbrMetallicRoughness":{
				"baseColorFactor":[
					0.06847819685935974,
					0.06662597507238388,
					0.06662597507238388,
					1
				],
				"metallicFactor":0,
				"roughnessFactor":0.30000001192092896
			}
		},
		{
			"doubleSided":true,
			"name":"Material.038",
			"pbrMetallicRoughness":{
				"baseColorFactor":[
					0.06847819685935974,
					0.06662597507238388,
					0.06662597507238388,
					1
				],
				"metallicFactor":0,
				"roughnessFactor":0.30000001192092896
			}
		},
		{
			"doubleSided":true,
			"name":"Material.039",
			"pbrMetallicRoughness":{
				"baseColorFactor":[
					0.06847819685935974,
					0.06662597507238388,
					0.06662597507238388,
					1
				],
				"metallicFactor":0,
				"roughnessFactor":0.30000001192092896
			}
		},
		{
			"doubleSided":true,
			"name":"Material.040",
			"pbrMetallicRoughness":{
				"baseColorFactor":[
					0.04666510224342346,
					0.035601332783699036,
					0.024157632142305374,
					1
				],
				"metallicFactor":0,
				"roughnessFactor":0.30000001192092896
			}
		},
		{
			"doubleSided":true,
			"name":"Material.041",
			"pbrMetallicRoughness":{
				"baseColorFactor":[
					0.800054669380188,
					0.4354797601699829,
					0.3078033924102783,
					1
				],
				"metallicFactor":0,
				"roughnessFactor":0.30000001192092896
			}
		},
		{
			"doubleSided":true,
			"name":"Material.042",
			"pbrMetallicRoughness":{
				"baseColorFactor":[
					0.7991030812263489,
					0.5775805711746216,
					0.35640019178390503,
					1
				],
				"metallicFactor":0,
				"roughnessFactor":0.30000001192092896
			}
		}
	],
	"meshes":[
		{
			"name":"Cube.001",
			"primitives":[
				{
					"attributes":{
						"POSITION":0,
						"NORMAL":1,
						"TEXCOORD_0":2
					},
					"indices":3,
					"material":0
				}
			]
		},
		{
			"name":"Cube.002",
			"primitives":[
				{
					"attributes":{
						"POSITION":4,
						"NORMAL":5,
						"TEXCOORD_0":6
					},
					"indices":3,
					"material":1
				}
			]
		},
		{
			"name":"Cube.003",
			"primitives":[
				{
					"attributes":{
						"POSITION":7,
						"NORMAL":8,
						"TEXCOORD_0":9
					},
					"indices":3,
					"material":2
				}
			]
		},
		{
			"name":"Cube.004",
			"primitives":[
				{
					"attributes":{
						"POSITION":10,
						"NORMAL":11,
						"TEXCOORD_0":12
					},
					"indices":3,
					"material":0
				}
			]
		},
		{
			"name":"Cube.005",
			"primitives":[
				{
					"attributes":{
						"POSITION":13,
						"NORMAL":14,
						"TEXCOORD_0":15
					},
					"indices":3,
					"material":3
				}
			]
		},
		{
			"name":"Cube.006",
			"primitives":[
				{
					"attributes":{
						"POSITION":16,
						"NORMAL":17,
						"TEXCOORD_0":18
					},
					"indices":3,
					"material":4
				}
			]
		},
		{
			"name":"Cube.007",
			"primitives":[
				{
					"attributes":{
						"POSITION":19,
						"NORMAL":20,
						"TEXCOORD_0":21
					},
					"indices":3,
					"material":5
				}
			]
		},
		{
			"name":"Cube.008",
			"primitives":[
				{
					"attributes":{
						"POSITION":22,
						"NORMAL":23,
						"TEXCOORD_0":24
					},
					"indices":3,
					"material":6
				}
			]
		},
		{
			"name":"Cube.009",
			"primitives":[
				{
					"attributes":{
						"POSITION":25,
						"NORMAL":26,
						"TEXCOORD_0":27
					},
					"indices":3,
					"material":7
				}
			]
		},
		{
			"name":"Cylinder.001",
			"primitives":[
				{
					"attributes":{
						"POSITION":28,
						"NORMAL":29,
						"TEXCOORD_0":30
					},
					"indices":31,
					"material":8
				}
			]
		},
		{
			"name":"Cube.010",
			"primitives":[
				{
					"attributes":{
						"POSITION":32,
						"NORMAL":33,
						"TEXCOORD_0":34
					},
					"indices":3,
					"material":9
				}
			]
		},
		{
			"name":"Cube.011",
			"primitives":[
				{
					"attributes":{
						"POSITION":35,
						"NORMAL":36,
						"TEXCOORD_0":37
					},
					"indices":3,
					"material":10
				}
			]
		},
		{
			"name":"Cube.012",
			"primitives":[
				{
					"attributes":{
						"POSITION":38,
						"NORMAL":39,
						"TEXCOORD_0":40
					},
					"indices":3,
					"material":11
				}
			]
		},
		{
			"name":"Cube.013",
			"primitives":[
				{
					"attributes":{
						"POSITION":41,
						"NORMAL":42,
						"TEXCOORD_0":43
					},
					"indices":3,
					"material":12
				}
			]
		},
		{
			"name":"Cube.014",
			"primitives":[
				{
					"attributes":{
						"POSITION":44,
						"NORMAL":45,
						"TEXCOORD_0":46
					},
					"indices":3,
					"material":13
				}
			]
		},
		{
			"name":"Cylinder.002",
			"primitives":[
				{
					"attributes":{
						"POSITION":47,
						"NORMAL":48,
						"TEXCOORD_0":49
					},
					"indices":31,
					"material":14
				}
			]
		},
		{
			"name":"Cube.015",
			"primitives":[
				{
					"attributes":{
						"POSITION":50,
						"NORMAL":51,
						"TEXCOORD_0":52
					},
					"indices":3,
					"material":15
				}
			]
		},
		{
			"name":"Cube.016",
			"primitives":[
				{
					"attributes":{
						"POSITION":53,
						"NORMAL":54,
						"TEXCOORD_0":55
					},
					"indices":3,
					"material":16
				}
			]
		},
		{
			"name":"Cube.017",
			"primitives":[
				{
					"attributes":{
						"POSITION":56,
						"NORMAL":57,
						"TEXCOORD_0":58
					},
					"indices":3,
					"material":17
				}
			]
		},
		{
			"name":"Cube.018",
			"primitives":[
				{
					"attributes":{
						"POSITION":59,
						"NORMAL":60,
						"TEXCOORD_0":61
					},
					"indices":3,
					"material":18
				}
			]
		},
		{
			"name":"Cube.019",
			"primitives":[
				{
					"attributes":{
						"POSITION":62,
						"NORMAL":63,
						"TEXCOORD_0":64
					},
					"indices":3,
					"material":19
				}
			]
		},
		{
			"name":"Cube.020",
			"primitives":[
				{
					"attributes":{
						"POSITION":65,
						"NORMAL":66,
						"TEXCOORD_0":67
					},
					"indices":3,
					"material":20
				}
			]
		},
		{
			"name":"Cube.021",
			"primitives":[
				{
					"attributes":{
						"POSITION":68,
						"NORMAL":69,
						"TEXCOORD_0":70
					},
					"indices":3,
					"material":21
				}
			]
		},
		{
			"name":"Cube.022",
			"primitives":[
				{
					"attributes":{
						"POSITION":71,
						"NORMAL":72,
						"TEXCOORD_0":73
					},
					"indices":3,
					"material":22
				}
			]
		},
		{
			"name":"Cube.023",
			"primitives":[
				{
					"attributes":{
						"POSITION":74,
						"NORMAL":75,
						"TEXCOORD_0":76
					},
					"indices":3,
					"material":23
				}
			]
		},
		{
			"name":"Cube.024",
			"primitives":[
				{
					"attributes":{
						"POSITION":77,
						"NORMAL":78,
						"TEXCOORD_0":79
					},
					"indices":3,
					"material":24
				}
			]
		},
		{
			"name":"Cube.025",
			"primitives":[
				{
					"attributes":{
						"POSITION":80,
						"NORMAL":81,
						"TEXCOORD_0":82
					},
					"indices":3,
					"material":25
				}
			]
		},
		{
			"name":"Cube.026",
			"primitives":[
				{
					"attributes":{
						"POSITION":83,
						"NORMAL":84,
						"TEXCOORD_0":85
					},
					"indices":3,
					"material":26
				}
			]
		},
		{
			"name":"Cube.027",
			"primitives":[
				{
					"attributes":{
						"POSITION":86,
						"NORMAL":87,
						"TEXCOORD_0":88
					},
					"indices":3,
					"material":27
				}
			]
		},
		{
			"name":"Cube.028",
			"primitives":[
				{
					"attributes":{
						"POSITION":89,
						"NORMAL":90,
						"TEXCOORD_0":91
					},
					"indices":3,
					"material":25
				}
			]
		},
		{
			"name":"Cylinder.003",
			"primitives":[
				{
					"attributes":{
						"POSITION":92,
						"NORMAL":93,
						"TEXCOORD_0":94
					},
					"indices":31,
					"material":28
				}
			]
		},
		{
			"name":"Cube.029",
			"primitives":[
				{
					"attributes":{
						"POSITION":95,
						"NORMAL":96,
						"TEXCOORD_0":97
					},
					"indices":3,
					"material":29
				}
			]
		},
		{
			"name":"Cube.030",
			"primitives":[
				{
					"attributes":{
						"POSITION":98,
						"NORMAL":99,
						"TEXCOORD_0":100
					},
					"indices":3,
					"material":30
				}
			]
		},
		{
			"name":"Cube.031",
			"primitives":[
				{
					"attributes":{
						"POSITION":101,
						"NORMAL":102,
						"TEXCOORD_0":103
					},
					"indices":3,
					"material":31
				}
			]
		},
		{
			"name":"Cube.032",
			"primitives":[
				{
					"attributes":{
						"POSITION":104,
						"NORMAL":105,
						"TEXCOORD_0":106
					},
					"indices":3,
					"material":32
				}
			]
		},
		{
			"name":"Cube.033",
			"primitives":[
				{
					"attributes":{
						"POSITION":107,
						"NORMAL":108,
						"TEXCOORD_0":109
					},
					"indices":3,
					"material":33
				}
			]
		},
		{
			"name":"Cube.034",
			"primitives":[
				{
					"attributes":{
						"POSITION":110,
						"NORMAL":111,
						"TEXCOORD_0":112
					},
					"indices":3,
					"material":34
				}
			]
		},
		{
			"name":"Cube.035",
			"primitives":[
				{
					"attributes":{
						"POSITION":113,
						"NORMAL":114,
						"TEXCOORD_0":115
					},
					"indices":3,
					"material":35
				}
			]
		},
		{
			"name":"Cube.036",
			"primitives":[
				{
					"attributes":{
						"POSITION":116,
						"NORMAL":117,
						"TEXCOORD_0":118
					},
					"indices":3,
					"material":36
				}
			]
		},
		{
			"name":"Cube.037",
			"primitives":[
				{
					"attributes":{
						"POSITION":119,
						"NORMAL":120,
						"TEXCOORD_0":121
					},
					"indices":3,
					"material":37
				}
			]
		},
		{
			"name":"Cube.038",
			"primitives":[
				{
					"attributes":{
						"POSITION":122,
						"NORMAL":123,
						"TEXCOORD_0":124
					},
					"indices":3,
					"material":38
				}
			]
		},
		{
			"name":"Cube.039",
			"primitives":[
				{
					"attributes":{
						"POSITION":125,
						"NORMAL":126,
						"TEXCOORD_0":127
					},
					"indices":3,
					"material":39
				}
			]
		},
		{
			"name":"Cube.040",
			"primitives":[
				{
					"attributes":{
						"POSITION":128,
						"NORMAL":129,
						"TEXCOORD_0":130
					},
					"indices":3,
					"material":40
				}
			]
		},
		{
			"name":"Cube.041",
			"primitives":[
				{
					"attributes":{
						"POSITION":131,
						"NORMAL":132,
						"TEXCOORD_0":133
					},
					"indices":3,
					"material":41
				}
			]
		},
		{
			"name":"Cube.042",
			"primitives":[
				{
					"attributes":{
						"POSITION":134,
						"NORMAL":135,
						"TEXCOORD_0":136
					},
					"indices":3,
					"material":39
				}
			]
		}
	],
	"accessors":[
		{
			"bufferView":0,
			"componentType":5126,
			"count":24,
			"max":[
				1,
				1,
				1
			],
			"min":[
				-1,
				-1,
				-1
			],
			"type":"VEC3"
		},
		{
			"bufferView":1,
			"componentType":5126,
			"count":24,
			"type":"VEC3"
		},
		{
			"bufferView":2,
			"componentType":5126,
			"count":24,
			"type":"VEC2"
		},
		{
			"bufferView":3,
			"componentType":5123,
			"count":36,
			"type":"SCALAR"
		},
		{
			"bufferView":4,
			"componentType":5126,
			"count":24,
			"max":[
				1,
				1,
				1
			],
			"min":[
				-1,
				-1,
				-1
			],
			"type":"VEC3"
		},
		{
			"bufferView":5,
			"componentType":5126,
			"count":24,
			"type":"VEC3"
		},
		{
			"bufferView":6,
			"componentType":5126,
			"count":24,
			"type":"VEC2"
		},
		{
			"bufferView":7,
			"componentType":5126,
			"count":24,
			"max":[
				1,
				1,
				1
			],
			"min":[
				-1,
				-1,
				-1
			],
			"type":"VEC3"
		},
		{
			"bufferView":8,
			"componentType":5126,
			"count":24,
			"type":"VEC3"
		},
		{
			"bufferView":9,
			"componentType":5126,
			"count":24,
			"type":"VEC2"
		},
		{
			"bufferView":10,
			"componentType":5126,
			"count":24,
			"max":[
				1,
				1,
				1
			],
			"min":[
				-1,
				-1,
				-1
			],
			"type":"VEC3"
		},
		{
			"bufferView":11,
			"componentType":5126,
			"count":24,
			"type":"VEC3"
		},
		{
			"bufferView":12,
			"componentType":5126,
			"count":24,
			"type":"VEC2"
		},
		{
			"bufferView":13,
			"componentType":5126,
			"count":24,
			"max":[
				1,
				1,
				1
			],
			"min":[
				-1,
				-1,
				-1
			],
			"type":"VEC3"
		},
		{
			"bufferView":14,
			"componentType":5126,
			"count":24,
			"type":"VEC3"
		},
		{
			"bufferView":15,
			"componentType":5126,
			"count":24,
			"type":"VEC2"
		},
		{
			"bufferView":16,
			"componentType":5126,
			"count":24,
			"max":[
				1,
				1,
				1
			],
			"min":[
				-1,
				-1,
				-1
			],
			"type":"VEC3"
		},
		{
			"bufferView":17,
			"componentType":5126,
			"count":24,
			"type":"VEC3"
		},
		{
			"bufferView":18,
			"componentType":5126,
			"count":24,
			"type":"VEC2"
		},
		{
			"bufferView":19,
			"componentType":5126,
			"count":24,
			"max":[
				1,
				1,
				1
			],
			"min":[
				-1,
				-1,
				-1
			],
			"type":"VEC3"
		},
		{
			"bufferView":20,
			"componentType":5126,
			"count":24,
			"type":"VEC3"
		},
		{
			"bufferView":21,
			"componentType":5126,
			"count":24,
			"type":"VEC2"
		},
		{
			"bufferView":22,
			"componentType":5126,
			"count":24,
			"max":[
				1,
				1,
				1
			],
			"min":[
				-1,
				-1,
				-1
			],
			"type":"VEC3"
		},
		{
			"bufferView":23,
			"componentType":5126,
			"count":24,
			"type":"VEC3"
		},
		{
			"bufferView":24,
			"componentType":5126,
			"count":24,
			"type":"VEC2"
		},
		{
			"bufferView":25,
			"componentType":5126,
			"count":24,
			"max":[
				1,
				1,
				1
			],
			"min":[
				-1,
				-1,
				-1
			],
			"type":"VEC3"
		},
		{
			"bufferView":26,
			"componentType":5126,
			"count":24,
			"type":"VEC3"
		},
		{
			"bufferView":27,
			"componentType":5126,
			"count":24,
			"type":"VEC2"
		},
		{
			"bufferView":28,
			"componentType":5126,
			"count":18,
			"max":[
				0.8660253882408142,
				1,
				0.5
			],
			"min":[
				-0.8660253882408142,
				-1,
				-1
			],
			"type":"VEC3"
		},
		{
			"bufferView":29,
			"componentType":5126,
			"count":18,
			"type":"VEC3"
		},
		{
			"bufferView":30,
			"componentType":5126,
			"count":18,
			"type":"VEC2"
		},
		{
			"bufferView":31,
			"componentType":5123,
			"count":24,
			"type":"SCALAR"
		},
		{
			"bufferView":32,
			"componentType":5126,
			"count":24,
			"max":[
				1,
				1,
				1
			],
			"min":[
				-1,
				-1,
				-1
			],
			"type":"VEC3"
		},
		{
			"bufferView":33,
			"componentType":5126,
			"count":24,
			"type":"VEC3"
		},
		{
			"bufferView":34,
			"componentType":5126,
			"count":24,
			"type":"VEC2"
		},
		{
			"bufferView":35,
			"componentType":5126,
			"count":24,
			"max":[
				1,
				1,
				1
			],
			"min":[
				-1,
				-1,
				-1
			],
			"type":"VEC3"
		},
		{
			"bufferView":36,
			"componentType":5126,
			"count":24,
			"type":"VEC3"
		},
		{
			"bufferView":37,
			"componentType":5126,
			"count":24,
			"type":"VEC2"
		},
		{
			"bufferView":38,
			"componentType":5126,
			"count":24,
			"max":[
				1,
				1,
				1
			],
			"min":[
				-1,
				-1,
				-1
			],
			"type":"VEC3"
		},
		{
			"bufferView":39,
			"componentType":5126,
			"count":24,
			"type":"VEC3"
		},
		{
			"bufferView":40,
			"componentType":5126,
			"count":24,
			"type":"VEC2"
		},
		{
			"bufferView":41,
			"componentType":5126,
			"count":24,
			"max":[
				1,
				1,
				1
			],
			"min":[
				-1,
				-1,
				-1
			],
			"type":"VEC3"
		},
		{
			"bufferView":42,
			"componentType":5126,
			"count":24,
			"type":"VEC3"
		},
		{
			"bufferView":43,
			"componentType":5126,
			"count":24,
			"type":"VEC2"
		},
		{
			"bufferView":44,
			"componentType":5126,
			"count":24,
			"max":[
				1,
				1,
				1
			],
			"min":[
				-1,
				-1,
				-1
			],
			"type":"VEC3"
		},
		{
			"bufferView":45,
			"componentType":5126,
			"count":24,
			"type":"VEC3"
		},
		{
			"bufferView":46,
			"componentType":5126,
			"count":24,
			"type":"VEC2"
		},
		{
			"bufferView":47,
			"componentType":5126,
			"count":18,
			"max":[
				0.8660253882408142,
				1,
				0.5
			],
			"min":[
				-0.8660253882408142,
				-1,
				-1
			],
			"type":"VEC3"
		},
		{
			"bufferView":48,
			"componentType":5126,
			"count":18,
			"type":"VEC3"
		},
		{
			"bufferView":49,
			"componentType":5126,
			"count":18,
			"type":"VEC2"
		},
		{
			"bufferView":50,
			"componentType":5126,
			"count":24,
			"max":[
				1,
				1,
				1
			],
			"min":[
				-1,
				-1,
				-1
			],
			"type":"VEC3"
		},
		{
			"bufferView":51,
			"componentType":5126,
			"count":24,
			"type":"VEC3"
		},
		{
			"bufferView":52,
			"componentType":5126,
			"count":24,
			"type":"VEC2"
		},
		{
			"bufferView":53,
			"componentType":5126,
			"count":24,
			"max":[
				1,
				1,
				1
			],
			"min":[
				-1,
				-1,
				-1
			],
			"type":"VEC3"
		},
		{
			"bufferView":54,
			"componentType":5126,
			"count":24,
			"type":"VEC3"
		},
		{
			"bufferView":55,
			"componentType":5126,
			"count":24,
			"type":"VEC2"
		},
		{
			"bufferView":56,
			"componentType":5126,
			"count":24,
			"max":[
				1,
				1,
				1
			],
			"min":[
				-1,
				-1,
				-1
			],
			"type":"VEC3"
		},
		{
			"bufferView":57,
			"componentType":5126,
			"count":24,
			"type":"VEC3"
		},
		{
			"bufferView":58,
			"componentType":5126,
			"count":24,
			"type":"VEC2"
		},
		{
			"bufferView":59,
			"componentType":5126,
			"count":24,
			"max":[
				1,
				1,
				1
			],
			"min":[
				-1,
				-1,
				-1
			],
			"type":"VEC3"
		},
		{
			"bufferView":60,
			"componentType":5126,
			"count":24,
			"type":"VEC3"
		},
		{
			"bufferView":61,
			"componentType":5126,
			"count":24,
			"type":"VEC2"
		},
		{
			"bufferView":62,
			"componentType":5126,
			"count":24,
			"max":[
				1,
				1,
				1
			],
			"min":[
				-1,
				-1,
				-1
			],
			"type":"VEC3"
		},
		{
			"bufferView":63,
			"componentType":5126,
			"count":24,
			"type":"VEC3"
		},
		{
			"bufferView":64,
			"componentType":5126,
			"count":24,
			"type":"VEC2"
		},
		{
			"bufferView":65,
			"componentType":5126,
			"count":24,
			"max":[
				1,
				1,
				1
			],
			"min":[
				-1,
				-1,
				-1
			],
			"type":"VEC3"
		},
		{
			"bufferView":66,
			"componentType":5126,
			"count":24,
			"type":"VEC3"
		},
		{
			"bufferView":67,
			"componentType":5126,
			"count":24,
			"type":"VEC2"
		},
		{
			"bufferView":68,
			"componentType":5126,
			"count":24,
			"max":[
				1,
				1,
				1
			],
			"min":[
				-1,
				-1,
				-1
			],
			"type":"VEC3"
		},
		{
			"bufferView":69,
			"componentType":5126,
			"count":24,
			"type":"VEC3"
		},
		{
			"bufferView":70,
			"componentType":5126,
			"count":24,
			"type":"VEC2"
		},
		{
			"bufferView":71,
			"componentType":5126,
			"count":24,
			"max":[
				1,
				1,
				1
			],
			"min":[
				-1,
				-1,
				-1
			],
			"type":"VEC3"
		},
		{
			"bufferView":72,
			"componentType":5126,
			"count":24,
			"type":"VEC3"
		},
		{
			"bufferView":73,
			"componentType":5126,
			"count":24,
			"type":"VEC2"
		},
		{
			"bufferView":74,
			"componentType":5126,
			"count":24,
			"max":[
				1,
				1,
				1
			],
			"min":[
				-1,
				-1,
				-1
			],
			"type":"VEC3"
		},
		{
			"bufferView":75,
			"componentType":5126,
			"count":24,
			"type":"VEC3"
		},
		{
			"bufferView":76,
			"componentType":5126,
			"count":24,
			"type":"VEC2"
		},
		{
			"bufferView":77,
			"componentType":5126,
			"count":24,
			"max":[
				1,
				1,
				1
			],
			"min":[
				-1,
				-1,
				-1
			],
			"type":"VEC3"
		},
		{
			"bufferView":78,
			"componentType":5126,
			"count":24,
			"type":"VEC3"
		},
		{
			"bufferView":79,
			"componentType":5126,
			"count":24,
			"type":"VEC2"
		},
		{
			"bufferView":80,
			"componentType":5126,
			"count":24,
			"max":[
				1,
				1,
				1
			],
			"min":[
				-1,
				-1,
				-1
			],
			"type":"VEC3"
		},
		{
			"bufferView":81,
			"componentType":5126,
			"count":24,
			"type":"VEC3"
		},
		{
			"bufferView":82,
			"componentType":5126,
			"count":24,
			"type":"VEC2"
		},
		{
			"bufferView":83,
			"componentType":5126,
			"count":24,
			"max":[
				1,
				1,
				1
			],
			"min":[
				-1,
				-1,
				-1
			],
			"type":"VEC3"
		},
		{
			"bufferView":84,
			"componentType":5126,
			"count":24,
			"type":"VEC3"
		},
		{
			"bufferView":85,
			"componentType":5126,
			"count":24,
			"type":"VEC2"
		},
		{
			"bufferView":86,
			"componentType":5126,
			"count":24,
			"max":[
				1,
				1,
				1
			],
			"min":[
				-1,
				-1,
				-1
			],
			"type":"VEC3"
		},
		{
			"bufferView":87,
			"componentType":5126,
			"count":24,
			"type":"VEC3"
		},
		{
			"bufferView":88,
			"componentType":5126,
			"count":24,
			"type":"VEC2"
		},
		{
			"bufferView":89,
			"componentType":5126,
			"count":24,
			"max":[
				1,
				1,
				1
			],
			"min":[
				-1,
				-1,
				-1
			],
			"type":"VEC3"
		},
		{
			"bufferView":90,
			"componentType":5126,
			"count":24,
			"type":"VEC3"
		},
		{
			"bufferView":91,
			"componentType":5126,
			"count":24,
			"type":"VEC2"
		},
		{
			"bufferView":92,
			"componentType":5126,
			"count":18,
			"max":[
				0.8660253882408142,
				1,
				0.5
			],
			"min":[
				-0.8660253882408142,
				-1,
				-1
			],
			"type":"VEC3"
		},
		{
			"bufferView":93,
			"componentType":5126,
			"count":18,
			"type":"VEC3"
		},
		{
			"bufferView":94,
			"componentType":5126,
			"count":18,
			"type":"VEC2"
		},
		{
			"bufferView":95,
			"componentType":5126,
			"count":24,
			"max":[
				1,
				1,
				1
			],
			"min":[
				-1,
				-1,
				-1
			],
			"type":"VEC3"
		},
		{
			"bufferView":96,
			"componentType":5126,
			"count":24,
			"type":"VEC3"
		},
		{
			"bufferView":97,
			"componentType":5126,
			"count":24,
			"type":"VEC2"
		},
		{
			"bufferView":98,
			"componentType":5126,
			"count":24,
			"max":[
				1,
				1,
				1
			],
			"min":[
				-1,
				-1,
				-1
			],
			"type":"VEC3"
		},
		{
			"bufferView":99,
			"componentType":5126,
			"count":24,
			"type":"VEC3"
		},
		{
			"bufferView":100,
			"componentType":5126,
			"count":24,
			"type":"VEC2"
		},
		{
			"bufferView":101,
			"componentType":5126,
			"count":24,
			"max":[
				1,
				1,
				1
			],
			"min":[
				-1,
				-1,
				-1
			],
			"type":"VEC3"
		},
		{
			"bufferView":102,
			"componentType":5126,
			"count":24,
			"type":"VEC3"
		},
		{
			"bufferView":103,
			"componentType":5126,
			"count":24,
			"type":"VEC2"
		},
		{
			"bufferView":104,
			"componentType":5126,
			"count":24,
			"max":[
				1,
				1,
				1
			],
			"min":[
				-1,
				-1,
				-1
			],
			"type":"VEC3"
		},
		{
			"bufferView":105,
			"componentType":5126,
			"count":24,
			"type":"VEC3"
		},
		{
			"bufferView":106,
			"componentType":5126,
			"count":24,
			"type":"VEC2"
		},
		{
			"bufferView":107,
			"componentType":5126,
			"count":24,
			"max":[
				1,
				1,
				1
			],
			"min":[
				-1,
				-1,
				-1
			],
			"type":"VEC3"
		},
		{
			"bufferView":108,
			"componentType":5126,
			"count":24,
			"type":"VEC3"
		},
		{
			"bufferView":109,
			"componentType":5126,
			"count":24,
			"type":"VEC2"
		},
		{
			"bufferView":110,
			"componentType":5126,
			"count":24,
			"max":[
				1,
				1,
				1
			],
			"min":[
				-1,
				-1,
				-1
			],
			"type":"VEC3"
		},
		{
			"bufferView":111,
			"componentType":5126,
			"count":24,
			"type":"VEC3"
		},
		{
			"bufferView":112,
			"componentType":5126,
			"count":24,
			"type":"VEC2"
		},
		{
			"bufferView":113,
			"componentType":5126,
			"count":24,
			"max":[
				1,
				1,
				1
			],
			"min":[
				-1,
				-1,
				-1
			],
			"type":"VEC3"
		},
		{
			"bufferView":114,
			"componentType":5126,
			"count":24,
			"type":"VEC3"
		},
		{
			"bufferView":115,
			"componentType":5126,
			"count":24,
			"type":"VEC2"
		},
		{
			"bufferView":116,
			"componentType":5126,
			"count":24,
			"max":[
				1,
				1,
				1
			],
			"min":[
				-1,
				-1,
				-1
			],
			"type":"VEC3"
		},
		{
			"bufferView":117,
			"componentType":5126,
			"count":24,
			"type":"VEC3"
		},
		{
			"bufferView":118,
			"componentType":5126,
			"count":24,
			"type":"VEC2"
		},
		{
			"bufferView":119,
			"componentType":5126,
			"count":24,
			"max":[
				1,
				1,
				1
			],
			"min":[
				-1,
				-1,
				-1
			],
			"type":"VEC3"
		},
		{
			"bufferView":120,
			"componentType":5126,
			"count":24,
			"type":"VEC3"
		},
		{
			"bufferView":121,
			"componentType":5126,
			"count":24,
			"type":"VEC2"
		},
		{
			"bufferView":122,
			"componentType":5126,
			"count":24,
			"max":[
				1,
				1,
				1
			],
			"min":[
				-1,
				-1,
				-1
			],
			"type":"VEC3"
		},
		{
			"bufferView":123,
			"componentType":5126,
			"count":24,
			"type":"VEC3"
		},
		{
			"bufferView":124,
			"componentType":5126,
			"count":24,
			"type":"VEC2"
		},
		{
			"bufferView":125,
			"componentType":5126,
			"count":24,
			"max":[
				1,
				1,
				1
			],
			"min":[
				-1,
				-1,
				-1
			],
			"type":"VEC3"
		},
		{
			"bufferView":126,
			"componentType":5126,
			"count":24,
			"type":"VEC3"
		},
		{
			"bufferView":127,
			"componentType":5126,
			"count":24,
			"type":"VEC2"
		},
		{
			"bufferView":128,
			"componentType":5126,
			"count":24,
			"max":[
				1,
				1,
				1
			],
			"min":[
				-1,
				-1,
				-1
			],
			"type":"VEC3"
		},
		{
			"bufferView":129,
			"componentType":5126,
			"count":24,
			"type":"VEC3"
		},
		{
			"bufferView":130,
			"componentType":5126,
			"count":24,
			"type":"VEC2"
		},
		{
			"bufferView":131,
			"componentType":5126,
			"count":24,
			"max":[
				1,
				1,
				1
			],
			"min":[
				-1,
				-1,
				-1
			],
			"type":"VEC3"
		},
		{
			"bufferView":132,
			"componentType":5126,
			"count":24,
			"type":"VEC3"
		},
		{
			"bufferView":133,
			"componentType":5126,
			"count":24,
			"type":"VEC2"
		},
		{
			"bufferView":134,
			"componentType":5126,
			"count":24,
			"max":[
				1,
				1,
				1
			],
			"min":[
				-1,
				-1,
				-1
			],
			"type":"VEC3"
		},
		{
			"bufferView":135,
			"componentType":5126,
			"count":24,
			"type":"VEC3"
		},
		{
			"bufferView":136,
			"componentType":5126,
			"count":24,
			"type":"VEC2"
		}
	],
	"bufferViews":[
		{
			"buffer":0,
			"byteLength":288,
			"byteOffset":0,
			"target":34962
		},
		{
			"buffer":0,
			"byteLength":288,
			"byteOffset":288,
			"target":34962
		},
		{
			"buffer":0,
			"byteLength":192,
			"byteOffset":576,
			"target":34962
		},
		{
			"buffer":0,
			"byteLength":72,
			"byteOffset":768,
			"target":34963
		},
		{
			"buffer":0,
			"byteLength":288,
			"byteOffset":840,
			"target":34962
		},
		{
			"buffer":0,
			"byteLength":288,
			"byteOffset":1128,
			"target":34962
		},
		{
			"buffer":0,
			"byteLength":192,
			"byteOffset":1416,
			"target":34962
		},
		{
			"buffer":0,
			"byteLength":288,
			"byteOffset":1608,
			"target":34962
		},
		{
			"buffer":0,
			"byteLength":288,
			"byteOffset":1896,
			"target":34962
		},
		{
			"buffer":0,
			"byteLength":192,
			"byteOffset":2184,
			"target":34962
		},
		{
			"buffer":0,
			"byteLength":288,
			"byteOffset":2376,
			"target":34962
		},
		{
			"buffer":0,
			"byteLength":288,
			"byteOffset":2664,
			"target":34962
		},
		{
			"buffer":0,
			"byteLength":192,
			"byteOffset":2952,
			"target":34962
		},
		{
			"buffer":0,
			"byteLength":288,
			"byteOffset":3144,
			"target":34962
		},
		{
			"buffer":0,
			"byteLength":288,
			"byteOffset":3432,
			"target":34962
		},
		{
			"buffer":0,
			"byteLength":192,
			"byteOffset":3720,
			"target":34962
		},
		{
			"buffer":0,
			"byteLength":288,
			"byteOffset":3912,
			"target":34962
		},
		{
			"buffer":0,
			"byteLength":288,
			"byteOffset":4200,
			"target":34962
		},
		{
			"buffer":0,
			"byteLength":192,
			"byteOffset":4488,
			"target":34962
		},
		{
			"buffer":0,
			"byteLength":288,
			"byteOffset":4680,
			"target":34962
		},
		{
			"buffer":0,
			"byteLength":288,
			"byteOffset":4968,
			"target":34962
		},
		{
			"buffer":0,
			"byteLength":192,
			"byteOffset":5256,
			"target":34962
		},
		{
			"buffer":0,
			"byteLength":288,
			"byteOffset":5448,
			"target":34962
		},
		{
			"buffer":0,
			"byteLength":288,
			"byteOffset":5736,
			"target":34962
		},
		{
			"buffer":0,
			"byteLength":192,
			"byteOffset":6024,
			"target":34962
		},
		{
			"buffer":0,
			"byteLength":288,
			"byteOffset":6216,
			"target":34962
		},
		{
			"buffer":0,
			"byteLength":288,
			"byteOffset":6504,
			"target":34962
		},
		{
			"buffer":0,
			"byteLength":192,
			"byteOffset":6792,
			"target":34962
		},
		{
			"buffer":0,
			"byteLength":216,
			"byteOffset":6984,
			"target":34962
		},
		{
			"buffer":0,
			"byteLength":216,
			"byteOffset":7200,
			"target":34962
		},
		{
			"buffer":0,
			"byteLength":144,
			"byteOffset":7416,
			"target":34962
		},
		{
			"buffer":0,
			"byteLength":48,
			"byteOffset":7560,
			"target":34963
		},
		{
			"buffer":0,
			"byteLength":288,
			"byteOffset":7608,
			"target":34962
		},
		{
			"buffer":0,
			"byteLength":288,
			"byteOffset":7896,
			"target":34962
		},
		{
			"buffer":0,
			"byteLength":192,
			"byteOffset":8184,
			"target":34962
		},
		{
			"buffer":0,
			"byteLength":288,
			"byteOffset":8376,
			"target":34962
		},
		{
			"buffer":0,
			"byteLength":288,
			"byteOffset":8664,
			"target":34962
		},
		{
			"buffer":0,
			"byteLength":192,
			"byteOffset":8952,
			"target":34962
		},
		{
			"buffer":0,
			"byteLength":288,
			"byteOffset":9144,
			"target":34962
		},
		{
			"buffer":0,
			"byteLength":288,
			"byteOffset":9432,
			"target":34962
		},
		{
			"buffer":0,
			"byteLength":192,
			"byteOffset":9720,
			"target":34962
		},
		{
			"buffer":0,
			"byteLength":288,
			"byteOffset":9912,
			"target":34962
		},
		{
			"buffer":0,
			"byteLength":288,
			"byteOffset":10200,
			"target":34962
		},
		{
			"buffer":0,
			"byteLength":192,
			"byteOffset":10488,
			"target":34962
		},
		{
			"buffer":0,
			"byteLength":288,
			"byteOffset":10680,
			"target":34962
		},
		{
			"buffer":0,
			"byteLength":288,
			"byteOffset":10968,
			"target":34962
		},
		{
			"buffer":0,
			"byteLength":192,
			"byteOffset":11256,
			"target":34962
		},
		{
			"buffer":0,
			"byteLength":216,
			"byteOffset":11448,
			"target":34962
		},
		{
			"buffer":0,
			"byteLength":216,
			"byteOffset":11664,
			"target":34962
		},
		{
			"buffer":0,
			"byteLength":144,
			"byteOffset":11880,
			"target":34962
		},
		{
			"buffer":0,
			"byteLength":288,
			"byteOffset":12024,
			"target":34962
		},
		{
			"buffer":0,
			"byteLength":288,
			"byteOffset":12312,
			"target":34962
		},
		{
			"buffer":0,
			"byteLength":192,
			"byteOffset":12600,
			"target":34962
		},
		{
			"buffer":0,
			"byteLength":288,
			"byteOffset":12792,
			"target":34962
		},
		{
			"buffer":0,
			"byteLength":288,
			"byteOffset":13080,
			"target":34962
		},
		{
			"buffer":0,
			"byteLength":192,
			"byteOffset":13368,
			"target":34962
		},
		{
			"buffer":0,
			"byteLength":288,
			"byteOffset":13560,
			"target":34962
		},
		{
			"buffer":0,
			"byteLength":288,
			"byteOffset":13848,
			"target":34962
		},
		{
			"buffer":0,
			"byteLength":192,
			"byteOffset":14136,
			"target":34962
		},
		{
			"buffer":0,
			"byteLength":288,
			"byteOffset":14328,
			"target":34962
		},
		{
			"buffer":0,
			"byteLength":288,
			"byteOffset":14616,
			"target":34962
		},
		{
			"buffer":0,
			"byteLength":192,
			"byteOffset":14904,
			"target":34962
		},
		{
			"buffer":0,
			"byteLength":288,
			"byteOffset":15096,
			"target":34962
		},
		{
			"buffer":0,
			"byteLength":288,
			"byteOffset":15384,
			"target":34962
		},
		{
			"buffer":0,
			"byteLength":192,
			"byteOffset":15672,
			"target":34962
		},
		{
			"buffer":0,
			"byteLength":288,
			"byteOffset":15864,
			"target":34962
		},
		{
			"buffer":0,
			"byteLength":288,
			"byteOffset":16152,
			"target":34962
		},
		{
			"buffer":0,
			"byteLength":192,
			"byteOffset":16440,
			"target":34962
		},
		{
			"buffer":0,
			"byteLength":288,
			"byteOffset":16632,
			"target":34962
		},
		{
			"buffer":0,
			"byteLength":288,
			"byteOffset":16920,
			"target":34962
		},
		{
			"buffer":0,
			"byteLength":192,
			"byteOffset":17208,
			"target":34962
		},
		{
			"buffer":0,
			"byteLength":288,
			"byteOffset":17400,
			"target":34962
		},
		{
			"buffer":0,
			"byteLength":288,
			"byteOffset":17688,
			"target":34962
		},
		{
			"buffer":0,
			"byteLength":192,
			"byteOffset":17976,
			"target":34962
		},
		{
			"buffer":0,
			"byteLength":288,
			"byteOffset":18168,
			"target":34962
		},
		{
			"buffer":0,
			"byteLength":288,
			"byteOffset":18456,
			"target":34962
		},
		{
			"buffer":0,
			"byteLength":192,
			"byteOffset":18744,
			"target":34962
		},
		{
			"buffer":0,
			"byteLength":288,
			"byteOffset":18936,
			"target":34962
		},
		{
			"buffer":0,
			"byteLength":288,
			"byteOffset":19224,
			"target":34962
		},
		{
			"buffer":0,
			"byteLength":192,
			"byteOffset":19512,
			"target":34962
		},
		{
			"buffer":0,
			"byteLength":288,
			"byteOffset":19704,
			"target":34962
		},
		{
			"buffer":0,
			"byteLength":288,
			"byteOffset":19992,
			"target":34962
		},
		{
			"buffer":0,
			"byteLength":192,
			"byteOffset":20280,
			"target":34962
		},
		{
			"buffer":0,
			"byteLength":288,
			"byteOffset":20472,
			"target":34962
		},
		{
			"buffer":0,
			"byteLength":288,
			"byteOffset":20760,
			"target":34962
		},
		{
			"buffer":0,
			"byteLength":192,
			"byteOffset":21048,
			"target":34962
		},
		{
			"buffer":0,
			"byteLength":288,
			"byteOffset":21240,
			"target":34962
		},
		{
			"buffer":0,
			"byteLength":288,
			"byteOffset":21528,
			"target":34962
		},
		{
			"buffer":0,
			"byteLength":192,
			"byteOffset":21816,
			"target":34962
		},
		{
			"buffer":0,
			"byteLength":288,
			"byteOffset":22008,
			"target":34962
		},
		{
			"buffer":0,
			"byteLength":288,
			"byteOffset":22296,
			"target":34962
		},
		{
			"buffer":0,
			"byteLength":192,
			"byteOffset":22584,
			"target":34962
		},
		{
			"buffer":0,
			"byteLength":216,
			"byteOffset":22776,
			"target":34962
		},
		{
			"buffer":0,
			"byteLength":216,
			"byteOffset":22992,
			"target":34962
		},
		{
			"buffer":0,
			"byteLength":144,
			"byteOffset":23208,
			"target":34962
		},
		{
			"buffer":0,
			"byteLength":288,
			"byteOffset":23352,
			"target":34962
		},
		{
			"buffer":0,
			"byteLength":288,
			"byteOffset":23640,
			"target":34962
		},
		{
			"buffer":0,
			"byteLength":192,
			"byteOffset":23928,
			"target":34962
		},
		{
			"buffer":0,
			"byteLength":288,
			"byteOffset":24120,
			"target":34962
		},
		{
			"buffer":0,
			"byteLength":288,
			"byteOffset":24408,
			"target":34962
		},
		{
			"buffer":0,
			"byteLength":192,
			"byteOffset":24696,
			"target":34962
		},
		{
			"buffer":0,
			"byteLength":288,
			"byteOffset":24888,
			"target":34962
		},
		{
			"buffer":0,
			"byteLength":288,
			"byteOffset":25176,
			"target":34962
		},
		{
			"buffer":0,
			"byteLength":192,
			"byteOffset":25464,
			"target":34962
		},
		{
			"buffer":0,
			"byteLength":288,
			"byteOffset":25656,
			"target":34962
		},
		{
			"buffer":0,
			"byteLength":288,
			"byteOffset":25944,
			"target":34962
		},
		{
			"buffer":0,
			"byteLength":192,
			"byteOffset":26232,
			"target":34962
		},
		{
			"buffer":0,
			"byteLength":288,
			"byteOffset":26424,
			"target":34962
		},
		{
			"buffer":0,
			"byteLength":288,
			"byteOffset":26712,
			"target":34962
		},
		{
			"buffer":0,
			"byteLength":192,
			"byteOffset":27000,
			"target":34962
		},
		{
			"buffer":0,
			"byteLength":288,
			"byteOffset":27192,
			"target":34962
		},
		{
			"buffer":0,
			"byteLength":288,
			"byteOffset":27480,
			"target":34962
		},
		{
			"buffer":0,
			"byteLength":192,
			"byteOffset":27768,
			"target":34962
		},
		{
			"buffer":0,
			"byteLength":288,
			"byteOffset":27960,
			"target":34962
		},
		{
			"buffer":0,
			"byteLength":288,
			"byteOffset":28248,
			"target":34962
		},
		{
			"buffer":0,
			"byteLength":192,
			"byteOffset":28536,
			"target":34962
		},
		{
			"buffer":0,
			"byteLength":288,
			"byteOffset":28728,
			"target":34962
		},
		{
			"buffer":0,
			"byteLength":288,
			"byteOffset":29016,
			"target":34962
		},
		{
			"buffer":0,
			"byteLength":192,
			"byteOffset":29304,
			"target":34962
		},
		{
			"buffer":0,
			"byteLength":288,
			"byteOffset":29496,
			"target":34962
		},
		{
			"buffer":0,
			"byteLength":288,
			"byteOffset":29784,
			"target":34962
		},
		{
			"buffer":0,
			"byteLength":192,
			"byteOffset":30072,
			"target":34962
		},
		{
			"buffer":0,
			"byteLength":288,
			"byteOffset":30264,
			"target":34962
		},
		{
			"buffer":0,
			"byteLength":288,
			"byteOffset":30552,
			"target":34962
		},
		{
			"buffer":0,
			"byteLength":192,
			"byteOffset":30840,
			"target":34962
		},
		{
			"buffer":0,
			"byteLength":288,
			"byteOffset":31032,
			"target":34962
		},
		{
			"buffer":0,
			"byteLength":288,
			"byteOffset":31320,
			"target":34962
		},
		{
			"buffer":0,
			"byteLength":192,
			"byteOffset":31608,
			"target":34962
		},
		{
			"buffer":0,
			"byteLength":288,
			"byteOffset":31800,
			"target":34962
		},
		{
			"buffer":0,
			"byteLength":288,
			"byteOffset":32088,
			"target":34962
		},
		{
			"buffer":0,
			"byteLength":192,
			"byteOffset":32376,
			"target":34962
		},
		{
			"buffer":0,
			"byteLength":288,
			"byteOffset":32568,
			"target":34962
		},
		{
			"buffer":0,
			"byteLength":288,
			"byteOffset":32856,
			"target":34962
		},
		{
			"buffer":0,
			"byteLength":192,
			"byteOffset":33144,
			"target":34962
		},
		{
			"buffer":0,
			"byteLength":288,
			"byteOffset":33336,
			"target":34962
		},
		{
			"buffer":0,
			"byteLength":288,
			"byteOffset":33624,
			"target":34962
		},
		{
			"buffer":0,
			"byteLength":192,
			"byteOffset":33912,
			"target":34962
		}
	],
	"buffers":[
		{
			"byteLength":34104,
			"uri":"doonCommando.bin"
		}
	]
}
