{
	"asset":{
		"generator":"Khronos glTF Blender I/O v5.1.20",
		"version":"2.0"
	},
	"scene":0,
	"scenes":[
		{
			"name":"Scene",
			"nodes":[
				0,
				1,
				2,
				3,
				4
			]
		}
	],
	"nodes":[
		{
			"mesh":0,
			"name":"Cube",
			"scale":[
				1,
				1.5,
				1
			],
			"translation":[
				0,
				1.5407308340072632,
				0
			]
		},
		{
			"mesh":1,
			"name":"Cube.001",
			"scale":[
				1.0150007009506226,
				0.3045002222061157,
				1.0150007009506226
			],
			"translation":[
				0,
				3.1419200897216797,
				0
			]
		},
		{
			"mesh":2,
			"name":"Cylinder",
			"rotation":[
				-0.11106353253126144,
				-0.11106362193822861,
				-0.6983301043510437,
				0.6983300447463989
			],
			"scale":[
				0.29999998211860657,
				1.5,
				0.29999998211860657
			],
			"translation":[
				0,
				2.3261282444000244,
				-1.3762608766555786
			]
		},
		{
			"mesh":3,
			"name":"Cube.002",
			"rotation":[
				0,
				0,
				0.06273788958787918,
				0.9980301260948181
			],
			"scale":[
				0.19999998807907104,
				0.19999998807907104,
				0.20000000298023224
			],
			"translation":[
				0.11277367174625397,
				1.8262975215911865,
				-1.2893191576004028
			]
		},
		{
			"mesh":4,
			"name":"Cube.003",
			"rotation":[
				0,
				0,
				0.06273788958787918,
				0.9980301260948181
			],
			"scale":[
				0.19999998807907104,
				0.19999998807907104,
				0.20000000298023224
			],
			"translation":[
				0.11277367174625397,
				1.8262975215911865,
				1.2893199920654297
			]
		}
	],
	"materials":[
		{
			"doubleSided":true,
			"name":"Material.005",
			"pbrMetallicRoughness":{
				"baseColorFactor":[
					0.25147292017936707,
					0.2819460928440094,
					0.45159104466438293,
					1
				],
				"metallicFactor":0,
				"roughnessFactor":0.5
			}
		},
		{
			"doubleSided":true,
			"name":"Material.004",
			"pbrMetallicRoughness":{
				"baseColorFactor":[
					0.643175482749939,
					0.3893832564353943,
					0.2798144221305847,
					1
				],
				"metallicFactor":0,
				"roughnessFactor":0.5
			}
		},
		{
			"doubleSided":true,
			"name":"Material.006",
			"pbrMetallicRoughness":{
				"baseColorFactor":[
					0.407819926738739,
					0.4047303795814514,
					0.46068933606147766,
					1
				],
				"metallicFactor":0,
				"roughnessFactor":0.5
			}
		},
		{
			"doubleSided":true,
			"name":"Material.001",
			"pbrMetallicRoughness":{
				"baseColorFactor":[
					0.04674248769879341,
					0.11499327421188354,
					0.03211813047528267,
					1
				],
				"metallicFactor":0,
				"roughnessFactor":0.5
			}
		},
		{
			"doubleSided":true,
			"name":"Material.002",
			"pbrMetallicRoughness":{
				"baseColorFactor":[
					0,
					0,
					0,
					1
				],
				"metallicFactor":0,
				"roughnessFactor":0.5
			}
		},
		{
			"doubleSided":true,
			"name":"Material.003",
			"pbrMetallicRoughness":{
				"baseColorFactor":[
					0.1551618129014969,
					0.1551618129014969,
					0.1551618129014969,
					1
				],
				"metallicFactor":0,
				"roughnessFactor":0.5
			}
		}
	],
	"meshes":[
		{
			"name":"Cube",
			"primitives":[
				{
					"attributes":{
						"POSITION":0,
						"NORMAL":1,
						"TEXCOORD_0":2
					},
					"indices":3,
					"material":0
				},
				{
					"attributes":{
						"POSITION":4,
						"NORMAL":5,
						"TEXCOORD_0":6
					},
					"indices":7,
					"material":1
				},
				{
					"attributes":{
						"POSITION":8,
						"NORMAL":9,
						"TEXCOORD_0":10
					},
					"indices":11,
					"material":2
				}
			]
		},
		{
			"name":"Cube.001",
			"primitives":[
				{
					"attributes":{
						"POSITION":12,
						"NORMAL":13,
						"TEXCOORD_0":14
					},
					"indices":15,
					"material":2
				}
			]
		},
		{
			"name":"Cylinder",
			"primitives":[
				{
					"attributes":{
						"POSITION":16,
						"NORMAL":17,
						"TEXCOORD_0":18
					},
					"indices":19,
					"material":3
				},
				{
					"attributes":{
						"POSITION":20,
						"NORMAL":21,
						"TEXCOORD_0":22
					},
					"indices":23,
					"material":4
				},
				{
					"attributes":{
						"POSITION":24,
						"NORMAL":25,
						"TEXCOORD_0":26
					},
					"indices":27,
					"material":5
				}
			]
		},
		{
			"name":"Cube.002",
			"primitives":[
				{
					"attributes":{
						"POSITION":28,
						"NORMAL":29,
						"TEXCOORD_0":30
					},
					"indices":31,
					"material":1
				}
			]
		},
		{
			"name":"Cube.003",
			"primitives":[
				{
					"attributes":{
						"POSITION":32,
						"NORMAL":33,
						"TEXCOORD_0":34
					},
					"indices":31,
					"material":1
				}
			]
		}
	],
	"accessors":[
		{
			"bufferView":0,
			"componentType":5126,
			"count":52,
			"max":[
				1.0939388275146484,
				1,
				1.0939388275146484
			],
			"min":[
				-1.0939388275146484,
				-0.3646462559700012,
				-1.0939388275146484
			],
			"type":"VEC3"
		},
		{
			"bufferView":1,
			"componentType":5126,
			"count":52,
			"type":"VEC3"
		},
		{
			"bufferView":2,
			"componentType":5126,
			"count":52,
			"type":"VEC2"
		},
		{
			"bufferView":3,
			"componentType":5123,
			"count":78,
			"type":"SCALAR"
		},
		{
			"bufferView":4,
			"componentType":5126,
			"count":16,
			"max":[
				1,
				1,
				1
			],
			"min":[
				-1,
				0.3333333134651184,
				-1
			],
			"type":"VEC3"
		},
		{
			"bufferView":5,
			"componentType":5126,
			"count":16,
			"type":"VEC3"
		},
		{
			"bufferView":6,
			"componentType":5126,
			"count":16,
			"type":"VEC2"
		},
		{
			"bufferView":7,
			"componentType":5123,
			"count":24,
			"type":"SCALAR"
		},
		{
			"bufferView":8,
			"componentType":5126,
			"count":20,
			"max":[
				1,
				-0.3333333134651184,
				1
			],
			"min":[
				-1,
				-1,
				-1
			],
			"type":"VEC3"
		},
		{
			"bufferView":9,
			"componentType":5126,
			"count":20,
			"type":"VEC3"
		},
		{
			"bufferView":10,
			"componentType":5126,
			"count":20,
			"type":"VEC2"
		},
		{
			"bufferView":11,
			"componentType":5123,
			"count":30,
			"type":"SCALAR"
		},
		{
			"bufferView":12,
			"componentType":5126,
			"count":84,
			"max":[
				1.7190393209457397,
				1,
				1
			],
			"min":[
				-1,
				-1,
				-1
			],
			"type":"VEC3"
		},
		{
			"bufferView":13,
			"componentType":5126,
			"count":84,
			"type":"VEC3"
		},
		{
			"bufferView":14,
			"componentType":5126,
			"count":84,
			"type":"VEC2"
		},
		{
			"bufferView":15,
			"componentType":5123,
			"count":156,
			"type":"SCALAR"
		},
		{
			"bufferView":16,
			"componentType":5126,
			"count":209,
			"max":[
				2.3964180946350098,
				1,
				1.335155963897705
			],
			"min":[
				-0.9919770956039429,
				-1.055953860282898,
				-1.335155963897705
			],
			"type":"VEC3"
		},
		{
			"bufferView":17,
			"componentType":5126,
			"count":209,
			"type":"VEC3"
		},
		{
			"bufferView":18,
			"componentType":5126,
			"count":209,
			"type":"VEC2"
		},
		{
			"bufferView":19,
			"componentType":5123,
			"count":405,
			"type":"SCALAR"
		},
		{
			"bufferView":20,
			"componentType":5126,
			"count":35,
			"max":[
				0.7885551452636719,
				1,
				0.7885551452636719
			],
			"min":[
				-0.5117583274841309,
				-0.19939100742340088,
				-0.7885551452636719
			],
			"type":"VEC3"
		},
		{
			"bufferView":21,
			"componentType":5126,
			"count":35,
			"type":"VEC3"
		},
		{
			"bufferView":22,
			"componentType":5126,
			"count":35,
			"type":"VEC2"
		},
		{
			"bufferView":23,
			"componentType":5123,
			"count":57,
			"type":"SCALAR"
		},
		{
			"bufferView":24,
			"componentType":5126,
			"count":40,
			"max":[
				-0.7071067690849304,
				0.9673943519592285,
				0.1678498536348343
			],
			"min":[
				-0.9741049408912659,
				-0.9559966325759888,
				-0.16784973442554474
			],
			"type":"VEC3"
		},
		{
			"bufferView":25,
			"componentType":5126,
			"count":40,
			"type":"VEC3"
		},
		{
			"bufferView":26,
			"componentType":5126,
			"count":40,
			"type":"VEC2"
		},
		{
			"bufferView":27,
			"componentType":5123,
			"count":60,
			"type":"SCALAR"
		},
		{
			"bufferView":28,
			"componentType":5126,
			"count":24,
			"max":[
				1,
				1,
				1
			],
			"min":[
				-1,
				-1,
				-1
			],
			"type":"VEC3"
		},
		{
			"bufferView":29,
			"componentType":5126,
			"count":24,
			"type":"VEC3"
		},
		{
			"bufferView":30,
			"componentType":5126,
			"count":24,
			"type":"VEC2"
		},
		{
			"bufferView":31,
			"componentType":5123,
			"count":36,
			"type":"SCALAR"
		},
		{
			"bufferView":32,
			"componentType":5126,
			"count":24,
			"max":[
				1,
				1,
				1
			],
			"min":[
				-1,
				-1,
				-1
			],
			"type":"VEC3"
		},
		{
			"bufferView":33,
			"componentType":5126,
			"count":24,
			"type":"VEC3"
		},
		{
			"bufferView":34,
			"componentType":5126,
			"count":24,
			"type":"VEC2"
		}
	],
	"bufferViews":[
		{
			"buffer":0,
			"byteLength":624,
			"byteOffset":0,
			"target":34962
		},
		{
			"buffer":0,
			"byteLength":624,
			"byteOffset":624,
			"target":34962
		},
		{
			"buffer":0,
			"byteLength":416,
			"byteOffset":1248,
			"target":34962
		},
		{
			"buffer":0,
			"byteLength":156,
			"byteOffset":1664,
			"target":34963
		},
		{
			"buffer":0,
			"byteLength":192,
			"byteOffset":1820,
			"target":34962
		},
		{
			"buffer":0,
			"byteLength":192,
			"byteOffset":2012,
			"target":34962
		},
		{
			"buffer":0,
			"byteLength":128,
			"byteOffset":2204,
			"target":34962
		},
		{
			"buffer":0,
			"byteLength":48,
			"byteOffset":2332,
			"target":34963
		},
		{
			"buffer":0,
			"byteLength":240,
			"byteOffset":2380,
			"target":34962
		},
		{
			"buffer":0,
			"byteLength":240,
			"byteOffset":2620,
			"target":34962
		},
		{
			"buffer":0,
			"byteLength":160,
			"byteOffset":2860,
			"target":34962
		},
		{
			"buffer":0,
			"byteLength":60,
			"byteOffset":3020,
			"target":34963
		},
		{
			"buffer":0,
			"byteLength":1008,
			"byteOffset":3080,
			"target":34962
		},
		{
			"buffer":0,
			"byteLength":1008,
			"byteOffset":4088,
			"target":34962
		},
		{
			"buffer":0,
			"byteLength":672,
			"byteOffset":5096,
			"target":34962
		},
		{
			"buffer":0,
			"byteLength":312,
			"byteOffset":5768,
			"target":34963
		},
		{
			"buffer":0,
			"byteLength":2508,
			"byteOffset":6080,
			"target":34962
		},
		{
			"buffer":0,
			"byteLength":2508,
			"byteOffset":8588,
			"target":34962
		},
		{
			"buffer":0,
			"byteLength":1672,
			"byteOffset":11096,
			"target":34962
		},
		{
			"buffer":0,
			"byteLength":810,
			"byteOffset":12768,
			"target":34963
		},
		{
			"buffer":0,
			"byteLength":420,
			"byteOffset":13580,
			"target":34962
		},
		{
			"buffer":0,
			"byteLength":420,
			"byteOffset":14000,
			"target":34962
		},
		{
			"buffer":0,
			"byteLength":280,
			"byteOffset":14420,
			"target":34962
		},
		{
			"buffer":0,
			"byteLength":114,
			"byteOffset":14700,
			"target":34963
		},
		{
			"buffer":0,
			"byteLength":480,
			"byteOffset":14816,
			"target":34962
		},
		{
			"buffer":0,
			"byteLength":480,
			"byteOffset":15296,
			"target":34962
		},
		{
			"buffer":0,
			"byteLength":320,
			"byteOffset":15776,
			"target":34962
		},
		{
			"buffer":0,
			"byteLength":120,
			"byteOffset":16096,
			"target":34963
		},
		{
			"buffer":0,
			"byteLength":288,
			"byteOffset":16216,
			"target":34962
		},
		{
			"buffer":0,
			"byteLength":288,
			"byteOffset":16504,
			"target":34962
		},
		{
			"buffer":0,
			"byteLength":192,
			"byteOffset":16792,
			"target":34962
		},
		{
			"buffer":0,
			"byteLength":72,
			"byteOffset":16984,
			"target":34963
		},
		{
			"buffer":0,
			"byteLength":288,
			"byteOffset":17056,
			"target":34962
		},
		{
			"buffer":0,
			"byteLength":288,
			"byteOffset":17344,
			"target":34962
		},
		{
			"buffer":0,
			"byteLength":192,
			"byteOffset":17632,
			"target":34962
		}
	],
	"buffers":[
		{
			"byteLength":17824,
			"uri":"anti-armour-personnel.bin"
		}
	]
}
