{
	"asset":{
		"generator":"Khronos glTF Blender I/O v5.1.20",
		"version":"2.0"
	},
	"scene":0,
	"scenes":[
		{
			"name":"Scene",
			"nodes":[
				0,
				1,
				2,
				3,
				4,
				5,
				6,
				7,
				8,
				9,
				10,
				11
			]
		}
	],
	"nodes":[
		{
			"name":"Cube",
			"scale":[
				1.0997912883758545,
				1.0997912883758545,
				1.0997912883758545
			],
			"translation":[
				-0.017297446727752686,
				-0.10279762744903564,
				0.0015231315046548843
			]
		},
		{
			"mesh":0,
			"name":"Cube.001",
			"rotation":[
				1,
				0,
				0,
				0
			],
			"scale":[
				-0.8068267107009888,
				-0.3905699551105499,
				-0.23413506150245667
			],
			"translation":[
				-0.008112728595733643,
				0.04901862144470215,
				0.7094092965126038
			]
		},
		{
			"mesh":1,
			"name":"Cube.002",
			"rotation":[
				1,
				0,
				0,
				0
			],
			"scale":[
				-0.8068267107009888,
				-0.3905699551105499,
				-0.23413507640361786
			],
			"translation":[
				-0.008112728595733643,
				0.04901862144470215,
				-0.6897605657577515
			]
		},
		{
			"mesh":2,
			"name":"Cube.003",
			"scale":[
				-0.8841835856437683,
				-0.46969178318977356,
				-0.6211981177330017
			],
			"translation":[
				-0.008112728595733643,
				0.307314932346344,
				0.009824356064200401
			]
		},
		{
			"mesh":3,
			"name":"Cube.004",
			"rotation":[
				0,
				0,
				1,
				4.371138828673793e-08
			],
			"scale":[
				-0.4011949300765991,
				-0.21644066274166107,
				-0.2961673438549042
			],
			"translation":[
				0.11885930597782135,
				0.9740965962409973,
				0.009824229404330254
			]
		},
		{
			"mesh":4,
			"name":"Cylinder",
			"scale":[
				1.0997912883758545,
				0.10000000149011612,
				1.0997912883758545
			],
			"translation":[
				0.18733417987823486,
				1.2079873085021973,
				0.009824229404330254
			]
		},
		{
			"mesh":5,
			"name":"Cylinder.001",
			"rotation":[
				0,
				0,
				-0.7071068286895752,
				0.7071067094802856
			],
			"scale":[
				0.3299374282360077,
				11.547809600830078,
				0.3299373984336853
			],
			"translation":[
				-0.8666348457336426,
				1.0371570587158203,
				0.009824229404330254
			]
		},
		{
			"mesh":6,
			"name":"Cylinder.002",
			"rotation":[
				0,
				0,
				-0.7071068286895752,
				0.7071067094802856
			],
			"scale":[
				0.43991658091545105,
				1.6496871709823608,
				0.4399165213108063
			],
			"translation":[
				-1.496983289718628,
				1.0371570587158203,
				0.009824229404330254
			]
		},
		{
			"mesh":7,
			"name":"Cylinder.005",
			"scale":[
				0.10997913032770157,
				2.749478340148926,
				0.10997913032770157
			],
			"translation":[
				0.39410579204559326,
				1.1757045984268188,
				-0.23076292872428894
			]
		},
		{
			"mesh":8,
			"name":"Cylinder.006",
			"scale":[
				0.10997913032770157,
				2.749478340148926,
				0.10997913032770157
			],
			"translation":[
				0.46701669692993164,
				1.2121349573135376,
				-0.23076292872428894
			]
		},
		{
			"mesh":9,
			"name":"Cylinder.009",
			"rotation":[
				0,
				0,
				-0.7071068286895752,
				0.7071067094802856
			],
			"scale":[
				0.16496871411800385,
				5.49895715713501,
				0.16496869921684265
			],
			"translation":[
				-0.9157037734985352,
				0.6680389046669006,
				-0.1791815161705017
			]
		},
		{
			"mesh":10,
			"name":"Cylinder.003",
			"rotation":[
				0,
				0,
				-0.7071068286895752,
				0.7071067094802856
			],
			"scale":[
				0.16496871411800385,
				5.49895715713501,
				0.16496869921684265
			],
			"translation":[
				-0.9157037734985352,
				0.6680389046669006,
				0.1791819930076599
			]
		}
	],
	"animations":[
		{
			"channels":[
				{
					"sampler":0,
					"target":{
						"node":7,
						"path":"translation"
					}
				},
				{
					"sampler":1,
					"target":{
						"node":7,
						"path":"rotation"
					}
				},
				{
					"sampler":2,
					"target":{
						"node":7,
						"path":"scale"
					}
				}
			],
			"name":"Cylinder.002Action",
			"samplers":[
				{
					"input":67,
					"interpolation":"LINEAR",
					"output":68
				},
				{
					"input":67,
					"interpolation":"LINEAR",
					"output":69
				},
				{
					"input":67,
					"interpolation":"LINEAR",
					"output":70
				}
			]
		}
	],
	"materials":[
		{
			"doubleSided":true,
			"name":"Material.005",
			"pbrMetallicRoughness":{
				"baseColorFactor":[
					0.6375972032546997,
					0.7529425024986267,
					0.8227860927581787,
					1
				],
				"metallicFactor":0,
				"roughnessFactor":0.5
			}
		},
		{
			"doubleSided":true,
			"name":"Material.006",
			"pbrMetallicRoughness":{
				"baseColorFactor":[
					0.2276095747947693,
					0.267245352268219,
					0.2911950647830963,
					1
				],
				"metallicFactor":0,
				"roughnessFactor":0.5
			}
		},
		{
			"doubleSided":true,
			"name":"Material.007",
			"pbrMetallicRoughness":{
				"baseColorFactor":[
					0,
					0,
					0,
					1
				],
				"metallicFactor":0,
				"roughnessFactor":0.5
			}
		},
		{
			"doubleSided":true,
			"name":"Material.027",
			"pbrMetallicRoughness":{
				"baseColorFactor":[
					0.07513174414634705,
					0.07513174414634705,
					0.07513174414634705,
					1
				],
				"metallicFactor":0,
				"roughnessFactor":0.5
			}
		},
		{
			"doubleSided":true,
			"name":"Material.003",
			"pbrMetallicRoughness":{
				"baseColorFactor":[
					0.07513174414634705,
					0.07513174414634705,
					0.07513174414634705,
					1
				],
				"metallicFactor":0,
				"roughnessFactor":0.5
			}
		},
		{
			"doubleSided":true,
			"name":"Material.004",
			"pbrMetallicRoughness":{
				"baseColorFactor":[
					0.07513174414634705,
					0.07513174414634705,
					0.07513174414634705,
					1
				],
				"metallicFactor":0,
				"roughnessFactor":0.5
			}
		}
	],
	"meshes":[
		{
			"name":"Cube.023",
			"primitives":[
				{
					"attributes":{
						"POSITION":0,
						"NORMAL":1,
						"TEXCOORD_0":2
					},
					"indices":3,
					"material":0
				},
				{
					"attributes":{
						"POSITION":4,
						"NORMAL":5,
						"TEXCOORD_0":6
					},
					"indices":7,
					"material":1
				}
			]
		},
		{
			"name":"Cube.024",
			"primitives":[
				{
					"attributes":{
						"POSITION":8,
						"NORMAL":9,
						"TEXCOORD_0":10
					},
					"indices":11,
					"material":0
				},
				{
					"attributes":{
						"POSITION":12,
						"NORMAL":13,
						"TEXCOORD_0":14
					},
					"indices":7,
					"material":1
				}
			]
		},
		{
			"name":"Cube.025",
			"primitives":[
				{
					"attributes":{
						"POSITION":15,
						"NORMAL":16,
						"TEXCOORD_0":17
					},
					"indices":18,
					"material":0
				},
				{
					"attributes":{
						"POSITION":19,
						"NORMAL":20,
						"TEXCOORD_0":21
					},
					"indices":22,
					"material":1
				},
				{
					"attributes":{
						"POSITION":23,
						"NORMAL":24,
						"TEXCOORD_0":25
					},
					"indices":26,
					"material":2
				}
			]
		},
		{
			"name":"Cube.026",
			"primitives":[
				{
					"attributes":{
						"POSITION":27,
						"NORMAL":28,
						"TEXCOORD_0":29
					},
					"indices":30,
					"material":0
				},
				{
					"attributes":{
						"POSITION":31,
						"NORMAL":32,
						"TEXCOORD_0":33
					},
					"indices":34,
					"material":1
				}
			]
		},
		{
			"name":"Cylinder.006",
			"primitives":[
				{
					"attributes":{
						"POSITION":35,
						"NORMAL":36,
						"TEXCOORD_0":37
					},
					"indices":38,
					"material":0
				},
				{
					"attributes":{
						"POSITION":39,
						"NORMAL":40,
						"TEXCOORD_0":41
					},
					"indices":42,
					"material":1
				}
			]
		},
		{
			"name":"Cylinder.007",
			"primitives":[
				{
					"attributes":{
						"POSITION":43,
						"NORMAL":44,
						"TEXCOORD_0":45
					},
					"indices":46,
					"material":1
				}
			]
		},
		{
			"name":"Cylinder.008",
			"primitives":[
				{
					"attributes":{
						"POSITION":47,
						"NORMAL":48,
						"TEXCOORD_0":49
					},
					"indices":50,
					"material":1
				},
				{
					"attributes":{
						"POSITION":51,
						"NORMAL":52,
						"TEXCOORD_0":53
					},
					"indices":54,
					"material":2
				}
			]
		},
		{
			"name":"Cylinder.011",
			"primitives":[
				{
					"attributes":{
						"POSITION":55,
						"NORMAL":56,
						"TEXCOORD_0":57
					},
					"indices":46,
					"material":3
				}
			]
		},
		{
			"name":"Cylinder.012",
			"primitives":[
				{
					"attributes":{
						"POSITION":58,
						"NORMAL":59,
						"TEXCOORD_0":60
					},
					"indices":46,
					"material":3
				}
			]
		},
		{
			"name":"Cylinder.003",
			"primitives":[
				{
					"attributes":{
						"POSITION":61,
						"NORMAL":62,
						"TEXCOORD_0":63
					},
					"indices":46,
					"material":4
				}
			]
		},
		{
			"name":"Cylinder.004",
			"primitives":[
				{
					"attributes":{
						"POSITION":64,
						"NORMAL":65,
						"TEXCOORD_0":66
					},
					"indices":46,
					"material":5
				}
			]
		}
	],
	"accessors":[
		{
			"bufferView":0,
			"componentType":5126,
			"count":66,
			"max":[
				1.3073914051055908,
				1,
				1.1078697443008423
			],
			"min":[
				-1.3073914051055908,
				-1,
				-1
			],
			"type":"VEC3"
		},
		{
			"bufferView":1,
			"componentType":5126,
			"count":66,
			"type":"VEC3"
		},
		{
			"bufferView":2,
			"componentType":5126,
			"count":66,
			"type":"VEC2"
		},
		{
			"bufferView":3,
			"componentType":5123,
			"count":120,
			"type":"SCALAR"
		},
		{
			"bufferView":4,
			"componentType":5126,
			"count":6,
			"max":[
				1.1663318872451782,
				0.8651669025421143,
				1.1078697443008423
			],
			"min":[
				-1.1663318872451782,
				-0.8651669025421143,
				1.1078697443008423
			],
			"type":"VEC3"
		},
		{
			"bufferView":5,
			"componentType":5126,
			"count":6,
			"type":"VEC3"
		},
		{
			"bufferView":6,
			"componentType":5126,
			"count":6,
			"type":"VEC2"
		},
		{
			"bufferView":7,
			"componentType":5123,
			"count":12,
			"type":"SCALAR"
		},
		{
			"bufferView":8,
			"componentType":5126,
			"count":66,
			"max":[
				1.3073914051055908,
				1,
				1
			],
			"min":[
				-1.3073914051055908,
				-1,
				-1.1987353563308716
			],
			"type":"VEC3"
		},
		{
			"bufferView":9,
			"componentType":5126,
			"count":66,
			"type":"VEC3"
		},
		{
			"bufferView":10,
			"componentType":5126,
			"count":66,
			"type":"VEC2"
		},
		{
			"bufferView":11,
			"componentType":5123,
			"count":120,
			"type":"SCALAR"
		},
		{
			"bufferView":12,
			"componentType":5126,
			"count":6,
			"max":[
				1.1451871395111084,
				0.8449554443359375,
				-1.1987353563308716
			],
			"min":[
				-1.1451871395111084,
				-0.8449554443359375,
				-1.1987353563308716
			],
			"type":"VEC3"
		},
		{
			"bufferView":13,
			"componentType":5126,
			"count":6,
			"type":"VEC3"
		},
		{
			"bufferView":14,
			"componentType":5126,
			"count":6,
			"type":"VEC2"
		},
		{
			"bufferView":15,
			"componentType":5126,
			"count":188,
			"max":[
				1.2174525260925293,
				1,
				1.1972025632858276
			],
			"min":[
				-1.2180125713348389,
				-1.0349184274673462,
				-1.1972026824951172
			],
			"type":"VEC3"
		},
		{
			"bufferView":16,
			"componentType":5126,
			"count":188,
			"type":"VEC3"
		},
		{
			"bufferView":17,
			"componentType":5126,
			"count":188,
			"type":"VEC2"
		},
		{
			"bufferView":18,
			"componentType":5123,
			"count":378,
			"type":"SCALAR"
		},
		{
			"bufferView":19,
			"componentType":5126,
			"count":24,
			"max":[
				1.2174525260925293,
				0.9603897333145142,
				1.1966776847839355
			],
			"min":[
				-1.2180125713348389,
				-1.0349184274673462,
				-1.1920678615570068
			],
			"type":"VEC3"
		},
		{
			"bufferView":20,
			"componentType":5126,
			"count":24,
			"type":"VEC3"
		},
		{
			"bufferView":21,
			"componentType":5126,
			"count":24,
			"type":"VEC2"
		},
		{
			"bufferView":22,
			"componentType":5123,
			"count":36,
			"type":"SCALAR"
		},
		{
			"bufferView":23,
			"componentType":5126,
			"count":4,
			"max":[
				1.1560580730438232,
				-0.5214785933494568,
				1.0462822914123535
			],
			"min":[
				1.0299906730651855,
				-0.8894203901290894,
				-1.0462822914123535
			],
			"type":"VEC3"
		},
		{
			"bufferView":24,
			"componentType":5126,
			"count":4,
			"type":"VEC3"
		},
		{
			"bufferView":25,
			"componentType":5126,
			"count":4,
			"type":"VEC2"
		},
		{
			"bufferView":26,
			"componentType":5123,
			"count":6,
			"type":"SCALAR"
		},
		{
			"bufferView":27,
			"componentType":5126,
			"count":224,
			"max":[
				1.2001011371612549,
				1.0330890417099,
				1.2215126752853394
			],
			"min":[
				-1.204882264137268,
				-1,
				-1.2058813571929932
			],
			"type":"VEC3"
		},
		{
			"bufferView":28,
			"componentType":5126,
			"count":224,
			"type":"VEC3"
		},
		{
			"bufferView":29,
			"componentType":5126,
			"count":224,
			"type":"VEC2"
		},
		{
			"bufferView":30,
			"componentType":5123,
			"count":444,
			"type":"SCALAR"
		},
		{
			"bufferView":31,
			"componentType":5126,
			"count":32,
			"max":[
				1.1976029872894287,
				1.0330890417099,
				1.2215126752853394
			],
			"min":[
				-1.204882264137268,
				-0.9585384726524353,
				-1.2058813571929932
			],
			"type":"VEC3"
		},
		{
			"bufferView":32,
			"componentType":5126,
			"count":32,
			"type":"VEC3"
		},
		{
			"bufferView":33,
			"componentType":5126,
			"count":32,
			"type":"VEC2"
		},
		{
			"bufferView":34,
			"componentType":5123,
			"count":48,
			"type":"SCALAR"
		},
		{
			"bufferView":35,
			"componentType":5126,
			"count":232,
			"max":[
				0.20000000298023224,
				0.1751425415277481,
				0.20000000298023224
			],
			"min":[
				-0.20000000298023224,
				-0.05000000074505806,
				-0.20000000298023224
			],
			"type":"VEC3"
		},
		{
			"bufferView":36,
			"componentType":5126,
			"count":232,
			"type":"VEC3"
		},
		{
			"bufferView":37,
			"componentType":5126,
			"count":232,
			"type":"VEC2"
		},
		{
			"bufferView":38,
			"componentType":5123,
			"count":450,
			"type":"SCALAR"
		},
		{
			"bufferView":39,
			"componentType":5126,
			"count":8,
			"max":[
				0.153208389878273,
				0.1751425415277481,
				0.153208389878273
			],
			"min":[
				-0.153208389878273,
				0.1751425415277481,
				-0.153208389878273
			],
			"type":"VEC3"
		},
		{
			"bufferView":40,
			"componentType":5126,
			"count":8,
			"type":"VEC3"
		},
		{
			"bufferView":41,
			"componentType":5126,
			"count":8,
			"type":"VEC2"
		},
		{
			"bufferView":42,
			"componentType":5123,
			"count":18,
			"type":"SCALAR"
		},
		{
			"bufferView":43,
			"componentType":5126,
			"count":192,
			"max":[
				0.20000000298023224,
				0.05000000074505806,
				0.20000000298023224
			],
			"min":[
				-0.20000000298023224,
				-0.05000000074505806,
				-0.20000000298023224
			],
			"type":"VEC3"
		},
		{
			"bufferView":44,
			"componentType":5126,
			"count":192,
			"type":"VEC3"
		},
		{
			"bufferView":45,
			"componentType":5126,
			"count":192,
			"type":"VEC2"
		},
		{
			"bufferView":46,
			"componentType":5123,
			"count":372,
			"type":"SCALAR"
		},
		{
			"bufferView":47,
			"componentType":5126,
			"count":224,
			"max":[
				0.20000000298023224,
				0.05000000074505806,
				0.20000000298023224
			],
			"min":[
				-0.20000000298023224,
				-0.05000000074505806,
				-0.20000000298023224
			],
			"type":"VEC3"
		},
		{
			"bufferView":48,
			"componentType":5126,
			"count":224,
			"type":"VEC3"
		},
		{
			"bufferView":49,
			"componentType":5126,
			"count":224,
			"type":"VEC2"
		},
		{
			"bufferView":50,
			"componentType":5123,
			"count":402,
			"type":"SCALAR"
		},
		{
			"bufferView":51,
			"componentType":5126,
			"count":8,
			"max":[
				0.1961570531129837,
				-0.009993534535169601,
				0.1961570531129837
			],
			"min":[
				-0.1961570531129837,
				-0.009993534535169601,
				-0.1961570531129837
			],
			"type":"VEC3"
		},
		{
			"bufferView":52,
			"componentType":5126,
			"count":8,
			"type":"VEC3"
		},
		{
			"bufferView":53,
			"componentType":5126,
			"count":8,
			"type":"VEC2"
		},
		{
			"bufferView":54,
			"componentType":5123,
			"count":18,
			"type":"SCALAR"
		},
		{
			"bufferView":55,
			"componentType":5126,
			"count":192,
			"max":[
				0.20000000298023224,
				0.05000000074505806,
				0.20000000298023224
			],
			"min":[
				-0.20000000298023224,
				-0.05000000074505806,
				-0.20000000298023224
			],
			"type":"VEC3"
		},
		{
			"bufferView":56,
			"componentType":5126,
			"count":192,
			"type":"VEC3"
		},
		{
			"bufferView":57,
			"componentType":5126,
			"count":192,
			"type":"VEC2"
		},
		{
			"bufferView":58,
			"componentType":5126,
			"count":192,
			"max":[
				0.20000000298023224,
				0.05000000074505806,
				0.20000000298023224
			],
			"min":[
				-0.20000000298023224,
				-0.05000000074505806,
				-0.20000000298023224
			],
			"type":"VEC3"
		},
		{
			"bufferView":59,
			"componentType":5126,
			"count":192,
			"type":"VEC3"
		},
		{
			"bufferView":60,
			"componentType":5126,
			"count":192,
			"type":"VEC2"
		},
		{
			"bufferView":61,
			"componentType":5126,
			"count":192,
			"max":[
				0.20000000298023224,
				0.05000000074505806,
				0.20000000298023224
			],
			"min":[
				-0.20000000298023224,
				-0.05000000074505806,
				-0.20000000298023224
			],
			"type":"VEC3"
		},
		{
			"bufferView":62,
			"componentType":5126,
			"count":192,
			"type":"VEC3"
		},
		{
			"bufferView":63,
			"componentType":5126,
			"count":192,
			"type":"VEC2"
		},
		{
			"bufferView":64,
			"componentType":5126,
			"count":192,
			"max":[
				0.20000000298023224,
				0.05000000074505806,
				0.20000000298023224
			],
			"min":[
				-0.20000000298023224,
				-0.05000000074505806,
				-0.20000000298023224
			],
			"type":"VEC3"
		},
		{
			"bufferView":65,
			"componentType":5126,
			"count":192,
			"type":"VEC3"
		},
		{
			"bufferView":66,
			"componentType":5126,
			"count":192,
			"type":"VEC2"
		},
		{
			"bufferView":67,
			"componentType":5126,
			"count":1,
			"max":[
				0.041666666666666664
			],
			"min":[
				0.041666666666666664
			],
			"type":"SCALAR"
		},
		{
			"bufferView":68,
			"componentType":5126,
			"count":1,
			"type":"VEC3"
		},
		{
			"bufferView":69,
			"componentType":5126,
			"count":1,
			"type":"VEC4"
		},
		{
			"bufferView":70,
			"componentType":5126,
			"count":1,
			"type":"VEC3"
		}
	],
	"bufferViews":[
		{
			"buffer":0,
			"byteLength":792,
			"byteOffset":0,
			"target":34962
		},
		{
			"buffer":0,
			"byteLength":792,
			"byteOffset":792,
			"target":34962
		},
		{
			"buffer":0,
			"byteLength":528,
			"byteOffset":1584,
			"target":34962
		},
		{
			"buffer":0,
			"byteLength":240,
			"byteOffset":2112,
			"target":34963
		},
		{
			"buffer":0,
			"byteLength":72,
			"byteOffset":2352,
			"target":34962
		},
		{
			"buffer":0,
			"byteLength":72,
			"byteOffset":2424,
			"target":34962
		},
		{
			"buffer":0,
			"byteLength":48,
			"byteOffset":2496,
			"target":34962
		},
		{
			"buffer":0,
			"byteLength":24,
			"byteOffset":2544,
			"target":34963
		},
		{
			"buffer":0,
			"byteLength":792,
			"byteOffset":2568,
			"target":34962
		},
		{
			"buffer":0,
			"byteLength":792,
			"byteOffset":3360,
			"target":34962
		},
		{
			"buffer":0,
			"byteLength":528,
			"byteOffset":4152,
			"target":34962
		},
		{
			"buffer":0,
			"byteLength":240,
			"byteOffset":4680,
			"target":34963
		},
		{
			"buffer":0,
			"byteLength":72,
			"byteOffset":4920,
			"target":34962
		},
		{
			"buffer":0,
			"byteLength":72,
			"byteOffset":4992,
			"target":34962
		},
		{
			"buffer":0,
			"byteLength":48,
			"byteOffset":5064,
			"target":34962
		},
		{
			"buffer":0,
			"byteLength":2256,
			"byteOffset":5112,
			"target":34962
		},
		{
			"buffer":0,
			"byteLength":2256,
			"byteOffset":7368,
			"target":34962
		},
		{
			"buffer":0,
			"byteLength":1504,
			"byteOffset":9624,
			"target":34962
		},
		{
			"buffer":0,
			"byteLength":756,
			"byteOffset":11128,
			"target":34963
		},
		{
			"buffer":0,
			"byteLength":288,
			"byteOffset":11884,
			"target":34962
		},
		{
			"buffer":0,
			"byteLength":288,
			"byteOffset":12172,
			"target":34962
		},
		{
			"buffer":0,
			"byteLength":192,
			"byteOffset":12460,
			"target":34962
		},
		{
			"buffer":0,
			"byteLength":72,
			"byteOffset":12652,
			"target":34963
		},
		{
			"buffer":0,
			"byteLength":48,
			"byteOffset":12724,
			"target":34962
		},
		{
			"buffer":0,
			"byteLength":48,
			"byteOffset":12772,
			"target":34962
		},
		{
			"buffer":0,
			"byteLength":32,
			"byteOffset":12820,
			"target":34962
		},
		{
			"buffer":0,
			"byteLength":12,
			"byteOffset":12852,
			"target":34963
		},
		{
			"buffer":0,
			"byteLength":2688,
			"byteOffset":12864,
			"target":34962
		},
		{
			"buffer":0,
			"byteLength":2688,
			"byteOffset":15552,
			"target":34962
		},
		{
			"buffer":0,
			"byteLength":1792,
			"byteOffset":18240,
			"target":34962
		},
		{
			"buffer":0,
			"byteLength":888,
			"byteOffset":20032,
			"target":34963
		},
		{
			"buffer":0,
			"byteLength":384,
			"byteOffset":20920,
			"target":34962
		},
		{
			"buffer":0,
			"byteLength":384,
			"byteOffset":21304,
			"target":34962
		},
		{
			"buffer":0,
			"byteLength":256,
			"byteOffset":21688,
			"target":34962
		},
		{
			"buffer":0,
			"byteLength":96,
			"byteOffset":21944,
			"target":34963
		},
		{
			"buffer":0,
			"byteLength":2784,
			"byteOffset":22040,
			"target":34962
		},
		{
			"buffer":0,
			"byteLength":2784,
			"byteOffset":24824,
			"target":34962
		},
		{
			"buffer":0,
			"byteLength":1856,
			"byteOffset":27608,
			"target":34962
		},
		{
			"buffer":0,
			"byteLength":900,
			"byteOffset":29464,
			"target":34963
		},
		{
			"buffer":0,
			"byteLength":96,
			"byteOffset":30364,
			"target":34962
		},
		{
			"buffer":0,
			"byteLength":96,
			"byteOffset":30460,
			"target":34962
		},
		{
			"buffer":0,
			"byteLength":64,
			"byteOffset":30556,
			"target":34962
		},
		{
			"buffer":0,
			"byteLength":36,
			"byteOffset":30620,
			"target":34963
		},
		{
			"buffer":0,
			"byteLength":2304,
			"byteOffset":30656,
			"target":34962
		},
		{
			"buffer":0,
			"byteLength":2304,
			"byteOffset":32960,
			"target":34962
		},
		{
			"buffer":0,
			"byteLength":1536,
			"byteOffset":35264,
			"target":34962
		},
		{
			"buffer":0,
			"byteLength":744,
			"byteOffset":36800,
			"target":34963
		},
		{
			"buffer":0,
			"byteLength":2688,
			"byteOffset":37544,
			"target":34962
		},
		{
			"buffer":0,
			"byteLength":2688,
			"byteOffset":40232,
			"target":34962
		},
		{
			"buffer":0,
			"byteLength":1792,
			"byteOffset":42920,
			"target":34962
		},
		{
			"buffer":0,
			"byteLength":804,
			"byteOffset":44712,
			"target":34963
		},
		{
			"buffer":0,
			"byteLength":96,
			"byteOffset":45516,
			"target":34962
		},
		{
			"buffer":0,
			"byteLength":96,
			"byteOffset":45612,
			"target":34962
		},
		{
			"buffer":0,
			"byteLength":64,
			"byteOffset":45708,
			"target":34962
		},
		{
			"buffer":0,
			"byteLength":36,
			"byteOffset":45772,
			"target":34963
		},
		{
			"buffer":0,
			"byteLength":2304,
			"byteOffset":45808,
			"target":34962
		},
		{
			"buffer":0,
			"byteLength":2304,
			"byteOffset":48112,
			"target":34962
		},
		{
			"buffer":0,
			"byteLength":1536,
			"byteOffset":50416,
			"target":34962
		},
		{
			"buffer":0,
			"byteLength":2304,
			"byteOffset":51952,
			"target":34962
		},
		{
			"buffer":0,
			"byteLength":2304,
			"byteOffset":54256,
			"target":34962
		},
		{
			"buffer":0,
			"byteLength":1536,
			"byteOffset":56560,
			"target":34962
		},
		{
			"buffer":0,
			"byteLength":2304,
			"byteOffset":58096,
			"target":34962
		},
		{
			"buffer":0,
			"byteLength":2304,
			"byteOffset":60400,
			"target":34962
		},
		{
			"buffer":0,
			"byteLength":1536,
			"byteOffset":62704,
			"target":34962
		},
		{
			"buffer":0,
			"byteLength":2304,
			"byteOffset":64240,
			"target":34962
		},
		{
			"buffer":0,
			"byteLength":2304,
			"byteOffset":66544,
			"target":34962
		},
		{
			"buffer":0,
			"byteLength":1536,
			"byteOffset":68848,
			"target":34962
		},
		{
			"buffer":0,
			"byteLength":4,
			"byteOffset":70384
		},
		{
			"buffer":0,
			"byteLength":12,
			"byteOffset":70388
		},
		{
			"buffer":0,
			"byteLength":16,
			"byteOffset":70400
		},
		{
			"buffer":0,
			"byteLength":12,
			"byteOffset":70416
		}
	],
	"buffers":[
		{
			"byteLength":70428,
			"uri":"superTank.bin"
		}
	]
}
