{
	"asset":{
		"generator":"Khronos glTF Blender I/O v5.1.20",
		"version":"2.0"
	},
	"scene":0,
	"scenes":[
		{
			"name":"Scene",
			"nodes":[
				0,
				1,
				2,
				3,
				4
			]
		}
	],
	"nodes":[
		{
			"mesh":0,
			"name":"Cube.001",
			"scale":[
				1.75,
				0.5,
				3.4000000953674316
			],
			"translation":[
				0,
				1.1084054708480835,
				0
			]
		},
		{
			"mesh":1,
			"name":"Cylinder",
			"rotation":[
				0,
				0,
				-0.7071068286895752,
				0.7071067094802856
			],
			"scale":[
				0.6000000834465027,
				0.2500000298023224,
				0.6000000238418579
			],
			"translation":[
				-1.8581500053405762,
				0.6707870364189148,
				-2.2832775115966797
			]
		},
		{
			"mesh":2,
			"name":"Cylinder.001",
			"rotation":[
				0,
				0,
				-0.7071068286895752,
				0.7071067094802856
			],
			"scale":[
				0.6000000834465027,
				0.2500000298023224,
				0.6000000238418579
			],
			"translation":[
				-1.8581500053405762,
				0.6707870364189148,
				2.3125436305999756
			]
		},
		{
			"mesh":3,
			"name":"Cylinder.002",
			"rotation":[
				0,
				0,
				-0.7071068286895752,
				0.7071067094802856
			],
			"scale":[
				0.6000000834465027,
				0.2500000298023224,
				0.6000000238418579
			],
			"translation":[
				1.8581500053405762,
				0.6707870364189148,
				-2.2832775115966797
			]
		},
		{
			"mesh":4,
			"name":"Cylinder.003",
			"rotation":[
				0,
				0,
				-0.7071068286895752,
				0.7071067094802856
			],
			"scale":[
				0.6000000834465027,
				0.2500000298023224,
				0.6000000238418579
			],
			"translation":[
				1.8581500053405762,
				0.6707870364189148,
				2.3125436305999756
			]
		}
	],
	"materials":[
		{
			"doubleSided":true,
			"name":"Material.027",
			"pbrMetallicRoughness":{
				"baseColorFactor":[
					0.09495709091424942,
					0.23203188180923462,
					0.07467386871576309,
					1
				],
				"metallicFactor":0,
				"roughnessFactor":0.5
			}
		},
		{
			"doubleSided":true,
			"name":"Material.028",
			"pbrMetallicRoughness":{
				"baseColorFactor":[
					0.7114146947860718,
					0.8000156879425049,
					0.8000156879425049,
					1
				],
				"metallicFactor":0,
				"roughnessFactor":0
			}
		},
		{
			"doubleSided":true,
			"name":"Material.029",
			"pbrMetallicRoughness":{
				"baseColorFactor":[
					1,
					0.8658134341239929,
					0.06060248613357544,
					1
				],
				"metallicFactor":0,
				"roughnessFactor":0
			}
		},
		{
			"doubleSided":true,
			"name":"Material.030",
			"pbrMetallicRoughness":{
				"baseColorFactor":[
					0.20951107144355774,
					0.21039795875549316,
					0.8000156879425049,
					1
				],
				"metallicFactor":0,
				"roughnessFactor":0.5
			}
		},
		{
			"doubleSided":true,
			"name":"Material.039",
			"pbrMetallicRoughness":{
				"baseColorFactor":[
					0,
					0,
					0,
					1
				],
				"metallicFactor":0,
				"roughnessFactor":0.5
			}
		},
		{
			"doubleSided":true,
			"name":"Material.031",
			"pbrMetallicRoughness":{
				"baseColorFactor":[
					0.06594129651784897,
					0.06594129651784897,
					0.06594129651784897,
					1
				],
				"metallicFactor":0,
				"roughnessFactor":0.5
			}
		},
		{
			"doubleSided":true,
			"name":"Material.032",
			"pbrMetallicRoughness":{
				"baseColorFactor":[
					0.47923290729522705,
					0.47923290729522705,
					0.47923290729522705,
					1
				],
				"metallicFactor":0,
				"roughnessFactor":0
			}
		}
	],
	"meshes":[
		{
			"name":"Cube.026",
			"primitives":[
				{
					"attributes":{
						"POSITION":0,
						"NORMAL":1,
						"TEXCOORD_0":2
					},
					"indices":3,
					"material":0
				},
				{
					"attributes":{
						"POSITION":4,
						"NORMAL":5,
						"TEXCOORD_0":6
					},
					"indices":7,
					"material":1
				},
				{
					"attributes":{
						"POSITION":8,
						"NORMAL":9,
						"TEXCOORD_0":10
					},
					"indices":11,
					"material":2
				},
				{
					"attributes":{
						"POSITION":12,
						"NORMAL":13,
						"TEXCOORD_0":14
					},
					"indices":15,
					"material":3
				},
				{
					"attributes":{
						"POSITION":16,
						"NORMAL":17,
						"TEXCOORD_0":18
					},
					"indices":19,
					"material":4
				}
			]
		},
		{
			"name":"Cylinder",
			"primitives":[
				{
					"attributes":{
						"POSITION":20,
						"NORMAL":21,
						"TEXCOORD_0":22
					},
					"indices":23,
					"material":5
				},
				{
					"attributes":{
						"POSITION":24,
						"NORMAL":25,
						"TEXCOORD_0":26
					},
					"indices":27,
					"material":6
				}
			]
		},
		{
			"name":"Cylinder.004",
			"primitives":[
				{
					"attributes":{
						"POSITION":28,
						"NORMAL":29,
						"TEXCOORD_0":30
					},
					"indices":23,
					"material":5
				},
				{
					"attributes":{
						"POSITION":31,
						"NORMAL":32,
						"TEXCOORD_0":33
					},
					"indices":27,
					"material":6
				}
			]
		},
		{
			"name":"Cylinder.006",
			"primitives":[
				{
					"attributes":{
						"POSITION":34,
						"NORMAL":35,
						"TEXCOORD_0":36
					},
					"indices":37,
					"material":5
				},
				{
					"attributes":{
						"POSITION":38,
						"NORMAL":39,
						"TEXCOORD_0":40
					},
					"indices":27,
					"material":6
				}
			]
		},
		{
			"name":"Cylinder.007",
			"primitives":[
				{
					"attributes":{
						"POSITION":41,
						"NORMAL":42,
						"TEXCOORD_0":43
					},
					"indices":37,
					"material":5
				},
				{
					"attributes":{
						"POSITION":44,
						"NORMAL":45,
						"TEXCOORD_0":46
					},
					"indices":27,
					"material":6
				}
			]
		}
	],
	"accessors":[
		{
			"bufferView":0,
			"componentType":5126,
			"count":606,
			"max":[
				1.0086930990219116,
				4.112252235412598,
				1.1603376865386963
			],
			"min":[
				-1.008695125579834,
				-1.1597987413406372,
				-1.076503872871399
			],
			"type":"VEC3"
		},
		{
			"bufferView":1,
			"componentType":5126,
			"count":606,
			"type":"VEC3"
		},
		{
			"bufferView":2,
			"componentType":5126,
			"count":606,
			"type":"VEC2"
		},
		{
			"bufferView":3,
			"componentType":5123,
			"count":1224,
			"type":"SCALAR"
		},
		{
			"bufferView":4,
			"componentType":5126,
			"count":16,
			"max":[
				0.9740503430366516,
				3.461434841156006,
				0.010872304439544678
			],
			"min":[
				-0.9740503430366516,
				1.1174020767211914,
				-0.678713321685791
			],
			"type":"VEC3"
		},
		{
			"bufferView":5,
			"componentType":5126,
			"count":16,
			"type":"VEC3"
		},
		{
			"bufferView":6,
			"componentType":5126,
			"count":16,
			"type":"VEC2"
		},
		{
			"bufferView":7,
			"componentType":5123,
			"count":30,
			"type":"SCALAR"
		},
		{
			"bufferView":8,
			"componentType":5126,
			"count":28,
			"max":[
				1.008696436882019,
				1.0758148431777954,
				1.179323434829712
			],
			"min":[
				-1.0086930990219116,
				-0.3153584897518158,
				-1.076503872871399
			],
			"type":"VEC3"
		},
		{
			"bufferView":9,
			"componentType":5126,
			"count":28,
			"type":"VEC3"
		},
		{
			"bufferView":10,
			"componentType":5126,
			"count":28,
			"type":"VEC2"
		},
		{
			"bufferView":11,
			"componentType":5123,
			"count":84,
			"type":"SCALAR"
		},
		{
			"bufferView":12,
			"componentType":5126,
			"count":40,
			"max":[
				0.35922205448150635,
				-0.2753182649612427,
				1.1323477029800415
			],
			"min":[
				-0.35922420024871826,
				-1.1597987413406372,
				1.0819109678268433
			],
			"type":"VEC3"
		},
		{
			"bufferView":13,
			"componentType":5126,
			"count":40,
			"type":"VEC3"
		},
		{
			"bufferView":14,
			"componentType":5126,
			"count":40,
			"type":"VEC2"
		},
		{
			"bufferView":15,
			"componentType":5123,
			"count":60,
			"type":"SCALAR"
		},
		{
			"bufferView":16,
			"componentType":5126,
			"count":30,
			"max":[
				0.8932939171791077,
				3.804640293121338,
				1.0581285953521729
			],
			"min":[
				-0.8932939171791077,
				-0.31162571907043457,
				0.9835141897201538
			],
			"type":"VEC3"
		},
		{
			"bufferView":17,
			"componentType":5126,
			"count":30,
			"type":"VEC3"
		},
		{
			"bufferView":18,
			"componentType":5126,
			"count":30,
			"type":"VEC2"
		},
		{
			"bufferView":19,
			"componentType":5123,
			"count":66,
			"type":"SCALAR"
		},
		{
			"bufferView":20,
			"componentType":5126,
			"count":864,
			"max":[
				1.1071966886520386,
				1,
				1.1071968078613281
			],
			"min":[
				-1.1071966886520386,
				-1,
				-1.107196569442749
			],
			"type":"VEC3"
		},
		{
			"bufferView":21,
			"componentType":5126,
			"count":864,
			"type":"VEC3"
		},
		{
			"bufferView":22,
			"componentType":5126,
			"count":864,
			"type":"VEC2"
		},
		{
			"bufferView":23,
			"componentType":5123,
			"count":1626,
			"type":"SCALAR"
		},
		{
			"bufferView":24,
			"componentType":5126,
			"count":32,
			"max":[
				0.8029442429542542,
				-0.8886845707893372,
				0.8029442429542542
			],
			"min":[
				-0.8029442429542542,
				-0.8886845707893372,
				-0.8029442429542542
			],
			"type":"VEC3"
		},
		{
			"bufferView":25,
			"componentType":5126,
			"count":32,
			"type":"VEC3"
		},
		{
			"bufferView":26,
			"componentType":5126,
			"count":32,
			"type":"VEC2"
		},
		{
			"bufferView":27,
			"componentType":5123,
			"count":90,
			"type":"SCALAR"
		},
		{
			"bufferView":28,
			"componentType":5126,
			"count":864,
			"max":[
				1.1071966886520386,
				1,
				1.1071968078613281
			],
			"min":[
				-1.1071966886520386,
				-1,
				-1.107196569442749
			],
			"type":"VEC3"
		},
		{
			"bufferView":29,
			"componentType":5126,
			"count":864,
			"type":"VEC3"
		},
		{
			"bufferView":30,
			"componentType":5126,
			"count":864,
			"type":"VEC2"
		},
		{
			"bufferView":31,
			"componentType":5126,
			"count":32,
			"max":[
				0.8029442429542542,
				-0.8886845707893372,
				0.8029442429542542
			],
			"min":[
				-0.8029442429542542,
				-0.8886845707893372,
				-0.8029442429542542
			],
			"type":"VEC3"
		},
		{
			"bufferView":32,
			"componentType":5126,
			"count":32,
			"type":"VEC3"
		},
		{
			"bufferView":33,
			"componentType":5126,
			"count":32,
			"type":"VEC2"
		},
		{
			"bufferView":34,
			"componentType":5126,
			"count":864,
			"max":[
				1.1071966886520386,
				1,
				1.1071968078613281
			],
			"min":[
				-1.1071966886520386,
				-1,
				-1.107196569442749
			],
			"type":"VEC3"
		},
		{
			"bufferView":35,
			"componentType":5126,
			"count":864,
			"type":"VEC3"
		},
		{
			"bufferView":36,
			"componentType":5126,
			"count":864,
			"type":"VEC2"
		},
		{
			"bufferView":37,
			"componentType":5123,
			"count":1626,
			"type":"SCALAR"
		},
		{
			"bufferView":38,
			"componentType":5126,
			"count":32,
			"max":[
				0.8029443025588989,
				0.888685405254364,
				0.8029443025588989
			],
			"min":[
				-0.8029443025588989,
				0.888685405254364,
				-0.8029443025588989
			],
			"type":"VEC3"
		},
		{
			"bufferView":39,
			"componentType":5126,
			"count":32,
			"type":"VEC3"
		},
		{
			"bufferView":40,
			"componentType":5126,
			"count":32,
			"type":"VEC2"
		},
		{
			"bufferView":41,
			"componentType":5126,
			"count":864,
			"max":[
				1.1071966886520386,
				1,
				1.1071968078613281
			],
			"min":[
				-1.1071966886520386,
				-1,
				-1.107196569442749
			],
			"type":"VEC3"
		},
		{
			"bufferView":42,
			"componentType":5126,
			"count":864,
			"type":"VEC3"
		},
		{
			"bufferView":43,
			"componentType":5126,
			"count":864,
			"type":"VEC2"
		},
		{
			"bufferView":44,
			"componentType":5126,
			"count":32,
			"max":[
				0.8029443025588989,
				0.888685405254364,
				0.8029443025588989
			],
			"min":[
				-0.8029443025588989,
				0.888685405254364,
				-0.8029443025588989
			],
			"type":"VEC3"
		},
		{
			"bufferView":45,
			"componentType":5126,
			"count":32,
			"type":"VEC3"
		},
		{
			"bufferView":46,
			"componentType":5126,
			"count":32,
			"type":"VEC2"
		}
	],
	"bufferViews":[
		{
			"buffer":0,
			"byteLength":7272,
			"byteOffset":0,
			"target":34962
		},
		{
			"buffer":0,
			"byteLength":7272,
			"byteOffset":7272,
			"target":34962
		},
		{
			"buffer":0,
			"byteLength":4848,
			"byteOffset":14544,
			"target":34962
		},
		{
			"buffer":0,
			"byteLength":2448,
			"byteOffset":19392,
			"target":34963
		},
		{
			"buffer":0,
			"byteLength":192,
			"byteOffset":21840,
			"target":34962
		},
		{
			"buffer":0,
			"byteLength":192,
			"byteOffset":22032,
			"target":34962
		},
		{
			"buffer":0,
			"byteLength":128,
			"byteOffset":22224,
			"target":34962
		},
		{
			"buffer":0,
			"byteLength":60,
			"byteOffset":22352,
			"target":34963
		},
		{
			"buffer":0,
			"byteLength":336,
			"byteOffset":22412,
			"target":34962
		},
		{
			"buffer":0,
			"byteLength":336,
			"byteOffset":22748,
			"target":34962
		},
		{
			"buffer":0,
			"byteLength":224,
			"byteOffset":23084,
			"target":34962
		},
		{
			"buffer":0,
			"byteLength":168,
			"byteOffset":23308,
			"target":34963
		},
		{
			"buffer":0,
			"byteLength":480,
			"byteOffset":23476,
			"target":34962
		},
		{
			"buffer":0,
			"byteLength":480,
			"byteOffset":23956,
			"target":34962
		},
		{
			"buffer":0,
			"byteLength":320,
			"byteOffset":24436,
			"target":34962
		},
		{
			"buffer":0,
			"byteLength":120,
			"byteOffset":24756,
			"target":34963
		},
		{
			"buffer":0,
			"byteLength":360,
			"byteOffset":24876,
			"target":34962
		},
		{
			"buffer":0,
			"byteLength":360,
			"byteOffset":25236,
			"target":34962
		},
		{
			"buffer":0,
			"byteLength":240,
			"byteOffset":25596,
			"target":34962
		},
		{
			"buffer":0,
			"byteLength":132,
			"byteOffset":25836,
			"target":34963
		},
		{
			"buffer":0,
			"byteLength":10368,
			"byteOffset":25968,
			"target":34962
		},
		{
			"buffer":0,
			"byteLength":10368,
			"byteOffset":36336,
			"target":34962
		},
		{
			"buffer":0,
			"byteLength":6912,
			"byteOffset":46704,
			"target":34962
		},
		{
			"buffer":0,
			"byteLength":3252,
			"byteOffset":53616,
			"target":34963
		},
		{
			"buffer":0,
			"byteLength":384,
			"byteOffset":56868,
			"target":34962
		},
		{
			"buffer":0,
			"byteLength":384,
			"byteOffset":57252,
			"target":34962
		},
		{
			"buffer":0,
			"byteLength":256,
			"byteOffset":57636,
			"target":34962
		},
		{
			"buffer":0,
			"byteLength":180,
			"byteOffset":57892,
			"target":34963
		},
		{
			"buffer":0,
			"byteLength":10368,
			"byteOffset":58072,
			"target":34962
		},
		{
			"buffer":0,
			"byteLength":10368,
			"byteOffset":68440,
			"target":34962
		},
		{
			"buffer":0,
			"byteLength":6912,
			"byteOffset":78808,
			"target":34962
		},
		{
			"buffer":0,
			"byteLength":384,
			"byteOffset":85720,
			"target":34962
		},
		{
			"buffer":0,
			"byteLength":384,
			"byteOffset":86104,
			"target":34962
		},
		{
			"buffer":0,
			"byteLength":256,
			"byteOffset":86488,
			"target":34962
		},
		{
			"buffer":0,
			"byteLength":10368,
			"byteOffset":86744,
			"target":34962
		},
		{
			"buffer":0,
			"byteLength":10368,
			"byteOffset":97112,
			"target":34962
		},
		{
			"buffer":0,
			"byteLength":6912,
			"byteOffset":107480,
			"target":34962
		},
		{
			"buffer":0,
			"byteLength":3252,
			"byteOffset":114392,
			"target":34963
		},
		{
			"buffer":0,
			"byteLength":384,
			"byteOffset":117644,
			"target":34962
		},
		{
			"buffer":0,
			"byteLength":384,
			"byteOffset":118028,
			"target":34962
		},
		{
			"buffer":0,
			"byteLength":256,
			"byteOffset":118412,
			"target":34962
		},
		{
			"buffer":0,
			"byteLength":10368,
			"byteOffset":118668,
			"target":34962
		},
		{
			"buffer":0,
			"byteLength":10368,
			"byteOffset":129036,
			"target":34962
		},
		{
			"buffer":0,
			"byteLength":6912,
			"byteOffset":139404,
			"target":34962
		},
		{
			"buffer":0,
			"byteLength":384,
			"byteOffset":146316,
			"target":34962
		},
		{
			"buffer":0,
			"byteLength":384,
			"byteOffset":146700,
			"target":34962
		},
		{
			"buffer":0,
			"byteLength":256,
			"byteOffset":147084,
			"target":34962
		}
	],
	"buffers":[
		{
			"byteLength":147340,
			"uri":"resupplyTruck.bin"
		}
	]
}
