{
	"asset":{
		"generator":"Khronos glTF Blender I/O v5.1.20",
		"version":"2.0"
	},
	"scene":0,
	"scenes":[
		{
			"name":"Scene",
			"nodes":[
				0,
				1,
				2,
				3,
				4,
				5,
				6,
				7,
				8
			]
		}
	],
	"nodes":[
		{
			"mesh":0,
			"name":"Cube",
			"scale":[
				1.75,
				0.5,
				3.4000000953674316
			],
			"translation":[
				0,
				1.1084054708480835,
				0
			]
		},
		{
			"mesh":1,
			"name":"Cylinder",
			"rotation":[
				0,
				0,
				-0.7071068286895752,
				0.7071068286895752
			],
			"scale":[
				0.6000000238418579,
				0.25,
				0.6000000238418579
			],
			"translation":[
				-1.8581500053405762,
				0.6707870364189148,
				-2.2832775115966797
			]
		},
		{
			"mesh":2,
			"name":"Cylinder.001",
			"rotation":[
				0,
				0,
				-0.7071068286895752,
				0.7071068286895752
			],
			"scale":[
				0.6000000238418579,
				0.25,
				0.6000000238418579
			],
			"translation":[
				-1.8581500053405762,
				0.6707870364189148,
				2.3125436305999756
			]
		},
		{
			"mesh":3,
			"name":"Cylinder.002",
			"rotation":[
				0,
				0,
				-0.7071068286895752,
				0.7071068286895752
			],
			"scale":[
				0.6000000238418579,
				0.25,
				0.6000000238418579
			],
			"translation":[
				1.8581500053405762,
				0.6707870364189148,
				-2.2832775115966797
			]
		},
		{
			"mesh":4,
			"name":"Cylinder.003",
			"rotation":[
				0,
				0,
				-0.7071068286895752,
				0.7071068286895752
			],
			"scale":[
				0.6000000238418579,
				0.25,
				0.6000000238418579
			],
			"translation":[
				1.8581500053405762,
				0.6707870364189148,
				2.3125436305999756
			]
		},
		{
			"mesh":5,
			"name":"Cube.005",
			"scale":[
				0.7116769552230835,
				0.7116769552230835,
				0.7116769552230835
			],
			"translation":[
				-0.009037072770297527,
				1.5200259685516357,
				1.7452489137649536
			]
		},
		{
			"mesh":6,
			"name":"Cube.006",
			"scale":[
				0.1371839940547943,
				0.1371839940547943,
				0.1371839940547943
			],
			"translation":[
				-0.009037072770297527,
				2.1836538314819336,
				1.7452489137649536
			]
		},
		{
			"mesh":7,
			"name":"Cube.007",
			"scale":[
				0.03429599851369858,
				0.1371839940547943,
				0.03429599851369858
			],
			"translation":[
				-0.009037072770297527,
				2.4506583213806152,
				1.7452489137649536
			]
		},
		{
			"mesh":8,
			"name":"Cube.010",
			"scale":[
				0.03429599851369858,
				0.03429599851369858,
				0.03429599851369858
			],
			"translation":[
				-0.009037072770297527,
				2.617582082748413,
				1.7452489137649536
			]
		}
	],
	"materials":[
		{
			"doubleSided":true,
			"name":"Material.004",
			"pbrMetallicRoughness":{
				"baseColorFactor":[
					0.31267303228378296,
					0.26889026165008545,
					0.19362092018127441,
					1
				],
				"metallicFactor":0,
				"roughnessFactor":0.5
			}
		},
		{
			"doubleSided":true,
			"name":"Material.005",
			"pbrMetallicRoughness":{
				"baseColorFactor":[
					0.7114146947860718,
					0.8000156879425049,
					0.8000156879425049,
					1
				],
				"metallicFactor":0,
				"roughnessFactor":0
			}
		},
		{
			"doubleSided":true,
			"name":"Material.006",
			"pbrMetallicRoughness":{
				"baseColorFactor":[
					1,
					0.8658134341239929,
					0.06060248613357544,
					1
				],
				"metallicFactor":0,
				"roughnessFactor":0
			}
		},
		{
			"doubleSided":true,
			"name":"Material.007",
			"pbrMetallicRoughness":{
				"baseColorFactor":[
					0.8000074625015259,
					0.08680471032857895,
					0.05505336821079254,
					1
				],
				"metallicFactor":0,
				"roughnessFactor":0.5
			}
		},
		{
			"doubleSided":true,
			"name":"Material.002",
			"pbrMetallicRoughness":{
				"baseColorFactor":[
					0.06594129651784897,
					0.06594129651784897,
					0.06594129651784897,
					1
				],
				"metallicFactor":0,
				"roughnessFactor":0.5
			}
		},
		{
			"doubleSided":true,
			"name":"Material.008",
			"pbrMetallicRoughness":{
				"baseColorFactor":[
					0.47923290729522705,
					0.47923290729522705,
					0.47923290729522705,
					1
				],
				"metallicFactor":0,
				"roughnessFactor":0
			}
		},
		{
			"doubleSided":true,
			"name":"Material.020",
			"pbrMetallicRoughness":{
				"baseColorFactor":[
					0,
					0,
					0,
					1
				],
				"metallicFactor":0,
				"roughnessFactor":0.5
			}
		},
		{
			"doubleSided":true,
			"name":"Material.024",
			"pbrMetallicRoughness":{
				"baseColorFactor":[
					0,
					0,
					0,
					1
				],
				"metallicFactor":0,
				"roughnessFactor":0.5
			}
		},
		{
			"doubleSided":true,
			"name":"Material.025",
			"pbrMetallicRoughness":{
				"baseColorFactor":[
					0.0719902366399765,
					0.034206755459308624,
					0.007913006469607353,
					1
				],
				"metallicFactor":0,
				"roughnessFactor":0.5
			}
		},
		{
			"doubleSided":true,
			"name":"Material.026",
			"pbrMetallicRoughness":{
				"baseColorFactor":[
					1,
					0.28436651825904846,
					0.09163720160722733,
					1
				],
				"metallicFactor":0,
				"roughnessFactor":0.5
			}
		}
	],
	"meshes":[
		{
			"name":"Cube.001",
			"primitives":[
				{
					"attributes":{
						"POSITION":0,
						"NORMAL":1,
						"TEXCOORD_0":2
					},
					"indices":3,
					"material":0
				},
				{
					"attributes":{
						"POSITION":4,
						"NORMAL":5,
						"TEXCOORD_0":6
					},
					"indices":7,
					"material":1
				},
				{
					"attributes":{
						"POSITION":8,
						"NORMAL":9,
						"TEXCOORD_0":10
					},
					"indices":11,
					"material":2
				},
				{
					"attributes":{
						"POSITION":12,
						"NORMAL":13,
						"TEXCOORD_0":14
					},
					"indices":15,
					"material":3
				}
			]
		},
		{
			"name":"Cylinder",
			"primitives":[
				{
					"attributes":{
						"POSITION":16,
						"NORMAL":17,
						"TEXCOORD_0":18
					},
					"indices":19,
					"material":4
				},
				{
					"attributes":{
						"POSITION":20,
						"NORMAL":21,
						"TEXCOORD_0":22
					},
					"indices":23,
					"material":5
				}
			]
		},
		{
			"name":"Cylinder.004",
			"primitives":[
				{
					"attributes":{
						"POSITION":24,
						"NORMAL":25,
						"TEXCOORD_0":26
					},
					"indices":19,
					"material":4
				},
				{
					"attributes":{
						"POSITION":27,
						"NORMAL":28,
						"TEXCOORD_0":29
					},
					"indices":23,
					"material":5
				}
			]
		},
		{
			"name":"Cylinder.006",
			"primitives":[
				{
					"attributes":{
						"POSITION":30,
						"NORMAL":31,
						"TEXCOORD_0":32
					},
					"indices":33,
					"material":4
				},
				{
					"attributes":{
						"POSITION":34,
						"NORMAL":35,
						"TEXCOORD_0":36
					},
					"indices":23,
					"material":5
				}
			]
		},
		{
			"name":"Cylinder.007",
			"primitives":[
				{
					"attributes":{
						"POSITION":37,
						"NORMAL":38,
						"TEXCOORD_0":39
					},
					"indices":33,
					"material":4
				},
				{
					"attributes":{
						"POSITION":40,
						"NORMAL":41,
						"TEXCOORD_0":42
					},
					"indices":23,
					"material":5
				}
			]
		},
		{
			"name":"Cube.007",
			"primitives":[
				{
					"attributes":{
						"POSITION":43,
						"NORMAL":44,
						"TEXCOORD_0":45
					},
					"indices":46,
					"material":6
				}
			]
		},
		{
			"name":"Cube.011",
			"primitives":[
				{
					"attributes":{
						"POSITION":47,
						"NORMAL":48,
						"TEXCOORD_0":49
					},
					"indices":50,
					"material":7
				}
			]
		},
		{
			"name":"Cube.019",
			"primitives":[
				{
					"attributes":{
						"POSITION":51,
						"NORMAL":52,
						"TEXCOORD_0":53
					},
					"indices":50,
					"material":8
				}
			]
		},
		{
			"name":"Cube.023",
			"primitives":[
				{
					"attributes":{
						"POSITION":54,
						"NORMAL":55,
						"TEXCOORD_0":56
					},
					"indices":50,
					"material":9
				}
			]
		}
	],
	"accessors":[
		{
			"bufferView":0,
			"componentType":5126,
			"count":400,
			"max":[
				1.0086930990219116,
				3.616487979888916,
				1.1101841926574707
			],
			"min":[
				-1.0086930990219116,
				-1.143056869506836,
				-1.076503872871399
			],
			"type":"VEC3"
		},
		{
			"bufferView":1,
			"componentType":5126,
			"count":400,
			"type":"VEC3"
		},
		{
			"bufferView":2,
			"componentType":5126,
			"count":400,
			"type":"VEC2"
		},
		{
			"bufferView":3,
			"componentType":5123,
			"count":780,
			"type":"SCALAR"
		},
		{
			"bufferView":4,
			"componentType":5126,
			"count":16,
			"max":[
				0.9740503430366516,
				3.461434841156006,
				0.010872304439544678
			],
			"min":[
				-0.9740503430366516,
				1.1174020767211914,
				-0.678713321685791
			],
			"type":"VEC3"
		},
		{
			"bufferView":5,
			"componentType":5126,
			"count":16,
			"type":"VEC3"
		},
		{
			"bufferView":6,
			"componentType":5126,
			"count":16,
			"type":"VEC2"
		},
		{
			"bufferView":7,
			"componentType":5123,
			"count":30,
			"type":"SCALAR"
		},
		{
			"bufferView":8,
			"componentType":5126,
			"count":16,
			"max":[
				1.0086930990219116,
				1.0520182847976685,
				1.1101841926574707
			],
			"min":[
				-1.0086930990219116,
				-0.3153584897518158,
				-1.076503872871399
			],
			"type":"VEC3"
		},
		{
			"bufferView":9,
			"componentType":5126,
			"count":16,
			"type":"VEC3"
		},
		{
			"bufferView":10,
			"componentType":5126,
			"count":16,
			"type":"VEC2"
		},
		{
			"bufferView":11,
			"componentType":5123,
			"count":24,
			"type":"SCALAR"
		},
		{
			"bufferView":12,
			"componentType":5126,
			"count":4,
			"max":[
				0.35922205448150635,
				-0.2753182649612427,
				1.091198444366455
			],
			"min":[
				-0.3592221438884735,
				-1.0940148830413818,
				1.0819109678268433
			],
			"type":"VEC3"
		},
		{
			"bufferView":13,
			"componentType":5126,
			"count":4,
			"type":"VEC3"
		},
		{
			"bufferView":14,
			"componentType":5126,
			"count":4,
			"type":"VEC2"
		},
		{
			"bufferView":15,
			"componentType":5123,
			"count":6,
			"type":"SCALAR"
		},
		{
			"bufferView":16,
			"componentType":5126,
			"count":864,
			"max":[
				1.1071966886520386,
				1,
				1.1071968078613281
			],
			"min":[
				-1.1071966886520386,
				-1,
				-1.107196569442749
			],
			"type":"VEC3"
		},
		{
			"bufferView":17,
			"componentType":5126,
			"count":864,
			"type":"VEC3"
		},
		{
			"bufferView":18,
			"componentType":5126,
			"count":864,
			"type":"VEC2"
		},
		{
			"bufferView":19,
			"componentType":5123,
			"count":1626,
			"type":"SCALAR"
		},
		{
			"bufferView":20,
			"componentType":5126,
			"count":32,
			"max":[
				0.8029442429542542,
				-0.8886845707893372,
				0.8029442429542542
			],
			"min":[
				-0.8029442429542542,
				-0.8886845707893372,
				-0.8029442429542542
			],
			"type":"VEC3"
		},
		{
			"bufferView":21,
			"componentType":5126,
			"count":32,
			"type":"VEC3"
		},
		{
			"bufferView":22,
			"componentType":5126,
			"count":32,
			"type":"VEC2"
		},
		{
			"bufferView":23,
			"componentType":5123,
			"count":90,
			"type":"SCALAR"
		},
		{
			"bufferView":24,
			"componentType":5126,
			"count":864,
			"max":[
				1.1071966886520386,
				1,
				1.1071968078613281
			],
			"min":[
				-1.1071966886520386,
				-1,
				-1.107196569442749
			],
			"type":"VEC3"
		},
		{
			"bufferView":25,
			"componentType":5126,
			"count":864,
			"type":"VEC3"
		},
		{
			"bufferView":26,
			"componentType":5126,
			"count":864,
			"type":"VEC2"
		},
		{
			"bufferView":27,
			"componentType":5126,
			"count":32,
			"max":[
				0.8029442429542542,
				-0.8886845707893372,
				0.8029442429542542
			],
			"min":[
				-0.8029442429542542,
				-0.8886845707893372,
				-0.8029442429542542
			],
			"type":"VEC3"
		},
		{
			"bufferView":28,
			"componentType":5126,
			"count":32,
			"type":"VEC3"
		},
		{
			"bufferView":29,
			"componentType":5126,
			"count":32,
			"type":"VEC2"
		},
		{
			"bufferView":30,
			"componentType":5126,
			"count":864,
			"max":[
				1.1071966886520386,
				1,
				1.1071968078613281
			],
			"min":[
				-1.1071966886520386,
				-1,
				-1.107196569442749
			],
			"type":"VEC3"
		},
		{
			"bufferView":31,
			"componentType":5126,
			"count":864,
			"type":"VEC3"
		},
		{
			"bufferView":32,
			"componentType":5126,
			"count":864,
			"type":"VEC2"
		},
		{
			"bufferView":33,
			"componentType":5123,
			"count":1626,
			"type":"SCALAR"
		},
		{
			"bufferView":34,
			"componentType":5126,
			"count":32,
			"max":[
				0.8029443025588989,
				0.888685405254364,
				0.8029443025588989
			],
			"min":[
				-0.8029443025588989,
				0.888685405254364,
				-0.8029443025588989
			],
			"type":"VEC3"
		},
		{
			"bufferView":35,
			"componentType":5126,
			"count":32,
			"type":"VEC3"
		},
		{
			"bufferView":36,
			"componentType":5126,
			"count":32,
			"type":"VEC2"
		},
		{
			"bufferView":37,
			"componentType":5126,
			"count":864,
			"max":[
				1.1071966886520386,
				1,
				1.1071968078613281
			],
			"min":[
				-1.1071966886520386,
				-1,
				-1.107196569442749
			],
			"type":"VEC3"
		},
		{
			"bufferView":38,
			"componentType":5126,
			"count":864,
			"type":"VEC3"
		},
		{
			"bufferView":39,
			"componentType":5126,
			"count":864,
			"type":"VEC2"
		},
		{
			"bufferView":40,
			"componentType":5126,
			"count":32,
			"max":[
				0.8029443025588989,
				0.888685405254364,
				0.8029443025588989
			],
			"min":[
				-0.8029443025588989,
				0.888685405254364,
				-0.8029443025588989
			],
			"type":"VEC3"
		},
		{
			"bufferView":41,
			"componentType":5126,
			"count":32,
			"type":"VEC3"
		},
		{
			"bufferView":42,
			"componentType":5126,
			"count":32,
			"type":"VEC2"
		},
		{
			"bufferView":43,
			"componentType":5126,
			"count":33,
			"max":[
				1,
				1,
				1
			],
			"min":[
				-1,
				-1,
				-1
			],
			"type":"VEC3"
		},
		{
			"bufferView":44,
			"componentType":5126,
			"count":33,
			"type":"VEC3"
		},
		{
			"bufferView":45,
			"componentType":5126,
			"count":33,
			"type":"VEC2"
		},
		{
			"bufferView":46,
			"componentType":5123,
			"count":63,
			"type":"SCALAR"
		},
		{
			"bufferView":47,
			"componentType":5126,
			"count":24,
			"max":[
				1,
				1,
				1
			],
			"min":[
				-1,
				-1,
				-1
			],
			"type":"VEC3"
		},
		{
			"bufferView":48,
			"componentType":5126,
			"count":24,
			"type":"VEC3"
		},
		{
			"bufferView":49,
			"componentType":5126,
			"count":24,
			"type":"VEC2"
		},
		{
			"bufferView":50,
			"componentType":5123,
			"count":36,
			"type":"SCALAR"
		},
		{
			"bufferView":51,
			"componentType":5126,
			"count":24,
			"max":[
				1,
				1,
				1
			],
			"min":[
				-1,
				-1,
				-1
			],
			"type":"VEC3"
		},
		{
			"bufferView":52,
			"componentType":5126,
			"count":24,
			"type":"VEC3"
		},
		{
			"bufferView":53,
			"componentType":5126,
			"count":24,
			"type":"VEC2"
		},
		{
			"bufferView":54,
			"componentType":5126,
			"count":24,
			"max":[
				1,
				1,
				1
			],
			"min":[
				-1,
				-1,
				-1
			],
			"type":"VEC3"
		},
		{
			"bufferView":55,
			"componentType":5126,
			"count":24,
			"type":"VEC3"
		},
		{
			"bufferView":56,
			"componentType":5126,
			"count":24,
			"type":"VEC2"
		}
	],
	"bufferViews":[
		{
			"buffer":0,
			"byteLength":4800,
			"byteOffset":0,
			"target":34962
		},
		{
			"buffer":0,
			"byteLength":4800,
			"byteOffset":4800,
			"target":34962
		},
		{
			"buffer":0,
			"byteLength":3200,
			"byteOffset":9600,
			"target":34962
		},
		{
			"buffer":0,
			"byteLength":1560,
			"byteOffset":12800,
			"target":34963
		},
		{
			"buffer":0,
			"byteLength":192,
			"byteOffset":14360,
			"target":34962
		},
		{
			"buffer":0,
			"byteLength":192,
			"byteOffset":14552,
			"target":34962
		},
		{
			"buffer":0,
			"byteLength":128,
			"byteOffset":14744,
			"target":34962
		},
		{
			"buffer":0,
			"byteLength":60,
			"byteOffset":14872,
			"target":34963
		},
		{
			"buffer":0,
			"byteLength":192,
			"byteOffset":14932,
			"target":34962
		},
		{
			"buffer":0,
			"byteLength":192,
			"byteOffset":15124,
			"target":34962
		},
		{
			"buffer":0,
			"byteLength":128,
			"byteOffset":15316,
			"target":34962
		},
		{
			"buffer":0,
			"byteLength":48,
			"byteOffset":15444,
			"target":34963
		},
		{
			"buffer":0,
			"byteLength":48,
			"byteOffset":15492,
			"target":34962
		},
		{
			"buffer":0,
			"byteLength":48,
			"byteOffset":15540,
			"target":34962
		},
		{
			"buffer":0,
			"byteLength":32,
			"byteOffset":15588,
			"target":34962
		},
		{
			"buffer":0,
			"byteLength":12,
			"byteOffset":15620,
			"target":34963
		},
		{
			"buffer":0,
			"byteLength":10368,
			"byteOffset":15632,
			"target":34962
		},
		{
			"buffer":0,
			"byteLength":10368,
			"byteOffset":26000,
			"target":34962
		},
		{
			"buffer":0,
			"byteLength":6912,
			"byteOffset":36368,
			"target":34962
		},
		{
			"buffer":0,
			"byteLength":3252,
			"byteOffset":43280,
			"target":34963
		},
		{
			"buffer":0,
			"byteLength":384,
			"byteOffset":46532,
			"target":34962
		},
		{
			"buffer":0,
			"byteLength":384,
			"byteOffset":46916,
			"target":34962
		},
		{
			"buffer":0,
			"byteLength":256,
			"byteOffset":47300,
			"target":34962
		},
		{
			"buffer":0,
			"byteLength":180,
			"byteOffset":47556,
			"target":34963
		},
		{
			"buffer":0,
			"byteLength":10368,
			"byteOffset":47736,
			"target":34962
		},
		{
			"buffer":0,
			"byteLength":10368,
			"byteOffset":58104,
			"target":34962
		},
		{
			"buffer":0,
			"byteLength":6912,
			"byteOffset":68472,
			"target":34962
		},
		{
			"buffer":0,
			"byteLength":384,
			"byteOffset":75384,
			"target":34962
		},
		{
			"buffer":0,
			"byteLength":384,
			"byteOffset":75768,
			"target":34962
		},
		{
			"buffer":0,
			"byteLength":256,
			"byteOffset":76152,
			"target":34962
		},
		{
			"buffer":0,
			"byteLength":10368,
			"byteOffset":76408,
			"target":34962
		},
		{
			"buffer":0,
			"byteLength":10368,
			"byteOffset":86776,
			"target":34962
		},
		{
			"buffer":0,
			"byteLength":6912,
			"byteOffset":97144,
			"target":34962
		},
		{
			"buffer":0,
			"byteLength":3252,
			"byteOffset":104056,
			"target":34963
		},
		{
			"buffer":0,
			"byteLength":384,
			"byteOffset":107308,
			"target":34962
		},
		{
			"buffer":0,
			"byteLength":384,
			"byteOffset":107692,
			"target":34962
		},
		{
			"buffer":0,
			"byteLength":256,
			"byteOffset":108076,
			"target":34962
		},
		{
			"buffer":0,
			"byteLength":10368,
			"byteOffset":108332,
			"target":34962
		},
		{
			"buffer":0,
			"byteLength":10368,
			"byteOffset":118700,
			"target":34962
		},
		{
			"buffer":0,
			"byteLength":6912,
			"byteOffset":129068,
			"target":34962
		},
		{
			"buffer":0,
			"byteLength":384,
			"byteOffset":135980,
			"target":34962
		},
		{
			"buffer":0,
			"byteLength":384,
			"byteOffset":136364,
			"target":34962
		},
		{
			"buffer":0,
			"byteLength":256,
			"byteOffset":136748,
			"target":34962
		},
		{
			"buffer":0,
			"byteLength":396,
			"byteOffset":137004,
			"target":34962
		},
		{
			"buffer":0,
			"byteLength":396,
			"byteOffset":137400,
			"target":34962
		},
		{
			"buffer":0,
			"byteLength":264,
			"byteOffset":137796,
			"target":34962
		},
		{
			"buffer":0,
			"byteLength":126,
			"byteOffset":138060,
			"target":34963
		},
		{
			"buffer":0,
			"byteLength":288,
			"byteOffset":138188,
			"target":34962
		},
		{
			"buffer":0,
			"byteLength":288,
			"byteOffset":138476,
			"target":34962
		},
		{
			"buffer":0,
			"byteLength":192,
			"byteOffset":138764,
			"target":34962
		},
		{
			"buffer":0,
			"byteLength":72,
			"byteOffset":138956,
			"target":34963
		},
		{
			"buffer":0,
			"byteLength":288,
			"byteOffset":139028,
			"target":34962
		},
		{
			"buffer":0,
			"byteLength":288,
			"byteOffset":139316,
			"target":34962
		},
		{
			"buffer":0,
			"byteLength":192,
			"byteOffset":139604,
			"target":34962
		},
		{
			"buffer":0,
			"byteLength":288,
			"byteOffset":139796,
			"target":34962
		},
		{
			"buffer":0,
			"byteLength":288,
			"byteOffset":140084,
			"target":34962
		},
		{
			"buffer":0,
			"byteLength":192,
			"byteOffset":140372,
			"target":34962
		}
	],
	"buffers":[
		{
			"byteLength":140564,
			"uri":"carBomb.bin"
		}
	]
}
