{
	"asset":{
		"generator":"Khronos glTF Blender I/O v5.1.20",
		"version":"2.0"
	},
	"scene":0,
	"scenes":[
		{
			"name":"Scene",
			"nodes":[
				0,
				1,
				2,
				3,
				4,
				5,
				6,
				7,
				8,
				9,
				10,
				11,
				12,
				13,
				14
			]
		}
	],
	"nodes":[
		{
			"mesh":0,
			"name":"Cube",
			"scale":[
				1,
				1.5,
				1
			],
			"translation":[
				3.0399954319000244,
				1.637429118156433,
				-0.6218547224998474
			]
		},
		{
			"mesh":1,
			"name":"Cube.001",
			"scale":[
				1,
				0.30000001192092896,
				1
			],
			"translation":[
				3.0399954319000244,
				3.353001356124878,
				-0.6218547224998474
			]
		},
		{
			"mesh":2,
			"name":"Cube.002",
			"scale":[
				0.08322732150554657,
				0.08322732150554657,
				0.9987278580665588
			],
			"translation":[
				1.8989934921264648,
				1.9004004001617432,
				-1.6645877361297607
			]
		},
		{
			"mesh":3,
			"name":"Cube.003",
			"rotation":[
				0.10484029352664948,
				-0.005400685593485832,
				0.024262674152851105,
				0.9941784739494324
			],
			"scale":[
				0.14999999105930328,
				0.14999999105930328,
				0.15000000596046448
			],
			"translation":[
				1.8568909168243408,
				1.5795390605926514,
				-0.6218547224998474
			]
		},
		{
			"mesh":4,
			"name":"Cube.004",
			"rotation":[
				0.10521154850721359,
				-0.010351251810789108,
				-0.02259860932826996,
				0.9941392540931702
			],
			"scale":[
				0.14999999105930328,
				0.14999999105930328,
				0.15000000596046448
			],
			"translation":[
				4.21875,
				1.5795390605926514,
				-0.6218547224998474
			]
		},
		{
			"mesh":5,
			"name":"Cube.005",
			"rotation":[
				0.10461900383234024,
				-0.4399074614048004,
				0.025199798867106438,
				0.8915723562240601
			],
			"scale":[
				0.14999999105930328,
				0.14999999105930328,
				0.15000000596046448
			],
			"translation":[
				-1.8553321361541748,
				1.5795390605926514,
				-2.2072930335998535
			]
		},
		{
			"mesh":6,
			"name":"Cube.006",
			"rotation":[
				0.08398802578449249,
				-0.4354623556137085,
				0.06727686524391174,
				0.893751859664917
			],
			"scale":[
				0.14999999105930328,
				0.14999999105930328,
				0.15000000596046448
			],
			"translation":[
				-3.3310720920562744,
				1.5795390605926514,
				-4.051356792449951
			]
		},
		{
			"mesh":7,
			"name":"Cube.007",
			"rotation":[
				0,
				-0.4331158995628357,
				0,
				0.9013382792472839
			],
			"scale":[
				0.08322732150554657,
				0.08322732150554657,
				0.9987277984619141
			],
			"translation":[
				-2.490633249282837,
				1.9004004001617432,
				-4.670005798339844
			]
		},
		{
			"mesh":8,
			"name":"Cube.008",
			"rotation":[
				0,
				-0.4331158697605133,
				0,
				0.9013382792472839
			],
			"scale":[
				1,
				0.30000001192092896,
				1
			],
			"translation":[
				-2.591843366622925,
				3.353001356124878,
				-3.127626895904541
			]
		},
		{
			"mesh":9,
			"name":"Cube.009",
			"rotation":[
				0,
				-0.4331158697605133,
				0,
				0.9013382792472839
			],
			"scale":[
				1,
				1.5,
				1
			],
			"translation":[
				-2.591843366622925,
				1.637429118156433,
				-3.127626895904541
			]
		},
		{
			"mesh":10,
			"name":"Cube.010",
			"rotation":[
				0.02553485333919525,
				0.8901584148406982,
				-0.1045377179980278,
				0.4427616596221924
			],
			"scale":[
				0.14999999105930328,
				0.14999999105930328,
				0.15000002086162567
			],
			"translation":[
				-2.0616629123687744,
				1.5795390605926514,
				1.1174136400222778
			]
		},
		{
			"mesh":11,
			"name":"Cube.011",
			"rotation":[
				0.06754560768604279,
				0.8923521637916565,
				-0.08377201855182648,
				0.4383234977722168
			],
			"scale":[
				0.14999999105930328,
				0.14999999105930328,
				0.15000002086162567
			],
			"translation":[
				-0.5977694988250732,
				1.5795390605926514,
				2.970895528793335
			]
		},
		{
			"mesh":12,
			"name":"Cube.012",
			"rotation":[
				0,
				0.8999459743499756,
				0,
				0.43600142002105713
			],
			"scale":[
				0.08322732150554657,
				0.08322732150554657,
				0.9987278580665588
			],
			"translation":[
				-1.4421554803848267,
				1.9004004001617432,
				3.5841469764709473
			]
		},
		{
			"mesh":13,
			"name":"Cube.013",
			"rotation":[
				0,
				0.8999459743499756,
				0,
				0.43600142002105713
			],
			"scale":[
				1,
				0.30000001192092896,
				1
			],
			"translation":[
				-1.3310643434524536,
				3.353001356124878,
				2.042447805404663
			]
		},
		{
			"mesh":14,
			"name":"Cube.014",
			"rotation":[
				0,
				0.8999459743499756,
				0,
				0.43600142002105713
			],
			"scale":[
				1,
				1.5,
				1
			],
			"translation":[
				-1.3310643434524536,
				1.637429118156433,
				2.042447805404663
			]
		}
	],
	"materials":[
		{
			"doubleSided":true,
			"name":"Material.010",
			"pbrMetallicRoughness":{
				"baseColorFactor":[
					0.8000074625015259,
					0.6646163463592529,
					0.567313015460968,
					1
				],
				"metallicFactor":0,
				"roughnessFactor":0.5
			}
		},
		{
			"doubleSided":true,
			"name":"Material.011",
			"pbrMetallicRoughness":{
				"metallicFactor":0,
				"roughnessFactor":0.5
			}
		},
		{
			"doubleSided":true,
			"name":"Material.012",
			"pbrMetallicRoughness":{
				"baseColorFactor":[
					0.2672051787376404,
					0.32299354672431946,
					0.42490100860595703,
					1
				],
				"metallicFactor":0,
				"roughnessFactor":0.5
			}
		},
		{
			"doubleSided":true,
			"name":"Material.013",
			"pbrMetallicRoughness":{
				"baseColorFactor":[
					0.18055517971515656,
					0.09116687625646591,
					0.034756265580654144,
					1
				],
				"metallicFactor":0,
				"roughnessFactor":0.5
			}
		},
		{
			"doubleSided":true,
			"name":"Material.014",
			"pbrMetallicRoughness":{
				"baseColorFactor":[
					0,
					0,
					0,
					1
				],
				"metallicFactor":0,
				"roughnessFactor":0.5
			}
		},
		{
			"doubleSided":true,
			"name":"Material.015",
			"pbrMetallicRoughness":{
				"baseColorFactor":[
					0.28423288464546204,
					0.28423288464546204,
					0.28423288464546204,
					1
				],
				"metallicFactor":0,
				"roughnessFactor":0.5
			}
		},
		{
			"doubleSided":true,
			"name":"Material.016",
			"pbrMetallicRoughness":{
				"baseColorFactor":[
					0.8000074625015259,
					0.6646163463592529,
					0.567313015460968,
					1
				],
				"metallicFactor":0,
				"roughnessFactor":0.5
			}
		},
		{
			"doubleSided":true,
			"name":"Material.001",
			"pbrMetallicRoughness":{
				"baseColorFactor":[
					0.8000074625015259,
					0.6646163463592529,
					0.567313015460968,
					1
				],
				"metallicFactor":0,
				"roughnessFactor":0.5
			}
		},
		{
			"doubleSided":true,
			"name":"Material.002",
			"pbrMetallicRoughness":{
				"baseColorFactor":[
					0.8000074625015259,
					0.6646163463592529,
					0.567313015460968,
					1
				],
				"metallicFactor":0,
				"roughnessFactor":0.5
			}
		},
		{
			"doubleSided":true,
			"name":"Material.003",
			"pbrMetallicRoughness":{
				"baseColorFactor":[
					0.18055517971515656,
					0.09116687625646591,
					0.034756265580654144,
					1
				],
				"metallicFactor":0,
				"roughnessFactor":0.5
			}
		},
		{
			"doubleSided":true,
			"name":"Material.004",
			"pbrMetallicRoughness":{
				"baseColorFactor":[
					0,
					0,
					0,
					1
				],
				"metallicFactor":0,
				"roughnessFactor":0.5
			}
		},
		{
			"doubleSided":true,
			"name":"Material.005",
			"pbrMetallicRoughness":{
				"baseColorFactor":[
					0.28423288464546204,
					0.28423288464546204,
					0.28423288464546204,
					1
				],
				"metallicFactor":0,
				"roughnessFactor":0.5
			}
		},
		{
			"doubleSided":true,
			"name":"Material.006",
			"pbrMetallicRoughness":{
				"metallicFactor":0,
				"roughnessFactor":0.5
			}
		},
		{
			"doubleSided":true,
			"name":"Material.007",
			"pbrMetallicRoughness":{
				"baseColorFactor":[
					0.2672051787376404,
					0.32299354672431946,
					0.42490100860595703,
					1
				],
				"metallicFactor":0,
				"roughnessFactor":0.5
			}
		},
		{
			"doubleSided":true,
			"name":"Material.008",
			"pbrMetallicRoughness":{
				"baseColorFactor":[
					0.8000074625015259,
					0.6646163463592529,
					0.567313015460968,
					1
				],
				"metallicFactor":0,
				"roughnessFactor":0.5
			}
		},
		{
			"doubleSided":true,
			"name":"Material.009",
			"pbrMetallicRoughness":{
				"baseColorFactor":[
					0.8000074625015259,
					0.6646163463592529,
					0.567313015460968,
					1
				],
				"metallicFactor":0,
				"roughnessFactor":0.5
			}
		},
		{
			"doubleSided":true,
			"name":"Material.017",
			"pbrMetallicRoughness":{
				"baseColorFactor":[
					0.18055517971515656,
					0.09116687625646591,
					0.034756265580654144,
					1
				],
				"metallicFactor":0,
				"roughnessFactor":0.5
			}
		},
		{
			"doubleSided":true,
			"name":"Material.018",
			"pbrMetallicRoughness":{
				"baseColorFactor":[
					0,
					0,
					0,
					1
				],
				"metallicFactor":0,
				"roughnessFactor":0.5
			}
		},
		{
			"doubleSided":true,
			"name":"Material.019",
			"pbrMetallicRoughness":{
				"baseColorFactor":[
					0.28423288464546204,
					0.28423288464546204,
					0.28423288464546204,
					1
				],
				"metallicFactor":0,
				"roughnessFactor":0.5
			}
		},
		{
			"doubleSided":true,
			"name":"Material.020",
			"pbrMetallicRoughness":{
				"metallicFactor":0,
				"roughnessFactor":0.5
			}
		},
		{
			"doubleSided":true,
			"name":"Material.021",
			"pbrMetallicRoughness":{
				"baseColorFactor":[
					0.2672051787376404,
					0.32299354672431946,
					0.42490100860595703,
					1
				],
				"metallicFactor":0,
				"roughnessFactor":0.5
			}
		}
	],
	"meshes":[
		{
			"name":"Cube.010",
			"primitives":[
				{
					"attributes":{
						"POSITION":0,
						"NORMAL":1,
						"TEXCOORD_0":2
					},
					"indices":3,
					"material":0
				},
				{
					"attributes":{
						"POSITION":4,
						"NORMAL":5,
						"TEXCOORD_0":6
					},
					"indices":7,
					"material":1
				},
				{
					"attributes":{
						"POSITION":8,
						"NORMAL":9,
						"TEXCOORD_0":10
					},
					"indices":11,
					"material":2
				}
			]
		},
		{
			"name":"Cube.011",
			"primitives":[
				{
					"attributes":{
						"POSITION":12,
						"NORMAL":13,
						"TEXCOORD_0":14
					},
					"indices":15
				}
			]
		},
		{
			"name":"Cube.014",
			"primitives":[
				{
					"attributes":{
						"POSITION":16,
						"NORMAL":17,
						"TEXCOORD_0":18
					},
					"indices":19,
					"material":3
				},
				{
					"attributes":{
						"POSITION":20,
						"NORMAL":21,
						"TEXCOORD_0":22
					},
					"indices":23,
					"material":4
				},
				{
					"attributes":{
						"POSITION":24,
						"NORMAL":25,
						"TEXCOORD_0":26
					},
					"indices":27,
					"material":5
				}
			]
		},
		{
			"name":"Cube.015",
			"primitives":[
				{
					"attributes":{
						"POSITION":28,
						"NORMAL":29,
						"TEXCOORD_0":30
					},
					"indices":31,
					"material":0
				}
			]
		},
		{
			"name":"Cube.016",
			"primitives":[
				{
					"attributes":{
						"POSITION":32,
						"NORMAL":33,
						"TEXCOORD_0":34
					},
					"indices":31,
					"material":6
				}
			]
		},
		{
			"name":"Cube.001",
			"primitives":[
				{
					"attributes":{
						"POSITION":35,
						"NORMAL":36,
						"TEXCOORD_0":37
					},
					"indices":31,
					"material":7
				}
			]
		},
		{
			"name":"Cube.002",
			"primitives":[
				{
					"attributes":{
						"POSITION":38,
						"NORMAL":39,
						"TEXCOORD_0":40
					},
					"indices":31,
					"material":8
				}
			]
		},
		{
			"name":"Cube.003",
			"primitives":[
				{
					"attributes":{
						"POSITION":41,
						"NORMAL":42,
						"TEXCOORD_0":43
					},
					"indices":19,
					"material":9
				},
				{
					"attributes":{
						"POSITION":44,
						"NORMAL":45,
						"TEXCOORD_0":46
					},
					"indices":23,
					"material":10
				},
				{
					"attributes":{
						"POSITION":47,
						"NORMAL":48,
						"TEXCOORD_0":49
					},
					"indices":27,
					"material":11
				}
			]
		},
		{
			"name":"Cube.004",
			"primitives":[
				{
					"attributes":{
						"POSITION":50,
						"NORMAL":51,
						"TEXCOORD_0":52
					},
					"indices":15
				}
			]
		},
		{
			"name":"Cube.005",
			"primitives":[
				{
					"attributes":{
						"POSITION":53,
						"NORMAL":54,
						"TEXCOORD_0":55
					},
					"indices":3,
					"material":8
				},
				{
					"attributes":{
						"POSITION":56,
						"NORMAL":57,
						"TEXCOORD_0":58
					},
					"indices":7,
					"material":12
				},
				{
					"attributes":{
						"POSITION":59,
						"NORMAL":60,
						"TEXCOORD_0":61
					},
					"indices":11,
					"material":13
				}
			]
		},
		{
			"name":"Cube.006",
			"primitives":[
				{
					"attributes":{
						"POSITION":62,
						"NORMAL":63,
						"TEXCOORD_0":64
					},
					"indices":31,
					"material":14
				}
			]
		},
		{
			"name":"Cube.007",
			"primitives":[
				{
					"attributes":{
						"POSITION":65,
						"NORMAL":66,
						"TEXCOORD_0":67
					},
					"indices":31,
					"material":15
				}
			]
		},
		{
			"name":"Cube.008",
			"primitives":[
				{
					"attributes":{
						"POSITION":68,
						"NORMAL":69,
						"TEXCOORD_0":70
					},
					"indices":19,
					"material":16
				},
				{
					"attributes":{
						"POSITION":71,
						"NORMAL":72,
						"TEXCOORD_0":73
					},
					"indices":23,
					"material":17
				},
				{
					"attributes":{
						"POSITION":74,
						"NORMAL":75,
						"TEXCOORD_0":76
					},
					"indices":27,
					"material":18
				}
			]
		},
		{
			"name":"Cube.009",
			"primitives":[
				{
					"attributes":{
						"POSITION":77,
						"NORMAL":78,
						"TEXCOORD_0":79
					},
					"indices":15
				}
			]
		},
		{
			"name":"Cube.012",
			"primitives":[
				{
					"attributes":{
						"POSITION":80,
						"NORMAL":81,
						"TEXCOORD_0":82
					},
					"indices":3,
					"material":15
				},
				{
					"attributes":{
						"POSITION":83,
						"NORMAL":84,
						"TEXCOORD_0":85
					},
					"indices":7,
					"material":19
				},
				{
					"attributes":{
						"POSITION":86,
						"NORMAL":87,
						"TEXCOORD_0":88
					},
					"indices":11,
					"material":20
				}
			]
		}
	],
	"accessors":[
		{
			"bufferView":0,
			"componentType":5126,
			"count":24,
			"max":[
				1.0377565622329712,
				1,
				1.0377565622329712
			],
			"min":[
				-1.0377565622329712,
				-1,
				-1.0377565622329712
			],
			"type":"VEC3"
		},
		{
			"bufferView":1,
			"componentType":5126,
			"count":24,
			"type":"VEC3"
		},
		{
			"bufferView":2,
			"componentType":5126,
			"count":24,
			"type":"VEC2"
		},
		{
			"bufferView":3,
			"componentType":5123,
			"count":36,
			"type":"SCALAR"
		},
		{
			"bufferView":4,
			"componentType":5126,
			"count":16,
			"max":[
				1.0377565622329712,
				-0.3459188640117645,
				1.0377565622329712
			],
			"min":[
				-1.0377565622329712,
				-1,
				-1.0377565622329712
			],
			"type":"VEC3"
		},
		{
			"bufferView":5,
			"componentType":5126,
			"count":16,
			"type":"VEC3"
		},
		{
			"bufferView":6,
			"componentType":5126,
			"count":16,
			"type":"VEC2"
		},
		{
			"bufferView":7,
			"componentType":5123,
			"count":24,
			"type":"SCALAR"
		},
		{
			"bufferView":8,
			"componentType":5126,
			"count":16,
			"max":[
				1.0377565622329712,
				0.3459188640117645,
				1.0377565622329712
			],
			"min":[
				-1.0377565622329712,
				-0.3459188640117645,
				-1.0377565622329712
			],
			"type":"VEC3"
		},
		{
			"bufferView":9,
			"componentType":5126,
			"count":16,
			"type":"VEC3"
		},
		{
			"bufferView":10,
			"componentType":5126,
			"count":16,
			"type":"VEC2"
		},
		{
			"bufferView":11,
			"componentType":5123,
			"count":24,
			"type":"SCALAR"
		},
		{
			"bufferView":12,
			"componentType":5126,
			"count":40,
			"max":[
				1,
				1,
				1
			],
			"min":[
				-1,
				-1,
				-1
			],
			"type":"VEC3"
		},
		{
			"bufferView":13,
			"componentType":5126,
			"count":40,
			"type":"VEC3"
		},
		{
			"bufferView":14,
			"componentType":5126,
			"count":40,
			"type":"VEC2"
		},
		{
			"bufferView":15,
			"componentType":5123,
			"count":60,
			"type":"SCALAR"
		},
		{
			"bufferView":16,
			"componentType":5126,
			"count":130,
			"max":[
				1.1657874584197998,
				1,
				1.5160499811172485
			],
			"min":[
				-1.165788173675537,
				-3.25437068939209,
				-1.000000238418579
			],
			"type":"VEC3"
		},
		{
			"bufferView":17,
			"componentType":5126,
			"count":130,
			"type":"VEC3"
		},
		{
			"bufferView":18,
			"componentType":5126,
			"count":130,
			"type":"VEC2"
		},
		{
			"bufferView":19,
			"componentType":5123,
			"count":252,
			"type":"SCALAR"
		},
		{
			"bufferView":20,
			"componentType":5126,
			"count":6,
			"max":[
				0.8473935127258301,
				0.6858934760093689,
				-0.9744557738304138
			],
			"min":[
				-0.8473942279815674,
				-0.6858934760093689,
				-0.9744560122489929
			],
			"type":"VEC3"
		},
		{
			"bufferView":21,
			"componentType":5126,
			"count":6,
			"type":"VEC3"
		},
		{
			"bufferView":22,
			"componentType":5126,
			"count":6,
			"type":"VEC2"
		},
		{
			"bufferView":23,
			"componentType":5123,
			"count":12,
			"type":"SCALAR"
		},
		{
			"bufferView":24,
			"componentType":5126,
			"count":56,
			"max":[
				0.4406876266002655,
				1.3548873662948608,
				0.9849023818969727
			],
			"min":[
				-0.44069018959999084,
				-1.8144845962524414,
				-0.9758484959602356
			],
			"type":"VEC3"
		},
		{
			"bufferView":25,
			"componentType":5126,
			"count":56,
			"type":"VEC3"
		},
		{
			"bufferView":26,
			"componentType":5126,
			"count":56,
			"type":"VEC2"
		},
		{
			"bufferView":27,
			"componentType":5123,
			"count":84,
			"type":"SCALAR"
		},
		{
			"bufferView":28,
			"componentType":5126,
			"count":24,
			"max":[
				1,
				1,
				1
			],
			"min":[
				-1,
				-1,
				-1
			],
			"type":"VEC3"
		},
		{
			"bufferView":29,
			"componentType":5126,
			"count":24,
			"type":"VEC3"
		},
		{
			"bufferView":30,
			"componentType":5126,
			"count":24,
			"type":"VEC2"
		},
		{
			"bufferView":31,
			"componentType":5123,
			"count":36,
			"type":"SCALAR"
		},
		{
			"bufferView":32,
			"componentType":5126,
			"count":24,
			"max":[
				1,
				1,
				1
			],
			"min":[
				-1,
				-1,
				-1
			],
			"type":"VEC3"
		},
		{
			"bufferView":33,
			"componentType":5126,
			"count":24,
			"type":"VEC3"
		},
		{
			"bufferView":34,
			"componentType":5126,
			"count":24,
			"type":"VEC2"
		},
		{
			"bufferView":35,
			"componentType":5126,
			"count":24,
			"max":[
				1,
				1,
				1
			],
			"min":[
				-1,
				-1,
				-1
			],
			"type":"VEC3"
		},
		{
			"bufferView":36,
			"componentType":5126,
			"count":24,
			"type":"VEC3"
		},
		{
			"bufferView":37,
			"componentType":5126,
			"count":24,
			"type":"VEC2"
		},
		{
			"bufferView":38,
			"componentType":5126,
			"count":24,
			"max":[
				1,
				1,
				1
			],
			"min":[
				-1,
				-1,
				-1
			],
			"type":"VEC3"
		},
		{
			"bufferView":39,
			"componentType":5126,
			"count":24,
			"type":"VEC3"
		},
		{
			"bufferView":40,
			"componentType":5126,
			"count":24,
			"type":"VEC2"
		},
		{
			"bufferView":41,
			"componentType":5126,
			"count":130,
			"max":[
				1.1657874584197998,
				1,
				1.5160499811172485
			],
			"min":[
				-1.165788173675537,
				-3.25437068939209,
				-1.000000238418579
			],
			"type":"VEC3"
		},
		{
			"bufferView":42,
			"componentType":5126,
			"count":130,
			"type":"VEC3"
		},
		{
			"bufferView":43,
			"componentType":5126,
			"count":130,
			"type":"VEC2"
		},
		{
			"bufferView":44,
			"componentType":5126,
			"count":6,
			"max":[
				0.8473935127258301,
				0.6858934760093689,
				-0.9744557738304138
			],
			"min":[
				-0.8473942279815674,
				-0.6858934760093689,
				-0.9744560122489929
			],
			"type":"VEC3"
		},
		{
			"bufferView":45,
			"componentType":5126,
			"count":6,
			"type":"VEC3"
		},
		{
			"bufferView":46,
			"componentType":5126,
			"count":6,
			"type":"VEC2"
		},
		{
			"bufferView":47,
			"componentType":5126,
			"count":56,
			"max":[
				0.4406876266002655,
				1.3548873662948608,
				0.9849023818969727
			],
			"min":[
				-0.44069018959999084,
				-1.8144845962524414,
				-0.9758484959602356
			],
			"type":"VEC3"
		},
		{
			"bufferView":48,
			"componentType":5126,
			"count":56,
			"type":"VEC3"
		},
		{
			"bufferView":49,
			"componentType":5126,
			"count":56,
			"type":"VEC2"
		},
		{
			"bufferView":50,
			"componentType":5126,
			"count":40,
			"max":[
				1,
				1,
				1
			],
			"min":[
				-1,
				-1,
				-1
			],
			"type":"VEC3"
		},
		{
			"bufferView":51,
			"componentType":5126,
			"count":40,
			"type":"VEC3"
		},
		{
			"bufferView":52,
			"componentType":5126,
			"count":40,
			"type":"VEC2"
		},
		{
			"bufferView":53,
			"componentType":5126,
			"count":24,
			"max":[
				1.0377565622329712,
				1,
				1.0377565622329712
			],
			"min":[
				-1.0377565622329712,
				-1,
				-1.0377565622329712
			],
			"type":"VEC3"
		},
		{
			"bufferView":54,
			"componentType":5126,
			"count":24,
			"type":"VEC3"
		},
		{
			"bufferView":55,
			"componentType":5126,
			"count":24,
			"type":"VEC2"
		},
		{
			"bufferView":56,
			"componentType":5126,
			"count":16,
			"max":[
				1.0377565622329712,
				-0.3459188640117645,
				1.0377565622329712
			],
			"min":[
				-1.0377565622329712,
				-1,
				-1.0377565622329712
			],
			"type":"VEC3"
		},
		{
			"bufferView":57,
			"componentType":5126,
			"count":16,
			"type":"VEC3"
		},
		{
			"bufferView":58,
			"componentType":5126,
			"count":16,
			"type":"VEC2"
		},
		{
			"bufferView":59,
			"componentType":5126,
			"count":16,
			"max":[
				1.0377565622329712,
				0.3459188640117645,
				1.0377565622329712
			],
			"min":[
				-1.0377565622329712,
				-0.3459188640117645,
				-1.0377565622329712
			],
			"type":"VEC3"
		},
		{
			"bufferView":60,
			"componentType":5126,
			"count":16,
			"type":"VEC3"
		},
		{
			"bufferView":61,
			"componentType":5126,
			"count":16,
			"type":"VEC2"
		},
		{
			"bufferView":62,
			"componentType":5126,
			"count":24,
			"max":[
				1,
				1,
				1
			],
			"min":[
				-1,
				-1,
				-1
			],
			"type":"VEC3"
		},
		{
			"bufferView":63,
			"componentType":5126,
			"count":24,
			"type":"VEC3"
		},
		{
			"bufferView":64,
			"componentType":5126,
			"count":24,
			"type":"VEC2"
		},
		{
			"bufferView":65,
			"componentType":5126,
			"count":24,
			"max":[
				1,
				1,
				1
			],
			"min":[
				-1,
				-1,
				-1
			],
			"type":"VEC3"
		},
		{
			"bufferView":66,
			"componentType":5126,
			"count":24,
			"type":"VEC3"
		},
		{
			"bufferView":67,
			"componentType":5126,
			"count":24,
			"type":"VEC2"
		},
		{
			"bufferView":68,
			"componentType":5126,
			"count":130,
			"max":[
				1.1657874584197998,
				1,
				1.5160499811172485
			],
			"min":[
				-1.165788173675537,
				-3.25437068939209,
				-1.000000238418579
			],
			"type":"VEC3"
		},
		{
			"bufferView":69,
			"componentType":5126,
			"count":130,
			"type":"VEC3"
		},
		{
			"bufferView":70,
			"componentType":5126,
			"count":130,
			"type":"VEC2"
		},
		{
			"bufferView":71,
			"componentType":5126,
			"count":6,
			"max":[
				0.8473935127258301,
				0.6858934760093689,
				-0.9744557738304138
			],
			"min":[
				-0.8473942279815674,
				-0.6858934760093689,
				-0.9744560122489929
			],
			"type":"VEC3"
		},
		{
			"bufferView":72,
			"componentType":5126,
			"count":6,
			"type":"VEC3"
		},
		{
			"bufferView":73,
			"componentType":5126,
			"count":6,
			"type":"VEC2"
		},
		{
			"bufferView":74,
			"componentType":5126,
			"count":56,
			"max":[
				0.4406876266002655,
				1.3548873662948608,
				0.9849023818969727
			],
			"min":[
				-0.44069018959999084,
				-1.8144845962524414,
				-0.9758484959602356
			],
			"type":"VEC3"
		},
		{
			"bufferView":75,
			"componentType":5126,
			"count":56,
			"type":"VEC3"
		},
		{
			"bufferView":76,
			"componentType":5126,
			"count":56,
			"type":"VEC2"
		},
		{
			"bufferView":77,
			"componentType":5126,
			"count":40,
			"max":[
				1,
				1,
				1
			],
			"min":[
				-1,
				-1,
				-1
			],
			"type":"VEC3"
		},
		{
			"bufferView":78,
			"componentType":5126,
			"count":40,
			"type":"VEC3"
		},
		{
			"bufferView":79,
			"componentType":5126,
			"count":40,
			"type":"VEC2"
		},
		{
			"bufferView":80,
			"componentType":5126,
			"count":24,
			"max":[
				1.0377565622329712,
				1,
				1.0377565622329712
			],
			"min":[
				-1.0377565622329712,
				-1,
				-1.0377565622329712
			],
			"type":"VEC3"
		},
		{
			"bufferView":81,
			"componentType":5126,
			"count":24,
			"type":"VEC3"
		},
		{
			"bufferView":82,
			"componentType":5126,
			"count":24,
			"type":"VEC2"
		},
		{
			"bufferView":83,
			"componentType":5126,
			"count":16,
			"max":[
				1.0377565622329712,
				-0.3459188640117645,
				1.0377565622329712
			],
			"min":[
				-1.0377565622329712,
				-1,
				-1.0377565622329712
			],
			"type":"VEC3"
		},
		{
			"bufferView":84,
			"componentType":5126,
			"count":16,
			"type":"VEC3"
		},
		{
			"bufferView":85,
			"componentType":5126,
			"count":16,
			"type":"VEC2"
		},
		{
			"bufferView":86,
			"componentType":5126,
			"count":16,
			"max":[
				1.0377565622329712,
				0.3459188640117645,
				1.0377565622329712
			],
			"min":[
				-1.0377565622329712,
				-0.3459188640117645,
				-1.0377565622329712
			],
			"type":"VEC3"
		},
		{
			"bufferView":87,
			"componentType":5126,
			"count":16,
			"type":"VEC3"
		},
		{
			"bufferView":88,
			"componentType":5126,
			"count":16,
			"type":"VEC2"
		}
	],
	"bufferViews":[
		{
			"buffer":0,
			"byteLength":288,
			"byteOffset":0,
			"target":34962
		},
		{
			"buffer":0,
			"byteLength":288,
			"byteOffset":288,
			"target":34962
		},
		{
			"buffer":0,
			"byteLength":192,
			"byteOffset":576,
			"target":34962
		},
		{
			"buffer":0,
			"byteLength":72,
			"byteOffset":768,
			"target":34963
		},
		{
			"buffer":0,
			"byteLength":192,
			"byteOffset":840,
			"target":34962
		},
		{
			"buffer":0,
			"byteLength":192,
			"byteOffset":1032,
			"target":34962
		},
		{
			"buffer":0,
			"byteLength":128,
			"byteOffset":1224,
			"target":34962
		},
		{
			"buffer":0,
			"byteLength":48,
			"byteOffset":1352,
			"target":34963
		},
		{
			"buffer":0,
			"byteLength":192,
			"byteOffset":1400,
			"target":34962
		},
		{
			"buffer":0,
			"byteLength":192,
			"byteOffset":1592,
			"target":34962
		},
		{
			"buffer":0,
			"byteLength":128,
			"byteOffset":1784,
			"target":34962
		},
		{
			"buffer":0,
			"byteLength":48,
			"byteOffset":1912,
			"target":34963
		},
		{
			"buffer":0,
			"byteLength":480,
			"byteOffset":1960,
			"target":34962
		},
		{
			"buffer":0,
			"byteLength":480,
			"byteOffset":2440,
			"target":34962
		},
		{
			"buffer":0,
			"byteLength":320,
			"byteOffset":2920,
			"target":34962
		},
		{
			"buffer":0,
			"byteLength":120,
			"byteOffset":3240,
			"target":34963
		},
		{
			"buffer":0,
			"byteLength":1560,
			"byteOffset":3360,
			"target":34962
		},
		{
			"buffer":0,
			"byteLength":1560,
			"byteOffset":4920,
			"target":34962
		},
		{
			"buffer":0,
			"byteLength":1040,
			"byteOffset":6480,
			"target":34962
		},
		{
			"buffer":0,
			"byteLength":504,
			"byteOffset":7520,
			"target":34963
		},
		{
			"buffer":0,
			"byteLength":72,
			"byteOffset":8024,
			"target":34962
		},
		{
			"buffer":0,
			"byteLength":72,
			"byteOffset":8096,
			"target":34962
		},
		{
			"buffer":0,
			"byteLength":48,
			"byteOffset":8168,
			"target":34962
		},
		{
			"buffer":0,
			"byteLength":24,
			"byteOffset":8216,
			"target":34963
		},
		{
			"buffer":0,
			"byteLength":672,
			"byteOffset":8240,
			"target":34962
		},
		{
			"buffer":0,
			"byteLength":672,
			"byteOffset":8912,
			"target":34962
		},
		{
			"buffer":0,
			"byteLength":448,
			"byteOffset":9584,
			"target":34962
		},
		{
			"buffer":0,
			"byteLength":168,
			"byteOffset":10032,
			"target":34963
		},
		{
			"buffer":0,
			"byteLength":288,
			"byteOffset":10200,
			"target":34962
		},
		{
			"buffer":0,
			"byteLength":288,
			"byteOffset":10488,
			"target":34962
		},
		{
			"buffer":0,
			"byteLength":192,
			"byteOffset":10776,
			"target":34962
		},
		{
			"buffer":0,
			"byteLength":72,
			"byteOffset":10968,
			"target":34963
		},
		{
			"buffer":0,
			"byteLength":288,
			"byteOffset":11040,
			"target":34962
		},
		{
			"buffer":0,
			"byteLength":288,
			"byteOffset":11328,
			"target":34962
		},
		{
			"buffer":0,
			"byteLength":192,
			"byteOffset":11616,
			"target":34962
		},
		{
			"buffer":0,
			"byteLength":288,
			"byteOffset":11808,
			"target":34962
		},
		{
			"buffer":0,
			"byteLength":288,
			"byteOffset":12096,
			"target":34962
		},
		{
			"buffer":0,
			"byteLength":192,
			"byteOffset":12384,
			"target":34962
		},
		{
			"buffer":0,
			"byteLength":288,
			"byteOffset":12576,
			"target":34962
		},
		{
			"buffer":0,
			"byteLength":288,
			"byteOffset":12864,
			"target":34962
		},
		{
			"buffer":0,
			"byteLength":192,
			"byteOffset":13152,
			"target":34962
		},
		{
			"buffer":0,
			"byteLength":1560,
			"byteOffset":13344,
			"target":34962
		},
		{
			"buffer":0,
			"byteLength":1560,
			"byteOffset":14904,
			"target":34962
		},
		{
			"buffer":0,
			"byteLength":1040,
			"byteOffset":16464,
			"target":34962
		},
		{
			"buffer":0,
			"byteLength":72,
			"byteOffset":17504,
			"target":34962
		},
		{
			"buffer":0,
			"byteLength":72,
			"byteOffset":17576,
			"target":34962
		},
		{
			"buffer":0,
			"byteLength":48,
			"byteOffset":17648,
			"target":34962
		},
		{
			"buffer":0,
			"byteLength":672,
			"byteOffset":17696,
			"target":34962
		},
		{
			"buffer":0,
			"byteLength":672,
			"byteOffset":18368,
			"target":34962
		},
		{
			"buffer":0,
			"byteLength":448,
			"byteOffset":19040,
			"target":34962
		},
		{
			"buffer":0,
			"byteLength":480,
			"byteOffset":19488,
			"target":34962
		},
		{
			"buffer":0,
			"byteLength":480,
			"byteOffset":19968,
			"target":34962
		},
		{
			"buffer":0,
			"byteLength":320,
			"byteOffset":20448,
			"target":34962
		},
		{
			"buffer":0,
			"byteLength":288,
			"byteOffset":20768,
			"target":34962
		},
		{
			"buffer":0,
			"byteLength":288,
			"byteOffset":21056,
			"target":34962
		},
		{
			"buffer":0,
			"byteLength":192,
			"byteOffset":21344,
			"target":34962
		},
		{
			"buffer":0,
			"byteLength":192,
			"byteOffset":21536,
			"target":34962
		},
		{
			"buffer":0,
			"byteLength":192,
			"byteOffset":21728,
			"target":34962
		},
		{
			"buffer":0,
			"byteLength":128,
			"byteOffset":21920,
			"target":34962
		},
		{
			"buffer":0,
			"byteLength":192,
			"byteOffset":22048,
			"target":34962
		},
		{
			"buffer":0,
			"byteLength":192,
			"byteOffset":22240,
			"target":34962
		},
		{
			"buffer":0,
			"byteLength":128,
			"byteOffset":22432,
			"target":34962
		},
		{
			"buffer":0,
			"byteLength":288,
			"byteOffset":22560,
			"target":34962
		},
		{
			"buffer":0,
			"byteLength":288,
			"byteOffset":22848,
			"target":34962
		},
		{
			"buffer":0,
			"byteLength":192,
			"byteOffset":23136,
			"target":34962
		},
		{
			"buffer":0,
			"byteLength":288,
			"byteOffset":23328,
			"target":34962
		},
		{
			"buffer":0,
			"byteLength":288,
			"byteOffset":23616,
			"target":34962
		},
		{
			"buffer":0,
			"byteLength":192,
			"byteOffset":23904,
			"target":34962
		},
		{
			"buffer":0,
			"byteLength":1560,
			"byteOffset":24096,
			"target":34962
		},
		{
			"buffer":0,
			"byteLength":1560,
			"byteOffset":25656,
			"target":34962
		},
		{
			"buffer":0,
			"byteLength":1040,
			"byteOffset":27216,
			"target":34962
		},
		{
			"buffer":0,
			"byteLength":72,
			"byteOffset":28256,
			"target":34962
		},
		{
			"buffer":0,
			"byteLength":72,
			"byteOffset":28328,
			"target":34962
		},
		{
			"buffer":0,
			"byteLength":48,
			"byteOffset":28400,
			"target":34962
		},
		{
			"buffer":0,
			"byteLength":672,
			"byteOffset":28448,
			"target":34962
		},
		{
			"buffer":0,
			"byteLength":672,
			"byteOffset":29120,
			"target":34962
		},
		{
			"buffer":0,
			"byteLength":448,
			"byteOffset":29792,
			"target":34962
		},
		{
			"buffer":0,
			"byteLength":480,
			"byteOffset":30240,
			"target":34962
		},
		{
			"buffer":0,
			"byteLength":480,
			"byteOffset":30720,
			"target":34962
		},
		{
			"buffer":0,
			"byteLength":320,
			"byteOffset":31200,
			"target":34962
		},
		{
			"buffer":0,
			"byteLength":288,
			"byteOffset":31520,
			"target":34962
		},
		{
			"buffer":0,
			"byteLength":288,
			"byteOffset":31808,
			"target":34962
		},
		{
			"buffer":0,
			"byteLength":192,
			"byteOffset":32096,
			"target":34962
		},
		{
			"buffer":0,
			"byteLength":192,
			"byteOffset":32288,
			"target":34962
		},
		{
			"buffer":0,
			"byteLength":192,
			"byteOffset":32480,
			"target":34962
		},
		{
			"buffer":0,
			"byteLength":128,
			"byteOffset":32672,
			"target":34962
		},
		{
			"buffer":0,
			"byteLength":192,
			"byteOffset":32800,
			"target":34962
		},
		{
			"buffer":0,
			"byteLength":192,
			"byteOffset":32992,
			"target":34962
		},
		{
			"buffer":0,
			"byteLength":128,
			"byteOffset":33184,
			"target":34962
		}
	],
	"buffers":[
		{
			"byteLength":33312,
			"uri":"presiaRiflemen.bin"
		}
	]
}
