{
	"asset":{
		"generator":"Khronos glTF Blender I/O v5.1.20",
		"version":"2.0"
	},
	"scene":0,
	"scenes":[
		{
			"name":"Scene",
			"nodes":[
				0,
				1,
				2,
				3,
				4,
				5,
				6,
				7,
				8,
				9,
				10,
				11,
				12,
				13
			]
		}
	],
	"nodes":[
		{
			"mesh":0,
			"name":"Cube",
			"scale":[
				1,
				0.776473343372345,
				1.5
			],
			"translation":[
				0,
				2.186941146850586,
				0
			]
		},
		{
			"mesh":1,
			"name":"Cube.001",
			"rotation":[
				0,
				0.3826834559440613,
				0,
				0.9238795638084412
			],
			"scale":[
				1,
				0.11999999731779099,
				0.11999998986721039
			],
			"translation":[
				1.5404927730560303,
				2.5035617351531982,
				-1.5566368103027344
			]
		},
		{
			"mesh":2,
			"name":"Cube.002",
			"rotation":[
				0,
				0.3826834559440613,
				0,
				0.9238795638084412
			],
			"scale":[
				1,
				0.10000000149011612,
				0.10000000149011612
			],
			"translation":[
				1.5404927730560303,
				2.5035617351531982,
				-1.5566368103027344
			]
		},
		{
			"mesh":3,
			"name":"Cube.003",
			"rotation":[
				0,
				-0.3826834559440613,
				0,
				0.9238795638084412
			],
			"scale":[
				1,
				0.11999999731779099,
				0.11999998986721039
			],
			"translation":[
				-1.5404900312423706,
				2.5035617351531982,
				-1.5566368103027344
			]
		},
		{
			"mesh":4,
			"name":"Cube.004",
			"rotation":[
				0,
				-0.3826834559440613,
				0,
				0.9238795638084412
			],
			"scale":[
				1,
				0.11999999731779099,
				0.11999998986721039
			],
			"translation":[
				1.5404927730560303,
				2.5035617351531982,
				1.5105559825897217
			]
		},
		{
			"mesh":5,
			"name":"Cube.005",
			"rotation":[
				0,
				0.3826834559440613,
				0,
				0.9238795638084412
			],
			"scale":[
				1,
				0.11999999731779099,
				0.11999998986721039
			],
			"translation":[
				-1.5404900312423706,
				2.5035617351531982,
				1.5105559825897217
			]
		},
		{
			"mesh":6,
			"name":"Cube.007",
			"rotation":[
				0,
				-0.3826834261417389,
				0,
				0.9238795638084412
			],
			"scale":[
				0.4068448543548584,
				0.02034224011003971,
				0.1017112135887146
			],
			"translation":[
				-2.5114924907684326,
				2.635605812072754,
				1.9370205402374268
			]
		},
		{
			"mesh":7,
			"name":"Cube.008",
			"rotation":[
				0,
				0.3826834261417389,
				0,
				0.9238795638084412
			],
			"scale":[
				0.4068448543548584,
				0.02034224011003971,
				0.1017112135887146
			],
			"translation":[
				-1.985819697380066,
				2.635605812072754,
				-2.549508571624756
			]
		},
		{
			"mesh":8,
			"name":"Cube.009",
			"rotation":[
				0,
				0.3826834261417389,
				0,
				0.9238795638084412
			],
			"scale":[
				0.4068448543548584,
				0.02034224011003971,
				0.1017112135887146
			],
			"translation":[
				-2.553612232208252,
				2.635605812072754,
				-1.9774773120880127
			]
		},
		{
			"mesh":9,
			"name":"Cube.010",
			"rotation":[
				0,
				-0.3826834261417389,
				0,
				0.9238795638084412
			],
			"scale":[
				0.4068448543548584,
				0.02034224011003971,
				0.1017112135887146
			],
			"translation":[
				1.985819697380066,
				2.635605812072754,
				-2.549506425857544
			]
		},
		{
			"mesh":10,
			"name":"Cube.011",
			"rotation":[
				0,
				-0.3826834261417389,
				0,
				0.9238795638084412
			],
			"scale":[
				0.4068448543548584,
				0.02034224011003971,
				0.1017112135887146
			],
			"translation":[
				2.553612232208252,
				2.635605812072754,
				-1.9774773120880127
			]
		},
		{
			"mesh":11,
			"name":"Cube.012",
			"rotation":[
				0,
				-0.3826834261417389,
				0,
				0.9238795638084412
			],
			"scale":[
				0.4068448543548584,
				0.02034224011003971,
				0.1017112135887146
			],
			"translation":[
				-1.9456138610839844,
				2.635605812072754,
				2.514594793319702
			]
		},
		{
			"mesh":12,
			"name":"Cube.006",
			"rotation":[
				0,
				0.3826834261417389,
				0,
				0.9238795638084412
			],
			"scale":[
				0.4068448543548584,
				0.02034224011003971,
				0.1017112135887146
			],
			"translation":[
				1.945613145828247,
				2.635605812072754,
				2.514594793319702
			]
		},
		{
			"mesh":13,
			"name":"Cube.013",
			"rotation":[
				0,
				0.3826834261417389,
				0,
				0.9238795638084412
			],
			"scale":[
				0.4068448543548584,
				0.02034224011003971,
				0.1017112135887146
			],
			"translation":[
				2.511493682861328,
				2.635605812072754,
				1.9370205402374268
			]
		}
	],
	"materials":[
		{
			"doubleSided":true,
			"name":"Material.014",
			"pbrMetallicRoughness":{
				"baseColorFactor":[
					0.2982563376426697,
					0.2982563376426697,
					0.2982563376426697,
					1
				],
				"metallicFactor":0,
				"roughnessFactor":0.5
			}
		},
		{
			"doubleSided":true,
			"name":"Material.002",
			"pbrMetallicRoughness":{
				"baseColorFactor":[
					0,
					0,
					0,
					1
				],
				"metallicFactor":0,
				"roughnessFactor":0.5
			}
		},
		{
			"doubleSided":true,
			"name":"Material.015",
			"pbrMetallicRoughness":{
				"metallicFactor":0,
				"roughnessFactor":0
			}
		}
	],
	"meshes":[
		{
			"name":"Cube.005",
			"primitives":[
				{
					"attributes":{
						"POSITION":0,
						"NORMAL":1,
						"TEXCOORD_0":2
					},
					"indices":3,
					"material":0
				},
				{
					"attributes":{
						"POSITION":4,
						"NORMAL":5,
						"TEXCOORD_0":6
					},
					"indices":7,
					"material":1
				}
			]
		},
		{
			"name":"Cube.006",
			"primitives":[
				{
					"attributes":{
						"POSITION":8,
						"NORMAL":9,
						"TEXCOORD_0":10
					},
					"indices":11,
					"material":0
				}
			]
		},
		{
			"name":"Cube.007",
			"primitives":[
				{
					"attributes":{
						"POSITION":12,
						"NORMAL":13,
						"TEXCOORD_0":14
					},
					"indices":11
				}
			]
		},
		{
			"name":"Cube.008",
			"primitives":[
				{
					"attributes":{
						"POSITION":15,
						"NORMAL":16,
						"TEXCOORD_0":17
					},
					"indices":11,
					"material":0
				}
			]
		},
		{
			"name":"Cube.009",
			"primitives":[
				{
					"attributes":{
						"POSITION":18,
						"NORMAL":19,
						"TEXCOORD_0":20
					},
					"indices":11,
					"material":0
				}
			]
		},
		{
			"name":"Cube.010",
			"primitives":[
				{
					"attributes":{
						"POSITION":21,
						"NORMAL":22,
						"TEXCOORD_0":23
					},
					"indices":11,
					"material":0
				}
			]
		},
		{
			"name":"Cube.012",
			"primitives":[
				{
					"attributes":{
						"POSITION":24,
						"NORMAL":25,
						"TEXCOORD_0":26
					},
					"indices":27,
					"material":2
				}
			]
		},
		{
			"name":"Cube.013",
			"primitives":[
				{
					"attributes":{
						"POSITION":28,
						"NORMAL":29,
						"TEXCOORD_0":30
					},
					"indices":27,
					"material":2
				}
			]
		},
		{
			"name":"Cube.014",
			"primitives":[
				{
					"attributes":{
						"POSITION":31,
						"NORMAL":32,
						"TEXCOORD_0":33
					},
					"indices":27,
					"material":2
				}
			]
		},
		{
			"name":"Cube.017",
			"primitives":[
				{
					"attributes":{
						"POSITION":34,
						"NORMAL":35,
						"TEXCOORD_0":36
					},
					"indices":27,
					"material":2
				}
			]
		},
		{
			"name":"Cube.018",
			"primitives":[
				{
					"attributes":{
						"POSITION":37,
						"NORMAL":38,
						"TEXCOORD_0":39
					},
					"indices":27,
					"material":2
				}
			]
		},
		{
			"name":"Cube.019",
			"primitives":[
				{
					"attributes":{
						"POSITION":40,
						"NORMAL":41,
						"TEXCOORD_0":42
					},
					"indices":27,
					"material":2
				}
			]
		},
		{
			"name":"Cube.020",
			"primitives":[
				{
					"attributes":{
						"POSITION":43,
						"NORMAL":44,
						"TEXCOORD_0":45
					},
					"indices":27,
					"material":2
				}
			]
		},
		{
			"name":"Cube.021",
			"primitives":[
				{
					"attributes":{
						"POSITION":46,
						"NORMAL":47,
						"TEXCOORD_0":48
					},
					"indices":27,
					"material":2
				}
			]
		}
	],
	"accessors":[
		{
			"bufferView":0,
			"componentType":5126,
			"count":174,
			"max":[
				1,
				1,
				1
			],
			"min":[
				-1,
				-0.8475801348686218,
				-1
			],
			"type":"VEC3"
		},
		{
			"bufferView":1,
			"componentType":5126,
			"count":174,
			"type":"VEC3"
		},
		{
			"bufferView":2,
			"componentType":5126,
			"count":174,
			"type":"VEC2"
		},
		{
			"bufferView":3,
			"componentType":5123,
			"count":294,
			"type":"SCALAR"
		},
		{
			"bufferView":4,
			"componentType":5126,
			"count":4,
			"max":[
				0.4336240887641907,
				-0.10913357138633728,
				0.7249055504798889
			],
			"min":[
				-0.43362390995025635,
				-0.598091721534729,
				0.7211518287658691
			],
			"type":"VEC3"
		},
		{
			"bufferView":5,
			"componentType":5126,
			"count":4,
			"type":"VEC3"
		},
		{
			"bufferView":6,
			"componentType":5126,
			"count":4,
			"type":"VEC2"
		},
		{
			"bufferView":7,
			"componentType":5123,
			"count":6,
			"type":"SCALAR"
		},
		{
			"bufferView":8,
			"componentType":5126,
			"count":24,
			"max":[
				1,
				1,
				1
			],
			"min":[
				-1,
				-1,
				-1
			],
			"type":"VEC3"
		},
		{
			"bufferView":9,
			"componentType":5126,
			"count":24,
			"type":"VEC3"
		},
		{
			"bufferView":10,
			"componentType":5126,
			"count":24,
			"type":"VEC2"
		},
		{
			"bufferView":11,
			"componentType":5123,
			"count":36,
			"type":"SCALAR"
		},
		{
			"bufferView":12,
			"componentType":5126,
			"count":24,
			"max":[
				1,
				1,
				1
			],
			"min":[
				-1,
				-1,
				-1
			],
			"type":"VEC3"
		},
		{
			"bufferView":13,
			"componentType":5126,
			"count":24,
			"type":"VEC3"
		},
		{
			"bufferView":14,
			"componentType":5126,
			"count":24,
			"type":"VEC2"
		},
		{
			"bufferView":15,
			"componentType":5126,
			"count":24,
			"max":[
				1,
				1,
				1
			],
			"min":[
				-1,
				-1,
				-1
			],
			"type":"VEC3"
		},
		{
			"bufferView":16,
			"componentType":5126,
			"count":24,
			"type":"VEC3"
		},
		{
			"bufferView":17,
			"componentType":5126,
			"count":24,
			"type":"VEC2"
		},
		{
			"bufferView":18,
			"componentType":5126,
			"count":24,
			"max":[
				1,
				1,
				1
			],
			"min":[
				-1,
				-1,
				-1
			],
			"type":"VEC3"
		},
		{
			"bufferView":19,
			"componentType":5126,
			"count":24,
			"type":"VEC3"
		},
		{
			"bufferView":20,
			"componentType":5126,
			"count":24,
			"type":"VEC2"
		},
		{
			"bufferView":21,
			"componentType":5126,
			"count":24,
			"max":[
				1,
				1,
				1
			],
			"min":[
				-1,
				-1,
				-1
			],
			"type":"VEC3"
		},
		{
			"bufferView":22,
			"componentType":5126,
			"count":24,
			"type":"VEC3"
		},
		{
			"bufferView":23,
			"componentType":5126,
			"count":24,
			"type":"VEC2"
		},
		{
			"bufferView":24,
			"componentType":5126,
			"count":72,
			"max":[
				1,
				1,
				1
			],
			"min":[
				-1,
				-1,
				-1
			],
			"type":"VEC3"
		},
		{
			"bufferView":25,
			"componentType":5126,
			"count":72,
			"type":"VEC3"
		},
		{
			"bufferView":26,
			"componentType":5126,
			"count":72,
			"type":"VEC2"
		},
		{
			"bufferView":27,
			"componentType":5123,
			"count":108,
			"type":"SCALAR"
		},
		{
			"bufferView":28,
			"componentType":5126,
			"count":72,
			"max":[
				1,
				1,
				1
			],
			"min":[
				-1,
				-1,
				-1
			],
			"type":"VEC3"
		},
		{
			"bufferView":29,
			"componentType":5126,
			"count":72,
			"type":"VEC3"
		},
		{
			"bufferView":30,
			"componentType":5126,
			"count":72,
			"type":"VEC2"
		},
		{
			"bufferView":31,
			"componentType":5126,
			"count":72,
			"max":[
				1,
				1,
				1
			],
			"min":[
				-1,
				-1,
				-1
			],
			"type":"VEC3"
		},
		{
			"bufferView":32,
			"componentType":5126,
			"count":72,
			"type":"VEC3"
		},
		{
			"bufferView":33,
			"componentType":5126,
			"count":72,
			"type":"VEC2"
		},
		{
			"bufferView":34,
			"componentType":5126,
			"count":72,
			"max":[
				1,
				1,
				1
			],
			"min":[
				-1,
				-1,
				-1
			],
			"type":"VEC3"
		},
		{
			"bufferView":35,
			"componentType":5126,
			"count":72,
			"type":"VEC3"
		},
		{
			"bufferView":36,
			"componentType":5126,
			"count":72,
			"type":"VEC2"
		},
		{
			"bufferView":37,
			"componentType":5126,
			"count":72,
			"max":[
				1,
				1,
				1
			],
			"min":[
				-1,
				-1,
				-1
			],
			"type":"VEC3"
		},
		{
			"bufferView":38,
			"componentType":5126,
			"count":72,
			"type":"VEC3"
		},
		{
			"bufferView":39,
			"componentType":5126,
			"count":72,
			"type":"VEC2"
		},
		{
			"bufferView":40,
			"componentType":5126,
			"count":72,
			"max":[
				1,
				1,
				1
			],
			"min":[
				-1,
				-1,
				-1
			],
			"type":"VEC3"
		},
		{
			"bufferView":41,
			"componentType":5126,
			"count":72,
			"type":"VEC3"
		},
		{
			"bufferView":42,
			"componentType":5126,
			"count":72,
			"type":"VEC2"
		},
		{
			"bufferView":43,
			"componentType":5126,
			"count":72,
			"max":[
				1,
				1,
				1
			],
			"min":[
				-1,
				-1,
				-1
			],
			"type":"VEC3"
		},
		{
			"bufferView":44,
			"componentType":5126,
			"count":72,
			"type":"VEC3"
		},
		{
			"bufferView":45,
			"componentType":5126,
			"count":72,
			"type":"VEC2"
		},
		{
			"bufferView":46,
			"componentType":5126,
			"count":72,
			"max":[
				1,
				1,
				1
			],
			"min":[
				-1,
				-1,
				-1
			],
			"type":"VEC3"
		},
		{
			"bufferView":47,
			"componentType":5126,
			"count":72,
			"type":"VEC3"
		},
		{
			"bufferView":48,
			"componentType":5126,
			"count":72,
			"type":"VEC2"
		}
	],
	"bufferViews":[
		{
			"buffer":0,
			"byteLength":2088,
			"byteOffset":0,
			"target":34962
		},
		{
			"buffer":0,
			"byteLength":2088,
			"byteOffset":2088,
			"target":34962
		},
		{
			"buffer":0,
			"byteLength":1392,
			"byteOffset":4176,
			"target":34962
		},
		{
			"buffer":0,
			"byteLength":588,
			"byteOffset":5568,
			"target":34963
		},
		{
			"buffer":0,
			"byteLength":48,
			"byteOffset":6156,
			"target":34962
		},
		{
			"buffer":0,
			"byteLength":48,
			"byteOffset":6204,
			"target":34962
		},
		{
			"buffer":0,
			"byteLength":32,
			"byteOffset":6252,
			"target":34962
		},
		{
			"buffer":0,
			"byteLength":12,
			"byteOffset":6284,
			"target":34963
		},
		{
			"buffer":0,
			"byteLength":288,
			"byteOffset":6296,
			"target":34962
		},
		{
			"buffer":0,
			"byteLength":288,
			"byteOffset":6584,
			"target":34962
		},
		{
			"buffer":0,
			"byteLength":192,
			"byteOffset":6872,
			"target":34962
		},
		{
			"buffer":0,
			"byteLength":72,
			"byteOffset":7064,
			"target":34963
		},
		{
			"buffer":0,
			"byteLength":288,
			"byteOffset":7136,
			"target":34962
		},
		{
			"buffer":0,
			"byteLength":288,
			"byteOffset":7424,
			"target":34962
		},
		{
			"buffer":0,
			"byteLength":192,
			"byteOffset":7712,
			"target":34962
		},
		{
			"buffer":0,
			"byteLength":288,
			"byteOffset":7904,
			"target":34962
		},
		{
			"buffer":0,
			"byteLength":288,
			"byteOffset":8192,
			"target":34962
		},
		{
			"buffer":0,
			"byteLength":192,
			"byteOffset":8480,
			"target":34962
		},
		{
			"buffer":0,
			"byteLength":288,
			"byteOffset":8672,
			"target":34962
		},
		{
			"buffer":0,
			"byteLength":288,
			"byteOffset":8960,
			"target":34962
		},
		{
			"buffer":0,
			"byteLength":192,
			"byteOffset":9248,
			"target":34962
		},
		{
			"buffer":0,
			"byteLength":288,
			"byteOffset":9440,
			"target":34962
		},
		{
			"buffer":0,
			"byteLength":288,
			"byteOffset":9728,
			"target":34962
		},
		{
			"buffer":0,
			"byteLength":192,
			"byteOffset":10016,
			"target":34962
		},
		{
			"buffer":0,
			"byteLength":864,
			"byteOffset":10208,
			"target":34962
		},
		{
			"buffer":0,
			"byteLength":864,
			"byteOffset":11072,
			"target":34962
		},
		{
			"buffer":0,
			"byteLength":576,
			"byteOffset":11936,
			"target":34962
		},
		{
			"buffer":0,
			"byteLength":216,
			"byteOffset":12512,
			"target":34963
		},
		{
			"buffer":0,
			"byteLength":864,
			"byteOffset":12728,
			"target":34962
		},
		{
			"buffer":0,
			"byteLength":864,
			"byteOffset":13592,
			"target":34962
		},
		{
			"buffer":0,
			"byteLength":576,
			"byteOffset":14456,
			"target":34962
		},
		{
			"buffer":0,
			"byteLength":864,
			"byteOffset":15032,
			"target":34962
		},
		{
			"buffer":0,
			"byteLength":864,
			"byteOffset":15896,
			"target":34962
		},
		{
			"buffer":0,
			"byteLength":576,
			"byteOffset":16760,
			"target":34962
		},
		{
			"buffer":0,
			"byteLength":864,
			"byteOffset":17336,
			"target":34962
		},
		{
			"buffer":0,
			"byteLength":864,
			"byteOffset":18200,
			"target":34962
		},
		{
			"buffer":0,
			"byteLength":576,
			"byteOffset":19064,
			"target":34962
		},
		{
			"buffer":0,
			"byteLength":864,
			"byteOffset":19640,
			"target":34962
		},
		{
			"buffer":0,
			"byteLength":864,
			"byteOffset":20504,
			"target":34962
		},
		{
			"buffer":0,
			"byteLength":576,
			"byteOffset":21368,
			"target":34962
		},
		{
			"buffer":0,
			"byteLength":864,
			"byteOffset":21944,
			"target":34962
		},
		{
			"buffer":0,
			"byteLength":864,
			"byteOffset":22808,
			"target":34962
		},
		{
			"buffer":0,
			"byteLength":576,
			"byteOffset":23672,
			"target":34962
		},
		{
			"buffer":0,
			"byteLength":864,
			"byteOffset":24248,
			"target":34962
		},
		{
			"buffer":0,
			"byteLength":864,
			"byteOffset":25112,
			"target":34962
		},
		{
			"buffer":0,
			"byteLength":576,
			"byteOffset":25976,
			"target":34962
		},
		{
			"buffer":0,
			"byteLength":864,
			"byteOffset":26552,
			"target":34962
		},
		{
			"buffer":0,
			"byteLength":864,
			"byteOffset":27416,
			"target":34962
		},
		{
			"buffer":0,
			"byteLength":576,
			"byteOffset":28280,
			"target":34962
		}
	],
	"buffers":[
		{
			"byteLength":28856,
			"uri":"sniper.bin"
		}
	]
}
