{
	"asset":{
		"generator":"Khronos glTF Blender I/O v5.1.20",
		"version":"2.0"
	},
	"scene":0,
	"scenes":[
		{
			"name":"Scene",
			"nodes":[
				0,
				1,
				2,
				3,
				4,
				5,
				6,
				7,
				8,
				9,
				10,
				11
			]
		}
	],
	"nodes":[
		{
			"mesh":0,
			"name":"Cylinder",
			"scale":[
				0.20000000298023224,
				0.5,
				0.20000000298023224
			],
			"translation":[
				-3.2976691722869873,
				0.6506443023681641,
				2.498995542526245
			]
		},
		{
			"mesh":1,
			"name":"Cone",
			"translation":[
				-3.2976691722869873,
				1.9023082256317139,
				2.498995542526245
			]
		},
		{
			"mesh":2,
			"name":"Cone.001",
			"scale":[
				0.9296066761016846,
				0.9296066761016846,
				0.9296066761016846
			],
			"translation":[
				-3.2976691722869873,
				2.2870612144470215,
				2.498995542526245
			]
		},
		{
			"mesh":3,
			"name":"Cone.002",
			"scale":[
				0.8322237730026245,
				0.8322237730026245,
				0.8322237730026245
			],
			"translation":[
				-3.2976691722869873,
				2.6185882091522217,
				2.498995542526245
			]
		},
		{
			"mesh":4,
			"name":"Cylinder.001",
			"scale":[
				0.20000000298023224,
				0.5,
				0.20000000298023224
			],
			"translation":[
				1.7316381931304932,
				0.6506443023681641,
				0.8598960638046265
			]
		},
		{
			"mesh":5,
			"name":"Cone.003",
			"scale":[
				0.8322237730026245,
				0.8322237730026245,
				0.8322237730026245
			],
			"translation":[
				1.7316381931304932,
				2.6185882091522217,
				0.8598960638046265
			]
		},
		{
			"mesh":6,
			"name":"Cone.004",
			"scale":[
				0.9296066761016846,
				0.9296066761016846,
				0.9296066761016846
			],
			"translation":[
				1.7316381931304932,
				2.2870612144470215,
				0.8598960638046265
			]
		},
		{
			"mesh":7,
			"name":"Cone.005",
			"translation":[
				1.7316381931304932,
				1.9023082256317139,
				0.8598960638046265
			]
		},
		{
			"mesh":8,
			"name":"Cylinder.002",
			"scale":[
				0.20000000298023224,
				0.5,
				0.20000000298023224
			],
			"translation":[
				-0.7887955904006958,
				0.6506443023681641,
				-2.5047850608825684
			]
		},
		{
			"mesh":9,
			"name":"Cone.006",
			"translation":[
				-0.7887955904006958,
				1.9023082256317139,
				-2.5047850608825684
			]
		},
		{
			"mesh":10,
			"name":"Cone.007",
			"scale":[
				0.9296066761016846,
				0.9296066761016846,
				0.9296066761016846
			],
			"translation":[
				-0.7887955904006958,
				2.2870612144470215,
				-2.5047850608825684
			]
		},
		{
			"mesh":11,
			"name":"Cone.008",
			"scale":[
				0.8322237730026245,
				0.8322237730026245,
				0.8322237730026245
			],
			"translation":[
				-0.7887955904006958,
				2.6185882091522217,
				-2.5047850608825684
			]
		}
	],
	"materials":[
		{
			"doubleSided":true,
			"name":"Material.001",
			"pbrMetallicRoughness":{
				"baseColorFactor":[
					0.3200305700302124,
					0.0815243050456047,
					0.048112764954566956,
					1
				],
				"metallicFactor":0,
				"roughnessFactor":0.5
			}
		},
		{
			"doubleSided":true,
			"name":"Material.002",
			"pbrMetallicRoughness":{
				"baseColorFactor":[
					0.04847666993737221,
					0.2140343189239502,
					0.0667523741722107,
					1
				],
				"metallicFactor":0,
				"roughnessFactor":0.5
			}
		},
		{
			"doubleSided":true,
			"name":"Material.003",
			"pbrMetallicRoughness":{
				"baseColorFactor":[
					0.3200305700302124,
					0.0815243050456047,
					0.048112764954566956,
					1
				],
				"metallicFactor":0,
				"roughnessFactor":0.5
			}
		},
		{
			"doubleSided":true,
			"name":"Material.004",
			"pbrMetallicRoughness":{
				"baseColorFactor":[
					0.04847666993737221,
					0.2140343189239502,
					0.0667523741722107,
					1
				],
				"metallicFactor":0,
				"roughnessFactor":0.5
			}
		},
		{
			"doubleSided":true,
			"name":"Material.005",
			"pbrMetallicRoughness":{
				"baseColorFactor":[
					0.3200305700302124,
					0.0815243050456047,
					0.048112764954566956,
					1
				],
				"metallicFactor":0,
				"roughnessFactor":0.5
			}
		},
		{
			"doubleSided":true,
			"name":"Material.006",
			"pbrMetallicRoughness":{
				"baseColorFactor":[
					0.04847666993737221,
					0.2140343189239502,
					0.0667523741722107,
					1
				],
				"metallicFactor":0,
				"roughnessFactor":0.5
			}
		}
	],
	"meshes":[
		{
			"name":"Cylinder",
			"primitives":[
				{
					"attributes":{
						"POSITION":0,
						"NORMAL":1,
						"TEXCOORD_0":2
					},
					"indices":3,
					"material":0
				}
			]
		},
		{
			"name":"Cone",
			"primitives":[
				{
					"attributes":{
						"POSITION":4,
						"NORMAL":5,
						"TEXCOORD_0":6
					},
					"indices":7,
					"material":1
				}
			]
		},
		{
			"name":"Cone.001",
			"primitives":[
				{
					"attributes":{
						"POSITION":8,
						"NORMAL":9,
						"TEXCOORD_0":10
					},
					"indices":7,
					"material":1
				}
			]
		},
		{
			"name":"Cone.002",
			"primitives":[
				{
					"attributes":{
						"POSITION":11,
						"NORMAL":12,
						"TEXCOORD_0":13
					},
					"indices":7,
					"material":1
				}
			]
		},
		{
			"name":"Cylinder.001",
			"primitives":[
				{
					"attributes":{
						"POSITION":14,
						"NORMAL":15,
						"TEXCOORD_0":16
					},
					"indices":3,
					"material":2
				}
			]
		},
		{
			"name":"Cone.003",
			"primitives":[
				{
					"attributes":{
						"POSITION":17,
						"NORMAL":18,
						"TEXCOORD_0":19
					},
					"indices":7,
					"material":3
				}
			]
		},
		{
			"name":"Cone.004",
			"primitives":[
				{
					"attributes":{
						"POSITION":20,
						"NORMAL":21,
						"TEXCOORD_0":22
					},
					"indices":7,
					"material":3
				}
			]
		},
		{
			"name":"Cone.005",
			"primitives":[
				{
					"attributes":{
						"POSITION":23,
						"NORMAL":24,
						"TEXCOORD_0":25
					},
					"indices":7,
					"material":3
				}
			]
		},
		{
			"name":"Cylinder.002",
			"primitives":[
				{
					"attributes":{
						"POSITION":26,
						"NORMAL":27,
						"TEXCOORD_0":28
					},
					"indices":3,
					"material":4
				}
			]
		},
		{
			"name":"Cone.006",
			"primitives":[
				{
					"attributes":{
						"POSITION":29,
						"NORMAL":30,
						"TEXCOORD_0":31
					},
					"indices":7,
					"material":5
				}
			]
		},
		{
			"name":"Cone.007",
			"primitives":[
				{
					"attributes":{
						"POSITION":32,
						"NORMAL":33,
						"TEXCOORD_0":34
					},
					"indices":7,
					"material":5
				}
			]
		},
		{
			"name":"Cone.008",
			"primitives":[
				{
					"attributes":{
						"POSITION":35,
						"NORMAL":36,
						"TEXCOORD_0":37
					},
					"indices":7,
					"material":5
				}
			]
		}
	],
	"accessors":[
		{
			"bufferView":0,
			"componentType":5126,
			"count":192,
			"max":[
				1,
				1,
				1
			],
			"min":[
				-1,
				-1,
				-1
			],
			"type":"VEC3"
		},
		{
			"bufferView":1,
			"componentType":5126,
			"count":192,
			"type":"VEC3"
		},
		{
			"bufferView":2,
			"componentType":5126,
			"count":192,
			"type":"VEC2"
		},
		{
			"bufferView":3,
			"componentType":5123,
			"count":372,
			"type":"SCALAR"
		},
		{
			"bufferView":4,
			"componentType":5126,
			"count":128,
			"max":[
				1,
				1,
				1
			],
			"min":[
				-1,
				-1,
				-1
			],
			"type":"VEC3"
		},
		{
			"bufferView":5,
			"componentType":5126,
			"count":128,
			"type":"VEC3"
		},
		{
			"bufferView":6,
			"componentType":5126,
			"count":128,
			"type":"VEC2"
		},
		{
			"bufferView":7,
			"componentType":5123,
			"count":186,
			"type":"SCALAR"
		},
		{
			"bufferView":8,
			"componentType":5126,
			"count":128,
			"max":[
				1,
				1,
				1
			],
			"min":[
				-1,
				-1,
				-1
			],
			"type":"VEC3"
		},
		{
			"bufferView":9,
			"componentType":5126,
			"count":128,
			"type":"VEC3"
		},
		{
			"bufferView":10,
			"componentType":5126,
			"count":128,
			"type":"VEC2"
		},
		{
			"bufferView":11,
			"componentType":5126,
			"count":128,
			"max":[
				1,
				1,
				1
			],
			"min":[
				-1,
				-1,
				-1
			],
			"type":"VEC3"
		},
		{
			"bufferView":12,
			"componentType":5126,
			"count":128,
			"type":"VEC3"
		},
		{
			"bufferView":13,
			"componentType":5126,
			"count":128,
			"type":"VEC2"
		},
		{
			"bufferView":14,
			"componentType":5126,
			"count":192,
			"max":[
				1,
				1,
				1
			],
			"min":[
				-1,
				-1,
				-1
			],
			"type":"VEC3"
		},
		{
			"bufferView":15,
			"componentType":5126,
			"count":192,
			"type":"VEC3"
		},
		{
			"bufferView":16,
			"componentType":5126,
			"count":192,
			"type":"VEC2"
		},
		{
			"bufferView":17,
			"componentType":5126,
			"count":128,
			"max":[
				1,
				1,
				1
			],
			"min":[
				-1,
				-1,
				-1
			],
			"type":"VEC3"
		},
		{
			"bufferView":18,
			"componentType":5126,
			"count":128,
			"type":"VEC3"
		},
		{
			"bufferView":19,
			"componentType":5126,
			"count":128,
			"type":"VEC2"
		},
		{
			"bufferView":20,
			"componentType":5126,
			"count":128,
			"max":[
				1,
				1,
				1
			],
			"min":[
				-1,
				-1,
				-1
			],
			"type":"VEC3"
		},
		{
			"bufferView":21,
			"componentType":5126,
			"count":128,
			"type":"VEC3"
		},
		{
			"bufferView":22,
			"componentType":5126,
			"count":128,
			"type":"VEC2"
		},
		{
			"bufferView":23,
			"componentType":5126,
			"count":128,
			"max":[
				1,
				1,
				1
			],
			"min":[
				-1,
				-1,
				-1
			],
			"type":"VEC3"
		},
		{
			"bufferView":24,
			"componentType":5126,
			"count":128,
			"type":"VEC3"
		},
		{
			"bufferView":25,
			"componentType":5126,
			"count":128,
			"type":"VEC2"
		},
		{
			"bufferView":26,
			"componentType":5126,
			"count":192,
			"max":[
				1,
				1,
				1
			],
			"min":[
				-1,
				-1,
				-1
			],
			"type":"VEC3"
		},
		{
			"bufferView":27,
			"componentType":5126,
			"count":192,
			"type":"VEC3"
		},
		{
			"bufferView":28,
			"componentType":5126,
			"count":192,
			"type":"VEC2"
		},
		{
			"bufferView":29,
			"componentType":5126,
			"count":128,
			"max":[
				1,
				1,
				1
			],
			"min":[
				-1,
				-1,
				-1
			],
			"type":"VEC3"
		},
		{
			"bufferView":30,
			"componentType":5126,
			"count":128,
			"type":"VEC3"
		},
		{
			"bufferView":31,
			"componentType":5126,
			"count":128,
			"type":"VEC2"
		},
		{
			"bufferView":32,
			"componentType":5126,
			"count":128,
			"max":[
				1,
				1,
				1
			],
			"min":[
				-1,
				-1,
				-1
			],
			"type":"VEC3"
		},
		{
			"bufferView":33,
			"componentType":5126,
			"count":128,
			"type":"VEC3"
		},
		{
			"bufferView":34,
			"componentType":5126,
			"count":128,
			"type":"VEC2"
		},
		{
			"bufferView":35,
			"componentType":5126,
			"count":128,
			"max":[
				1,
				1,
				1
			],
			"min":[
				-1,
				-1,
				-1
			],
			"type":"VEC3"
		},
		{
			"bufferView":36,
			"componentType":5126,
			"count":128,
			"type":"VEC3"
		},
		{
			"bufferView":37,
			"componentType":5126,
			"count":128,
			"type":"VEC2"
		}
	],
	"bufferViews":[
		{
			"buffer":0,
			"byteLength":2304,
			"byteOffset":0,
			"target":34962
		},
		{
			"buffer":0,
			"byteLength":2304,
			"byteOffset":2304,
			"target":34962
		},
		{
			"buffer":0,
			"byteLength":1536,
			"byteOffset":4608,
			"target":34962
		},
		{
			"buffer":0,
			"byteLength":744,
			"byteOffset":6144,
			"target":34963
		},
		{
			"buffer":0,
			"byteLength":1536,
			"byteOffset":6888,
			"target":34962
		},
		{
			"buffer":0,
			"byteLength":1536,
			"byteOffset":8424,
			"target":34962
		},
		{
			"buffer":0,
			"byteLength":1024,
			"byteOffset":9960,
			"target":34962
		},
		{
			"buffer":0,
			"byteLength":372,
			"byteOffset":10984,
			"target":34963
		},
		{
			"buffer":0,
			"byteLength":1536,
			"byteOffset":11356,
			"target":34962
		},
		{
			"buffer":0,
			"byteLength":1536,
			"byteOffset":12892,
			"target":34962
		},
		{
			"buffer":0,
			"byteLength":1024,
			"byteOffset":14428,
			"target":34962
		},
		{
			"buffer":0,
			"byteLength":1536,
			"byteOffset":15452,
			"target":34962
		},
		{
			"buffer":0,
			"byteLength":1536,
			"byteOffset":16988,
			"target":34962
		},
		{
			"buffer":0,
			"byteLength":1024,
			"byteOffset":18524,
			"target":34962
		},
		{
			"buffer":0,
			"byteLength":2304,
			"byteOffset":19548,
			"target":34962
		},
		{
			"buffer":0,
			"byteLength":2304,
			"byteOffset":21852,
			"target":34962
		},
		{
			"buffer":0,
			"byteLength":1536,
			"byteOffset":24156,
			"target":34962
		},
		{
			"buffer":0,
			"byteLength":1536,
			"byteOffset":25692,
			"target":34962
		},
		{
			"buffer":0,
			"byteLength":1536,
			"byteOffset":27228,
			"target":34962
		},
		{
			"buffer":0,
			"byteLength":1024,
			"byteOffset":28764,
			"target":34962
		},
		{
			"buffer":0,
			"byteLength":1536,
			"byteOffset":29788,
			"target":34962
		},
		{
			"buffer":0,
			"byteLength":1536,
			"byteOffset":31324,
			"target":34962
		},
		{
			"buffer":0,
			"byteLength":1024,
			"byteOffset":32860,
			"target":34962
		},
		{
			"buffer":0,
			"byteLength":1536,
			"byteOffset":33884,
			"target":34962
		},
		{
			"buffer":0,
			"byteLength":1536,
			"byteOffset":35420,
			"target":34962
		},
		{
			"buffer":0,
			"byteLength":1024,
			"byteOffset":36956,
			"target":34962
		},
		{
			"buffer":0,
			"byteLength":2304,
			"byteOffset":37980,
			"target":34962
		},
		{
			"buffer":0,
			"byteLength":2304,
			"byteOffset":40284,
			"target":34962
		},
		{
			"buffer":0,
			"byteLength":1536,
			"byteOffset":42588,
			"target":34962
		},
		{
			"buffer":0,
			"byteLength":1536,
			"byteOffset":44124,
			"target":34962
		},
		{
			"buffer":0,
			"byteLength":1536,
			"byteOffset":45660,
			"target":34962
		},
		{
			"buffer":0,
			"byteLength":1024,
			"byteOffset":47196,
			"target":34962
		},
		{
			"buffer":0,
			"byteLength":1536,
			"byteOffset":48220,
			"target":34962
		},
		{
			"buffer":0,
			"byteLength":1536,
			"byteOffset":49756,
			"target":34962
		},
		{
			"buffer":0,
			"byteLength":1024,
			"byteOffset":51292,
			"target":34962
		},
		{
			"buffer":0,
			"byteLength":1536,
			"byteOffset":52316,
			"target":34962
		},
		{
			"buffer":0,
			"byteLength":1536,
			"byteOffset":53852,
			"target":34962
		},
		{
			"buffer":0,
			"byteLength":1024,
			"byteOffset":55388,
			"target":34962
		}
	],
	"buffers":[
		{
			"byteLength":56412,
			"uri":"forest.bin"
		}
	]
}
