{
	"asset":{
		"generator":"Khronos glTF Blender I/O v5.1.20",
		"version":"2.0"
	},
	"scene":0,
	"scenes":[
		{
			"name":"Scene",
			"nodes":[
				0
			]
		}
	],
	"nodes":[
		{
			"mesh":0,
			"name":"Cube",
			"scale":[
				1.5,
				0.800000011920929,
				1.5
			]
		}
	],
	"meshes":[
		{
			"name":"Cube.001",
			"primitives":[
				{
					"attributes":{
						"POSITION":0,
						"NORMAL":1,
						"TEXCOORD_0":2
					},
					"indices":3
				}
			]
		}
	],
	"accessors":[
		{
			"bufferView":0,
			"componentType":5126,
			"count":1012,
			"max":[
				1.77152419090271,
				2.170046329498291,
				1.5865405797958374
			],
			"min":[
				-2.139573335647583,
				-1.8598592281341553,
				-1.3040533065795898
			],
			"type":"VEC3"
		},
		{
			"bufferView":1,
			"componentType":5126,
			"count":1012,
			"type":"VEC3"
		},
		{
			"bufferView":2,
			"componentType":5126,
			"count":1012,
			"type":"VEC2"
		},
		{
			"bufferView":3,
			"componentType":5123,
			"count":2412,
			"type":"SCALAR"
		}
	],
	"bufferViews":[
		{
			"buffer":0,
			"byteLength":12144,
			"byteOffset":0,
			"target":34962
		},
		{
			"buffer":0,
			"byteLength":12144,
			"byteOffset":12144,
			"target":34962
		},
		{
			"buffer":0,
			"byteLength":8096,
			"byteOffset":24288,
			"target":34962
		},
		{
			"buffer":0,
			"byteLength":4824,
			"byteOffset":32384,
			"target":34963
		}
	],
	"buffers":[
		{
			"byteLength":37208,
			"uri":"tent.bin"
		}
	]
}
