{
	"asset":{
		"generator":"Khronos glTF Blender I/O v5.1.20",
		"version":"2.0"
	},
	"scene":0,
	"scenes":[
		{
			"name":"Scene",
			"nodes":[
				0,
				1,
				2,
				3,
				4,
				5,
				6,
				7,
				8,
				9,
				10,
				11,
				12,
				13,
				14
			]
		}
	],
	"nodes":[
		{
			"name":"Cube"
		},
		{
			"mesh":0,
			"name":"Cube.001",
			"rotation":[
				1,
				0,
				0,
				0
			],
			"scale":[
				-0.7336180210113525,
				-0.35513097047805786,
				-0.21289047598838806
			],
			"translation":[
				0.008351325988769531,
				0.13804100453853607,
				0.643655002117157
			]
		},
		{
			"mesh":1,
			"name":"Cube.002",
			"rotation":[
				1,
				0,
				0,
				0
			],
			"scale":[
				-0.7336180210113525,
				-0.35513097047805786,
				-0.21289046108722687
			],
			"translation":[
				0.008351325988769531,
				0.13804100453853607,
				-0.6285589933395386
			]
		},
		{
			"mesh":2,
			"name":"Cube.003",
			"scale":[
				-0.8039557933807373,
				-0.42707356810569763,
				-0.5648327469825745
			],
			"translation":[
				0.008351325988769531,
				0.3729003369808197,
				0.007548000197857618
			]
		},
		{
			"mesh":3,
			"name":"Cube.004",
			"rotation":[
				0,
				0,
				1,
				4.371138828673793e-08
			],
			"scale":[
				-0.3647918701171875,
				-0.1968015730381012,
				-0.2692941427230835
			],
			"translation":[
				0.12380235642194748,
				0.9791805744171143,
				0.007547885179519653
			]
		},
		{
			"mesh":4,
			"name":"Cylinder",
			"translation":[
				0.18606406450271606,
				1.1624953746795654,
				0.007547885179519653
			]
		},
		{
			"mesh":5,
			"name":"Cylinder.001",
			"rotation":[
				0,
				0,
				-0.7071068286895752,
				0.7071068286895752
			],
			"scale":[
				0.30000001192092896,
				10.5,
				0.30000001192092896
			],
			"translation":[
				-0.772271454334259,
				1.036519169807434,
				0.007547885179519653
			]
		},
		{
			"mesh":6,
			"name":"Cylinder.002",
			"rotation":[
				0,
				0,
				-0.7071068286895752,
				0.7071068286895752
			],
			"scale":[
				0.4000000059604645,
				1.5,
				0.4000000059604645
			],
			"translation":[
				-1.3454241752624512,
				1.036519169807434,
				0.007547885179519653
			]
		},
		{
			"mesh":7,
			"name":"Cube.005",
			"rotation":[
				0,
				0.7695350646972656,
				0.6386045813560486,
				2.8238559934834484e-07
			],
			"scale":[
				0.1318170428276062,
				0.0711139589548111,
				0.09730906784534454
			],
			"translation":[
				0.12380235642194748,
				1.0221997499465942,
				0.3620382249355316
			]
		},
		{
			"mesh":8,
			"name":"Cylinder.003",
			"rotation":[
				0,
				0,
				-0.7071068286895752,
				0.7071068286895752
			],
			"scale":[
				0.15000000596046448,
				5,
				0.15000000596046448
			],
			"translation":[
				-0.23751899600028992,
				1.0706701278686523,
				0.36827757954597473
			]
		},
		{
			"mesh":9,
			"name":"Cylinder.004",
			"rotation":[
				0,
				0,
				-0.7071068286895752,
				0.7071068286895752
			],
			"scale":[
				0.15000000596046448,
				5,
				0.15000000596046448
			],
			"translation":[
				-0.23751899600028992,
				0.9874007105827332,
				0.3840179741382599
			]
		},
		{
			"mesh":10,
			"name":"Cylinder.005",
			"scale":[
				0.10000000149011612,
				2.5,
				0.10000000149011612
			],
			"translation":[
				0.37407392263412476,
				1.1624953746795654,
				-0.211209237575531
			]
		},
		{
			"mesh":11,
			"name":"Cylinder.006",
			"scale":[
				0.10000000149011612,
				2.5,
				0.10000000149011612
			],
			"translation":[
				0.4403691291809082,
				1.1956201791763306,
				-0.211209237575531
			]
		},
		{
			"mesh":12,
			"name":"Cube.006",
			"rotation":[
				1,
				0,
				0,
				0
			],
			"scale":[
				-0.6799333095550537,
				-0.3291431963443756,
				-0.009268219582736492
			],
			"translation":[
				0.008351325988769531,
				0.13804100453853607,
				0.8536275625228882
			]
		},
		{
			"mesh":13,
			"name":"Cube.007",
			"rotation":[
				1,
				0,
				0,
				0
			],
			"scale":[
				-0.6799333095550537,
				-0.3291431963443756,
				-0.009268219582736492
			],
			"translation":[
				0.008351325988769531,
				0.13804100453853607,
				-0.8371350169181824
			]
		}
	],
	"materials":[
		{
			"doubleSided":true,
			"name":"Material.026",
			"pbrMetallicRoughness":{
				"baseColorFactor":[
					1,
					0.8790338039398193,
					0.25216853618621826,
					1
				],
				"metallicFactor":0,
				"roughnessFactor":0.5
			}
		},
		{
			"doubleSided":true,
			"name":"Material.028",
			"pbrMetallicRoughness":{
				"baseColorFactor":[
					0.3907836079597473,
					0.3641815781593323,
					0.11723020672798157,
					1
				],
				"metallicFactor":0,
				"roughnessFactor":0.5
			}
		},
		{
			"doubleSided":true,
			"name":"Material.027",
			"pbrMetallicRoughness":{
				"baseColorFactor":[
					0.07513174414634705,
					0.07513174414634705,
					0.07513174414634705,
					1
				],
				"metallicFactor":0,
				"roughnessFactor":0.5
			}
		},
		{
			"doubleSided":true,
			"name":"Material.029",
			"pbrMetallicRoughness":{
				"baseColorFactor":[
					0.2140306830406189,
					0.1951819509267807,
					0.07136344164609909,
					1
				],
				"metallicFactor":0,
				"roughnessFactor":0.5
			}
		}
	],
	"meshes":[
		{
			"name":"Cube.023",
			"primitives":[
				{
					"attributes":{
						"POSITION":0,
						"NORMAL":1,
						"TEXCOORD_0":2
					},
					"indices":3,
					"material":0
				}
			]
		},
		{
			"name":"Cube.024",
			"primitives":[
				{
					"attributes":{
						"POSITION":4,
						"NORMAL":5,
						"TEXCOORD_0":6
					},
					"indices":3,
					"material":0
				}
			]
		},
		{
			"name":"Cube.025",
			"primitives":[
				{
					"attributes":{
						"POSITION":7,
						"NORMAL":8,
						"TEXCOORD_0":9
					},
					"indices":10,
					"material":0
				}
			]
		},
		{
			"name":"Cube.026",
			"primitives":[
				{
					"attributes":{
						"POSITION":11,
						"NORMAL":12,
						"TEXCOORD_0":13
					},
					"indices":10,
					"material":0
				}
			]
		},
		{
			"name":"Cylinder.006",
			"primitives":[
				{
					"attributes":{
						"POSITION":14,
						"NORMAL":15,
						"TEXCOORD_0":16
					},
					"indices":17,
					"material":1
				}
			]
		},
		{
			"name":"Cylinder.007",
			"primitives":[
				{
					"attributes":{
						"POSITION":18,
						"NORMAL":19,
						"TEXCOORD_0":20
					},
					"indices":17,
					"material":0
				}
			]
		},
		{
			"name":"Cylinder.008",
			"primitives":[
				{
					"attributes":{
						"POSITION":21,
						"NORMAL":22,
						"TEXCOORD_0":23
					},
					"indices":17,
					"material":1
				}
			]
		},
		{
			"name":"Cube.027",
			"primitives":[
				{
					"attributes":{
						"POSITION":24,
						"NORMAL":25,
						"TEXCOORD_0":26
					},
					"indices":10,
					"material":0
				}
			]
		},
		{
			"name":"Cylinder.009",
			"primitives":[
				{
					"attributes":{
						"POSITION":27,
						"NORMAL":28,
						"TEXCOORD_0":29
					},
					"indices":17,
					"material":2
				}
			]
		},
		{
			"name":"Cylinder.010",
			"primitives":[
				{
					"attributes":{
						"POSITION":30,
						"NORMAL":31,
						"TEXCOORD_0":32
					},
					"indices":17,
					"material":2
				}
			]
		},
		{
			"name":"Cylinder.011",
			"primitives":[
				{
					"attributes":{
						"POSITION":33,
						"NORMAL":34,
						"TEXCOORD_0":35
					},
					"indices":17,
					"material":2
				}
			]
		},
		{
			"name":"Cylinder.012",
			"primitives":[
				{
					"attributes":{
						"POSITION":36,
						"NORMAL":37,
						"TEXCOORD_0":38
					},
					"indices":17,
					"material":2
				}
			]
		},
		{
			"name":"Cube.028",
			"primitives":[
				{
					"attributes":{
						"POSITION":39,
						"NORMAL":40,
						"TEXCOORD_0":41
					},
					"indices":3,
					"material":3
				}
			]
		},
		{
			"name":"Cube.030",
			"primitives":[
				{
					"attributes":{
						"POSITION":42,
						"NORMAL":43,
						"TEXCOORD_0":44
					},
					"indices":3,
					"material":3
				}
			]
		}
	],
	"accessors":[
		{
			"bufferView":0,
			"componentType":5126,
			"count":36,
			"max":[
				1.3073914051055908,
				1,
				1
			],
			"min":[
				-1.3073914051055908,
				-1,
				-1
			],
			"type":"VEC3"
		},
		{
			"bufferView":1,
			"componentType":5126,
			"count":36,
			"type":"VEC3"
		},
		{
			"bufferView":2,
			"componentType":5126,
			"count":36,
			"type":"VEC2"
		},
		{
			"bufferView":3,
			"componentType":5123,
			"count":60,
			"type":"SCALAR"
		},
		{
			"bufferView":4,
			"componentType":5126,
			"count":36,
			"max":[
				1.3073914051055908,
				1,
				1
			],
			"min":[
				-1.3073914051055908,
				-1,
				-1
			],
			"type":"VEC3"
		},
		{
			"bufferView":5,
			"componentType":5126,
			"count":36,
			"type":"VEC3"
		},
		{
			"bufferView":6,
			"componentType":5126,
			"count":36,
			"type":"VEC2"
		},
		{
			"bufferView":7,
			"componentType":5126,
			"count":40,
			"max":[
				1.1972026824951172,
				1,
				1.1972025632858276
			],
			"min":[
				-1.1972026824951172,
				-1,
				-1.1972026824951172
			],
			"type":"VEC3"
		},
		{
			"bufferView":8,
			"componentType":5126,
			"count":40,
			"type":"VEC3"
		},
		{
			"bufferView":9,
			"componentType":5126,
			"count":40,
			"type":"VEC2"
		},
		{
			"bufferView":10,
			"componentType":5123,
			"count":60,
			"type":"SCALAR"
		},
		{
			"bufferView":11,
			"componentType":5126,
			"count":40,
			"max":[
				1.1972026824951172,
				1,
				1.1972025632858276
			],
			"min":[
				-1.1972026824951172,
				-1,
				-1.1972026824951172
			],
			"type":"VEC3"
		},
		{
			"bufferView":12,
			"componentType":5126,
			"count":40,
			"type":"VEC3"
		},
		{
			"bufferView":13,
			"componentType":5126,
			"count":40,
			"type":"VEC2"
		},
		{
			"bufferView":14,
			"componentType":5126,
			"count":192,
			"max":[
				0.20000000298023224,
				0.05000000074505806,
				0.20000000298023224
			],
			"min":[
				-0.20000000298023224,
				-0.05000000074505806,
				-0.20000000298023224
			],
			"type":"VEC3"
		},
		{
			"bufferView":15,
			"componentType":5126,
			"count":192,
			"type":"VEC3"
		},
		{
			"bufferView":16,
			"componentType":5126,
			"count":192,
			"type":"VEC2"
		},
		{
			"bufferView":17,
			"componentType":5123,
			"count":372,
			"type":"SCALAR"
		},
		{
			"bufferView":18,
			"componentType":5126,
			"count":192,
			"max":[
				0.20000000298023224,
				0.05000000074505806,
				0.20000000298023224
			],
			"min":[
				-0.20000000298023224,
				-0.05000000074505806,
				-0.20000000298023224
			],
			"type":"VEC3"
		},
		{
			"bufferView":19,
			"componentType":5126,
			"count":192,
			"type":"VEC3"
		},
		{
			"bufferView":20,
			"componentType":5126,
			"count":192,
			"type":"VEC2"
		},
		{
			"bufferView":21,
			"componentType":5126,
			"count":192,
			"max":[
				0.20000000298023224,
				0.05000000074505806,
				0.20000000298023224
			],
			"min":[
				-0.20000000298023224,
				-0.05000000074505806,
				-0.20000000298023224
			],
			"type":"VEC3"
		},
		{
			"bufferView":22,
			"componentType":5126,
			"count":192,
			"type":"VEC3"
		},
		{
			"bufferView":23,
			"componentType":5126,
			"count":192,
			"type":"VEC2"
		},
		{
			"bufferView":24,
			"componentType":5126,
			"count":40,
			"max":[
				1.1972026824951172,
				1,
				1.1972025632858276
			],
			"min":[
				-1.1972026824951172,
				-1,
				-1.1972026824951172
			],
			"type":"VEC3"
		},
		{
			"bufferView":25,
			"componentType":5126,
			"count":40,
			"type":"VEC3"
		},
		{
			"bufferView":26,
			"componentType":5126,
			"count":40,
			"type":"VEC2"
		},
		{
			"bufferView":27,
			"componentType":5126,
			"count":192,
			"max":[
				0.20000000298023224,
				0.05000000074505806,
				0.20000000298023224
			],
			"min":[
				-0.20000000298023224,
				-0.05000000074505806,
				-0.20000000298023224
			],
			"type":"VEC3"
		},
		{
			"bufferView":28,
			"componentType":5126,
			"count":192,
			"type":"VEC3"
		},
		{
			"bufferView":29,
			"componentType":5126,
			"count":192,
			"type":"VEC2"
		},
		{
			"bufferView":30,
			"componentType":5126,
			"count":192,
			"max":[
				0.20000000298023224,
				0.05000000074505806,
				0.20000000298023224
			],
			"min":[
				-0.20000000298023224,
				-0.05000000074505806,
				-0.20000000298023224
			],
			"type":"VEC3"
		},
		{
			"bufferView":31,
			"componentType":5126,
			"count":192,
			"type":"VEC3"
		},
		{
			"bufferView":32,
			"componentType":5126,
			"count":192,
			"type":"VEC2"
		},
		{
			"bufferView":33,
			"componentType":5126,
			"count":192,
			"max":[
				0.20000000298023224,
				0.05000000074505806,
				0.20000000298023224
			],
			"min":[
				-0.20000000298023224,
				-0.05000000074505806,
				-0.20000000298023224
			],
			"type":"VEC3"
		},
		{
			"bufferView":34,
			"componentType":5126,
			"count":192,
			"type":"VEC3"
		},
		{
			"bufferView":35,
			"componentType":5126,
			"count":192,
			"type":"VEC2"
		},
		{
			"bufferView":36,
			"componentType":5126,
			"count":192,
			"max":[
				0.20000000298023224,
				0.05000000074505806,
				0.20000000298023224
			],
			"min":[
				-0.20000000298023224,
				-0.05000000074505806,
				-0.20000000298023224
			],
			"type":"VEC3"
		},
		{
			"bufferView":37,
			"componentType":5126,
			"count":192,
			"type":"VEC3"
		},
		{
			"bufferView":38,
			"componentType":5126,
			"count":192,
			"type":"VEC2"
		},
		{
			"bufferView":39,
			"componentType":5126,
			"count":36,
			"max":[
				1.3073914051055908,
				1,
				1
			],
			"min":[
				-1.3073914051055908,
				-1,
				-1
			],
			"type":"VEC3"
		},
		{
			"bufferView":40,
			"componentType":5126,
			"count":36,
			"type":"VEC3"
		},
		{
			"bufferView":41,
			"componentType":5126,
			"count":36,
			"type":"VEC2"
		},
		{
			"bufferView":42,
			"componentType":5126,
			"count":36,
			"max":[
				1.3073914051055908,
				1,
				1
			],
			"min":[
				-1.3073914051055908,
				-1,
				-1
			],
			"type":"VEC3"
		},
		{
			"bufferView":43,
			"componentType":5126,
			"count":36,
			"type":"VEC3"
		},
		{
			"bufferView":44,
			"componentType":5126,
			"count":36,
			"type":"VEC2"
		}
	],
	"bufferViews":[
		{
			"buffer":0,
			"byteLength":432,
			"byteOffset":0,
			"target":34962
		},
		{
			"buffer":0,
			"byteLength":432,
			"byteOffset":432,
			"target":34962
		},
		{
			"buffer":0,
			"byteLength":288,
			"byteOffset":864,
			"target":34962
		},
		{
			"buffer":0,
			"byteLength":120,
			"byteOffset":1152,
			"target":34963
		},
		{
			"buffer":0,
			"byteLength":432,
			"byteOffset":1272,
			"target":34962
		},
		{
			"buffer":0,
			"byteLength":432,
			"byteOffset":1704,
			"target":34962
		},
		{
			"buffer":0,
			"byteLength":288,
			"byteOffset":2136,
			"target":34962
		},
		{
			"buffer":0,
			"byteLength":480,
			"byteOffset":2424,
			"target":34962
		},
		{
			"buffer":0,
			"byteLength":480,
			"byteOffset":2904,
			"target":34962
		},
		{
			"buffer":0,
			"byteLength":320,
			"byteOffset":3384,
			"target":34962
		},
		{
			"buffer":0,
			"byteLength":120,
			"byteOffset":3704,
			"target":34963
		},
		{
			"buffer":0,
			"byteLength":480,
			"byteOffset":3824,
			"target":34962
		},
		{
			"buffer":0,
			"byteLength":480,
			"byteOffset":4304,
			"target":34962
		},
		{
			"buffer":0,
			"byteLength":320,
			"byteOffset":4784,
			"target":34962
		},
		{
			"buffer":0,
			"byteLength":2304,
			"byteOffset":5104,
			"target":34962
		},
		{
			"buffer":0,
			"byteLength":2304,
			"byteOffset":7408,
			"target":34962
		},
		{
			"buffer":0,
			"byteLength":1536,
			"byteOffset":9712,
			"target":34962
		},
		{
			"buffer":0,
			"byteLength":744,
			"byteOffset":11248,
			"target":34963
		},
		{
			"buffer":0,
			"byteLength":2304,
			"byteOffset":11992,
			"target":34962
		},
		{
			"buffer":0,
			"byteLength":2304,
			"byteOffset":14296,
			"target":34962
		},
		{
			"buffer":0,
			"byteLength":1536,
			"byteOffset":16600,
			"target":34962
		},
		{
			"buffer":0,
			"byteLength":2304,
			"byteOffset":18136,
			"target":34962
		},
		{
			"buffer":0,
			"byteLength":2304,
			"byteOffset":20440,
			"target":34962
		},
		{
			"buffer":0,
			"byteLength":1536,
			"byteOffset":22744,
			"target":34962
		},
		{
			"buffer":0,
			"byteLength":480,
			"byteOffset":24280,
			"target":34962
		},
		{
			"buffer":0,
			"byteLength":480,
			"byteOffset":24760,
			"target":34962
		},
		{
			"buffer":0,
			"byteLength":320,
			"byteOffset":25240,
			"target":34962
		},
		{
			"buffer":0,
			"byteLength":2304,
			"byteOffset":25560,
			"target":34962
		},
		{
			"buffer":0,
			"byteLength":2304,
			"byteOffset":27864,
			"target":34962
		},
		{
			"buffer":0,
			"byteLength":1536,
			"byteOffset":30168,
			"target":34962
		},
		{
			"buffer":0,
			"byteLength":2304,
			"byteOffset":31704,
			"target":34962
		},
		{
			"buffer":0,
			"byteLength":2304,
			"byteOffset":34008,
			"target":34962
		},
		{
			"buffer":0,
			"byteLength":1536,
			"byteOffset":36312,
			"target":34962
		},
		{
			"buffer":0,
			"byteLength":2304,
			"byteOffset":37848,
			"target":34962
		},
		{
			"buffer":0,
			"byteLength":2304,
			"byteOffset":40152,
			"target":34962
		},
		{
			"buffer":0,
			"byteLength":1536,
			"byteOffset":42456,
			"target":34962
		},
		{
			"buffer":0,
			"byteLength":2304,
			"byteOffset":43992,
			"target":34962
		},
		{
			"buffer":0,
			"byteLength":2304,
			"byteOffset":46296,
			"target":34962
		},
		{
			"buffer":0,
			"byteLength":1536,
			"byteOffset":48600,
			"target":34962
		},
		{
			"buffer":0,
			"byteLength":432,
			"byteOffset":50136,
			"target":34962
		},
		{
			"buffer":0,
			"byteLength":432,
			"byteOffset":50568,
			"target":34962
		},
		{
			"buffer":0,
			"byteLength":288,
			"byteOffset":51000,
			"target":34962
		},
		{
			"buffer":0,
			"byteLength":432,
			"byteOffset":51288,
			"target":34962
		},
		{
			"buffer":0,
			"byteLength":432,
			"byteOffset":51720,
			"target":34962
		},
		{
			"buffer":0,
			"byteLength":288,
			"byteOffset":52152,
			"target":34962
		}
	],
	"buffers":[
		{
			"byteLength":52440,
			"uri":"doonTank.bin"
		}
	]
}
