{
	"asset":{
		"generator":"Khronos glTF Blender I/O v5.1.20",
		"version":"2.0"
	},
	"scene":0,
	"scenes":[
		{
			"name":"Scene",
			"nodes":[
				0,
				1,
				2,
				3,
				4,
				5,
				6,
				7,
				8,
				9,
				10,
				11
			]
		}
	],
	"nodes":[
		{
			"mesh":0,
			"name":"Cone.008",
			"scale":[
				0.9286606311798096,
				0.3379526436328888,
				0.9286606311798096
			],
			"translation":[
				-0.683936595916748,
				1.1272337436676025,
				-0.5550967454910278
			]
		},
		{
			"mesh":1,
			"name":"Cone.009",
			"scale":[
				0.4000954329967499,
				0.145600363612175,
				0.4000954329967499
			],
			"translation":[
				-0.683936595916748,
				1.3396226167678833,
				-0.5550967454910278
			]
		},
		{
			"mesh":2,
			"name":"Cone.010",
			"scale":[
				0.6462459564208984,
				0.23517799377441406,
				0.6462459564208984
			],
			"translation":[
				0,
				1.67790949344635,
				0
			]
		},
		{
			"mesh":3,
			"name":"Cone.011",
			"scale":[
				1.5,
				0.5458710789680481,
				1.5
			],
			"translation":[
				0,
				1.3348525762557983,
				0
			]
		},
		{
			"mesh":4,
			"name":"Cone.012",
			"scale":[
				0.9286606311798096,
				0.3379526436328888,
				0.9286606311798096
			],
			"translation":[
				0.22575224936008453,
				1.1272337436676025,
				0.8130390644073486
			]
		},
		{
			"mesh":5,
			"name":"Cone.013",
			"scale":[
				0.4000954329967499,
				0.145600363612175,
				0.4000954329967499
			],
			"translation":[
				0.22575224936008453,
				1.3396226167678833,
				0.8130390644073486
			]
		},
		{
			"mesh":6,
			"name":"Cone.014",
			"scale":[
				0.2034485936164856,
				0.0740378126502037,
				0.2034485936164856
			],
			"translation":[
				-0.9461061954498291,
				1.0663087368011475,
				0.8130390644073486
			]
		},
		{
			"mesh":7,
			"name":"Cone.015",
			"scale":[
				0.47222405672073364,
				0.17184896767139435,
				0.47222405672073364
			],
			"translation":[
				-0.9461061954498291,
				0.9583089351654053,
				0.8130390644073486
			]
		},
		{
			"mesh":8,
			"name":"Cone.016",
			"scale":[
				0.7034604549407959,
				0.2559991180896759,
				0.7034604549407959
			],
			"translation":[
				-0.5023040175437927,
				1.0474578142166138,
				0.9678152799606323
			]
		},
		{
			"mesh":9,
			"name":"Cone.017",
			"scale":[
				0.30307233333587646,
				0.11029230058193207,
				0.30307233333587646
			],
			"translation":[
				-0.5023040175437927,
				1.208342432975769,
				0.9678152799606323
			]
		},
		{
			"mesh":10,
			"name":"Cone.001",
			"scale":[
				0.47222405672073364,
				0.17184896767139435,
				0.47222405672073364
			],
			"translation":[
				0.7579054832458496,
				0.9583089351654053,
				-0.14323759078979492
			]
		},
		{
			"mesh":11,
			"name":"Cone.002",
			"scale":[
				0.2034485936164856,
				0.0740378126502037,
				0.2034485936164856
			],
			"translation":[
				0.7579054832458496,
				1.0663087368011475,
				-0.14323759078979492
			]
		}
	],
	"materials":[
		{
			"doubleSided":true,
			"name":"Material.001",
			"pbrMetallicRoughness":{
				"baseColorFactor":[
					0.2917707562446594,
					0.2917707562446594,
					0.2917707562446594,
					1
				],
				"metallicFactor":0,
				"roughnessFactor":0.5
			}
		},
		{
			"doubleSided":true,
			"name":"Material.004",
			"pbrMetallicRoughness":{
				"metallicFactor":0.4968152940273285,
				"roughnessFactor":0
			}
		},
		{
			"doubleSided":true,
			"name":"Material.002",
			"pbrMetallicRoughness":{
				"baseColorFactor":[
					0.2917707562446594,
					0.2917707562446594,
					0.2917707562446594,
					1
				],
				"metallicFactor":0,
				"roughnessFactor":0.5
			}
		},
		{
			"doubleSided":true,
			"name":"Material.005",
			"pbrMetallicRoughness":{
				"baseColorFactor":[
					0.2917707562446594,
					0.2917707562446594,
					0.2917707562446594,
					1
				],
				"metallicFactor":0,
				"roughnessFactor":0.5
			}
		},
		{
			"doubleSided":true,
			"name":"Material.006",
			"pbrMetallicRoughness":{
				"metallicFactor":0.4968152940273285,
				"roughnessFactor":0
			}
		}
	],
	"meshes":[
		{
			"name":"Cone.008",
			"primitives":[
				{
					"attributes":{
						"POSITION":0,
						"NORMAL":1,
						"TEXCOORD_0":2
					},
					"indices":3,
					"material":0
				}
			]
		},
		{
			"name":"Cone.009",
			"primitives":[
				{
					"attributes":{
						"POSITION":4,
						"NORMAL":5,
						"TEXCOORD_0":6
					},
					"indices":3,
					"material":1
				}
			]
		},
		{
			"name":"Cone.010",
			"primitives":[
				{
					"attributes":{
						"POSITION":7,
						"NORMAL":8,
						"TEXCOORD_0":9
					},
					"indices":3,
					"material":1
				}
			]
		},
		{
			"name":"Cone.011",
			"primitives":[
				{
					"attributes":{
						"POSITION":10,
						"NORMAL":11,
						"TEXCOORD_0":12
					},
					"indices":3,
					"material":0
				}
			]
		},
		{
			"name":"Cone.012",
			"primitives":[
				{
					"attributes":{
						"POSITION":13,
						"NORMAL":14,
						"TEXCOORD_0":15
					},
					"indices":3,
					"material":0
				}
			]
		},
		{
			"name":"Cone.013",
			"primitives":[
				{
					"attributes":{
						"POSITION":16,
						"NORMAL":17,
						"TEXCOORD_0":18
					},
					"indices":3,
					"material":1
				}
			]
		},
		{
			"name":"Cone.014",
			"primitives":[
				{
					"attributes":{
						"POSITION":19,
						"NORMAL":20,
						"TEXCOORD_0":21
					},
					"indices":3,
					"material":1
				}
			]
		},
		{
			"name":"Cone.015",
			"primitives":[
				{
					"attributes":{
						"POSITION":22,
						"NORMAL":23,
						"TEXCOORD_0":24
					},
					"indices":3,
					"material":0
				}
			]
		},
		{
			"name":"Cone.016",
			"primitives":[
				{
					"attributes":{
						"POSITION":25,
						"NORMAL":26,
						"TEXCOORD_0":27
					},
					"indices":3,
					"material":2
				}
			]
		},
		{
			"name":"Cone.017",
			"primitives":[
				{
					"attributes":{
						"POSITION":28,
						"NORMAL":29,
						"TEXCOORD_0":30
					},
					"indices":3,
					"material":1
				}
			]
		},
		{
			"name":"Cone.018",
			"primitives":[
				{
					"attributes":{
						"POSITION":31,
						"NORMAL":32,
						"TEXCOORD_0":33
					},
					"indices":3,
					"material":3
				}
			]
		},
		{
			"name":"Cone.019",
			"primitives":[
				{
					"attributes":{
						"POSITION":34,
						"NORMAL":35,
						"TEXCOORD_0":36
					},
					"indices":3,
					"material":4
				}
			]
		}
	],
	"accessors":[
		{
			"bufferView":0,
			"componentType":5126,
			"count":12,
			"max":[
				0.8660253882408142,
				1,
				0.5
			],
			"min":[
				-0.8660253882408142,
				-1,
				-1
			],
			"type":"VEC3"
		},
		{
			"bufferView":1,
			"componentType":5126,
			"count":12,
			"type":"VEC3"
		},
		{
			"bufferView":2,
			"componentType":5126,
			"count":12,
			"type":"VEC2"
		},
		{
			"bufferView":3,
			"componentType":5123,
			"count":12,
			"type":"SCALAR"
		},
		{
			"bufferView":4,
			"componentType":5126,
			"count":12,
			"max":[
				0.8660253882408142,
				1,
				0.5
			],
			"min":[
				-0.8660253882408142,
				-1,
				-1
			],
			"type":"VEC3"
		},
		{
			"bufferView":5,
			"componentType":5126,
			"count":12,
			"type":"VEC3"
		},
		{
			"bufferView":6,
			"componentType":5126,
			"count":12,
			"type":"VEC2"
		},
		{
			"bufferView":7,
			"componentType":5126,
			"count":12,
			"max":[
				0.8660253882408142,
				1,
				0.5
			],
			"min":[
				-0.8660253882408142,
				-1,
				-1
			],
			"type":"VEC3"
		},
		{
			"bufferView":8,
			"componentType":5126,
			"count":12,
			"type":"VEC3"
		},
		{
			"bufferView":9,
			"componentType":5126,
			"count":12,
			"type":"VEC2"
		},
		{
			"bufferView":10,
			"componentType":5126,
			"count":12,
			"max":[
				0.8660253882408142,
				1,
				0.5
			],
			"min":[
				-0.8660253882408142,
				-1,
				-1
			],
			"type":"VEC3"
		},
		{
			"bufferView":11,
			"componentType":5126,
			"count":12,
			"type":"VEC3"
		},
		{
			"bufferView":12,
			"componentType":5126,
			"count":12,
			"type":"VEC2"
		},
		{
			"bufferView":13,
			"componentType":5126,
			"count":12,
			"max":[
				0.8660253882408142,
				1,
				0.5
			],
			"min":[
				-0.8660253882408142,
				-1,
				-1
			],
			"type":"VEC3"
		},
		{
			"bufferView":14,
			"componentType":5126,
			"count":12,
			"type":"VEC3"
		},
		{
			"bufferView":15,
			"componentType":5126,
			"count":12,
			"type":"VEC2"
		},
		{
			"bufferView":16,
			"componentType":5126,
			"count":12,
			"max":[
				0.8660253882408142,
				1,
				0.5
			],
			"min":[
				-0.8660253882408142,
				-1,
				-1
			],
			"type":"VEC3"
		},
		{
			"bufferView":17,
			"componentType":5126,
			"count":12,
			"type":"VEC3"
		},
		{
			"bufferView":18,
			"componentType":5126,
			"count":12,
			"type":"VEC2"
		},
		{
			"bufferView":19,
			"componentType":5126,
			"count":12,
			"max":[
				0.8660253882408142,
				1,
				0.5
			],
			"min":[
				-0.8660253882408142,
				-1,
				-1
			],
			"type":"VEC3"
		},
		{
			"bufferView":20,
			"componentType":5126,
			"count":12,
			"type":"VEC3"
		},
		{
			"bufferView":21,
			"componentType":5126,
			"count":12,
			"type":"VEC2"
		},
		{
			"bufferView":22,
			"componentType":5126,
			"count":12,
			"max":[
				0.8660253882408142,
				1,
				0.5
			],
			"min":[
				-0.8660253882408142,
				-1,
				-1
			],
			"type":"VEC3"
		},
		{
			"bufferView":23,
			"componentType":5126,
			"count":12,
			"type":"VEC3"
		},
		{
			"bufferView":24,
			"componentType":5126,
			"count":12,
			"type":"VEC2"
		},
		{
			"bufferView":25,
			"componentType":5126,
			"count":12,
			"max":[
				0.8660253882408142,
				1,
				0.5
			],
			"min":[
				-0.8660253882408142,
				-1,
				-1
			],
			"type":"VEC3"
		},
		{
			"bufferView":26,
			"componentType":5126,
			"count":12,
			"type":"VEC3"
		},
		{
			"bufferView":27,
			"componentType":5126,
			"count":12,
			"type":"VEC2"
		},
		{
			"bufferView":28,
			"componentType":5126,
			"count":12,
			"max":[
				0.8660253882408142,
				1,
				0.5
			],
			"min":[
				-0.8660253882408142,
				-1,
				-1
			],
			"type":"VEC3"
		},
		{
			"bufferView":29,
			"componentType":5126,
			"count":12,
			"type":"VEC3"
		},
		{
			"bufferView":30,
			"componentType":5126,
			"count":12,
			"type":"VEC2"
		},
		{
			"bufferView":31,
			"componentType":5126,
			"count":12,
			"max":[
				0.8660253882408142,
				1,
				0.5
			],
			"min":[
				-0.8660253882408142,
				-1,
				-1
			],
			"type":"VEC3"
		},
		{
			"bufferView":32,
			"componentType":5126,
			"count":12,
			"type":"VEC3"
		},
		{
			"bufferView":33,
			"componentType":5126,
			"count":12,
			"type":"VEC2"
		},
		{
			"bufferView":34,
			"componentType":5126,
			"count":12,
			"max":[
				0.8660253882408142,
				1,
				0.5
			],
			"min":[
				-0.8660253882408142,
				-1,
				-1
			],
			"type":"VEC3"
		},
		{
			"bufferView":35,
			"componentType":5126,
			"count":12,
			"type":"VEC3"
		},
		{
			"bufferView":36,
			"componentType":5126,
			"count":12,
			"type":"VEC2"
		}
	],
	"bufferViews":[
		{
			"buffer":0,
			"byteLength":144,
			"byteOffset":0,
			"target":34962
		},
		{
			"buffer":0,
			"byteLength":144,
			"byteOffset":144,
			"target":34962
		},
		{
			"buffer":0,
			"byteLength":96,
			"byteOffset":288,
			"target":34962
		},
		{
			"buffer":0,
			"byteLength":24,
			"byteOffset":384,
			"target":34963
		},
		{
			"buffer":0,
			"byteLength":144,
			"byteOffset":408,
			"target":34962
		},
		{
			"buffer":0,
			"byteLength":144,
			"byteOffset":552,
			"target":34962
		},
		{
			"buffer":0,
			"byteLength":96,
			"byteOffset":696,
			"target":34962
		},
		{
			"buffer":0,
			"byteLength":144,
			"byteOffset":792,
			"target":34962
		},
		{
			"buffer":0,
			"byteLength":144,
			"byteOffset":936,
			"target":34962
		},
		{
			"buffer":0,
			"byteLength":96,
			"byteOffset":1080,
			"target":34962
		},
		{
			"buffer":0,
			"byteLength":144,
			"byteOffset":1176,
			"target":34962
		},
		{
			"buffer":0,
			"byteLength":144,
			"byteOffset":1320,
			"target":34962
		},
		{
			"buffer":0,
			"byteLength":96,
			"byteOffset":1464,
			"target":34962
		},
		{
			"buffer":0,
			"byteLength":144,
			"byteOffset":1560,
			"target":34962
		},
		{
			"buffer":0,
			"byteLength":144,
			"byteOffset":1704,
			"target":34962
		},
		{
			"buffer":0,
			"byteLength":96,
			"byteOffset":1848,
			"target":34962
		},
		{
			"buffer":0,
			"byteLength":144,
			"byteOffset":1944,
			"target":34962
		},
		{
			"buffer":0,
			"byteLength":144,
			"byteOffset":2088,
			"target":34962
		},
		{
			"buffer":0,
			"byteLength":96,
			"byteOffset":2232,
			"target":34962
		},
		{
			"buffer":0,
			"byteLength":144,
			"byteOffset":2328,
			"target":34962
		},
		{
			"buffer":0,
			"byteLength":144,
			"byteOffset":2472,
			"target":34962
		},
		{
			"buffer":0,
			"byteLength":96,
			"byteOffset":2616,
			"target":34962
		},
		{
			"buffer":0,
			"byteLength":144,
			"byteOffset":2712,
			"target":34962
		},
		{
			"buffer":0,
			"byteLength":144,
			"byteOffset":2856,
			"target":34962
		},
		{
			"buffer":0,
			"byteLength":96,
			"byteOffset":3000,
			"target":34962
		},
		{
			"buffer":0,
			"byteLength":144,
			"byteOffset":3096,
			"target":34962
		},
		{
			"buffer":0,
			"byteLength":144,
			"byteOffset":3240,
			"target":34962
		},
		{
			"buffer":0,
			"byteLength":96,
			"byteOffset":3384,
			"target":34962
		},
		{
			"buffer":0,
			"byteLength":144,
			"byteOffset":3480,
			"target":34962
		},
		{
			"buffer":0,
			"byteLength":144,
			"byteOffset":3624,
			"target":34962
		},
		{
			"buffer":0,
			"byteLength":96,
			"byteOffset":3768,
			"target":34962
		},
		{
			"buffer":0,
			"byteLength":144,
			"byteOffset":3864,
			"target":34962
		},
		{
			"buffer":0,
			"byteLength":144,
			"byteOffset":4008,
			"target":34962
		},
		{
			"buffer":0,
			"byteLength":96,
			"byteOffset":4152,
			"target":34962
		},
		{
			"buffer":0,
			"byteLength":144,
			"byteOffset":4248,
			"target":34962
		},
		{
			"buffer":0,
			"byteLength":144,
			"byteOffset":4392,
			"target":34962
		},
		{
			"buffer":0,
			"byteLength":96,
			"byteOffset":4536,
			"target":34962
		}
	],
	"buffers":[
		{
			"byteLength":4632,
			"uri":"mountain.bin"
		}
	]
}
