{
	"asset":{
		"generator":"Khronos glTF Blender I/O v5.1.20",
		"version":"2.0"
	},
	"scene":0,
	"scenes":[
		{
			"name":"Scene",
			"nodes":[
				0,
				1,
				2,
				3,
				4,
				5,
				6,
				7,
				8,
				9,
				10,
				11,
				12,
				13,
				14,
				15
			]
		}
	],
	"nodes":[
		{
			"mesh":0,
			"name":"Cube",
			"scale":[
				0.45754358172416687,
				0.23642748594284058,
				0.45754358172416687
			],
			"translation":[
				0,
				0.4713171124458313,
				0
			]
		},
		{
			"mesh":1,
			"name":"Cube.001",
			"scale":[
				0.45754358172416687,
				0.23642748594284058,
				0.45754358172416687
			]
		},
		{
			"mesh":2,
			"name":"Cube.002",
			"scale":[
				0.4371277987957001,
				0.23642748594284058,
				0.4367424547672272
			],
			"translation":[
				0,
				0.9397412538528442,
				0
			]
		},
		{
			"mesh":3,
			"name":"Cube.003",
			"scale":[
				0.4575435519218445,
				0.11302639544010162,
				0.4575435519218445
			],
			"translation":[
				0,
				1.2784751653671265,
				0
			]
		},
		{
			"mesh":4,
			"name":"Cube.007",
			"scale":[
				0.06307212263345718,
				0.06340456008911133,
				0.07223092019557953
			],
			"translation":[
				-0.5180528163909912,
				0.5460256338119507,
				-0.10797487199306488
			]
		},
		{
			"mesh":5,
			"name":"Cube.008",
			"scale":[
				0.06307212263345718,
				0.06340456008911133,
				0.07223092019557953
			],
			"translation":[
				0.5136504769325256,
				0.5460256338119507,
				-0.10797487199306488
			]
		},
		{
			"mesh":6,
			"name":"Cube.004",
			"rotation":[
				-0.08424237370491028,
				0.03601595759391785,
				-0.02199133113026619,
				0.995551347732544
			],
			"scale":[
				0.020000003278255463,
				0.1405419558286667,
				0.050000011920928955
			],
			"translation":[
				-0.4741457402706146,
				0.653076171875,
				-0.30759701132774353
			]
		},
		{
			"mesh":7,
			"name":"Cube.005",
			"rotation":[
				-0.08424237370491028,
				0.03601595759391785,
				-0.02199132926762104,
				0.995551347732544
			],
			"scale":[
				0.020000003278255463,
				0.056216780096292496,
				0.037500008940696716
			],
			"translation":[
				-0.4617351293563843,
				0.8356581330299377,
				-0.2596053183078766
			]
		},
		{
			"mesh":8,
			"name":"Cube.006",
			"rotation":[
				-0.08424237370491028,
				0.03601595759391785,
				-0.02199132926762104,
				0.995551347732544
			],
			"scale":[
				0.020000003278255463,
				0.056216780096292496,
				0.037500008940696716
			],
			"translation":[
				-0.4737076461315155,
				0.8092814683914185,
				-0.4156914949417114
			]
		},
		{
			"mesh":9,
			"name":"Cube.009",
			"rotation":[
				-0.08424237370491028,
				0.03601595759391785,
				-0.02199132926762104,
				0.995551347732544
			],
			"scale":[
				0.020000003278255463,
				0.056216780096292496,
				0.037500008940696716
			],
			"translation":[
				-0.4870142638683319,
				0.4618455767631531,
				-0.35595831274986267
			]
		},
		{
			"mesh":10,
			"name":"Cube.010",
			"rotation":[
				-0.08424237370491028,
				0.03601595759391785,
				-0.02199132926762104,
				0.995551347732544
			],
			"scale":[
				0.020000003278255463,
				0.056216780096292496,
				0.037500008940696716
			],
			"translation":[
				-0.4750627875328064,
				0.48767346143722534,
				-0.199777752161026
			]
		},
		{
			"mesh":11,
			"name":"Cube.011",
			"rotation":[
				0,
				0,
				0.06018582358956337,
				0.9981871843338013
			],
			"scale":[
				0.07500000298023224,
				0.10000000149011612,
				0.20000000298023224
			],
			"translation":[
				0.5928087830543518,
				0.3192974030971527,
				-0.09130340069532394
			]
		},
		{
			"mesh":12,
			"name":"Cube.012",
			"rotation":[
				0,
				0,
				0.06018581986427307,
				0.9981871843338013
			],
			"scale":[
				0.009999999776482582,
				0.05000000074505806,
				0.009999999776482582
			],
			"translation":[
				0.5785494446754456,
				0.4668886661529541,
				-0.01745639741420746
			]
		},
		{
			"mesh":13,
			"name":"Cube.013",
			"rotation":[
				0,
				0,
				0.06018581986427307,
				0.9981871843338013
			],
			"scale":[
				0.009999999776482582,
				0.05000000074505806,
				0.009999999776482582
			],
			"translation":[
				0.5785494446754456,
				0.4668886661529541,
				-0.17198437452316284
			]
		},
		{
			"mesh":14,
			"name":"Cube.014",
			"rotation":[
				0.7058249711990356,
				0.04255780577659607,
				0.04255780205130577,
				0.7058249115943909
			],
			"scale":[
				0.009999999776482582,
				0.07864443212747574,
				0.009999999776482582
			],
			"translation":[
				0.5737514495849609,
				0.5065313577651978,
				-0.09200379252433777
			]
		},
		{
			"mesh":15,
			"name":"Cube.015",
			"rotation":[
				0,
				0,
				0.06018581986427307,
				0.9981871843338013
			],
			"scale":[
				0.004999999888241291,
				0.004999999888241291,
				0.1979999989271164
			],
			"translation":[
				0.6674626469612122,
				0.328332781791687,
				-0.09130340069532394
			]
		}
	],
	"materials":[
		{
			"doubleSided":true,
			"name":"Material.027",
			"pbrMetallicRoughness":{
				"baseColorFactor":[
					0.14108625054359436,
					0.1370835155248642,
					0.34270864725112915,
					1
				],
				"metallicFactor":0,
				"roughnessFactor":0.30000001192092896
			}
		},
		{
			"doubleSided":true,
			"name":"Material.028",
			"pbrMetallicRoughness":{
				"baseColorFactor":[
					0.40725743770599365,
					0.5027452707290649,
					0.7991102933883667,
					1
				],
				"metallicFactor":0,
				"roughnessFactor":0.30000001192092896
			}
		},
		{
			"doubleSided":true,
			"name":"Material.029",
			"pbrMetallicRoughness":{
				"baseColorFactor":[
					0.800054669380188,
					0.4354797601699829,
					0.3078033924102783,
					1
				],
				"metallicFactor":0,
				"roughnessFactor":0.30000001192092896
			}
		},
		{
			"doubleSided":true,
			"name":"Material.033",
			"pbrMetallicRoughness":{
				"baseColorFactor":[
					0.800054669380188,
					0.4354797601699829,
					0.3078033924102783,
					1
				],
				"metallicFactor":0,
				"roughnessFactor":0.30000001192092896
			}
		},
		{
			"doubleSided":true,
			"name":"Material.034",
			"pbrMetallicRoughness":{
				"baseColorFactor":[
					0.800054669380188,
					0.4354797601699829,
					0.3078033924102783,
					1
				],
				"metallicFactor":0,
				"roughnessFactor":0.30000001192092896
			}
		},
		{
			"doubleSided":true,
			"name":"Material.041",
			"pbrMetallicRoughness":{
				"metallicFactor":0,
				"roughnessFactor":0.5
			}
		},
		{
			"doubleSided":true,
			"name":"Material.046",
			"pbrMetallicRoughness":{
				"baseColorFactor":[
					0.8000074625015259,
					0.07191617041826248,
					0.08908946067094803,
					1
				],
				"metallicFactor":0,
				"roughnessFactor":0.5
			}
		},
		{
			"doubleSided":true,
			"name":"Material.047",
			"pbrMetallicRoughness":{
				"baseColorFactor":[
					0.8000074625015259,
					0.07191617041826248,
					0.08908946067094803,
					1
				],
				"metallicFactor":0,
				"roughnessFactor":0.5
			}
		},
		{
			"doubleSided":true,
			"name":"Material.048",
			"pbrMetallicRoughness":{
				"baseColorFactor":[
					0.8000074625015259,
					0.07191617041826248,
					0.08908946067094803,
					1
				],
				"metallicFactor":0,
				"roughnessFactor":0.5
			}
		},
		{
			"doubleSided":true,
			"name":"Material.049",
			"pbrMetallicRoughness":{
				"baseColorFactor":[
					0.8000074625015259,
					0.07191617041826248,
					0.08908946067094803,
					1
				],
				"metallicFactor":0,
				"roughnessFactor":0.5
			}
		},
		{
			"doubleSided":true,
			"name":"Material.040",
			"pbrMetallicRoughness":{
				"baseColorFactor":[
					0.06847819685935974,
					0.06662597507238388,
					0.06662597507238388,
					1
				],
				"metallicFactor":0,
				"roughnessFactor":0.30000001192092896
			}
		}
	],
	"meshes":[
		{
			"name":"Cube.028",
			"primitives":[
				{
					"attributes":{
						"POSITION":0,
						"NORMAL":1,
						"TEXCOORD_0":2
					},
					"indices":3,
					"material":0
				}
			]
		},
		{
			"name":"Cube.029",
			"primitives":[
				{
					"attributes":{
						"POSITION":4,
						"NORMAL":5,
						"TEXCOORD_0":6
					},
					"indices":3,
					"material":1
				}
			]
		},
		{
			"name":"Cube.030",
			"primitives":[
				{
					"attributes":{
						"POSITION":7,
						"NORMAL":8,
						"TEXCOORD_0":9
					},
					"indices":3,
					"material":2
				}
			]
		},
		{
			"name":"Cube.031",
			"primitives":[
				{
					"attributes":{
						"POSITION":10,
						"NORMAL":11,
						"TEXCOORD_0":12
					},
					"indices":3,
					"material":0
				}
			]
		},
		{
			"name":"Cube.035",
			"primitives":[
				{
					"attributes":{
						"POSITION":13,
						"NORMAL":14,
						"TEXCOORD_0":15
					},
					"indices":3,
					"material":3
				}
			]
		},
		{
			"name":"Cube.036",
			"primitives":[
				{
					"attributes":{
						"POSITION":16,
						"NORMAL":17,
						"TEXCOORD_0":18
					},
					"indices":3,
					"material":4
				}
			]
		},
		{
			"name":"Cube.042",
			"primitives":[
				{
					"attributes":{
						"POSITION":19,
						"NORMAL":20,
						"TEXCOORD_0":21
					},
					"indices":22,
					"material":5
				}
			]
		},
		{
			"name":"Cube.043",
			"primitives":[
				{
					"attributes":{
						"POSITION":23,
						"NORMAL":24,
						"TEXCOORD_0":25
					},
					"indices":22,
					"material":5
				}
			]
		},
		{
			"name":"Cube.044",
			"primitives":[
				{
					"attributes":{
						"POSITION":26,
						"NORMAL":27,
						"TEXCOORD_0":28
					},
					"indices":22,
					"material":5
				}
			]
		},
		{
			"name":"Cube.045",
			"primitives":[
				{
					"attributes":{
						"POSITION":29,
						"NORMAL":30,
						"TEXCOORD_0":31
					},
					"indices":22,
					"material":5
				}
			]
		},
		{
			"name":"Cube.046",
			"primitives":[
				{
					"attributes":{
						"POSITION":32,
						"NORMAL":33,
						"TEXCOORD_0":34
					},
					"indices":22,
					"material":5
				}
			]
		},
		{
			"name":"Cube.047",
			"primitives":[
				{
					"attributes":{
						"POSITION":35,
						"NORMAL":36,
						"TEXCOORD_0":37
					},
					"indices":22,
					"material":6
				}
			]
		},
		{
			"name":"Cube.048",
			"primitives":[
				{
					"attributes":{
						"POSITION":38,
						"NORMAL":39,
						"TEXCOORD_0":40
					},
					"indices":22,
					"material":7
				}
			]
		},
		{
			"name":"Cube.049",
			"primitives":[
				{
					"attributes":{
						"POSITION":41,
						"NORMAL":42,
						"TEXCOORD_0":43
					},
					"indices":22,
					"material":8
				}
			]
		},
		{
			"name":"Cube.050",
			"primitives":[
				{
					"attributes":{
						"POSITION":44,
						"NORMAL":45,
						"TEXCOORD_0":46
					},
					"indices":22,
					"material":9
				}
			]
		},
		{
			"name":"Cube.052",
			"primitives":[
				{
					"attributes":{
						"POSITION":47,
						"NORMAL":48,
						"TEXCOORD_0":49
					},
					"indices":22,
					"material":10
				}
			]
		}
	],
	"accessors":[
		{
			"bufferView":0,
			"componentType":5126,
			"count":24,
			"max":[
				1,
				1,
				1
			],
			"min":[
				-1,
				-1,
				-1
			],
			"type":"VEC3"
		},
		{
			"bufferView":1,
			"componentType":5126,
			"count":24,
			"type":"VEC3"
		},
		{
			"bufferView":2,
			"componentType":5126,
			"count":24,
			"type":"VEC2"
		},
		{
			"bufferView":3,
			"componentType":5123,
			"count":36,
			"type":"SCALAR"
		},
		{
			"bufferView":4,
			"componentType":5126,
			"count":24,
			"max":[
				1,
				1,
				1
			],
			"min":[
				-1,
				-1,
				-1
			],
			"type":"VEC3"
		},
		{
			"bufferView":5,
			"componentType":5126,
			"count":24,
			"type":"VEC3"
		},
		{
			"bufferView":6,
			"componentType":5126,
			"count":24,
			"type":"VEC2"
		},
		{
			"bufferView":7,
			"componentType":5126,
			"count":24,
			"max":[
				1,
				1,
				1
			],
			"min":[
				-1,
				-1,
				-1
			],
			"type":"VEC3"
		},
		{
			"bufferView":8,
			"componentType":5126,
			"count":24,
			"type":"VEC3"
		},
		{
			"bufferView":9,
			"componentType":5126,
			"count":24,
			"type":"VEC2"
		},
		{
			"bufferView":10,
			"componentType":5126,
			"count":24,
			"max":[
				1,
				1,
				1
			],
			"min":[
				-1,
				-1,
				-1
			],
			"type":"VEC3"
		},
		{
			"bufferView":11,
			"componentType":5126,
			"count":24,
			"type":"VEC3"
		},
		{
			"bufferView":12,
			"componentType":5126,
			"count":24,
			"type":"VEC2"
		},
		{
			"bufferView":13,
			"componentType":5126,
			"count":24,
			"max":[
				1,
				1,
				1
			],
			"min":[
				-1,
				-1,
				-1
			],
			"type":"VEC3"
		},
		{
			"bufferView":14,
			"componentType":5126,
			"count":24,
			"type":"VEC3"
		},
		{
			"bufferView":15,
			"componentType":5126,
			"count":24,
			"type":"VEC2"
		},
		{
			"bufferView":16,
			"componentType":5126,
			"count":24,
			"max":[
				1,
				1,
				1
			],
			"min":[
				-1,
				-1,
				-1
			],
			"type":"VEC3"
		},
		{
			"bufferView":17,
			"componentType":5126,
			"count":24,
			"type":"VEC3"
		},
		{
			"bufferView":18,
			"componentType":5126,
			"count":24,
			"type":"VEC2"
		},
		{
			"bufferView":19,
			"componentType":5126,
			"count":24,
			"max":[
				1,
				1,
				1
			],
			"min":[
				-1,
				-1,
				-1
			],
			"type":"VEC3"
		},
		{
			"bufferView":20,
			"componentType":5126,
			"count":24,
			"type":"VEC3"
		},
		{
			"bufferView":21,
			"componentType":5126,
			"count":24,
			"type":"VEC2"
		},
		{
			"bufferView":22,
			"componentType":5123,
			"count":36,
			"type":"SCALAR"
		},
		{
			"bufferView":23,
			"componentType":5126,
			"count":24,
			"max":[
				1,
				1,
				1
			],
			"min":[
				-1,
				-1,
				-1
			],
			"type":"VEC3"
		},
		{
			"bufferView":24,
			"componentType":5126,
			"count":24,
			"type":"VEC3"
		},
		{
			"bufferView":25,
			"componentType":5126,
			"count":24,
			"type":"VEC2"
		},
		{
			"bufferView":26,
			"componentType":5126,
			"count":24,
			"max":[
				1,
				1,
				1
			],
			"min":[
				-1,
				-1,
				-1
			],
			"type":"VEC3"
		},
		{
			"bufferView":27,
			"componentType":5126,
			"count":24,
			"type":"VEC3"
		},
		{
			"bufferView":28,
			"componentType":5126,
			"count":24,
			"type":"VEC2"
		},
		{
			"bufferView":29,
			"componentType":5126,
			"count":24,
			"max":[
				1,
				1,
				1
			],
			"min":[
				-1,
				-1,
				-1
			],
			"type":"VEC3"
		},
		{
			"bufferView":30,
			"componentType":5126,
			"count":24,
			"type":"VEC3"
		},
		{
			"bufferView":31,
			"componentType":5126,
			"count":24,
			"type":"VEC2"
		},
		{
			"bufferView":32,
			"componentType":5126,
			"count":24,
			"max":[
				1,
				1,
				1
			],
			"min":[
				-1,
				-1,
				-1
			],
			"type":"VEC3"
		},
		{
			"bufferView":33,
			"componentType":5126,
			"count":24,
			"type":"VEC3"
		},
		{
			"bufferView":34,
			"componentType":5126,
			"count":24,
			"type":"VEC2"
		},
		{
			"bufferView":35,
			"componentType":5126,
			"count":24,
			"max":[
				1,
				1,
				1
			],
			"min":[
				-1,
				-1,
				-1
			],
			"type":"VEC3"
		},
		{
			"bufferView":36,
			"componentType":5126,
			"count":24,
			"type":"VEC3"
		},
		{
			"bufferView":37,
			"componentType":5126,
			"count":24,
			"type":"VEC2"
		},
		{
			"bufferView":38,
			"componentType":5126,
			"count":24,
			"max":[
				1,
				1,
				1
			],
			"min":[
				-1,
				-1,
				-1
			],
			"type":"VEC3"
		},
		{
			"bufferView":39,
			"componentType":5126,
			"count":24,
			"type":"VEC3"
		},
		{
			"bufferView":40,
			"componentType":5126,
			"count":24,
			"type":"VEC2"
		},
		{
			"bufferView":41,
			"componentType":5126,
			"count":24,
			"max":[
				1,
				1,
				1
			],
			"min":[
				-1,
				-1,
				-1
			],
			"type":"VEC3"
		},
		{
			"bufferView":42,
			"componentType":5126,
			"count":24,
			"type":"VEC3"
		},
		{
			"bufferView":43,
			"componentType":5126,
			"count":24,
			"type":"VEC2"
		},
		{
			"bufferView":44,
			"componentType":5126,
			"count":24,
			"max":[
				1,
				1,
				1
			],
			"min":[
				-1,
				-1,
				-1
			],
			"type":"VEC3"
		},
		{
			"bufferView":45,
			"componentType":5126,
			"count":24,
			"type":"VEC3"
		},
		{
			"bufferView":46,
			"componentType":5126,
			"count":24,
			"type":"VEC2"
		},
		{
			"bufferView":47,
			"componentType":5126,
			"count":24,
			"max":[
				1,
				1,
				1
			],
			"min":[
				-1,
				-1,
				-1
			],
			"type":"VEC3"
		},
		{
			"bufferView":48,
			"componentType":5126,
			"count":24,
			"type":"VEC3"
		},
		{
			"bufferView":49,
			"componentType":5126,
			"count":24,
			"type":"VEC2"
		}
	],
	"bufferViews":[
		{
			"buffer":0,
			"byteLength":288,
			"byteOffset":0,
			"target":34962
		},
		{
			"buffer":0,
			"byteLength":288,
			"byteOffset":288,
			"target":34962
		},
		{
			"buffer":0,
			"byteLength":192,
			"byteOffset":576,
			"target":34962
		},
		{
			"buffer":0,
			"byteLength":72,
			"byteOffset":768,
			"target":34963
		},
		{
			"buffer":0,
			"byteLength":288,
			"byteOffset":840,
			"target":34962
		},
		{
			"buffer":0,
			"byteLength":288,
			"byteOffset":1128,
			"target":34962
		},
		{
			"buffer":0,
			"byteLength":192,
			"byteOffset":1416,
			"target":34962
		},
		{
			"buffer":0,
			"byteLength":288,
			"byteOffset":1608,
			"target":34962
		},
		{
			"buffer":0,
			"byteLength":288,
			"byteOffset":1896,
			"target":34962
		},
		{
			"buffer":0,
			"byteLength":192,
			"byteOffset":2184,
			"target":34962
		},
		{
			"buffer":0,
			"byteLength":288,
			"byteOffset":2376,
			"target":34962
		},
		{
			"buffer":0,
			"byteLength":288,
			"byteOffset":2664,
			"target":34962
		},
		{
			"buffer":0,
			"byteLength":192,
			"byteOffset":2952,
			"target":34962
		},
		{
			"buffer":0,
			"byteLength":288,
			"byteOffset":3144,
			"target":34962
		},
		{
			"buffer":0,
			"byteLength":288,
			"byteOffset":3432,
			"target":34962
		},
		{
			"buffer":0,
			"byteLength":192,
			"byteOffset":3720,
			"target":34962
		},
		{
			"buffer":0,
			"byteLength":288,
			"byteOffset":3912,
			"target":34962
		},
		{
			"buffer":0,
			"byteLength":288,
			"byteOffset":4200,
			"target":34962
		},
		{
			"buffer":0,
			"byteLength":192,
			"byteOffset":4488,
			"target":34962
		},
		{
			"buffer":0,
			"byteLength":288,
			"byteOffset":4680,
			"target":34962
		},
		{
			"buffer":0,
			"byteLength":288,
			"byteOffset":4968,
			"target":34962
		},
		{
			"buffer":0,
			"byteLength":192,
			"byteOffset":5256,
			"target":34962
		},
		{
			"buffer":0,
			"byteLength":72,
			"byteOffset":5448,
			"target":34963
		},
		{
			"buffer":0,
			"byteLength":288,
			"byteOffset":5520,
			"target":34962
		},
		{
			"buffer":0,
			"byteLength":288,
			"byteOffset":5808,
			"target":34962
		},
		{
			"buffer":0,
			"byteLength":192,
			"byteOffset":6096,
			"target":34962
		},
		{
			"buffer":0,
			"byteLength":288,
			"byteOffset":6288,
			"target":34962
		},
		{
			"buffer":0,
			"byteLength":288,
			"byteOffset":6576,
			"target":34962
		},
		{
			"buffer":0,
			"byteLength":192,
			"byteOffset":6864,
			"target":34962
		},
		{
			"buffer":0,
			"byteLength":288,
			"byteOffset":7056,
			"target":34962
		},
		{
			"buffer":0,
			"byteLength":288,
			"byteOffset":7344,
			"target":34962
		},
		{
			"buffer":0,
			"byteLength":192,
			"byteOffset":7632,
			"target":34962
		},
		{
			"buffer":0,
			"byteLength":288,
			"byteOffset":7824,
			"target":34962
		},
		{
			"buffer":0,
			"byteLength":288,
			"byteOffset":8112,
			"target":34962
		},
		{
			"buffer":0,
			"byteLength":192,
			"byteOffset":8400,
			"target":34962
		},
		{
			"buffer":0,
			"byteLength":288,
			"byteOffset":8592,
			"target":34962
		},
		{
			"buffer":0,
			"byteLength":288,
			"byteOffset":8880,
			"target":34962
		},
		{
			"buffer":0,
			"byteLength":192,
			"byteOffset":9168,
			"target":34962
		},
		{
			"buffer":0,
			"byteLength":288,
			"byteOffset":9360,
			"target":34962
		},
		{
			"buffer":0,
			"byteLength":288,
			"byteOffset":9648,
			"target":34962
		},
		{
			"buffer":0,
			"byteLength":192,
			"byteOffset":9936,
			"target":34962
		},
		{
			"buffer":0,
			"byteLength":288,
			"byteOffset":10128,
			"target":34962
		},
		{
			"buffer":0,
			"byteLength":288,
			"byteOffset":10416,
			"target":34962
		},
		{
			"buffer":0,
			"byteLength":192,
			"byteOffset":10704,
			"target":34962
		},
		{
			"buffer":0,
			"byteLength":288,
			"byteOffset":10896,
			"target":34962
		},
		{
			"buffer":0,
			"byteLength":288,
			"byteOffset":11184,
			"target":34962
		},
		{
			"buffer":0,
			"byteLength":192,
			"byteOffset":11472,
			"target":34962
		},
		{
			"buffer":0,
			"byteLength":288,
			"byteOffset":11664,
			"target":34962
		},
		{
			"buffer":0,
			"byteLength":288,
			"byteOffset":11952,
			"target":34962
		},
		{
			"buffer":0,
			"byteLength":192,
			"byteOffset":12240,
			"target":34962
		}
	],
	"buffers":[
		{
			"byteLength":12432,
			"uri":"doonEngineer.bin"
		}
	]
}
